G04 #@! TF.GenerationSoftware,KiCad,Pcbnew,6.0.9-8da3e8f707~116~ubuntu22.04.1*
G04 #@! TF.CreationDate,2022-11-08T11:41:20-05:00*
G04 #@! TF.ProjectId,clock_panel,636c6f63-6b5f-4706-916e-656c2e6b6963,rev?*
G04 #@! TF.SameCoordinates,Original*
G04 #@! TF.FileFunction,Legend,Top*
G04 #@! TF.FilePolarity,Positive*
%FSLAX46Y46*%
G04 Gerber Fmt 4.6, Leading zero omitted, Abs format (unit mm)*
G04 Created by KiCad (PCBNEW 6.0.9-8da3e8f707~116~ubuntu22.04.1) date 2022-11-08 11:41:20*
%MOMM*%
%LPD*%
G01*
G04 APERTURE LIST*
G04 APERTURE END LIST*
G04 #@! TO.C,GRAF2*
G36*
X41564014Y-73079755D02*
G01*
X41576063Y-73086042D01*
X41544119Y-73090031D01*
X41506807Y-73090773D01*
X41451816Y-73088790D01*
X41436720Y-73083719D01*
X41449600Y-73079755D01*
X41523689Y-73075548D01*
X41564014Y-73079755D01*
G37*
G36*
X40534284Y-73105597D02*
G01*
X40542197Y-73112967D01*
X40507041Y-73116979D01*
X40489790Y-73117225D01*
X40443533Y-73114574D01*
X40438081Y-73107974D01*
X40445295Y-73105597D01*
X40509780Y-73101643D01*
X40534284Y-73105597D01*
G37*
G36*
X39805121Y-73262663D02*
G01*
X39755888Y-73283025D01*
X39752453Y-73284374D01*
X39673966Y-73312722D01*
X39603859Y-73334322D01*
X39599900Y-73335346D01*
X39568092Y-73341437D01*
X39581349Y-73331312D01*
X39615421Y-73314927D01*
X39695325Y-73284076D01*
X39767973Y-73263955D01*
X39808527Y-73257125D01*
X39805121Y-73262663D01*
G37*
G36*
X29993757Y-142190613D02*
G01*
X30016394Y-142256669D01*
X30048237Y-142353352D01*
X30086447Y-142471666D01*
X30128182Y-142602611D01*
X30170603Y-142737192D01*
X30210869Y-142866410D01*
X30246140Y-142981268D01*
X30273575Y-143072768D01*
X30290333Y-143131913D01*
X30294194Y-143149414D01*
X30270376Y-143157277D01*
X30205339Y-143163773D01*
X30108708Y-143168274D01*
X29990112Y-143170151D01*
X29976376Y-143170171D01*
X29855979Y-143169007D01*
X29756508Y-143165829D01*
X29687590Y-143161108D01*
X29658853Y-143155313D01*
X29658559Y-143154643D01*
X29665959Y-143122794D01*
X29686274Y-143053401D01*
X29716672Y-142955101D01*
X29754325Y-142836528D01*
X29796400Y-142706319D01*
X29840069Y-142573110D01*
X29882501Y-142445536D01*
X29920865Y-142332232D01*
X29952331Y-142241836D01*
X29974070Y-142182982D01*
X29983168Y-142164183D01*
X29993757Y-142190613D01*
G37*
G36*
X43134034Y-81602503D02*
G01*
X43121321Y-81615216D01*
X43108609Y-81602503D01*
X43121321Y-81589790D01*
X43134034Y-81602503D01*
G37*
G36*
X36954877Y-75856357D02*
G01*
X36942218Y-75898140D01*
X36930230Y-75919920D01*
X36910084Y-75940271D01*
X36905584Y-75932633D01*
X36918243Y-75890849D01*
X36930230Y-75869069D01*
X36950377Y-75848718D01*
X36954877Y-75856357D01*
G37*
G36*
X32431355Y-191685824D02*
G01*
X32476691Y-191702721D01*
X32492621Y-191746391D01*
X32493494Y-191770871D01*
X32485648Y-191826750D01*
X32452760Y-191850287D01*
X32425284Y-191855028D01*
X32359926Y-191845390D01*
X32330924Y-191814045D01*
X32321204Y-191753478D01*
X32351167Y-191705616D01*
X32409668Y-191684689D01*
X32431355Y-191685824D01*
G37*
G36*
X36769621Y-78737375D02*
G01*
X36772652Y-78777112D01*
X36767614Y-78786107D01*
X36756057Y-78778525D01*
X36754260Y-78752736D01*
X36760469Y-78725607D01*
X36769621Y-78737375D01*
G37*
G36*
X45343821Y-75993313D02*
G01*
X45365731Y-76045617D01*
X45384184Y-76097898D01*
X45406414Y-76172007D01*
X45417537Y-76223974D01*
X45416904Y-76238919D01*
X45404167Y-76223058D01*
X45382445Y-76171019D01*
X45364207Y-76117875D01*
X45342506Y-76043517D01*
X45331271Y-75991656D01*
X45331487Y-75976855D01*
X45343821Y-75993313D01*
G37*
G36*
X36820054Y-78903170D02*
G01*
X36823096Y-78933344D01*
X36820054Y-78937071D01*
X36804938Y-78933581D01*
X36803103Y-78920121D01*
X36812406Y-78899193D01*
X36820054Y-78903170D01*
G37*
G36*
X39242835Y-81654135D02*
G01*
X39303059Y-81682344D01*
X39320220Y-81691492D01*
X39369531Y-81721451D01*
X39387313Y-81738622D01*
X39383784Y-81740211D01*
X39346755Y-81728849D01*
X39286531Y-81700640D01*
X39269369Y-81691492D01*
X39220059Y-81661533D01*
X39202277Y-81644361D01*
X39205806Y-81642772D01*
X39242835Y-81654135D01*
G37*
G36*
X45490542Y-76474512D02*
G01*
X45493573Y-76514249D01*
X45488534Y-76523244D01*
X45476978Y-76515662D01*
X45475181Y-76489874D01*
X45481390Y-76462744D01*
X45490542Y-76474512D01*
G37*
G36*
X42795028Y-81750818D02*
G01*
X42791538Y-81765933D01*
X42778078Y-81767768D01*
X42757150Y-81758465D01*
X42761128Y-81750818D01*
X42791302Y-81747775D01*
X42795028Y-81750818D01*
G37*
G36*
X43591692Y-73797625D02*
G01*
X43690485Y-73860805D01*
X43814924Y-73954456D01*
X43956463Y-74071409D01*
X44106560Y-74204492D01*
X44256670Y-74346535D01*
X44316316Y-74405780D01*
X44561597Y-74668727D01*
X44770221Y-74925116D01*
X44937479Y-75169073D01*
X44964679Y-75214365D01*
X45001877Y-75280920D01*
X45013359Y-75308492D01*
X45001995Y-75300156D01*
X44970655Y-75258983D01*
X44922208Y-75188047D01*
X44881592Y-75125376D01*
X44659435Y-74813150D01*
X44398472Y-74509346D01*
X44110571Y-74226634D01*
X43807601Y-73977686D01*
X43804815Y-73975617D01*
X43685813Y-73886340D01*
X43607575Y-73825314D01*
X43570379Y-73792773D01*
X43574500Y-73788946D01*
X43591692Y-73797625D01*
G37*
G36*
X40101522Y-73184039D02*
G01*
X40093940Y-73195595D01*
X40068152Y-73197393D01*
X40041022Y-73191183D01*
X40052790Y-73182031D01*
X40092527Y-73179000D01*
X40101522Y-73184039D01*
G37*
G36*
X45565811Y-76837704D02*
G01*
X45567069Y-76842076D01*
X45570791Y-76897460D01*
X45566127Y-76918352D01*
X45557780Y-76919197D01*
X45554371Y-76879395D01*
X45554406Y-76873374D01*
X45558072Y-76833940D01*
X45565811Y-76837704D01*
G37*
G36*
X37055226Y-75627528D02*
G01*
X37043864Y-75664557D01*
X37015654Y-75724781D01*
X37006507Y-75741942D01*
X36976548Y-75791253D01*
X36959376Y-75809035D01*
X36957787Y-75805506D01*
X36969150Y-75768477D01*
X36997359Y-75708253D01*
X37006507Y-75691091D01*
X37036465Y-75641781D01*
X37053637Y-75623999D01*
X37055226Y-75627528D01*
G37*
G36*
X47422866Y-200256778D02*
G01*
X47436109Y-200283148D01*
X47446161Y-200331056D01*
X47453391Y-200404564D01*
X47458165Y-200507728D01*
X47460852Y-200644610D01*
X47461820Y-200819268D01*
X47461436Y-201035762D01*
X47460070Y-201298150D01*
X47459673Y-201362506D01*
X47457510Y-201644928D01*
X47454742Y-201881384D01*
X47451194Y-202076756D01*
X47446686Y-202235926D01*
X47441043Y-202363777D01*
X47434086Y-202465191D01*
X47425640Y-202545051D01*
X47415526Y-202608239D01*
X47414226Y-202614763D01*
X47340274Y-202879019D01*
X47233355Y-203114670D01*
X47096553Y-203317803D01*
X46932953Y-203484508D01*
X46745639Y-203610872D01*
X46571731Y-203683135D01*
X46412209Y-203717081D01*
X46231870Y-203731108D01*
X46053354Y-203724679D01*
X45905406Y-203698954D01*
X45684067Y-203613539D01*
X45490334Y-203485549D01*
X45324799Y-203315493D01*
X45188054Y-203103879D01*
X45169495Y-203067434D01*
X45127992Y-202981524D01*
X45093135Y-202902954D01*
X45064292Y-202826364D01*
X45040831Y-202746393D01*
X45022122Y-202657681D01*
X45007531Y-202554867D01*
X44996426Y-202432592D01*
X44988178Y-202285495D01*
X44982152Y-202108215D01*
X44977719Y-201895391D01*
X44974245Y-201641665D01*
X44971557Y-201388038D01*
X44960503Y-200275676D01*
X45955883Y-200275676D01*
X45962426Y-201909260D01*
X45968969Y-203542843D01*
X46213559Y-203550080D01*
X46345277Y-203551376D01*
X46444044Y-203544746D01*
X46527426Y-203528096D01*
X46601212Y-203503791D01*
X46767254Y-203416440D01*
X46919387Y-203287550D01*
X47048111Y-203126242D01*
X47112498Y-203012928D01*
X47164412Y-202897931D01*
X47207875Y-202780189D01*
X47243495Y-202654301D01*
X47271881Y-202514867D01*
X47293641Y-202356486D01*
X47309386Y-202173758D01*
X47319723Y-201961283D01*
X47325262Y-201713660D01*
X47326611Y-201425489D01*
X47324779Y-201130204D01*
X47322686Y-200900834D01*
X47321568Y-200717065D01*
X47321642Y-200573654D01*
X47323122Y-200465357D01*
X47326225Y-200386930D01*
X47331166Y-200333129D01*
X47338160Y-200298711D01*
X47347425Y-200278432D01*
X47359174Y-200267047D01*
X47360311Y-200266311D01*
X47385335Y-200252419D01*
X47406064Y-200247888D01*
X47422866Y-200256778D01*
G37*
G36*
X45515967Y-76576214D02*
G01*
X45518998Y-76615951D01*
X45513960Y-76624946D01*
X45502404Y-76617363D01*
X45500606Y-76591575D01*
X45506815Y-76564446D01*
X45515967Y-76576214D01*
G37*
G36*
X34708749Y-203296379D02*
G01*
X34549629Y-203086524D01*
X34470698Y-202945346D01*
X34385200Y-202754092D01*
X34325539Y-202573292D01*
X34285976Y-202381988D01*
X34263137Y-202187250D01*
X34255046Y-201869488D01*
X34286396Y-201569329D01*
X34355173Y-201290359D01*
X34459368Y-201036163D01*
X34596968Y-200810329D01*
X34765964Y-200616442D01*
X34964342Y-200458089D01*
X35190093Y-200338857D01*
X35326687Y-200290814D01*
X35463155Y-200264126D01*
X35627241Y-200252039D01*
X35798147Y-200254541D01*
X35955073Y-200271619D01*
X36042082Y-200291224D01*
X36284696Y-200388389D01*
X36498103Y-200526828D01*
X36681588Y-200705696D01*
X36834434Y-200924148D01*
X36955926Y-201181339D01*
X37045153Y-201475592D01*
X37071272Y-201633327D01*
X37085996Y-201822241D01*
X37089319Y-202024654D01*
X37081230Y-202222889D01*
X37061724Y-202399267D01*
X37045606Y-202482767D01*
X36964003Y-202758680D01*
X36856702Y-202996530D01*
X36719290Y-203204436D01*
X36557502Y-203380980D01*
X36378997Y-203525861D01*
X36188805Y-203629194D01*
X35996717Y-203693523D01*
X35841564Y-203720451D01*
X35666543Y-203729812D01*
X35494115Y-203721542D01*
X35346743Y-203695578D01*
X35346006Y-203695376D01*
X35112068Y-203605202D01*
X35027878Y-203552334D01*
X35480981Y-203552334D01*
X35563614Y-203561589D01*
X35681861Y-203565278D01*
X35819096Y-203555786D01*
X35946571Y-203535599D01*
X35989490Y-203524764D01*
X36201347Y-203436496D01*
X36394880Y-203304052D01*
X36566118Y-203132041D01*
X36711090Y-202925071D01*
X36825824Y-202687749D01*
X36894239Y-202474975D01*
X36925632Y-202299602D01*
X36940879Y-202095265D01*
X36940184Y-201880355D01*
X36923750Y-201673261D01*
X36891781Y-201492373D01*
X36883018Y-201459104D01*
X36788975Y-201198836D01*
X36664103Y-200969236D01*
X36511756Y-200774785D01*
X36335288Y-200619965D01*
X36189675Y-200532822D01*
X36022765Y-200466183D01*
X35848767Y-200423496D01*
X35685057Y-200408227D01*
X35594874Y-200414265D01*
X35480981Y-200431344D01*
X35480981Y-203552334D01*
X35027878Y-203552334D01*
X34897939Y-203470738D01*
X34708749Y-203296379D01*
G37*
G36*
X39667701Y-81827094D02*
G01*
X39664211Y-81842210D01*
X39650751Y-81844044D01*
X39629823Y-81834742D01*
X39633801Y-81827094D01*
X39663975Y-81824051D01*
X39667701Y-81827094D01*
G37*
G36*
X36981081Y-79339640D02*
G01*
X36968368Y-79352353D01*
X36955656Y-79339640D01*
X36968368Y-79326927D01*
X36981081Y-79339640D01*
G37*
G36*
X42288109Y-73209464D02*
G01*
X42280526Y-73221020D01*
X42254738Y-73222818D01*
X42227608Y-73216609D01*
X42239377Y-73207457D01*
X42279114Y-73204426D01*
X42288109Y-73209464D01*
G37*
G36*
X45465116Y-76372811D02*
G01*
X45468147Y-76412548D01*
X45463109Y-76421543D01*
X45451553Y-76413960D01*
X45449755Y-76388172D01*
X45455965Y-76361042D01*
X45465116Y-76372811D01*
G37*
G36*
X45592401Y-77019570D02*
G01*
X45596356Y-77084055D01*
X45592401Y-77108559D01*
X45585032Y-77116472D01*
X45581020Y-77081315D01*
X45580774Y-77064064D01*
X45583425Y-77017808D01*
X45590024Y-77012356D01*
X45592401Y-77019570D01*
G37*
G36*
X37667568Y-14339540D02*
G01*
X37986839Y-14339540D01*
X38120947Y-14337303D01*
X38247272Y-14331218D01*
X38351251Y-14322227D01*
X38416373Y-14311776D01*
X38512327Y-14299864D01*
X38584483Y-14313705D01*
X38626025Y-14347907D01*
X38630138Y-14397078D01*
X38593780Y-14452138D01*
X38578912Y-14462089D01*
X38553025Y-14470267D01*
X38511514Y-14476840D01*
X38449773Y-14481978D01*
X38363198Y-14485848D01*
X38247183Y-14488619D01*
X38097123Y-14490459D01*
X37908414Y-14491536D01*
X37676451Y-14492018D01*
X37500486Y-14492092D01*
X36447147Y-14492092D01*
X36447147Y-11085085D01*
X37667568Y-11085085D01*
X37667568Y-14339540D01*
G37*
G36*
X36892364Y-76004975D02*
G01*
X36875783Y-76065231D01*
X36855731Y-76125362D01*
X36829591Y-76194063D01*
X36811128Y-76233235D01*
X36804961Y-76235911D01*
X36810961Y-76198089D01*
X36828107Y-76137498D01*
X36850802Y-76070204D01*
X36873451Y-76012270D01*
X36890460Y-75979759D01*
X36894871Y-75977788D01*
X36892364Y-76004975D01*
G37*
G36*
X24073936Y-191645357D02*
G01*
X24158837Y-191683552D01*
X24259062Y-191738444D01*
X24362136Y-191802861D01*
X24455583Y-191869630D01*
X24508040Y-191913426D01*
X24638626Y-192061389D01*
X24749941Y-192243646D01*
X24833998Y-192444904D01*
X24878582Y-192622641D01*
X24893502Y-192850480D01*
X24865496Y-193081592D01*
X24798084Y-193305358D01*
X24694787Y-193511163D01*
X24559126Y-193688390D01*
X24508656Y-193738064D01*
X24428940Y-193802479D01*
X24331039Y-193869448D01*
X24227409Y-193931802D01*
X24130509Y-193982374D01*
X24052797Y-194013997D01*
X24016836Y-194021021D01*
X24009686Y-194004059D01*
X24003681Y-193951666D01*
X23998767Y-193861583D01*
X23994891Y-193731551D01*
X23991999Y-193559309D01*
X23990039Y-193342599D01*
X23988958Y-193079160D01*
X23988689Y-192826026D01*
X23989088Y-192522485D01*
X23990322Y-192267529D01*
X23992444Y-192058899D01*
X23995507Y-191894335D01*
X23999564Y-191771578D01*
X24004668Y-191688369D01*
X24010873Y-191642448D01*
X24016836Y-191631031D01*
X24073936Y-191645357D01*
G37*
G36*
X42829844Y-73390854D02*
G01*
X42879780Y-73415516D01*
X42916817Y-73440814D01*
X42918655Y-73451836D01*
X42917918Y-73451852D01*
X42878865Y-73440178D01*
X42828929Y-73415516D01*
X42791892Y-73390218D01*
X42790054Y-73379196D01*
X42790791Y-73379180D01*
X42829844Y-73390854D01*
G37*
G36*
X41526331Y-82054706D02*
G01*
X41540375Y-82060004D01*
X41510123Y-82063703D01*
X41443243Y-82064995D01*
X41377995Y-82063467D01*
X41352860Y-82059706D01*
X41373171Y-82054523D01*
X41373779Y-82054447D01*
X41456695Y-82050295D01*
X41526331Y-82054706D01*
G37*
G36*
X36794628Y-76284351D02*
G01*
X36797671Y-76314525D01*
X36794628Y-76318252D01*
X36779513Y-76314762D01*
X36777678Y-76301302D01*
X36786981Y-76280374D01*
X36794628Y-76284351D01*
G37*
G36*
X41754705Y-82029921D02*
G01*
X41762618Y-82037291D01*
X41727461Y-82041303D01*
X41710210Y-82041549D01*
X41663953Y-82038898D01*
X41658502Y-82032298D01*
X41665716Y-82029921D01*
X41730201Y-82025967D01*
X41754705Y-82029921D01*
G37*
G36*
X39269369Y-73466367D02*
G01*
X39256657Y-73479079D01*
X39243944Y-73466367D01*
X39256657Y-73453654D01*
X39269369Y-73466367D01*
G37*
G36*
X42169570Y-203383661D02*
G01*
X42126966Y-203342210D01*
X42022882Y-203230876D01*
X41942264Y-203124389D01*
X41870271Y-203001706D01*
X41829078Y-202919920D01*
X41750221Y-202745587D01*
X41693639Y-202588090D01*
X41656081Y-202432307D01*
X41634296Y-202263118D01*
X41625033Y-202065400D01*
X41624088Y-201966467D01*
X41627578Y-201764148D01*
X41640957Y-201597006D01*
X41667578Y-201449788D01*
X41710796Y-201307240D01*
X41773964Y-201154109D01*
X41827541Y-201041204D01*
X41968982Y-200804673D01*
X42140290Y-200607800D01*
X42338864Y-200452257D01*
X42562102Y-200339712D01*
X42807403Y-200271837D01*
X43059694Y-200250251D01*
X43318915Y-200273775D01*
X43557834Y-200343380D01*
X43774217Y-200457613D01*
X43965828Y-200615020D01*
X44130433Y-200814148D01*
X44252620Y-201025726D01*
X44319775Y-201171820D01*
X44369368Y-201301387D01*
X44403909Y-201427031D01*
X44425909Y-201561353D01*
X44437879Y-201716955D01*
X44442330Y-201906442D01*
X44442576Y-201979180D01*
X44440130Y-202181784D01*
X44431080Y-202346473D01*
X44412858Y-202486021D01*
X44382897Y-202613204D01*
X44338628Y-202740795D01*
X44277485Y-202881571D01*
X44249165Y-202941443D01*
X44118466Y-203161433D01*
X43954014Y-203353142D01*
X43762497Y-203511087D01*
X43550604Y-203629786D01*
X43325021Y-203703758D01*
X43317117Y-203705437D01*
X43150735Y-203727067D01*
X42969165Y-203729389D01*
X42796591Y-203712842D01*
X42708528Y-203694338D01*
X42515787Y-203625476D01*
X42388745Y-203552334D01*
X42854354Y-203552334D01*
X42936987Y-203561876D01*
X43059030Y-203565060D01*
X43203270Y-203552448D01*
X43344370Y-203526307D01*
X43349724Y-203524978D01*
X43546859Y-203450309D01*
X43732816Y-203330936D01*
X43900863Y-203172811D01*
X44044265Y-202981887D01*
X44120954Y-202843259D01*
X44198378Y-202666887D01*
X44251725Y-202501804D01*
X44284540Y-202331414D01*
X44300365Y-202139120D01*
X44303228Y-201989603D01*
X44290762Y-201715967D01*
X44250863Y-201473858D01*
X44180860Y-201250386D01*
X44122636Y-201118536D01*
X44029032Y-200963991D01*
X43904527Y-200810965D01*
X43762471Y-200673338D01*
X43616216Y-200564993D01*
X43559327Y-200532861D01*
X43425142Y-200477706D01*
X43274122Y-200436218D01*
X43123927Y-200411818D01*
X42992217Y-200407925D01*
X42944063Y-200413703D01*
X42854354Y-200430533D01*
X42854354Y-203552334D01*
X42388745Y-203552334D01*
X42340411Y-203524507D01*
X42169570Y-203383661D01*
G37*
G36*
X39213825Y-200263025D02*
G01*
X39448794Y-200317202D01*
X39634894Y-200397284D01*
X39760346Y-200476134D01*
X39854420Y-200558088D01*
X39911297Y-200637006D01*
X39925540Y-200703865D01*
X39903205Y-200764449D01*
X39855884Y-200781413D01*
X39784485Y-200754899D01*
X39689917Y-200685052D01*
X39664987Y-200662874D01*
X39503613Y-200546083D01*
X39316786Y-200461860D01*
X39118434Y-200414591D01*
X38922482Y-200408662D01*
X38875275Y-200414187D01*
X38760861Y-200431344D01*
X38760861Y-203562243D01*
X38946586Y-203550324D01*
X39168868Y-203511624D01*
X39373474Y-203425349D01*
X39559956Y-203291767D01*
X39727865Y-203111146D01*
X39766182Y-203059663D01*
X39870591Y-202900297D01*
X39941219Y-202755800D01*
X39983628Y-202608826D01*
X40003380Y-202442026D01*
X40006707Y-202309417D01*
X40007979Y-202181611D01*
X40012521Y-202096245D01*
X40021420Y-202044956D01*
X40035764Y-202019379D01*
X40045169Y-202013675D01*
X40095320Y-202015855D01*
X40121445Y-202030299D01*
X40132305Y-202045884D01*
X40140929Y-202076097D01*
X40147558Y-202126145D01*
X40152436Y-202201238D01*
X40155802Y-202306584D01*
X40157901Y-202447392D01*
X40158972Y-202628871D01*
X40159259Y-202844678D01*
X40158773Y-203040712D01*
X40157396Y-203221396D01*
X40155251Y-203380170D01*
X40152461Y-203510472D01*
X40149149Y-203605743D01*
X40145438Y-203659420D01*
X40143826Y-203667891D01*
X40111489Y-203699894D01*
X40062960Y-203708097D01*
X40020161Y-203693174D01*
X40004693Y-203663614D01*
X40004207Y-203621953D01*
X40004356Y-203540953D01*
X40005085Y-203432121D01*
X40006340Y-203306964D01*
X40006406Y-203301302D01*
X40006234Y-203181875D01*
X40003021Y-203087721D01*
X39997270Y-203027046D01*
X39989484Y-203008057D01*
X39988486Y-203008909D01*
X39964143Y-203041853D01*
X39921075Y-203103847D01*
X39868581Y-203181507D01*
X39868276Y-203181965D01*
X39708835Y-203377194D01*
X39518847Y-203532725D01*
X39301591Y-203646204D01*
X39154066Y-203694559D01*
X39021155Y-203718179D01*
X38865838Y-203729208D01*
X38710483Y-203727173D01*
X38577459Y-203711600D01*
X38556991Y-203707175D01*
X38337027Y-203629355D01*
X38134289Y-203506689D01*
X37952485Y-203343352D01*
X37795326Y-203143520D01*
X37666521Y-202911367D01*
X37569779Y-202651071D01*
X37548537Y-202572076D01*
X37522360Y-202421023D01*
X37507547Y-202237124D01*
X37503917Y-202036692D01*
X37511290Y-201836035D01*
X37529483Y-201651466D01*
X37558316Y-201499294D01*
X37560550Y-201490929D01*
X37652395Y-201230192D01*
X37778577Y-200986310D01*
X37933222Y-200767806D01*
X38110455Y-200583199D01*
X38269443Y-200462504D01*
X38487410Y-200351104D01*
X38723731Y-200280425D01*
X38969003Y-200250915D01*
X39213825Y-200263025D01*
G37*
G36*
X39015115Y-81551652D02*
G01*
X39002403Y-81564365D01*
X38989690Y-81551652D01*
X39002403Y-81538939D01*
X39015115Y-81551652D01*
G37*
G36*
X36794628Y-78826894D02*
G01*
X36797671Y-78857068D01*
X36794628Y-78860795D01*
X36779513Y-78857304D01*
X36777678Y-78843844D01*
X36786981Y-78822916D01*
X36794628Y-78826894D01*
G37*
G36*
X42047097Y-81979758D02*
G01*
X42050291Y-81989038D01*
X42015315Y-81992582D01*
X41979221Y-81988587D01*
X41983534Y-81979758D01*
X42035588Y-81976400D01*
X42047097Y-81979758D01*
G37*
G36*
X40126948Y-81955810D02*
G01*
X40119365Y-81967367D01*
X40093577Y-81969164D01*
X40066447Y-81962955D01*
X40078216Y-81953803D01*
X40117953Y-81950772D01*
X40126948Y-81955810D01*
G37*
G36*
X45439273Y-76284351D02*
G01*
X45442316Y-76314525D01*
X45439273Y-76318252D01*
X45424157Y-76314762D01*
X45422322Y-76301302D01*
X45431625Y-76280374D01*
X45439273Y-76284351D01*
G37*
G36*
X45465116Y-78737375D02*
G01*
X45468147Y-78777112D01*
X45463109Y-78786107D01*
X45451553Y-78778525D01*
X45449755Y-78752736D01*
X45455965Y-78725607D01*
X45465116Y-78737375D01*
G37*
G36*
X42362796Y-73233300D02*
G01*
X42359306Y-73248416D01*
X42345846Y-73250251D01*
X42324918Y-73240948D01*
X42328896Y-73233300D01*
X42359070Y-73230257D01*
X42362796Y-73233300D01*
G37*
G36*
X43016316Y-81653141D02*
G01*
X42977736Y-81679169D01*
X42956056Y-81691492D01*
X42893164Y-81722678D01*
X42848000Y-81739344D01*
X42841642Y-81740211D01*
X42844945Y-81729843D01*
X42883526Y-81703815D01*
X42905205Y-81691492D01*
X42968098Y-81660306D01*
X43013262Y-81643640D01*
X43019620Y-81642772D01*
X43016316Y-81653141D01*
G37*
G36*
X45269770Y-79339640D02*
G01*
X45257057Y-79352353D01*
X45244344Y-79339640D01*
X45257057Y-79326927D01*
X45269770Y-79339640D01*
G37*
G36*
X32715966Y-200281483D02*
G01*
X33205406Y-200288389D01*
X33211950Y-201909260D01*
X33218495Y-203530131D01*
X33461302Y-203530131D01*
X33583480Y-203526948D01*
X33701065Y-203518455D01*
X33794744Y-203506229D01*
X33820862Y-203500732D01*
X33894175Y-203484954D01*
X33936126Y-203486631D01*
X33963794Y-203507748D01*
X33971960Y-203518304D01*
X34002086Y-203570281D01*
X33995134Y-203609390D01*
X33966352Y-203642729D01*
X33949999Y-203653720D01*
X33921819Y-203662532D01*
X33876657Y-203669396D01*
X33809357Y-203674545D01*
X33714765Y-203678208D01*
X33587725Y-203680619D01*
X33423083Y-203682008D01*
X33215683Y-203682607D01*
X33076462Y-203682683D01*
X32226527Y-203682683D01*
X32226527Y-200274578D01*
X32715966Y-200281483D01*
G37*
G36*
X36666912Y-78236103D02*
G01*
X36668170Y-78240474D01*
X36671892Y-78295859D01*
X36667228Y-78316751D01*
X36658881Y-78317596D01*
X36655472Y-78277793D01*
X36655507Y-78271772D01*
X36659174Y-78232338D01*
X36666912Y-78236103D01*
G37*
G36*
X40241892Y-81979758D02*
G01*
X40245086Y-81989038D01*
X40210110Y-81992582D01*
X40174016Y-81988587D01*
X40178328Y-81979758D01*
X40230383Y-81976400D01*
X40241892Y-81979758D01*
G37*
G36*
X49180380Y-11070320D02*
G01*
X49212382Y-11085980D01*
X49250370Y-11117300D01*
X49259038Y-11157814D01*
X49235948Y-11210580D01*
X49178662Y-11278655D01*
X49084744Y-11365095D01*
X48951756Y-11472959D01*
X48829329Y-11566440D01*
X48733633Y-11638975D01*
X48648240Y-11704992D01*
X48584568Y-11755598D01*
X48559633Y-11776551D01*
X48506053Y-11824472D01*
X48982931Y-12986661D01*
X49079405Y-13221372D01*
X49172009Y-13445905D01*
X49258567Y-13655031D01*
X49336899Y-13843521D01*
X49404826Y-14006145D01*
X49460171Y-14137675D01*
X49500754Y-14232882D01*
X49524398Y-14286535D01*
X49525167Y-14288184D01*
X49560734Y-14369405D01*
X49574296Y-14420976D01*
X49568306Y-14457829D01*
X49556489Y-14478875D01*
X49502166Y-14529939D01*
X49441979Y-14530713D01*
X49393312Y-14496715D01*
X49357571Y-14444737D01*
X49319596Y-14365161D01*
X49299502Y-14310818D01*
X49280035Y-14256746D01*
X49244696Y-14164439D01*
X49195745Y-14039459D01*
X49135443Y-13887365D01*
X49066050Y-13713716D01*
X48989828Y-13524074D01*
X48909036Y-13323999D01*
X48825935Y-13119050D01*
X48742785Y-12914788D01*
X48661849Y-12716773D01*
X48585384Y-12530566D01*
X48515654Y-12361725D01*
X48454917Y-12215812D01*
X48405435Y-12098387D01*
X48369468Y-12015009D01*
X48349276Y-11971239D01*
X48346261Y-11966201D01*
X48319589Y-11972414D01*
X48261643Y-12005102D01*
X48180861Y-12058984D01*
X48085685Y-12128777D01*
X48082166Y-12131467D01*
X47838177Y-12318219D01*
X47837957Y-13405156D01*
X47837738Y-14492092D01*
X46617317Y-14492092D01*
X46617317Y-11084165D01*
X47221171Y-11090982D01*
X47825025Y-11097798D01*
X47837738Y-11589016D01*
X47850451Y-12080233D01*
X48320821Y-11726479D01*
X48467878Y-11614661D01*
X48612476Y-11502502D01*
X48745755Y-11397040D01*
X48858855Y-11305309D01*
X48942917Y-11234348D01*
X48963320Y-11216192D01*
X49040312Y-11147466D01*
X49102794Y-11094100D01*
X49141638Y-11063779D01*
X49149326Y-11059660D01*
X49180380Y-11070320D01*
G37*
G36*
X45388422Y-78979447D02*
G01*
X45391465Y-79009621D01*
X45388422Y-79013347D01*
X45373306Y-79009857D01*
X45371472Y-78996397D01*
X45380774Y-78975469D01*
X45388422Y-78979447D01*
G37*
G36*
X42262684Y-81930385D02*
G01*
X42255101Y-81941941D01*
X42229313Y-81943739D01*
X42202183Y-81937529D01*
X42213952Y-81928378D01*
X42253688Y-81925347D01*
X42262684Y-81930385D01*
G37*
G36*
X42457453Y-73264148D02*
G01*
X42512471Y-73278474D01*
X42574287Y-73299483D01*
X42629414Y-73321699D01*
X42664368Y-73339642D01*
X42665662Y-73347836D01*
X42663664Y-73347908D01*
X42627095Y-73339380D01*
X42560839Y-73317402D01*
X42511111Y-73298940D01*
X42455191Y-73275224D01*
X42438034Y-73263061D01*
X42457453Y-73264148D01*
G37*
G36*
X42591625Y-81827094D02*
G01*
X42588135Y-81842210D01*
X42574675Y-81844044D01*
X42553747Y-81834742D01*
X42557725Y-81827094D01*
X42587899Y-81824051D01*
X42591625Y-81827094D01*
G37*
G36*
X36870904Y-79055723D02*
G01*
X36873947Y-79085897D01*
X36870904Y-79089623D01*
X36855789Y-79086133D01*
X36853954Y-79072673D01*
X36863257Y-79051745D01*
X36870904Y-79055723D01*
G37*
G36*
X45286720Y-79259126D02*
G01*
X45289763Y-79289300D01*
X45286720Y-79293027D01*
X45271605Y-79289537D01*
X45269770Y-79276076D01*
X45279073Y-79255148D01*
X45286720Y-79259126D01*
G37*
G36*
X41195801Y-73054106D02*
G01*
X41209845Y-73059404D01*
X41179593Y-73063103D01*
X41112713Y-73064394D01*
X41047464Y-73062866D01*
X41022330Y-73059105D01*
X41042640Y-73053922D01*
X41043248Y-73053846D01*
X41126165Y-73049694D01*
X41195801Y-73054106D01*
G37*
G36*
X24337360Y-166615811D02*
G01*
X24373752Y-166629196D01*
X24418328Y-166651412D01*
X24471912Y-166678639D01*
X24484485Y-166684683D01*
X24689018Y-166808517D01*
X24860087Y-166968375D01*
X24995038Y-167159828D01*
X25091217Y-167378445D01*
X25145971Y-167619797D01*
X25158258Y-167809344D01*
X25136773Y-168065422D01*
X25071641Y-168296265D01*
X24961850Y-168504356D01*
X24806388Y-168692175D01*
X24792385Y-168705974D01*
X24696641Y-168785432D01*
X24578383Y-168864121D01*
X24455255Y-168931702D01*
X24344905Y-168977837D01*
X24312863Y-168986935D01*
X24242943Y-169003372D01*
X24242943Y-167807892D01*
X24242655Y-167522907D01*
X24242339Y-167284947D01*
X24242816Y-167090191D01*
X24244908Y-166934821D01*
X24249436Y-166815017D01*
X24257221Y-166726960D01*
X24269084Y-166666830D01*
X24285848Y-166630808D01*
X24308333Y-166615075D01*
X24337360Y-166615811D01*
G37*
G36*
X42160982Y-81955810D02*
G01*
X42153399Y-81967367D01*
X42127611Y-81969164D01*
X42100481Y-81962955D01*
X42112250Y-81953803D01*
X42151987Y-81950772D01*
X42160982Y-81955810D01*
G37*
G36*
X40343594Y-73131710D02*
G01*
X40346788Y-73140990D01*
X40311812Y-73144534D01*
X40275717Y-73140539D01*
X40280030Y-73131710D01*
X40332085Y-73128352D01*
X40343594Y-73131710D01*
G37*
G36*
X43184885Y-81577077D02*
G01*
X43172172Y-81589790D01*
X43159460Y-81577077D01*
X43172172Y-81564365D01*
X43184885Y-81577077D01*
G37*
G36*
X41894545Y-82005184D02*
G01*
X41897739Y-82014464D01*
X41862763Y-82018008D01*
X41826668Y-82014012D01*
X41830981Y-82005184D01*
X41883036Y-82001826D01*
X41894545Y-82005184D01*
G37*
G36*
X39466941Y-73384446D02*
G01*
X39434635Y-73400974D01*
X39367342Y-73430768D01*
X39319944Y-73447344D01*
X39300042Y-73449277D01*
X39315236Y-73435142D01*
X39345646Y-73417667D01*
X39418812Y-73385353D01*
X39472773Y-73367891D01*
X39490737Y-73367665D01*
X39466941Y-73384446D01*
G37*
G36*
X24897648Y-142418537D02*
G01*
X25113564Y-142478316D01*
X25295441Y-142575394D01*
X25442627Y-142709308D01*
X25554472Y-142879599D01*
X25557311Y-142885339D01*
X25595579Y-142972140D01*
X25617108Y-143050674D01*
X25626191Y-143142275D01*
X25627413Y-143233734D01*
X25623719Y-143349930D01*
X25610899Y-143437117D01*
X25584355Y-143516938D01*
X25552810Y-143584712D01*
X25444219Y-143751020D01*
X25304401Y-143883304D01*
X25140494Y-143976414D01*
X24959637Y-144025200D01*
X24938898Y-144027651D01*
X24802302Y-144041749D01*
X24802302Y-142401749D01*
X24897648Y-142418537D01*
G37*
G36*
X40865270Y-82054706D02*
G01*
X40879314Y-82060004D01*
X40849062Y-82063703D01*
X40782182Y-82064995D01*
X40716934Y-82063467D01*
X40691799Y-82059706D01*
X40712109Y-82054523D01*
X40712718Y-82054447D01*
X40795634Y-82050295D01*
X40865270Y-82054706D01*
G37*
G36*
X45044803Y-75355851D02*
G01*
X45076521Y-75409332D01*
X45104505Y-75462263D01*
X45137334Y-75531067D01*
X45155461Y-75577231D01*
X45156212Y-75589390D01*
X45138781Y-75568675D01*
X45107063Y-75515193D01*
X45079079Y-75462263D01*
X45046250Y-75393458D01*
X45028123Y-75347294D01*
X45027372Y-75335136D01*
X45044803Y-75355851D01*
G37*
G36*
X36933334Y-79233489D02*
G01*
X36950179Y-79275620D01*
X36948415Y-79291793D01*
X36931072Y-79282728D01*
X36920659Y-79262381D01*
X36906253Y-79214102D01*
X36912168Y-79204470D01*
X36933334Y-79233489D01*
G37*
G36*
X39995440Y-73209493D02*
G01*
X39968569Y-73224825D01*
X39909255Y-73242998D01*
X39879580Y-73246677D01*
X39865421Y-73240157D01*
X39892292Y-73224825D01*
X39951606Y-73206653D01*
X39981281Y-73202974D01*
X39995440Y-73209493D01*
G37*
G36*
X34798341Y-11074910D02*
G01*
X34955342Y-11084135D01*
X35087943Y-11102470D01*
X35209281Y-11132334D01*
X35332490Y-11176150D01*
X35455454Y-11229340D01*
X35582954Y-11294605D01*
X35685272Y-11360953D01*
X35755170Y-11422848D01*
X35785410Y-11474757D01*
X35786086Y-11482120D01*
X35765921Y-11529939D01*
X35720100Y-11574188D01*
X35670740Y-11593594D01*
X35631257Y-11577830D01*
X35573470Y-11538131D01*
X35548595Y-11517463D01*
X35415927Y-11425979D01*
X35246387Y-11346788D01*
X35053208Y-11283514D01*
X34849626Y-11239777D01*
X34648874Y-11219201D01*
X34476440Y-11224012D01*
X34311022Y-11241727D01*
X34324124Y-14352253D01*
X34578378Y-14360126D01*
X34844550Y-14354935D01*
X35074327Y-14320362D01*
X35274093Y-14254523D01*
X35450226Y-14155535D01*
X35556220Y-14071494D01*
X35632999Y-14006882D01*
X35699042Y-13958304D01*
X35742816Y-13934042D01*
X35749454Y-13932733D01*
X35786720Y-13953603D01*
X35816473Y-13997031D01*
X35831711Y-14050140D01*
X35816127Y-14098412D01*
X35794144Y-14130515D01*
X35708989Y-14214197D01*
X35583264Y-14297199D01*
X35427086Y-14374714D01*
X35250567Y-14441932D01*
X35063824Y-14494048D01*
X35002018Y-14507046D01*
X34859361Y-14526170D01*
X34687051Y-14536789D01*
X34505364Y-14538657D01*
X34334575Y-14531531D01*
X34203694Y-14516684D01*
X33916345Y-14443514D01*
X33650395Y-14324288D01*
X33405454Y-14158802D01*
X33253877Y-14022914D01*
X33082962Y-13829566D01*
X32952543Y-13626394D01*
X32859124Y-13405057D01*
X32799211Y-13157212D01*
X32769312Y-12874518D01*
X32768815Y-12864865D01*
X32776847Y-12563049D01*
X32830951Y-12281066D01*
X32929478Y-12021176D01*
X33070781Y-11785639D01*
X33253213Y-11576716D01*
X33475127Y-11396667D01*
X33734876Y-11247753D01*
X34030812Y-11132233D01*
X34031732Y-11131945D01*
X34115930Y-11107748D01*
X34195298Y-11091018D01*
X34282394Y-11080445D01*
X34389777Y-11074724D01*
X34530006Y-11072546D01*
X34603804Y-11072373D01*
X34798341Y-11074910D01*
G37*
G36*
X43083183Y-81627928D02*
G01*
X43070471Y-81640641D01*
X43057758Y-81627928D01*
X43070471Y-81615216D01*
X43083183Y-81627928D01*
G37*
G36*
X45413847Y-78903170D02*
G01*
X45416890Y-78933344D01*
X45413847Y-78937071D01*
X45398732Y-78933581D01*
X45396897Y-78920121D01*
X45406200Y-78899193D01*
X45413847Y-78903170D01*
G37*
G36*
X66144044Y-198089089D02*
G01*
X16081382Y-198089089D01*
X16081382Y-197300901D01*
X66144044Y-197300901D01*
X66144044Y-198089089D01*
G37*
G36*
X40216467Y-73157136D02*
G01*
X40219661Y-73166416D01*
X40184685Y-73169960D01*
X40148590Y-73165964D01*
X40152903Y-73157136D01*
X40204958Y-73153777D01*
X40216467Y-73157136D01*
G37*
G36*
X39098662Y-81582866D02*
G01*
X39104104Y-81589790D01*
X39113053Y-81612658D01*
X39088998Y-81604045D01*
X39065966Y-81589790D01*
X39046419Y-81569379D01*
X39058109Y-81564754D01*
X39098662Y-81582866D01*
G37*
G36*
X45565811Y-78236103D02*
G01*
X45567069Y-78240474D01*
X45570791Y-78295859D01*
X45566127Y-78316751D01*
X45557780Y-78317596D01*
X45554371Y-78277793D01*
X45554406Y-78271772D01*
X45558072Y-78232338D01*
X45565811Y-78236103D01*
G37*
G36*
X32538922Y-192485862D02*
G01*
X32626055Y-192495110D01*
X32694751Y-192513768D01*
X32756632Y-192542233D01*
X32927824Y-192658898D01*
X33066265Y-192807316D01*
X33154115Y-192956734D01*
X33190079Y-193043468D01*
X33209841Y-193116031D01*
X33216764Y-193195026D01*
X33214210Y-193301060D01*
X33213284Y-193319297D01*
X33202921Y-193442293D01*
X33183591Y-193535530D01*
X33150124Y-193619958D01*
X33129011Y-193660775D01*
X33016476Y-193817827D01*
X32871964Y-193942352D01*
X32704167Y-194030584D01*
X32521779Y-194078760D01*
X32333490Y-194083117D01*
X32207996Y-194059544D01*
X32014540Y-193981644D01*
X31854533Y-193867794D01*
X31731268Y-193722230D01*
X31648037Y-193549187D01*
X31608132Y-193352902D01*
X31605032Y-193283684D01*
X31626412Y-193080694D01*
X31693935Y-192898947D01*
X31807945Y-192737592D01*
X31838155Y-192705890D01*
X31962154Y-192600055D01*
X32091163Y-192531204D01*
X32238980Y-192494029D01*
X32417217Y-192483220D01*
X32538922Y-192485862D01*
G37*
G36*
X39552695Y-81781206D02*
G01*
X39574475Y-81793194D01*
X39594826Y-81813340D01*
X39587187Y-81817840D01*
X39545404Y-81805181D01*
X39523624Y-81793194D01*
X39503273Y-81773047D01*
X39510911Y-81768547D01*
X39552695Y-81781206D01*
G37*
G36*
X24870661Y-141641722D02*
G01*
X24889475Y-141659174D01*
X24922396Y-141697106D01*
X24924142Y-141729547D01*
X24903110Y-141773444D01*
X24864716Y-141819860D01*
X24830508Y-141819258D01*
X24807672Y-141775383D01*
X24802302Y-141720921D01*
X24808998Y-141647778D01*
X24830884Y-141622016D01*
X24870661Y-141641722D01*
G37*
G36*
X36718770Y-76576214D02*
G01*
X36721801Y-76615951D01*
X36716763Y-76624946D01*
X36705207Y-76617363D01*
X36703409Y-76591575D01*
X36709618Y-76564446D01*
X36718770Y-76576214D01*
G37*
G36*
X42515349Y-81852520D02*
G01*
X42511859Y-81867635D01*
X42498399Y-81869470D01*
X42477471Y-81860167D01*
X42481448Y-81852520D01*
X42511622Y-81849477D01*
X42515349Y-81852520D01*
G37*
G36*
X36692815Y-76676327D02*
G01*
X36696173Y-76728381D01*
X36692815Y-76739890D01*
X36683535Y-76743084D01*
X36679991Y-76708109D01*
X36683986Y-76672014D01*
X36692815Y-76676327D01*
G37*
G36*
X41945879Y-73131871D02*
G01*
X41946725Y-73140218D01*
X41906922Y-73143627D01*
X41900901Y-73143592D01*
X41861467Y-73139926D01*
X41865232Y-73132188D01*
X41869603Y-73130929D01*
X41924988Y-73127207D01*
X41945879Y-73131871D01*
G37*
G36*
X45362996Y-79055723D02*
G01*
X45366039Y-79085897D01*
X45362996Y-79089623D01*
X45347881Y-79086133D01*
X45346046Y-79072673D01*
X45355349Y-79051745D01*
X45362996Y-79055723D01*
G37*
G36*
X39464298Y-81750818D02*
G01*
X39460808Y-81765933D01*
X39447347Y-81767768D01*
X39426419Y-81758465D01*
X39430397Y-81750818D01*
X39460571Y-81747775D01*
X39464298Y-81750818D01*
G37*
G36*
X40394445Y-82005184D02*
G01*
X40397639Y-82014464D01*
X40362663Y-82018008D01*
X40326568Y-82014012D01*
X40330881Y-82005184D01*
X40382936Y-82001826D01*
X40394445Y-82005184D01*
G37*
G36*
X45439273Y-78826894D02*
G01*
X45442316Y-78857068D01*
X45439273Y-78860795D01*
X45424157Y-78857304D01*
X45422322Y-78843844D01*
X45431625Y-78822916D01*
X45439273Y-78826894D01*
G37*
G36*
X42744178Y-73360427D02*
G01*
X42740687Y-73375543D01*
X42727227Y-73377378D01*
X42706299Y-73368075D01*
X42710277Y-73360427D01*
X42740451Y-73357385D01*
X42744178Y-73360427D01*
G37*
G36*
X37247229Y-79873574D02*
G01*
X37289303Y-79929401D01*
X37319652Y-79979609D01*
X37330201Y-80009986D01*
X37326720Y-80013414D01*
X37304886Y-79994996D01*
X37295880Y-79981632D01*
X37269676Y-79936509D01*
X37240847Y-79886287D01*
X37217451Y-79844088D01*
X37220993Y-79843044D01*
X37247229Y-79873574D01*
G37*
G36*
X39474480Y-14081263D02*
G01*
X39285088Y-13868640D01*
X39132405Y-13623501D01*
X39019728Y-13348988D01*
X39015417Y-13335236D01*
X38976487Y-13165498D01*
X38952088Y-12966018D01*
X38943057Y-12756026D01*
X38950231Y-12554752D01*
X38973987Y-12383570D01*
X39056490Y-12114417D01*
X39182742Y-11865257D01*
X39348295Y-11641782D01*
X39548696Y-11449681D01*
X39779495Y-11294648D01*
X39856406Y-11255059D01*
X40095497Y-11155319D01*
X40325906Y-11093081D01*
X40567548Y-11063804D01*
X40710925Y-11060102D01*
X40965910Y-11073042D01*
X41192316Y-11113288D01*
X41406550Y-11184441D01*
X41527622Y-11239277D01*
X41766078Y-11384194D01*
X41972644Y-11565696D01*
X42144854Y-11778892D01*
X42280242Y-12018894D01*
X42376341Y-12280814D01*
X42430686Y-12559761D01*
X42440811Y-12850848D01*
X42425874Y-13020151D01*
X42362690Y-13325484D01*
X42259124Y-13601568D01*
X42116594Y-13846647D01*
X41936517Y-14058965D01*
X41720310Y-14236768D01*
X41469389Y-14378300D01*
X41265265Y-14457658D01*
X41071087Y-14504432D01*
X40849422Y-14531378D01*
X40619159Y-14537858D01*
X40399180Y-14523234D01*
X40229940Y-14492614D01*
X39950203Y-14396392D01*
X39886492Y-14361588D01*
X40464364Y-14361588D01*
X40534284Y-14372762D01*
X40645487Y-14379660D01*
X40787223Y-14372947D01*
X40941641Y-14354654D01*
X41090890Y-14326815D01*
X41201458Y-14296801D01*
X41457409Y-14186770D01*
X41684300Y-14036535D01*
X41878612Y-13849860D01*
X42036827Y-13630512D01*
X42155427Y-13382255D01*
X42205929Y-13221687D01*
X42229111Y-13093165D01*
X42243142Y-12934131D01*
X42247693Y-12763188D01*
X42242433Y-12598940D01*
X42227034Y-12459990D01*
X42220059Y-12424559D01*
X42134273Y-12155739D01*
X42006193Y-11912625D01*
X41839137Y-11698962D01*
X41636425Y-11518492D01*
X41401373Y-11374960D01*
X41222973Y-11299736D01*
X41115947Y-11270745D01*
X40981084Y-11246532D01*
X40837071Y-11229280D01*
X40702596Y-11221168D01*
X40596344Y-11224380D01*
X40587215Y-11225513D01*
X40464364Y-11242410D01*
X40464364Y-14361588D01*
X39886492Y-14361588D01*
X39697284Y-14258227D01*
X39474480Y-14081263D01*
G37*
G36*
X55936504Y-200276628D02*
G01*
X55941047Y-200280084D01*
X55951063Y-200313589D01*
X55959133Y-200391670D01*
X55965329Y-200508091D01*
X55969721Y-200656615D01*
X55972379Y-200831007D01*
X55973376Y-201025031D01*
X55972782Y-201232451D01*
X55970667Y-201447033D01*
X55967104Y-201662539D01*
X55962162Y-201872735D01*
X55955912Y-202071384D01*
X55948426Y-202252251D01*
X55939775Y-202409100D01*
X55930029Y-202535696D01*
X55919259Y-202625802D01*
X55914058Y-202652953D01*
X55834081Y-202906507D01*
X55720743Y-203136237D01*
X55578388Y-203336196D01*
X55411360Y-203500434D01*
X55224002Y-203623004D01*
X55195518Y-203636913D01*
X55107476Y-203675341D01*
X55030610Y-203699909D01*
X54947321Y-203714226D01*
X54840010Y-203721898D01*
X54768330Y-203724476D01*
X54611235Y-203724324D01*
X54480512Y-203714547D01*
X54397498Y-203698720D01*
X54180917Y-203609582D01*
X53987502Y-203476813D01*
X53819857Y-203303288D01*
X53680583Y-203091882D01*
X53572284Y-202845473D01*
X53543106Y-202754655D01*
X53532311Y-202713033D01*
X53523248Y-202664717D01*
X53515716Y-202604822D01*
X53509513Y-202528464D01*
X53504437Y-202430758D01*
X53500287Y-202306820D01*
X53496862Y-202151765D01*
X53493959Y-201960709D01*
X53491377Y-201728767D01*
X53488916Y-201451055D01*
X53488816Y-201438889D01*
X53479363Y-200275676D01*
X54473400Y-200275676D01*
X54479943Y-201909260D01*
X54486487Y-203542843D01*
X54766166Y-203542585D01*
X54890806Y-203541705D01*
X54979015Y-203537424D01*
X55045210Y-203526865D01*
X55103808Y-203507156D01*
X55169226Y-203475421D01*
X55208572Y-203454375D01*
X55362653Y-203350023D01*
X55492651Y-203214459D01*
X55601878Y-203042764D01*
X55693649Y-202830022D01*
X55750218Y-202650673D01*
X55761099Y-202609324D01*
X55770638Y-202566091D01*
X55778943Y-202517420D01*
X55786122Y-202459751D01*
X55792284Y-202389529D01*
X55797536Y-202303197D01*
X55801985Y-202197196D01*
X55805740Y-202067971D01*
X55808908Y-201911964D01*
X55811598Y-201725618D01*
X55813916Y-201505377D01*
X55815972Y-201247682D01*
X55817873Y-200948978D01*
X55819726Y-200605706D01*
X55821182Y-200310178D01*
X55841771Y-200275728D01*
X55887848Y-200262627D01*
X55936504Y-200276628D01*
G37*
G36*
X45298299Y-75877333D02*
G01*
X45315144Y-75919464D01*
X45313380Y-75935637D01*
X45296037Y-75926572D01*
X45285624Y-75906225D01*
X45271218Y-75857946D01*
X45277133Y-75848314D01*
X45298299Y-75877333D01*
G37*
G36*
X49929180Y-200271318D02*
G01*
X50033873Y-200272434D01*
X50094244Y-200274136D01*
X50120713Y-200295017D01*
X50125127Y-200340735D01*
X50109741Y-200391458D01*
X50076847Y-200427334D01*
X50031691Y-200438314D01*
X49948878Y-200447048D01*
X49841588Y-200452446D01*
X49759029Y-200453654D01*
X49490391Y-200453654D01*
X49490391Y-203682683D01*
X48473373Y-203682683D01*
X48473373Y-200447225D01*
X48136487Y-200456796D01*
X47799600Y-200466367D01*
X47799600Y-200391920D01*
X47809822Y-200334238D01*
X47850704Y-200304664D01*
X47872356Y-200298015D01*
X47907460Y-200295060D01*
X47986915Y-200292000D01*
X48104221Y-200288903D01*
X48252879Y-200285840D01*
X48426389Y-200282881D01*
X48618251Y-200280095D01*
X48821966Y-200277552D01*
X49031034Y-200275323D01*
X49238955Y-200273477D01*
X49439230Y-200272083D01*
X49625359Y-200271212D01*
X49790842Y-200270934D01*
X49929180Y-200271318D01*
G37*
G36*
X36718770Y-78533972D02*
G01*
X36721801Y-78573709D01*
X36716763Y-78582704D01*
X36705207Y-78575121D01*
X36703409Y-78549333D01*
X36709618Y-78522203D01*
X36718770Y-78533972D01*
G37*
G36*
X36769621Y-76372811D02*
G01*
X36772652Y-76412548D01*
X36767614Y-76421543D01*
X36756057Y-76413960D01*
X36754260Y-76388172D01*
X36760469Y-76361042D01*
X36769621Y-76372811D01*
G37*
G36*
X66144044Y-17899099D02*
G01*
X16081382Y-17899099D01*
X16081382Y-17110911D01*
X66144044Y-17110911D01*
X66144044Y-17899099D01*
G37*
G36*
X40775826Y-73079755D02*
G01*
X40787875Y-73086042D01*
X40755931Y-73090031D01*
X40718619Y-73090773D01*
X40663627Y-73088790D01*
X40648532Y-73083719D01*
X40661412Y-73079755D01*
X40735501Y-73075548D01*
X40775826Y-73079755D01*
G37*
G36*
X42072523Y-73157136D02*
G01*
X42075717Y-73166416D01*
X42040741Y-73169960D01*
X42004646Y-73165964D01*
X42008959Y-73157136D01*
X42061014Y-73153777D01*
X42072523Y-73157136D01*
G37*
G36*
X40025246Y-81930385D02*
G01*
X40017663Y-81941941D01*
X39991875Y-81943739D01*
X39964746Y-81937529D01*
X39976514Y-81928378D01*
X40016251Y-81925347D01*
X40025246Y-81930385D01*
G37*
G36*
X44882917Y-80048655D02*
G01*
X44874948Y-80064265D01*
X44831263Y-80132322D01*
X44761619Y-80227595D01*
X44674299Y-80339703D01*
X44577585Y-80458269D01*
X44479762Y-80572913D01*
X44389111Y-80673258D01*
X44387891Y-80674555D01*
X44233895Y-80827630D01*
X44057900Y-80984844D01*
X43870196Y-81138271D01*
X43681068Y-81279984D01*
X43500805Y-81402057D01*
X43339694Y-81496562D01*
X43286587Y-81523148D01*
X43240274Y-81543273D01*
X43228817Y-81544393D01*
X43235736Y-81538972D01*
X43272517Y-81515157D01*
X43341581Y-81471567D01*
X43431927Y-81415117D01*
X43502703Y-81371179D01*
X43867030Y-81117542D01*
X44209196Y-80823392D01*
X44519686Y-80497472D01*
X44703782Y-80267668D01*
X44790703Y-80152202D01*
X44849779Y-80076919D01*
X44880640Y-80042256D01*
X44882917Y-80048655D01*
G37*
G36*
X45490542Y-78635674D02*
G01*
X45493573Y-78675410D01*
X45488534Y-78684406D01*
X45476978Y-78676823D01*
X45475181Y-78651035D01*
X45481390Y-78623905D01*
X45490542Y-78635674D01*
G37*
G36*
X24821371Y-121600925D02*
G01*
X26913549Y-121596668D01*
X29011163Y-121593062D01*
X31117691Y-121590108D01*
X33236607Y-121587806D01*
X35371389Y-121586155D01*
X37525510Y-121585157D01*
X39702448Y-121584810D01*
X41905677Y-121585115D01*
X44138674Y-121586071D01*
X46404914Y-121587680D01*
X48707873Y-121589940D01*
X51051026Y-121592852D01*
X53437850Y-121596416D01*
X55871819Y-121600631D01*
X56031081Y-121600927D01*
X65127027Y-121617861D01*
X65127027Y-196690691D01*
X17098399Y-196690691D01*
X17098399Y-194682082D01*
X23378479Y-194682082D01*
X26302403Y-194682082D01*
X26302403Y-190989039D01*
X26479796Y-190989039D01*
X26487148Y-191015773D01*
X26508611Y-191087224D01*
X26543010Y-191199610D01*
X26589168Y-191349149D01*
X26645910Y-191532059D01*
X26712061Y-191744559D01*
X26786445Y-191982866D01*
X26867886Y-192243199D01*
X26955209Y-192521776D01*
X27047239Y-192814815D01*
X27056758Y-192845095D01*
X27634304Y-194682082D01*
X28179797Y-194682082D01*
X48880180Y-194682082D01*
X49155793Y-194682082D01*
X51193894Y-194682082D01*
X51804104Y-194682082D01*
X56507808Y-194682082D01*
X57143444Y-194682082D01*
X57143444Y-191625519D01*
X57213363Y-191642166D01*
X57311093Y-191675528D01*
X57429987Y-191730753D01*
X57551208Y-191798307D01*
X57645596Y-191860931D01*
X57753654Y-191940536D01*
X57753654Y-194682082D01*
X58363864Y-194682082D01*
X58363864Y-190969970D01*
X57753654Y-190969970D01*
X57753654Y-191196001D01*
X57610346Y-191132624D01*
X57341195Y-191039475D01*
X57045345Y-190984943D01*
X56781131Y-190970149D01*
X56507808Y-190969970D01*
X56507808Y-194682082D01*
X51804104Y-194682082D01*
X51804104Y-190969970D01*
X51193894Y-190969970D01*
X51193894Y-194682082D01*
X49155793Y-194682082D01*
X49379495Y-194673215D01*
X49569015Y-194645654D01*
X49623725Y-194632895D01*
X49905011Y-194535647D01*
X50162630Y-194396300D01*
X50393038Y-194219456D01*
X50592688Y-194009718D01*
X50758033Y-193771689D01*
X50885529Y-193509970D01*
X50971628Y-193229164D01*
X51012784Y-192933874D01*
X51015916Y-192826026D01*
X50991244Y-192525743D01*
X50919329Y-192237266D01*
X50803327Y-191965613D01*
X50646389Y-191715800D01*
X50451670Y-191492847D01*
X50222323Y-191301769D01*
X49961502Y-191147584D01*
X49960761Y-191147224D01*
X49765923Y-191063749D01*
X49577515Y-191009116D01*
X49377249Y-190979316D01*
X49153504Y-190970346D01*
X48880180Y-190969970D01*
X48880180Y-194682082D01*
X28179797Y-194682082D01*
X28218787Y-194561312D01*
X28232985Y-194516664D01*
X28261028Y-194427863D01*
X28301543Y-194299279D01*
X28353158Y-194135277D01*
X28414498Y-193940226D01*
X28484189Y-193718495D01*
X28560860Y-193474449D01*
X28584511Y-193399136D01*
X31010469Y-193399136D01*
X31055931Y-193646848D01*
X31147922Y-193883716D01*
X31285613Y-194104601D01*
X31422250Y-194260549D01*
X31618865Y-194431271D01*
X31820891Y-194554782D01*
X32036713Y-194634635D01*
X32274713Y-194674386D01*
X32412734Y-194680409D01*
X32557004Y-194676593D01*
X32677722Y-194660027D01*
X32801425Y-194626724D01*
X32827876Y-194618034D01*
X33067687Y-194512803D01*
X33282208Y-194369440D01*
X33467223Y-194193618D01*
X33618516Y-193991009D01*
X33731870Y-193767286D01*
X33803070Y-193528123D01*
X33827898Y-193279191D01*
X33827887Y-193272658D01*
X33803708Y-193036661D01*
X33736657Y-192802429D01*
X33631967Y-192579853D01*
X33494873Y-192378822D01*
X33330611Y-192209227D01*
X33221424Y-192126827D01*
X33142075Y-192073233D01*
X33097421Y-192035879D01*
X33079405Y-192003475D01*
X33079972Y-191964727D01*
X33085385Y-191936137D01*
X33100699Y-191748339D01*
X33071053Y-191571898D01*
X33001301Y-191412877D01*
X32896297Y-191277340D01*
X32760895Y-191171351D01*
X32599949Y-191100974D01*
X32418314Y-191072274D01*
X32393619Y-191071920D01*
X32229654Y-191096113D01*
X32079010Y-191162970D01*
X31947338Y-191264888D01*
X31840291Y-191394263D01*
X31763520Y-191543490D01*
X31722677Y-191704964D01*
X31723413Y-191871083D01*
X31740367Y-191950834D01*
X31750272Y-191999561D01*
X31739039Y-192033857D01*
X31697775Y-192069049D01*
X31655934Y-192096315D01*
X31540673Y-192184180D01*
X31417653Y-192302416D01*
X31300957Y-192435471D01*
X31204665Y-192567794D01*
X31161538Y-192642344D01*
X31062445Y-192891744D01*
X31012364Y-193145722D01*
X31010469Y-193399136D01*
X28584511Y-193399136D01*
X28643136Y-193212458D01*
X28729644Y-192936889D01*
X28768426Y-192813314D01*
X28856228Y-192533608D01*
X28940313Y-192265901D01*
X29019319Y-192014517D01*
X29091884Y-191783781D01*
X29156649Y-191578016D01*
X29212250Y-191401549D01*
X29257327Y-191258704D01*
X29290518Y-191153805D01*
X29310462Y-191091178D01*
X29314722Y-191078028D01*
X29350367Y-190969970D01*
X28701495Y-190969970D01*
X28310298Y-192228349D01*
X28234789Y-192469818D01*
X28163402Y-192695359D01*
X28097600Y-192900539D01*
X28038848Y-193080926D01*
X27988606Y-193232085D01*
X27948339Y-193349585D01*
X27919509Y-193428991D01*
X27903580Y-193465872D01*
X27901236Y-193467839D01*
X27890319Y-193440450D01*
X27865967Y-193369285D01*
X27829725Y-193259160D01*
X27783137Y-193114894D01*
X27727751Y-192941303D01*
X27665110Y-192743205D01*
X27596761Y-192525417D01*
X27524249Y-192292757D01*
X27524042Y-192292092D01*
X27450930Y-192056751D01*
X27381709Y-191834019D01*
X27317988Y-191629066D01*
X27261375Y-191447061D01*
X27213478Y-191293173D01*
X27175906Y-191172570D01*
X27150266Y-191090421D01*
X27138393Y-191052603D01*
X27112073Y-190969970D01*
X26796227Y-190969970D01*
X26676165Y-190971409D01*
X26576994Y-190975335D01*
X26508394Y-190981165D01*
X26480044Y-190988316D01*
X26479796Y-190989039D01*
X26302403Y-190989039D01*
X26302403Y-190969970D01*
X25692192Y-190969970D01*
X25692192Y-194682082D01*
X23650178Y-194682082D01*
X23814022Y-194676945D01*
X23966809Y-194662757D01*
X24088766Y-194641355D01*
X24364570Y-194549118D01*
X24618473Y-194415195D01*
X24847209Y-194244630D01*
X25047511Y-194042467D01*
X25216113Y-193813749D01*
X25349749Y-193563521D01*
X25445152Y-193296826D01*
X25499056Y-193018707D01*
X25508194Y-192734210D01*
X25479005Y-192494602D01*
X25434188Y-192327245D01*
X25364842Y-192143148D01*
X25278686Y-191958676D01*
X25183437Y-191790196D01*
X25086811Y-191654074D01*
X25077421Y-191642932D01*
X24853061Y-191414542D01*
X24612789Y-191234188D01*
X24354982Y-191101103D01*
X24078018Y-191014521D01*
X23780276Y-190973675D01*
X23652816Y-190969970D01*
X23378479Y-190969970D01*
X23378479Y-194682082D01*
X17098399Y-194682082D01*
X17098399Y-190968422D01*
X51978164Y-190968422D01*
X51996703Y-191026403D01*
X52007218Y-191059678D01*
X52031736Y-191137489D01*
X52069008Y-191255864D01*
X52117783Y-191410830D01*
X52176812Y-191598415D01*
X52244845Y-191814647D01*
X52320632Y-192055552D01*
X52402923Y-192317159D01*
X52490467Y-192595494D01*
X52570966Y-192851452D01*
X52661876Y-193140448D01*
X52748482Y-193415620D01*
X52829556Y-193673069D01*
X52903867Y-193908897D01*
X52970184Y-194119204D01*
X53027279Y-194300092D01*
X53073921Y-194447661D01*
X53108880Y-194558013D01*
X53130926Y-194627248D01*
X53138705Y-194651166D01*
X53158578Y-194666306D01*
X53209091Y-194675167D01*
X53296986Y-194678351D01*
X53424026Y-194676591D01*
X53697332Y-194669370D01*
X54262199Y-192876877D01*
X54354116Y-192585047D01*
X54441780Y-192306430D01*
X54523956Y-192044969D01*
X54599411Y-191804602D01*
X54666911Y-191589269D01*
X54725220Y-191402911D01*
X54773107Y-191249467D01*
X54809335Y-191132878D01*
X54832672Y-191057083D01*
X54841787Y-191026413D01*
X54856508Y-190968441D01*
X54211706Y-190982683D01*
X53816005Y-192252611D01*
X53420304Y-193522538D01*
X53381532Y-193396755D01*
X53366121Y-193347053D01*
X53337259Y-193254260D01*
X53296645Y-193123830D01*
X53245978Y-192961212D01*
X53186956Y-192771858D01*
X53121279Y-192561220D01*
X53050645Y-192334750D01*
X52985779Y-192126827D01*
X52628798Y-190982683D01*
X52303481Y-190975552D01*
X51978164Y-190968422D01*
X17098399Y-190968422D01*
X17098399Y-182651378D01*
X21602821Y-182651378D01*
X21623422Y-183218829D01*
X21689630Y-183783119D01*
X21801432Y-184341104D01*
X21958815Y-184889642D01*
X22161766Y-185425589D01*
X22410270Y-185945802D01*
X22704315Y-186447138D01*
X22769314Y-186545946D01*
X22951192Y-186805727D01*
X23137049Y-187046175D01*
X23338292Y-187281010D01*
X23566333Y-187523952D01*
X23669170Y-187628034D01*
X24110253Y-188033658D01*
X24578651Y-188396744D01*
X25072577Y-188716453D01*
X25590244Y-188991945D01*
X26129864Y-189222382D01*
X26689651Y-189406925D01*
X27267817Y-189544736D01*
X27862575Y-189634975D01*
X27968210Y-189645812D01*
X28148073Y-189657499D01*
X28364844Y-189662895D01*
X28605021Y-189662385D01*
X28855101Y-189656352D01*
X29101582Y-189645183D01*
X29330961Y-189629261D01*
X29529736Y-189608972D01*
X29600519Y-189599290D01*
X30168657Y-189491416D01*
X30714299Y-189341118D01*
X31246816Y-189145467D01*
X31681968Y-188948293D01*
X32203378Y-188664253D01*
X32694998Y-188340185D01*
X33154933Y-187978415D01*
X33438093Y-187714656D01*
X38626133Y-187714656D01*
X38647724Y-188041518D01*
X38711781Y-188362669D01*
X38817689Y-188673623D01*
X38964834Y-188969897D01*
X39152601Y-189247005D01*
X39380375Y-189500464D01*
X39647542Y-189725789D01*
X39668747Y-189741141D01*
X39964842Y-189922503D01*
X40281966Y-190059462D01*
X40614644Y-190151015D01*
X40957404Y-190196158D01*
X41304772Y-190193887D01*
X41651274Y-190143197D01*
X41742454Y-190121472D01*
X42071299Y-190011101D01*
X42377054Y-189857788D01*
X42656397Y-189665440D01*
X42906008Y-189437966D01*
X43122567Y-189179273D01*
X43302754Y-188893269D01*
X43443247Y-188583862D01*
X43540727Y-188254960D01*
X43588647Y-187948675D01*
X43596651Y-187792818D01*
X43595397Y-187618194D01*
X43585765Y-187444009D01*
X43568635Y-187289467D01*
X43554978Y-187213493D01*
X43539137Y-187141369D01*
X45369672Y-186409293D01*
X45660369Y-186293116D01*
X45937997Y-186182318D01*
X46198848Y-186078369D01*
X46439214Y-185982739D01*
X46655385Y-185896899D01*
X46843654Y-185822320D01*
X47000311Y-185760472D01*
X47121649Y-185712827D01*
X47203958Y-185680854D01*
X47243531Y-185666024D01*
X47246022Y-185665236D01*
X47277738Y-185669669D01*
X47311318Y-185705320D01*
X47353402Y-185779835D01*
X47363802Y-185800852D01*
X47532084Y-186115062D01*
X47735428Y-186443452D01*
X47965269Y-186774627D01*
X48213042Y-187097194D01*
X48470181Y-187399759D01*
X48728119Y-187670926D01*
X48871606Y-187806523D01*
X49346530Y-188203410D01*
X49840269Y-188553212D01*
X50352405Y-188855754D01*
X50882519Y-189110865D01*
X51430191Y-189318372D01*
X51995004Y-189478102D01*
X52576537Y-189589882D01*
X53174371Y-189653540D01*
X53380481Y-189664161D01*
X53972357Y-189661413D01*
X54558656Y-189608649D01*
X55136711Y-189506617D01*
X55703855Y-189356068D01*
X56257421Y-189157753D01*
X56794741Y-188912422D01*
X57313150Y-188620824D01*
X57488894Y-188508460D01*
X57743877Y-188332168D01*
X57982225Y-188149476D01*
X58216602Y-187949887D01*
X58459673Y-187722902D01*
X58581487Y-187602802D01*
X58988832Y-187160366D01*
X59352390Y-186692171D01*
X59671851Y-186198834D01*
X59946905Y-185680969D01*
X60177241Y-185139194D01*
X60362549Y-184574123D01*
X60502519Y-183986372D01*
X60555189Y-183685586D01*
X60582936Y-183456349D01*
X60602165Y-183190826D01*
X60612872Y-182902319D01*
X60615054Y-182604130D01*
X60608709Y-182309559D01*
X60593833Y-182031910D01*
X60570423Y-181784484D01*
X60555629Y-181676977D01*
X60437108Y-181073188D01*
X60273658Y-180492558D01*
X60065625Y-179935774D01*
X59813355Y-179403528D01*
X59517193Y-178896508D01*
X59177485Y-178415404D01*
X58794577Y-177960906D01*
X58579687Y-177736490D01*
X58138095Y-177329897D01*
X57669166Y-176965874D01*
X57174575Y-176645228D01*
X56655998Y-176368769D01*
X56115110Y-176137303D01*
X55553587Y-175951638D01*
X54973105Y-175812583D01*
X54407159Y-175724568D01*
X54228541Y-175709083D01*
X54015282Y-175699043D01*
X53779009Y-175694276D01*
X53531348Y-175694611D01*
X53283926Y-175699879D01*
X53048370Y-175709907D01*
X52836305Y-175724526D01*
X52659359Y-175743564D01*
X52609503Y-175750974D01*
X52049857Y-175860652D01*
X51523415Y-176003225D01*
X51022384Y-176181503D01*
X50538971Y-176398296D01*
X50065384Y-176656414D01*
X50015054Y-176686545D01*
X49522805Y-177012947D01*
X49062273Y-177377578D01*
X48635453Y-177777751D01*
X48244340Y-178210780D01*
X47890928Y-178673978D01*
X47577214Y-179164659D01*
X47305193Y-179680137D01*
X47076860Y-180217724D01*
X46894210Y-180774736D01*
X46846818Y-180952353D01*
X46769721Y-181284967D01*
X46712534Y-181598903D01*
X46673344Y-181910224D01*
X46650239Y-182234993D01*
X46641308Y-182589272D01*
X46641062Y-182681282D01*
X46661815Y-183256698D01*
X46723013Y-183803651D01*
X46825051Y-184325010D01*
X46909693Y-184638983D01*
X46938467Y-184738334D01*
X46960456Y-184820380D01*
X46972209Y-184871992D01*
X46973273Y-184880926D01*
X46950216Y-184894726D01*
X46883417Y-184925720D01*
X46776436Y-184972436D01*
X46632831Y-185033398D01*
X46456161Y-185107136D01*
X46249986Y-185192174D01*
X46017863Y-185287041D01*
X45763353Y-185390263D01*
X45490015Y-185500367D01*
X45201406Y-185615880D01*
X45101315Y-185655773D01*
X44756470Y-185792955D01*
X44455802Y-185912254D01*
X44196319Y-186014780D01*
X43975026Y-186101644D01*
X43788932Y-186173956D01*
X43635043Y-186232827D01*
X43510365Y-186279366D01*
X43411905Y-186314684D01*
X43336671Y-186339891D01*
X43281669Y-186356097D01*
X43243906Y-186364413D01*
X43220389Y-186365949D01*
X43208124Y-186361815D01*
X43205743Y-186358904D01*
X43149787Y-186275366D01*
X43065964Y-186170160D01*
X42964809Y-186054953D01*
X42856858Y-185941411D01*
X42752645Y-185841200D01*
X42688072Y-185785642D01*
X42391553Y-185577839D01*
X42078694Y-185418106D01*
X41750288Y-185306702D01*
X41407125Y-185243888D01*
X41049999Y-185229923D01*
X40998298Y-185231911D01*
X40639833Y-185273186D01*
X40299896Y-185361027D01*
X39981012Y-185494162D01*
X39685706Y-185671315D01*
X39416502Y-185891211D01*
X39176687Y-186151625D01*
X38976726Y-186439779D01*
X38822305Y-186744644D01*
X38712809Y-187061734D01*
X38647623Y-187386567D01*
X38626133Y-187714656D01*
X33438093Y-187714656D01*
X33581290Y-187581270D01*
X33972176Y-187151077D01*
X34325695Y-186690161D01*
X34639956Y-186200851D01*
X34913062Y-185685473D01*
X35143122Y-185146353D01*
X35328241Y-184585818D01*
X35375658Y-184410211D01*
X35489902Y-183868286D01*
X35561089Y-183307771D01*
X35588862Y-182737687D01*
X35572865Y-182167059D01*
X35512739Y-181604911D01*
X35491925Y-181473574D01*
X35471561Y-181366698D01*
X35442416Y-181231712D01*
X35407427Y-181080520D01*
X35369536Y-180925028D01*
X35331681Y-180777144D01*
X35296802Y-180648771D01*
X35267838Y-180551817D01*
X35255670Y-180516659D01*
X35230717Y-180451029D01*
X37097877Y-179706248D01*
X37390511Y-179589743D01*
X37669384Y-179479151D01*
X37930910Y-179375866D01*
X38171504Y-179281285D01*
X38387582Y-179196803D01*
X38575560Y-179123814D01*
X38731852Y-179063715D01*
X38852873Y-179017900D01*
X38935040Y-178987767D01*
X38974768Y-178974708D01*
X38977948Y-178974378D01*
X38998580Y-179000592D01*
X39038865Y-179055349D01*
X39079003Y-179111265D01*
X39138230Y-179187158D01*
X39219539Y-179281770D01*
X39308454Y-179378468D01*
X39339029Y-179410068D01*
X39604081Y-179644839D01*
X39892766Y-179836562D01*
X40200568Y-179984483D01*
X40522968Y-180087849D01*
X40855449Y-180145907D01*
X41193493Y-180157902D01*
X41532584Y-180123082D01*
X41868204Y-180040693D01*
X42195835Y-179909982D01*
X42231432Y-179892502D01*
X42531774Y-179714388D01*
X42801100Y-179498213D01*
X43036430Y-179248340D01*
X43234786Y-178969130D01*
X43393186Y-178664948D01*
X43508652Y-178340156D01*
X43578203Y-177999116D01*
X43588674Y-177905340D01*
X43596684Y-177555001D01*
X43557239Y-177214741D01*
X43473165Y-176888267D01*
X43347288Y-176579286D01*
X43182433Y-176291504D01*
X42981424Y-176028628D01*
X42747088Y-175794364D01*
X42482250Y-175592418D01*
X42189735Y-175426497D01*
X41872368Y-175300307D01*
X41540896Y-175218924D01*
X41193379Y-175182494D01*
X40854828Y-175193645D01*
X40528407Y-175249438D01*
X40217280Y-175346935D01*
X39924609Y-175483199D01*
X39653560Y-175655290D01*
X39407295Y-175860272D01*
X39188978Y-176095206D01*
X39001773Y-176357153D01*
X38848844Y-176643175D01*
X38733354Y-176950336D01*
X38658467Y-177275695D01*
X38627347Y-177616316D01*
X38637627Y-177915183D01*
X38647883Y-178023095D01*
X38657028Y-178112763D01*
X38663735Y-178171481D01*
X38665905Y-178185983D01*
X38643663Y-178198123D01*
X38578572Y-178227446D01*
X38474971Y-178272182D01*
X38337195Y-178330561D01*
X38169584Y-178400812D01*
X37976474Y-178481164D01*
X37762204Y-178569846D01*
X37531110Y-178665089D01*
X37287531Y-178765121D01*
X37035803Y-178868173D01*
X36780265Y-178972473D01*
X36525255Y-179076250D01*
X36275109Y-179177735D01*
X36034165Y-179275157D01*
X35806762Y-179366745D01*
X35597236Y-179450728D01*
X35409924Y-179525336D01*
X35249166Y-179588799D01*
X35119298Y-179639346D01*
X35024657Y-179675205D01*
X34971668Y-179693948D01*
X34943486Y-179685211D01*
X34906622Y-179639824D01*
X34857567Y-179553031D01*
X34835595Y-179509411D01*
X34579947Y-179044892D01*
X34279032Y-178593373D01*
X33937866Y-178160271D01*
X33561466Y-177751005D01*
X33154847Y-177370990D01*
X32723025Y-177025645D01*
X32271016Y-176720385D01*
X32229915Y-176695305D01*
X31741616Y-176424665D01*
X31240732Y-176196947D01*
X30720846Y-176009832D01*
X30175540Y-175861003D01*
X29615922Y-175750974D01*
X29453487Y-175730479D01*
X29252000Y-175714347D01*
X29023089Y-175702747D01*
X28778379Y-175695850D01*
X28529498Y-175693827D01*
X28288072Y-175696849D01*
X28065727Y-175705086D01*
X27874090Y-175718710D01*
X27818267Y-175724568D01*
X27224764Y-175818395D01*
X26647779Y-175959509D01*
X26089526Y-176146547D01*
X25552219Y-176378145D01*
X25038073Y-176652938D01*
X24549301Y-176969563D01*
X24088118Y-177326655D01*
X23656739Y-177722851D01*
X23257377Y-178156786D01*
X22892247Y-178627097D01*
X22736736Y-178854755D01*
X22437713Y-179356320D01*
X22184391Y-179876727D01*
X21976756Y-180412833D01*
X21814794Y-180961494D01*
X21698494Y-181519568D01*
X21627840Y-182083910D01*
X21602821Y-182651378D01*
X17098399Y-182651378D01*
X17098399Y-169663464D01*
X23632403Y-169663464D01*
X23888159Y-169663464D01*
X25946117Y-169663464D01*
X26556657Y-169663464D01*
X26556657Y-165964064D01*
X26751090Y-165964064D01*
X26759143Y-165991882D01*
X26781262Y-166064356D01*
X26816246Y-166177638D01*
X26862897Y-166327880D01*
X26920013Y-166511232D01*
X26986394Y-166723846D01*
X27060840Y-166961874D01*
X27142150Y-167221467D01*
X27229125Y-167498777D01*
X27318058Y-167781982D01*
X27409629Y-168073446D01*
X27496928Y-168351376D01*
X27578729Y-168611871D01*
X27653809Y-168851026D01*
X27720941Y-169064937D01*
X27778902Y-169249702D01*
X27826466Y-169401416D01*
X27862409Y-169516176D01*
X27885505Y-169590080D01*
X27894457Y-169618969D01*
X27906238Y-169638919D01*
X27933515Y-169651920D01*
X27985422Y-169659393D01*
X28071092Y-169662763D01*
X28180032Y-169663464D01*
X28452433Y-169663464D01*
X28462432Y-169631682D01*
X31304409Y-169631682D01*
X31307464Y-169639647D01*
X31332680Y-169646244D01*
X31383764Y-169651584D01*
X31464418Y-169655778D01*
X31578349Y-169658937D01*
X31729260Y-169661172D01*
X31920856Y-169662595D01*
X32156842Y-169663316D01*
X32363253Y-169663464D01*
X33446947Y-169663464D01*
X48625596Y-169663464D01*
X48881353Y-169663464D01*
X50939310Y-169663464D01*
X51549850Y-169663464D01*
X51549850Y-165964064D01*
X51744005Y-165964064D01*
X51752028Y-165991957D01*
X51774106Y-166064414D01*
X51809013Y-166177499D01*
X51855520Y-166327277D01*
X51912400Y-166509811D01*
X51978425Y-166721165D01*
X52052367Y-166957405D01*
X52132999Y-167214594D01*
X52219092Y-167488796D01*
X52287282Y-167705706D01*
X52377706Y-167993273D01*
X52464398Y-168269126D01*
X52546030Y-168529037D01*
X52621277Y-168768774D01*
X52688811Y-168984109D01*
X52747308Y-169170809D01*
X52795440Y-169324646D01*
X52831881Y-169441389D01*
X52855306Y-169516807D01*
X52863231Y-169542693D01*
X52899368Y-169663464D01*
X53444441Y-169663464D01*
X53696437Y-168862472D01*
X56278979Y-168862472D01*
X56303377Y-168865654D01*
X56372462Y-168868548D01*
X56480070Y-168871051D01*
X56620038Y-168873063D01*
X56786203Y-168874481D01*
X56972400Y-168875204D01*
X57054455Y-168875276D01*
X57829930Y-168875276D01*
X57829930Y-169663464D01*
X58440140Y-169663464D01*
X58440140Y-168875276D01*
X58618118Y-168875276D01*
X58618118Y-168265065D01*
X58440140Y-168265065D01*
X58440140Y-167680281D01*
X57829930Y-167680281D01*
X57829930Y-168265065D01*
X57537538Y-168265065D01*
X57422420Y-168264023D01*
X57328639Y-168261191D01*
X57266232Y-168257008D01*
X57245145Y-168252237D01*
X57256174Y-168227621D01*
X57287793Y-168162005D01*
X57337799Y-168059846D01*
X57403989Y-167925599D01*
X57484159Y-167763721D01*
X57576109Y-167578669D01*
X57677633Y-167374900D01*
X57786530Y-167156869D01*
X57791850Y-167146231D01*
X58338554Y-166053053D01*
X57677468Y-166053053D01*
X56978224Y-167451361D01*
X56854343Y-167699292D01*
X56737472Y-167933589D01*
X56629555Y-168150324D01*
X56532540Y-168345570D01*
X56448372Y-168515399D01*
X56378998Y-168655883D01*
X56326364Y-168763094D01*
X56292416Y-168833105D01*
X56279101Y-168861988D01*
X56278979Y-168862472D01*
X53696437Y-168862472D01*
X54022671Y-167825509D01*
X54115261Y-167530808D01*
X54203268Y-167249918D01*
X54285514Y-166986652D01*
X54360818Y-166744822D01*
X54428002Y-166528239D01*
X54485885Y-166340717D01*
X54533289Y-166186065D01*
X54569034Y-166068098D01*
X54591940Y-165990625D01*
X54600829Y-165957460D01*
X54600901Y-165956741D01*
X54584867Y-165942601D01*
X54533407Y-165933092D01*
X54441487Y-165927705D01*
X54304073Y-165925929D01*
X54296690Y-165925926D01*
X54165421Y-165926809D01*
X54076063Y-165930265D01*
X54019699Y-165937506D01*
X53987406Y-165949742D01*
X53970266Y-165968186D01*
X53969041Y-165970421D01*
X53957065Y-166002909D01*
X53931643Y-166079147D01*
X53894315Y-166194292D01*
X53846620Y-166343501D01*
X53790099Y-166521930D01*
X53726289Y-166724737D01*
X53656731Y-166947078D01*
X53582965Y-167184110D01*
X53571015Y-167222623D01*
X53497033Y-167460465D01*
X53427248Y-167683501D01*
X53363162Y-167887023D01*
X53306276Y-168066325D01*
X53258092Y-168216697D01*
X53220111Y-168333433D01*
X53193836Y-168411825D01*
X53180767Y-168447166D01*
X53179941Y-168448584D01*
X53169467Y-168428608D01*
X53145500Y-168364453D01*
X53109497Y-168260544D01*
X53062914Y-168121306D01*
X53007208Y-167951163D01*
X52943837Y-167754540D01*
X52874258Y-167535861D01*
X52799926Y-167299551D01*
X52769705Y-167202738D01*
X52375957Y-165938639D01*
X52058249Y-165938639D01*
X51919155Y-165940592D01*
X51817471Y-165946194D01*
X51757996Y-165955055D01*
X51744005Y-165964064D01*
X51549850Y-165964064D01*
X51549850Y-165924313D01*
X50952352Y-165938639D01*
X50945831Y-167801051D01*
X50939310Y-169663464D01*
X48881353Y-169663464D01*
X49023620Y-169658718D01*
X49169393Y-169645989D01*
X49294579Y-169627542D01*
X49320106Y-169622240D01*
X49605573Y-169532579D01*
X49869684Y-169398988D01*
X50108556Y-169225289D01*
X50318305Y-169015306D01*
X50495051Y-168772862D01*
X50634910Y-168501780D01*
X50725583Y-168238169D01*
X50753618Y-168087563D01*
X50768025Y-167907170D01*
X50768755Y-167716210D01*
X50755754Y-167533901D01*
X50728973Y-167379463D01*
X50727882Y-167375176D01*
X50628409Y-167088044D01*
X50484895Y-166819900D01*
X50302137Y-166576784D01*
X50084935Y-166364740D01*
X49838087Y-166189809D01*
X49745823Y-166138597D01*
X49527244Y-166041634D01*
X49306802Y-165979097D01*
X49068101Y-165947126D01*
X48906771Y-165940985D01*
X48638639Y-165938639D01*
X48632117Y-167801051D01*
X48625596Y-169663464D01*
X33446947Y-169663464D01*
X33446947Y-169054401D01*
X32527183Y-169040541D01*
X32948819Y-168512163D01*
X33090544Y-168333739D01*
X33203747Y-168188592D01*
X33292211Y-168070733D01*
X33359724Y-167974170D01*
X33410072Y-167892914D01*
X33447039Y-167820975D01*
X33474413Y-167752363D01*
X33495979Y-167681087D01*
X33510243Y-167623874D01*
X33546033Y-167368891D01*
X33532122Y-167122571D01*
X33469328Y-166887770D01*
X33358469Y-166667343D01*
X33200361Y-166464148D01*
X33168968Y-166431649D01*
X32972186Y-166266078D01*
X32759551Y-166147044D01*
X32534685Y-166075518D01*
X32301213Y-166052468D01*
X32062757Y-166078866D01*
X31955882Y-166106800D01*
X31858898Y-166139875D01*
X31758191Y-166179354D01*
X31665100Y-166220111D01*
X31590966Y-166257022D01*
X31547129Y-166284961D01*
X31540040Y-166294727D01*
X31552257Y-166318150D01*
X31584596Y-166374144D01*
X31630584Y-166451938D01*
X31683753Y-166540760D01*
X31737631Y-166629838D01*
X31785747Y-166708398D01*
X31821632Y-166765670D01*
X31835525Y-166786649D01*
X31859904Y-166781659D01*
X31916620Y-166759560D01*
X31977006Y-166732657D01*
X32122597Y-166675012D01*
X32249512Y-166650206D01*
X32375479Y-166655570D01*
X32426805Y-166664969D01*
X32594569Y-166726080D01*
X32740918Y-166829389D01*
X32855915Y-166967557D01*
X32871230Y-166993273D01*
X32915561Y-167080555D01*
X32939485Y-167158288D01*
X32948967Y-167250441D01*
X32950163Y-167310414D01*
X32946724Y-167420936D01*
X32931800Y-167502728D01*
X32900671Y-167577460D01*
X32886186Y-167604004D01*
X32857300Y-167647047D01*
X32800138Y-167725298D01*
X32718168Y-167834240D01*
X32614862Y-167969360D01*
X32493690Y-168126140D01*
X32358122Y-168300067D01*
X32211628Y-168486624D01*
X32075239Y-168659160D01*
X31924042Y-168849841D01*
X31782074Y-169028900D01*
X31652552Y-169192279D01*
X31538693Y-169335919D01*
X31443713Y-169455763D01*
X31370827Y-169547754D01*
X31323253Y-169607832D01*
X31304409Y-169631682D01*
X28462432Y-169631682D01*
X29030393Y-167826477D01*
X29122963Y-167531829D01*
X29210942Y-167250970D01*
X29293150Y-166987718D01*
X29368409Y-166745887D01*
X29435538Y-166529293D01*
X29493358Y-166341751D01*
X29540691Y-166187076D01*
X29576356Y-166069085D01*
X29599175Y-165991592D01*
X29607967Y-165958413D01*
X29608030Y-165957708D01*
X29593569Y-165943317D01*
X29546688Y-165933632D01*
X29461624Y-165928052D01*
X29332613Y-165925975D01*
X29303497Y-165925926D01*
X29172273Y-165926805D01*
X29082974Y-165930249D01*
X29026691Y-165937469D01*
X28994517Y-165949678D01*
X28977543Y-165968085D01*
X28976283Y-165970421D01*
X28964394Y-166002909D01*
X28939057Y-166079147D01*
X28901810Y-166194292D01*
X28854190Y-166343500D01*
X28797734Y-166521929D01*
X28733980Y-166724735D01*
X28664464Y-166947076D01*
X28590726Y-167184108D01*
X28578778Y-167222623D01*
X28504815Y-167460442D01*
X28435045Y-167683433D01*
X28370969Y-167886890D01*
X28314089Y-168066111D01*
X28265906Y-168216389D01*
X28227922Y-168333021D01*
X28201638Y-168411303D01*
X28188554Y-168446529D01*
X28187724Y-168447928D01*
X28177227Y-168427827D01*
X28153219Y-168363557D01*
X28117159Y-168259547D01*
X28070508Y-168120223D01*
X28014723Y-167950013D01*
X27951266Y-167753347D01*
X27881595Y-167534651D01*
X27807171Y-167298355D01*
X27777077Y-167202082D01*
X27382983Y-165938639D01*
X27065165Y-165938639D01*
X26925925Y-165940591D01*
X26824268Y-165946192D01*
X26764933Y-165955059D01*
X26751090Y-165964064D01*
X26556657Y-165964064D01*
X26556657Y-165924313D01*
X25959159Y-165938639D01*
X25952638Y-167801051D01*
X25946117Y-169663464D01*
X23888159Y-169663464D01*
X24030427Y-169658718D01*
X24176200Y-169645989D01*
X24301385Y-169627542D01*
X24326913Y-169622240D01*
X24612317Y-169532592D01*
X24876405Y-169399011D01*
X25115274Y-169225341D01*
X25325020Y-169015425D01*
X25501743Y-168773106D01*
X25641538Y-168502229D01*
X25732294Y-168238169D01*
X25760835Y-168084967D01*
X25775453Y-167902409D01*
X25776080Y-167710068D01*
X25762646Y-167527516D01*
X25735307Y-167375176D01*
X25682720Y-167216030D01*
X25606680Y-167040396D01*
X25516051Y-166865630D01*
X25419698Y-166709092D01*
X25342844Y-166606749D01*
X25132473Y-166395386D01*
X24891912Y-166217449D01*
X24630404Y-166078810D01*
X24370070Y-165988613D01*
X24250804Y-165966104D01*
X24099637Y-165950055D01*
X23935317Y-165942420D01*
X23925125Y-165942268D01*
X23645446Y-165938639D01*
X23638924Y-167801051D01*
X23632403Y-169663464D01*
X17098399Y-169663464D01*
X17098399Y-157716954D01*
X21613238Y-157716954D01*
X21615646Y-157934103D01*
X21621051Y-158137166D01*
X21629453Y-158315335D01*
X21640852Y-158457802D01*
X21646158Y-158501702D01*
X21754347Y-159107917D01*
X21908103Y-159693407D01*
X22106576Y-160256656D01*
X22348919Y-160796150D01*
X22634284Y-161310372D01*
X22961822Y-161797809D01*
X23330685Y-162256944D01*
X23740025Y-162686263D01*
X24188994Y-163084251D01*
X24230230Y-163117610D01*
X24667143Y-163438561D01*
X25136216Y-163727359D01*
X25630583Y-163981179D01*
X26143375Y-164197196D01*
X26667725Y-164372584D01*
X27196763Y-164504519D01*
X27723622Y-164590174D01*
X27840641Y-164602730D01*
X28070615Y-164623925D01*
X28263032Y-164638662D01*
X28430737Y-164647214D01*
X28586575Y-164649854D01*
X28743393Y-164646856D01*
X28914036Y-164638494D01*
X29061061Y-164628706D01*
X29659016Y-164561501D01*
X30242206Y-164447040D01*
X30808276Y-164286105D01*
X31354868Y-164079483D01*
X31879627Y-163827957D01*
X32380196Y-163532313D01*
X32408193Y-163513990D01*
X32640314Y-163357198D01*
X32841849Y-163211039D01*
X33027378Y-163063784D01*
X33211478Y-162903706D01*
X33317612Y-162804364D01*
X38626585Y-162804364D01*
X38665162Y-163143047D01*
X38748493Y-163467878D01*
X38873757Y-163775330D01*
X39038133Y-164061878D01*
X39238802Y-164323994D01*
X39472942Y-164558153D01*
X39737734Y-164760827D01*
X40030356Y-164928491D01*
X40347990Y-165057618D01*
X40687813Y-165144681D01*
X40801243Y-165163146D01*
X40980639Y-165176816D01*
X41188608Y-165174079D01*
X41406054Y-165156226D01*
X41613878Y-165124547D01*
X41719459Y-165101116D01*
X42051820Y-164991673D01*
X42360644Y-164839898D01*
X42642682Y-164649563D01*
X42894686Y-164424436D01*
X43113407Y-164168289D01*
X43295596Y-163884892D01*
X43438005Y-163578016D01*
X43537386Y-163251429D01*
X43588470Y-162931982D01*
X43595980Y-162794333D01*
X43596290Y-162638071D01*
X43590129Y-162479112D01*
X43578227Y-162333369D01*
X43561314Y-162216757D01*
X43554245Y-162185384D01*
X43537011Y-162118815D01*
X45388625Y-161378107D01*
X45680374Y-161261529D01*
X45958621Y-161150600D01*
X46219736Y-161046753D01*
X46460086Y-160951421D01*
X46676039Y-160866036D01*
X46863963Y-160792030D01*
X47020228Y-160730836D01*
X47141200Y-160683886D01*
X47223249Y-160652614D01*
X47262741Y-160638451D01*
X47265666Y-160637746D01*
X47286584Y-160659067D01*
X47325469Y-160717065D01*
X47377005Y-160803208D01*
X47435877Y-160908965D01*
X47443644Y-160923431D01*
X47602789Y-161202082D01*
X47787267Y-161493249D01*
X47984449Y-161778066D01*
X48181704Y-162037667D01*
X48225920Y-162092024D01*
X48360990Y-162247854D01*
X48522163Y-162421246D01*
X48698759Y-162601649D01*
X48880103Y-162778509D01*
X49055517Y-162941274D01*
X49214325Y-163079391D01*
X49274020Y-163127920D01*
X49757484Y-163478838D01*
X50263326Y-163784816D01*
X50789023Y-164045252D01*
X51332054Y-164259545D01*
X51889898Y-164427094D01*
X52460035Y-164547296D01*
X53039943Y-164619550D01*
X53627100Y-164643255D01*
X54218986Y-164617810D01*
X54813079Y-164542612D01*
X55033133Y-164502021D01*
X55593944Y-164364091D01*
X56139814Y-164179027D01*
X56667786Y-163949112D01*
X57174906Y-163676632D01*
X57658217Y-163363869D01*
X58114763Y-163013108D01*
X58541590Y-162626632D01*
X58935741Y-162206727D01*
X59294260Y-161755675D01*
X59614192Y-161275761D01*
X59892580Y-160769268D01*
X59910178Y-160733405D01*
X60150100Y-160184051D01*
X60341310Y-159623202D01*
X60483821Y-159053519D01*
X60577648Y-158477660D01*
X60622805Y-157898285D01*
X60619306Y-157318053D01*
X60567165Y-156739623D01*
X60466397Y-156165656D01*
X60317015Y-155598811D01*
X60119033Y-155041746D01*
X59877139Y-154506410D01*
X59591493Y-153993301D01*
X59265145Y-153508625D01*
X58900755Y-153054522D01*
X58500979Y-152633131D01*
X58068476Y-152246591D01*
X57605904Y-151897043D01*
X57115920Y-151586625D01*
X56601183Y-151317478D01*
X56064351Y-151091741D01*
X55508080Y-150911553D01*
X55363664Y-150873208D01*
X54782029Y-150751253D01*
X54197118Y-150678950D01*
X53611907Y-150655780D01*
X53029372Y-150681224D01*
X52452492Y-150754762D01*
X51884241Y-150875876D01*
X51327598Y-151044046D01*
X50785539Y-151258753D01*
X50261042Y-151519478D01*
X49757081Y-151825702D01*
X49706507Y-151859774D01*
X49513614Y-151994061D01*
X49344511Y-152119575D01*
X49186479Y-152246769D01*
X49026800Y-152386100D01*
X48852752Y-152548022D01*
X48756093Y-152640985D01*
X48345636Y-153073351D01*
X47976565Y-153533311D01*
X47649990Y-154018429D01*
X47367021Y-154526271D01*
X47128766Y-155054402D01*
X46936337Y-155600387D01*
X46790841Y-156161791D01*
X46693389Y-156736180D01*
X46647373Y-157268569D01*
X46640120Y-157814069D01*
X46669800Y-158346901D01*
X46735620Y-158860174D01*
X46836789Y-159346995D01*
X46920007Y-159642401D01*
X46992056Y-159872211D01*
X45108285Y-160625731D01*
X44714905Y-160782647D01*
X44366768Y-160920591D01*
X44064082Y-161039484D01*
X43807058Y-161139244D01*
X43595905Y-161219794D01*
X43430833Y-161281052D01*
X43312050Y-161322938D01*
X43239766Y-161345374D01*
X43214197Y-161348296D01*
X43194521Y-161316120D01*
X43150091Y-161254991D01*
X43088525Y-161175172D01*
X43048186Y-161124629D01*
X42807066Y-160865516D01*
X42536409Y-160646659D01*
X42239877Y-160469797D01*
X41921134Y-160336668D01*
X41583844Y-160249010D01*
X41231668Y-160208564D01*
X41112713Y-160205874D01*
X40760401Y-160230054D01*
X40423409Y-160300575D01*
X40105070Y-160414408D01*
X39808721Y-160568524D01*
X39537697Y-160759895D01*
X39295334Y-160985491D01*
X39084965Y-161242284D01*
X38909928Y-161527244D01*
X38773558Y-161837343D01*
X38679189Y-162169553D01*
X38635581Y-162455356D01*
X38626585Y-162804364D01*
X33317612Y-162804364D01*
X33408729Y-162719078D01*
X33469332Y-162660381D01*
X33878831Y-162227212D01*
X34247370Y-161766635D01*
X34573760Y-161281266D01*
X34856808Y-160773717D01*
X35095323Y-160246603D01*
X35288115Y-159702537D01*
X35433993Y-159144134D01*
X35531765Y-158574006D01*
X35578672Y-158031332D01*
X35585793Y-157600982D01*
X35569135Y-157167258D01*
X35529917Y-156740183D01*
X35469361Y-156329781D01*
X35388690Y-155946077D01*
X35289124Y-155599095D01*
X35278435Y-155567557D01*
X35230683Y-155428764D01*
X37102451Y-154680045D01*
X38974220Y-153931326D01*
X39093212Y-154099848D01*
X39306401Y-154358470D01*
X39557413Y-154586799D01*
X39840760Y-154781187D01*
X40150955Y-154937990D01*
X40482514Y-155053564D01*
X40558261Y-155073212D01*
X40778483Y-155111587D01*
X41025306Y-155129148D01*
X41278932Y-155125895D01*
X41519567Y-155101828D01*
X41667165Y-155073212D01*
X42006659Y-154965648D01*
X42322689Y-154815753D01*
X42611891Y-154626960D01*
X42870898Y-154402700D01*
X43096347Y-154146405D01*
X43284871Y-153861507D01*
X43433107Y-153551437D01*
X43537688Y-153219627D01*
X43553343Y-153149650D01*
X43577467Y-152988646D01*
X43591160Y-152798552D01*
X43594369Y-152596903D01*
X43587041Y-152401236D01*
X43569124Y-152229084D01*
X43556340Y-152158058D01*
X43459406Y-151812886D01*
X43323071Y-151498061D01*
X43144858Y-151208966D01*
X42922292Y-150940986D01*
X42879965Y-150897296D01*
X42612923Y-150661922D01*
X42318790Y-150468782D01*
X41995282Y-150316507D01*
X41793817Y-150246536D01*
X41709300Y-150221673D01*
X41635366Y-150203657D01*
X41561160Y-150191394D01*
X41475829Y-150183794D01*
X41368518Y-150179764D01*
X41228373Y-150178212D01*
X41112713Y-150178015D01*
X40944974Y-150178530D01*
X40817227Y-150180803D01*
X40718619Y-150185926D01*
X40638294Y-150194991D01*
X40565400Y-150209090D01*
X40489081Y-150229315D01*
X40431608Y-150246536D01*
X40088391Y-150377072D01*
X39774787Y-150547855D01*
X39493131Y-150756306D01*
X39245754Y-150999844D01*
X39034990Y-151275889D01*
X38863171Y-151581860D01*
X38732629Y-151915177D01*
X38657661Y-152208909D01*
X38643245Y-152317173D01*
X38634056Y-152459310D01*
X38630149Y-152619264D01*
X38631578Y-152780979D01*
X38638398Y-152928397D01*
X38650666Y-153045462D01*
X38654720Y-153068770D01*
X38667091Y-153143026D01*
X38664355Y-153183034D01*
X38643303Y-153203985D01*
X38624422Y-153212248D01*
X38592625Y-153224846D01*
X38517363Y-153254834D01*
X38402388Y-153300712D01*
X38251447Y-153360983D01*
X38068291Y-153434149D01*
X37856670Y-153518711D01*
X37620332Y-153613171D01*
X37363028Y-153716031D01*
X37088506Y-153825794D01*
X36800516Y-153940961D01*
X36755243Y-153959068D01*
X34940315Y-154684934D01*
X34818243Y-154448077D01*
X34536269Y-153954566D01*
X34210541Y-153480791D01*
X33845772Y-153032041D01*
X33446679Y-152613606D01*
X33017974Y-152230772D01*
X32564375Y-151888830D01*
X32494300Y-151841273D01*
X31988939Y-151532897D01*
X31466355Y-151271061D01*
X30929416Y-151055645D01*
X30380992Y-150886530D01*
X29823950Y-150763596D01*
X29261158Y-150686722D01*
X28695484Y-150655788D01*
X28129796Y-150670674D01*
X27566963Y-150731261D01*
X27009853Y-150837428D01*
X26461333Y-150989056D01*
X25924272Y-151186023D01*
X25401538Y-151428211D01*
X24895999Y-151715499D01*
X24410523Y-152047767D01*
X24230230Y-152187131D01*
X23777833Y-152580362D01*
X23365210Y-153004849D01*
X22993128Y-153459221D01*
X22662354Y-153942111D01*
X22373654Y-154452150D01*
X22127795Y-154987970D01*
X21925545Y-155548203D01*
X21767670Y-156131479D01*
X21654937Y-156736431D01*
X21646158Y-156798199D01*
X21633580Y-156923657D01*
X21623999Y-157089070D01*
X21617415Y-157283629D01*
X21613828Y-157496526D01*
X21613238Y-157716954D01*
X17098399Y-157716954D01*
X17098399Y-144646459D01*
X57295996Y-144646459D01*
X57893494Y-144632133D01*
X57906206Y-143526127D01*
X57918919Y-142420121D01*
X57993415Y-142322733D01*
X58067910Y-142225345D01*
X58097356Y-142284594D01*
X58112355Y-142319589D01*
X58143995Y-142397057D01*
X58190337Y-142512137D01*
X58249442Y-142659965D01*
X58319371Y-142835680D01*
X58398186Y-143034421D01*
X58483948Y-143251325D01*
X58574718Y-143481530D01*
X58579763Y-143494345D01*
X59032724Y-144644845D01*
X59362075Y-144644845D01*
X59502390Y-144643712D01*
X59597844Y-144639913D01*
X59654387Y-144632852D01*
X59677967Y-144621932D01*
X59678684Y-144613063D01*
X59630683Y-144492762D01*
X59567200Y-144332767D01*
X59491254Y-144140751D01*
X59405866Y-143924386D01*
X59314055Y-143691345D01*
X59218842Y-143449300D01*
X59123246Y-143205922D01*
X59030287Y-142968884D01*
X58942986Y-142745857D01*
X58864363Y-142544515D01*
X58857099Y-142525882D01*
X58541568Y-141716328D01*
X58863958Y-141356312D01*
X58967558Y-141240496D01*
X59061423Y-141135325D01*
X59139495Y-141047608D01*
X59195716Y-140984151D01*
X59223991Y-140951802D01*
X59235281Y-140935226D01*
X59232296Y-140923367D01*
X59208478Y-140915440D01*
X59157271Y-140910659D01*
X59072116Y-140908237D01*
X58946458Y-140907389D01*
X58852829Y-140907308D01*
X58444023Y-140907308D01*
X57918919Y-141494930D01*
X57906206Y-141207475D01*
X57893494Y-140920020D01*
X57295996Y-140905694D01*
X57295996Y-144646459D01*
X17098399Y-144646459D01*
X17098399Y-144645513D01*
X49719219Y-144645513D01*
X51460861Y-144632133D01*
X51468020Y-144333872D01*
X51475179Y-144035612D01*
X50908661Y-144028767D01*
X50342142Y-144021922D01*
X50336757Y-142742095D01*
X51245521Y-142742095D01*
X51252690Y-142953381D01*
X51277098Y-143148850D01*
X51294794Y-143230601D01*
X51390792Y-143505970D01*
X51530500Y-143762678D01*
X51708697Y-143995910D01*
X51920163Y-144200851D01*
X52159677Y-144372686D01*
X52422020Y-144506598D01*
X52701972Y-144597774D01*
X52798767Y-144617920D01*
X52921694Y-144630664D01*
X53075396Y-144633275D01*
X53241000Y-144626632D01*
X53399636Y-144611609D01*
X53532432Y-144589084D01*
X53558459Y-144582632D01*
X53643134Y-144554417D01*
X53754788Y-144509839D01*
X53875448Y-144456303D01*
X53937936Y-144426317D01*
X54179872Y-144279196D01*
X54399904Y-144091072D01*
X54591717Y-143869347D01*
X54748996Y-143621419D01*
X54865424Y-143354691D01*
X54873756Y-143329793D01*
X54928587Y-143100299D01*
X54953737Y-142850622D01*
X54952080Y-142771581D01*
X55136707Y-142771581D01*
X55157004Y-143059999D01*
X55225101Y-143344358D01*
X55341317Y-143619901D01*
X55390324Y-143708156D01*
X55567423Y-143959664D01*
X55778891Y-144176202D01*
X56019911Y-144354928D01*
X56285666Y-144493001D01*
X56571338Y-144587579D01*
X56872110Y-144635821D01*
X56971822Y-144641036D01*
X57118018Y-144644845D01*
X57118018Y-144036939D01*
X57022673Y-144023004D01*
X56855889Y-143995949D01*
X56724327Y-143967316D01*
X56612431Y-143932781D01*
X56504648Y-143888021D01*
X56459636Y-143866499D01*
X56253853Y-143739993D01*
X56078427Y-143581140D01*
X55936940Y-143396460D01*
X55832977Y-143192476D01*
X55770118Y-142975705D01*
X55751948Y-142752670D01*
X55766274Y-142604634D01*
X55832131Y-142363208D01*
X55942873Y-142145673D01*
X56098644Y-141951748D01*
X56110276Y-141940009D01*
X56306683Y-141776185D01*
X56527711Y-141653297D01*
X56777602Y-141569382D01*
X56997247Y-141529474D01*
X57118018Y-141514402D01*
X57118018Y-140900737D01*
X56939125Y-140918365D01*
X56619678Y-140972903D01*
X56323855Y-141071752D01*
X56048494Y-141216000D01*
X56018827Y-141235005D01*
X55862447Y-141342453D01*
X55738735Y-141441474D01*
X55633910Y-141544328D01*
X55534187Y-141663277D01*
X55527122Y-141672418D01*
X55359417Y-141929521D01*
X55238233Y-142201586D01*
X55163889Y-142483858D01*
X55136707Y-142771581D01*
X54952080Y-142771581D01*
X54948490Y-142600343D01*
X54912133Y-142369039D01*
X54909220Y-142357270D01*
X54808747Y-142059701D01*
X54665544Y-141788674D01*
X54481810Y-141546911D01*
X54259744Y-141337138D01*
X54001544Y-141162080D01*
X53901702Y-141108845D01*
X53616468Y-140992208D01*
X53330350Y-140926390D01*
X53043168Y-140911367D01*
X52769413Y-140944075D01*
X52503183Y-141015103D01*
X52265111Y-141117145D01*
X52044351Y-141256167D01*
X51830057Y-141438135D01*
X51777646Y-141489603D01*
X51669615Y-141602652D01*
X51588654Y-141699970D01*
X51522612Y-141798189D01*
X51459334Y-141913941D01*
X51441447Y-141949750D01*
X51385525Y-142072040D01*
X51334597Y-142199044D01*
X51296277Y-142311097D01*
X51283947Y-142356557D01*
X51255853Y-142536113D01*
X51245521Y-142742095D01*
X50336757Y-142742095D01*
X50335590Y-142464615D01*
X50329039Y-140907308D01*
X49719219Y-140907308D01*
X49719219Y-144645513D01*
X17098399Y-144645513D01*
X17098399Y-144644845D01*
X24192092Y-144644845D01*
X24567117Y-144644404D01*
X24759204Y-144640786D01*
X24930224Y-144630944D01*
X25068277Y-144615693D01*
X25120120Y-144606527D01*
X25359471Y-144530932D01*
X25582013Y-144411296D01*
X25781786Y-144253260D01*
X25952828Y-144062464D01*
X26089179Y-143844546D01*
X26184880Y-143605146D01*
X26187335Y-143596742D01*
X26216418Y-143446622D01*
X26228514Y-143270983D01*
X26223603Y-143091402D01*
X26201664Y-142929459D01*
X26188019Y-142874121D01*
X26104598Y-142657015D01*
X25986932Y-142450496D01*
X25913756Y-142356557D01*
X26200701Y-142356557D01*
X26404104Y-142356557D01*
X26404104Y-142566984D01*
X26417563Y-142880117D01*
X26459268Y-143157755D01*
X26531212Y-143407954D01*
X26635387Y-143638768D01*
X26694225Y-143739923D01*
X26876193Y-143986283D01*
X27091905Y-144198913D01*
X27335883Y-144374004D01*
X27602647Y-144507747D01*
X27886718Y-144596330D01*
X27942342Y-144607769D01*
X28055053Y-144624746D01*
X28169254Y-144635111D01*
X28247448Y-144636754D01*
X28374575Y-144632133D01*
X28374575Y-144609138D01*
X28565265Y-144609138D01*
X28574621Y-144624520D01*
X28607530Y-144634950D01*
X28671255Y-144641255D01*
X28773060Y-144644260D01*
X28879359Y-144644845D01*
X29193453Y-144644845D01*
X29284002Y-144358809D01*
X29325234Y-144228188D01*
X29365850Y-144098869D01*
X29400493Y-143987949D01*
X29419497Y-143926577D01*
X29464442Y-143780381D01*
X30492880Y-143780381D01*
X30585952Y-144079130D01*
X30626674Y-144209986D01*
X30666207Y-144337270D01*
X30699687Y-144445305D01*
X30720081Y-144511362D01*
X30761138Y-144644845D01*
X31407344Y-144644845D01*
X31371387Y-144524074D01*
X31357924Y-144480031D01*
X31330605Y-144391667D01*
X31290742Y-144263199D01*
X31239649Y-144098843D01*
X31178637Y-143902816D01*
X31109020Y-143679332D01*
X31032110Y-143432608D01*
X30949219Y-143166860D01*
X30861661Y-142886303D01*
X30795489Y-142674375D01*
X30434206Y-141517518D01*
X31006106Y-141517518D01*
X31692593Y-141517518D01*
X31692593Y-144644845D01*
X32302803Y-144644845D01*
X32302803Y-142777351D01*
X47583484Y-142777351D01*
X47602772Y-143065159D01*
X47662199Y-143329132D01*
X47764105Y-143579454D01*
X47771045Y-143593139D01*
X47839294Y-143721932D01*
X47898896Y-143820717D01*
X47961657Y-143906045D01*
X48039379Y-143994466D01*
X48109258Y-144067317D01*
X48340666Y-144269911D01*
X48596202Y-144431215D01*
X48870304Y-144548764D01*
X49157411Y-144620095D01*
X49407758Y-144642551D01*
X49541241Y-144644845D01*
X49541241Y-144036939D01*
X49445896Y-144022351D01*
X49156752Y-143960036D01*
X48906992Y-143866886D01*
X48694553Y-143741524D01*
X48517369Y-143582573D01*
X48373374Y-143388655D01*
X48305064Y-143261332D01*
X48250951Y-143134772D01*
X48219249Y-143022243D01*
X48202672Y-142896498D01*
X48200809Y-142871489D01*
X48204151Y-142631021D01*
X48250489Y-142413049D01*
X48342117Y-142211520D01*
X48481330Y-142020380D01*
X48552400Y-141943908D01*
X48703559Y-141808772D01*
X48864258Y-141703789D01*
X49045112Y-141624039D01*
X49256736Y-141564602D01*
X49445896Y-141529802D01*
X49541241Y-141515214D01*
X49541241Y-140900285D01*
X49369620Y-140917670D01*
X49063201Y-140972160D01*
X48771866Y-141069996D01*
X48500974Y-141207590D01*
X48255880Y-141381356D01*
X48041942Y-141587706D01*
X47864517Y-141823053D01*
X47772755Y-141986921D01*
X47687866Y-142175479D01*
X47631194Y-142343812D01*
X47598256Y-142510636D01*
X47584571Y-142694672D01*
X47583484Y-142777351D01*
X32302803Y-142777351D01*
X32302803Y-141517518D01*
X32989289Y-141517518D01*
X32989289Y-140907308D01*
X31006106Y-140907308D01*
X31006106Y-141517518D01*
X30434206Y-141517518D01*
X30255549Y-140945446D01*
X29702860Y-140945446D01*
X29363336Y-142034092D01*
X29292779Y-142259821D01*
X29226538Y-142470771D01*
X29166205Y-142661944D01*
X29113370Y-142828344D01*
X29069626Y-142964973D01*
X29036562Y-143066833D01*
X29015771Y-143128928D01*
X29009154Y-143146454D01*
X28977968Y-143158687D01*
X28911007Y-143167252D01*
X28830732Y-143170171D01*
X28666967Y-143170171D01*
X28666967Y-143780381D01*
X28745964Y-143780381D01*
X28801172Y-143787287D01*
X28813169Y-143810154D01*
X28811496Y-143815467D01*
X28789714Y-143876756D01*
X28759138Y-143968704D01*
X28722947Y-144081063D01*
X28684322Y-144203585D01*
X28646440Y-144326023D01*
X28612481Y-144438130D01*
X28585624Y-144529658D01*
X28569049Y-144590361D01*
X28565265Y-144609138D01*
X28374575Y-144609138D01*
X28374575Y-144021922D01*
X28234735Y-144006232D01*
X27969311Y-143953717D01*
X27730228Y-143858176D01*
X27515147Y-143718573D01*
X27439967Y-143654435D01*
X27291543Y-143500685D01*
X27181204Y-143341569D01*
X27105156Y-143167653D01*
X27059605Y-142969501D01*
X27040755Y-142737681D01*
X27039740Y-142659397D01*
X27039740Y-142356557D01*
X28361862Y-142356557D01*
X28361862Y-141720921D01*
X27039740Y-141720921D01*
X27039740Y-141517518D01*
X28336437Y-141517518D01*
X28336437Y-140906696D01*
X26416817Y-140920020D01*
X26409815Y-141320471D01*
X26402813Y-141720921D01*
X26200701Y-141720921D01*
X26200701Y-142356557D01*
X25913756Y-142356557D01*
X25843309Y-142266121D01*
X25682020Y-142115444D01*
X25604541Y-142060859D01*
X25494250Y-141991084D01*
X25507635Y-141795801D01*
X25512589Y-141686968D01*
X25507505Y-141607915D01*
X25489311Y-141538052D01*
X25458117Y-141463672D01*
X25375572Y-141313490D01*
X25280331Y-141202243D01*
X25161587Y-141118049D01*
X25127244Y-141099975D01*
X25074602Y-141075123D01*
X25025872Y-141057491D01*
X24971013Y-141045848D01*
X24899988Y-141038958D01*
X24802755Y-141035588D01*
X24669277Y-141034505D01*
X24593907Y-141034435D01*
X24192092Y-141034435D01*
X24192092Y-144644845D01*
X17098399Y-144644845D01*
X17098399Y-132575840D01*
X21602876Y-132575840D01*
X21622261Y-133142830D01*
X21687087Y-133707161D01*
X21797356Y-134265645D01*
X21953068Y-134815094D01*
X22154225Y-135352321D01*
X22400828Y-135874139D01*
X22692877Y-136377360D01*
X22736736Y-136445146D01*
X23084672Y-136930448D01*
X23468368Y-137380611D01*
X23885481Y-137794173D01*
X24333670Y-138169671D01*
X24810593Y-138505644D01*
X25313909Y-138800630D01*
X25841275Y-139053165D01*
X26390350Y-139261789D01*
X26958793Y-139425037D01*
X27544262Y-139541450D01*
X27739929Y-139569226D01*
X27910811Y-139585792D01*
X28119498Y-139597644D01*
X28353162Y-139604751D01*
X28598973Y-139607085D01*
X28844103Y-139604615D01*
X29075721Y-139597311D01*
X29281000Y-139585143D01*
X29407406Y-139573107D01*
X29993056Y-139479580D01*
X30562493Y-139338887D01*
X31113469Y-139152758D01*
X31643736Y-138922923D01*
X32151045Y-138651112D01*
X32633149Y-138339055D01*
X33087800Y-137988482D01*
X33456527Y-137652372D01*
X38624893Y-137652372D01*
X38647868Y-137997530D01*
X38717340Y-138338406D01*
X38824998Y-138649144D01*
X38974861Y-138941495D01*
X39168056Y-139215209D01*
X39398606Y-139464063D01*
X39660531Y-139681835D01*
X39947851Y-139862301D01*
X40031740Y-139905155D01*
X40237315Y-139996662D01*
X40430502Y-140062681D01*
X40625373Y-140106033D01*
X40835994Y-140129539D01*
X41076434Y-140136020D01*
X41176276Y-140134656D01*
X41339791Y-140129879D01*
X41465861Y-140122756D01*
X41567888Y-140111620D01*
X41659274Y-140094808D01*
X41753420Y-140070654D01*
X41799199Y-140057264D01*
X42139266Y-139929852D01*
X42450833Y-139761320D01*
X42731405Y-139554246D01*
X42978485Y-139311210D01*
X43189578Y-139034790D01*
X43362189Y-138727564D01*
X43493821Y-138392112D01*
X43529523Y-138269365D01*
X43577306Y-138014269D01*
X43595385Y-137719688D01*
X43583780Y-137384941D01*
X43559188Y-137136056D01*
X43564269Y-137124957D01*
X43583639Y-137109295D01*
X43620130Y-137087863D01*
X43676574Y-137059453D01*
X43755802Y-137022858D01*
X43860647Y-136976868D01*
X43993941Y-136920277D01*
X44158515Y-136851877D01*
X44357203Y-136770459D01*
X44592835Y-136674816D01*
X44868243Y-136563739D01*
X45186261Y-136436022D01*
X45420760Y-136342069D01*
X45713120Y-136225109D01*
X45991522Y-136113908D01*
X46252404Y-136009877D01*
X46492207Y-135914430D01*
X46707368Y-135828977D01*
X46894327Y-135754930D01*
X47049524Y-135693702D01*
X47169396Y-135646703D01*
X47250383Y-135615345D01*
X47288924Y-135601041D01*
X47291724Y-135600307D01*
X47304182Y-135623704D01*
X47335695Y-135683764D01*
X47381842Y-135772041D01*
X47438204Y-135880088D01*
X47453465Y-135909378D01*
X47740839Y-136406687D01*
X48068915Y-136875796D01*
X48434849Y-137314763D01*
X48835795Y-137721645D01*
X49268908Y-138094498D01*
X49731344Y-138431379D01*
X50220256Y-138730346D01*
X50732800Y-138989455D01*
X51266131Y-139206762D01*
X51817402Y-139380326D01*
X52383770Y-139508202D01*
X52818019Y-139573107D01*
X53023181Y-139591384D01*
X53262584Y-139603353D01*
X53521833Y-139609027D01*
X53786529Y-139608419D01*
X54042275Y-139601543D01*
X54274675Y-139588413D01*
X54449108Y-139571612D01*
X55045080Y-139473426D01*
X55623707Y-139328065D01*
X56183132Y-139136432D01*
X56721497Y-138899429D01*
X57236944Y-138617961D01*
X57727615Y-138292930D01*
X58191652Y-137925238D01*
X58579980Y-137563607D01*
X58986274Y-137120969D01*
X59349023Y-136652155D01*
X59667984Y-136157649D01*
X59942914Y-135637938D01*
X60173572Y-135093504D01*
X60359712Y-134524834D01*
X60501093Y-133932411D01*
X60555629Y-133622923D01*
X60583277Y-133395444D01*
X60602389Y-133131138D01*
X60612970Y-132843306D01*
X60615021Y-132545251D01*
X60608546Y-132250274D01*
X60593548Y-131971677D01*
X60570030Y-131722761D01*
X60555189Y-131614315D01*
X60437940Y-131015021D01*
X60275469Y-130438887D01*
X60067903Y-129886164D01*
X59815371Y-129357106D01*
X59517999Y-128851965D01*
X59175916Y-128370994D01*
X58789249Y-127914446D01*
X58568996Y-127685170D01*
X58130248Y-127279206D01*
X57673120Y-126919360D01*
X57195549Y-126604610D01*
X56695473Y-126333933D01*
X56170829Y-126106308D01*
X55619556Y-125920713D01*
X55039589Y-125776126D01*
X54535496Y-125686610D01*
X54356377Y-125666436D01*
X54139106Y-125651907D01*
X53896063Y-125643026D01*
X53639634Y-125639793D01*
X53382200Y-125642211D01*
X53136144Y-125650281D01*
X52913851Y-125664006D01*
X52727702Y-125683387D01*
X52706707Y-125686336D01*
X52101857Y-125798938D01*
X51518806Y-125957103D01*
X50958444Y-126160391D01*
X50421663Y-126408360D01*
X49909355Y-126700569D01*
X49422411Y-127036578D01*
X48961722Y-127415944D01*
X48687633Y-127674759D01*
X48285805Y-128109746D01*
X47924131Y-128574935D01*
X47603943Y-129067687D01*
X47326572Y-129585361D01*
X47093351Y-130125315D01*
X46905610Y-130684911D01*
X46764682Y-131261508D01*
X46704266Y-131607030D01*
X46666161Y-131938708D01*
X46644617Y-132302162D01*
X46639531Y-132681125D01*
X46650798Y-133059329D01*
X46678316Y-133420509D01*
X46717732Y-133722769D01*
X46748931Y-133897472D01*
X46787640Y-134087726D01*
X46830788Y-134280426D01*
X46875309Y-134462464D01*
X46918132Y-134620733D01*
X46956188Y-134742126D01*
X46956851Y-134744007D01*
X46993626Y-134848073D01*
X43238232Y-136350111D01*
X43110010Y-136177678D01*
X42911987Y-135946808D01*
X42678122Y-135733912D01*
X42420533Y-135548256D01*
X42151336Y-135399102D01*
X42015537Y-135340865D01*
X41687755Y-135241274D01*
X41346188Y-135187515D01*
X40999076Y-135179589D01*
X40654659Y-135217497D01*
X40321177Y-135301237D01*
X40209889Y-135340865D01*
X39916974Y-135479699D01*
X39639174Y-135662215D01*
X39383278Y-135881930D01*
X39156074Y-136132361D01*
X38964354Y-136407024D01*
X38834649Y-136654056D01*
X38718314Y-136974349D01*
X38648385Y-137309216D01*
X38624893Y-137652372D01*
X33456527Y-137652372D01*
X33512749Y-137601123D01*
X33905748Y-137178708D01*
X34264549Y-136722967D01*
X34586903Y-136235630D01*
X34870563Y-135718426D01*
X35107914Y-135186587D01*
X35293576Y-134659118D01*
X35432781Y-134122838D01*
X35526475Y-133572685D01*
X35575608Y-133003598D01*
X35584103Y-132644044D01*
X35578560Y-132279749D01*
X35559681Y-131949226D01*
X35525398Y-131636658D01*
X35473643Y-131326232D01*
X35402348Y-131002132D01*
X35335550Y-130743298D01*
X35303040Y-130620293D01*
X35277163Y-130516124D01*
X35260061Y-130439925D01*
X35253877Y-130400830D01*
X35254467Y-130397706D01*
X35278715Y-130387457D01*
X35345815Y-130360108D01*
X35451392Y-130317412D01*
X35591071Y-130261118D01*
X35760475Y-130192980D01*
X35955230Y-130114747D01*
X36170960Y-130028171D01*
X36403290Y-129935004D01*
X36647845Y-129836997D01*
X36900248Y-129735902D01*
X37156125Y-129633469D01*
X37411101Y-129531450D01*
X37660799Y-129431597D01*
X37900844Y-129335661D01*
X38126861Y-129245393D01*
X38334475Y-129162544D01*
X38519310Y-129088866D01*
X38676990Y-129026111D01*
X38803141Y-128976029D01*
X38893387Y-128940372D01*
X38943352Y-128920892D01*
X38951552Y-128917862D01*
X38976766Y-128933389D01*
X39022243Y-128981955D01*
X39079801Y-129054450D01*
X39104104Y-129087728D01*
X39318600Y-129345234D01*
X39571553Y-129572743D01*
X39858058Y-129766811D01*
X40173205Y-129923996D01*
X40428233Y-130016481D01*
X40513640Y-130041774D01*
X40587796Y-130060111D01*
X40661578Y-130072602D01*
X40745864Y-130080355D01*
X40851531Y-130084481D01*
X40989458Y-130086089D01*
X41112713Y-130086311D01*
X41280094Y-130085815D01*
X41407506Y-130083588D01*
X41505825Y-130078521D01*
X41585931Y-130069503D01*
X41658699Y-130055425D01*
X41735008Y-130035177D01*
X41797193Y-130016481D01*
X42140089Y-129885796D01*
X42453316Y-129715227D01*
X42734512Y-129507341D01*
X42981311Y-129264701D01*
X43191350Y-128989872D01*
X43362266Y-128685420D01*
X43491694Y-128353908D01*
X43556162Y-128107973D01*
X43576867Y-127970356D01*
X43589745Y-127799993D01*
X43594594Y-127614414D01*
X43591211Y-127431148D01*
X43579392Y-127267725D01*
X43566893Y-127179360D01*
X43479878Y-126841485D01*
X43348159Y-126523221D01*
X43175330Y-126228256D01*
X42964979Y-125960280D01*
X42720700Y-125722981D01*
X42446081Y-125520047D01*
X42144716Y-125355167D01*
X41820194Y-125232029D01*
X41621221Y-125180857D01*
X41331144Y-125140612D01*
X41021896Y-125136741D01*
X40708518Y-125167995D01*
X40406054Y-125233128D01*
X40209889Y-125297822D01*
X39905280Y-125441787D01*
X39622785Y-125628268D01*
X39366744Y-125852140D01*
X39141499Y-126108274D01*
X38951393Y-126391543D01*
X38800766Y-126696821D01*
X38693960Y-127018979D01*
X38671974Y-127114014D01*
X38652171Y-127241624D01*
X38638414Y-127397192D01*
X38630960Y-127566132D01*
X38630067Y-127733859D01*
X38635993Y-127885789D01*
X38648996Y-128007337D01*
X38655575Y-128041353D01*
X38670125Y-128109755D01*
X38677047Y-128152843D01*
X38676799Y-128159756D01*
X38652092Y-128170550D01*
X38584501Y-128198336D01*
X38478396Y-128241374D01*
X38338147Y-128297922D01*
X38168121Y-128366239D01*
X37972690Y-128444587D01*
X37756222Y-128531222D01*
X37523087Y-128624406D01*
X37277653Y-128722396D01*
X37024290Y-128823454D01*
X36767368Y-128925837D01*
X36511256Y-129027805D01*
X36260322Y-129127618D01*
X36018937Y-129223534D01*
X35791470Y-129313814D01*
X35582290Y-129396716D01*
X35395766Y-129470500D01*
X35236268Y-129533425D01*
X35108165Y-129583750D01*
X35015826Y-129619735D01*
X34963621Y-129639639D01*
X34953327Y-129643141D01*
X34935069Y-129621677D01*
X34898319Y-129563356D01*
X34847994Y-129476459D01*
X34789012Y-129369270D01*
X34773440Y-129340178D01*
X34474761Y-128832622D01*
X34134730Y-128352838D01*
X33756121Y-127903568D01*
X33341703Y-127487553D01*
X32894248Y-127107536D01*
X32416528Y-126766257D01*
X31911314Y-126466458D01*
X31819720Y-126418172D01*
X31305791Y-126176655D01*
X30781671Y-125979768D01*
X30239681Y-125825071D01*
X29672143Y-125710121D01*
X29518719Y-125686336D01*
X29338206Y-125666216D01*
X29119930Y-125651753D01*
X28876275Y-125642944D01*
X28619625Y-125639788D01*
X28362361Y-125642283D01*
X28116867Y-125650427D01*
X27895526Y-125664218D01*
X27710721Y-125683654D01*
X27689930Y-125686610D01*
X27082666Y-125798571D01*
X26505187Y-125951315D01*
X25955830Y-126145663D01*
X25432934Y-126382434D01*
X24934837Y-126662451D01*
X24459878Y-126986532D01*
X24006394Y-127355501D01*
X23668991Y-127672513D01*
X23439001Y-127908907D01*
X23239469Y-128130614D01*
X23058860Y-128351627D01*
X22885641Y-128585938D01*
X22739443Y-128800202D01*
X22440770Y-129296556D01*
X22187531Y-129812563D01*
X21979726Y-130345037D01*
X21817357Y-130890789D01*
X21700425Y-131446632D01*
X21628931Y-132009378D01*
X21602876Y-132575840D01*
X17098399Y-132575840D01*
X17098399Y-121617857D01*
X24821371Y-121600925D01*
G37*
G36*
X30027691Y-201342529D02*
G01*
X30109233Y-201098822D01*
X30184649Y-200873998D01*
X30252512Y-200672283D01*
X30311396Y-200497903D01*
X30359874Y-200355085D01*
X30396518Y-200248055D01*
X30419901Y-200181039D01*
X30428532Y-200158289D01*
X30438776Y-200179892D01*
X30465390Y-200245296D01*
X30506907Y-200350678D01*
X30561860Y-200492221D01*
X30628782Y-200666103D01*
X30706206Y-200868504D01*
X30792665Y-201095605D01*
X30886692Y-201343586D01*
X30986818Y-201608626D01*
X31052288Y-201782422D01*
X31157075Y-202060870D01*
X31257714Y-202328244D01*
X31352592Y-202580268D01*
X31440100Y-202812663D01*
X31518625Y-203021152D01*
X31586556Y-203201457D01*
X31642282Y-203349301D01*
X31684193Y-203460406D01*
X31710675Y-203530494D01*
X31717973Y-203549726D01*
X31769062Y-203683737D01*
X31257267Y-203676853D01*
X30745471Y-203669970D01*
X30678130Y-203486295D01*
X30642432Y-203394639D01*
X30609832Y-203320814D01*
X30586585Y-203278814D01*
X30584151Y-203275983D01*
X30547559Y-203265991D01*
X30462184Y-203259148D01*
X30329996Y-203255526D01*
X30152971Y-203255198D01*
X30051036Y-203256255D01*
X29544559Y-203263164D01*
X29467989Y-203479280D01*
X29429478Y-203583562D01*
X29399883Y-203648758D01*
X29373130Y-203684369D01*
X29343143Y-203699900D01*
X29324909Y-203703120D01*
X29268953Y-203696972D01*
X29245783Y-203662602D01*
X29249744Y-203615570D01*
X29272589Y-203540824D01*
X29304986Y-203464187D01*
X29342086Y-203383222D01*
X29368340Y-203319475D01*
X29377682Y-203288589D01*
X29358303Y-203260105D01*
X29309777Y-203224146D01*
X29302442Y-203219852D01*
X29247774Y-203171741D01*
X29225971Y-203116550D01*
X29241322Y-203069052D01*
X29255326Y-203057551D01*
X29299045Y-203044663D01*
X29366768Y-203037246D01*
X29373928Y-203036982D01*
X29463531Y-203034335D01*
X29466250Y-203026179D01*
X29619057Y-203026179D01*
X29622627Y-203060225D01*
X29667285Y-203078062D01*
X29676485Y-203079577D01*
X29729842Y-203084198D01*
X29816849Y-203088026D01*
X29927406Y-203090994D01*
X30051414Y-203093032D01*
X30178772Y-203094075D01*
X30299382Y-203094052D01*
X30403143Y-203092898D01*
X30479956Y-203090543D01*
X30519721Y-203086920D01*
X30523023Y-203085269D01*
X30514472Y-203059772D01*
X30490745Y-202994425D01*
X30454728Y-202896912D01*
X30409311Y-202774916D01*
X30357380Y-202636122D01*
X30301823Y-202488214D01*
X30245528Y-202338875D01*
X30191383Y-202195789D01*
X30142275Y-202066641D01*
X30101093Y-201959114D01*
X30070723Y-201880893D01*
X30064342Y-201864765D01*
X30054222Y-201843395D01*
X30043557Y-201835494D01*
X30030210Y-201845881D01*
X30012046Y-201879374D01*
X29986930Y-201940793D01*
X29952724Y-202034955D01*
X29907294Y-202166680D01*
X29848504Y-202340787D01*
X29833320Y-202385986D01*
X29777304Y-202552891D01*
X29726206Y-202705299D01*
X29682405Y-202836098D01*
X29648282Y-202938176D01*
X29626218Y-203004421D01*
X29619057Y-203026179D01*
X29466250Y-203026179D01*
X29941451Y-201600892D01*
X30027691Y-201342529D01*
G37*
G36*
X39191934Y-73500207D02*
G01*
X39141619Y-73529994D01*
X39077968Y-73562844D01*
X39005317Y-73596696D01*
X38954973Y-73616754D01*
X38938839Y-73619071D01*
X38959364Y-73601494D01*
X39010497Y-73571743D01*
X39076573Y-73537622D01*
X39141928Y-73506937D01*
X39190897Y-73487494D01*
X39207624Y-73485135D01*
X39191934Y-73500207D01*
G37*
G36*
X45540863Y-78379830D02*
G01*
X45544221Y-78431885D01*
X45540863Y-78443394D01*
X45531583Y-78446588D01*
X45528039Y-78411612D01*
X45532034Y-78375517D01*
X45540863Y-78379830D01*
G37*
G36*
X36845479Y-78979447D02*
G01*
X36848522Y-79009621D01*
X36845479Y-79013347D01*
X36830364Y-79009857D01*
X36828529Y-78996397D01*
X36837831Y-78975469D01*
X36845479Y-78979447D01*
G37*
G36*
X44938877Y-11074575D02*
G01*
X45076766Y-11080072D01*
X45185948Y-11090594D01*
X45277439Y-11107022D01*
X45320621Y-11117897D01*
X45472304Y-11166537D01*
X45618053Y-11225647D01*
X45746297Y-11289587D01*
X45845461Y-11352722D01*
X45895184Y-11397788D01*
X45934568Y-11450318D01*
X45942318Y-11486620D01*
X45922630Y-11526547D01*
X45922446Y-11526824D01*
X45878277Y-11574473D01*
X45828230Y-11583000D01*
X45762725Y-11551854D01*
X45713061Y-11514736D01*
X45554299Y-11412060D01*
X45361004Y-11327217D01*
X45147457Y-11263805D01*
X44927944Y-11225421D01*
X44716747Y-11215662D01*
X44576733Y-11228563D01*
X44481193Y-11244354D01*
X44487744Y-12798304D01*
X44494294Y-14352253D01*
X44766358Y-14359456D01*
X45039231Y-14350945D01*
X45277573Y-14308891D01*
X45486421Y-14231691D01*
X45670809Y-14117744D01*
X45758120Y-14043973D01*
X45823640Y-13986409D01*
X45876244Y-13946216D01*
X45902500Y-13932733D01*
X45945504Y-13952952D01*
X45986736Y-13998957D01*
X46006971Y-14048774D01*
X46007107Y-14052318D01*
X45984149Y-14109026D01*
X45920570Y-14175832D01*
X45824308Y-14247752D01*
X45703304Y-14319802D01*
X45565500Y-14386996D01*
X45418834Y-14444350D01*
X45345865Y-14467430D01*
X45194494Y-14500082D01*
X45010540Y-14522585D01*
X44810635Y-14534385D01*
X44611414Y-14534929D01*
X44429510Y-14523663D01*
X44292219Y-14502495D01*
X43998801Y-14413376D01*
X43736113Y-14284845D01*
X43506215Y-14118901D01*
X43311169Y-13917546D01*
X43153035Y-13682779D01*
X43033873Y-13416600D01*
X42978071Y-13226763D01*
X42943108Y-13016977D01*
X42931509Y-12790551D01*
X42942640Y-12564145D01*
X42975866Y-12354420D01*
X43016680Y-12213221D01*
X43093582Y-12025989D01*
X43177501Y-11871077D01*
X43279399Y-11730109D01*
X43359948Y-11637814D01*
X43569882Y-11447342D01*
X43816783Y-11289520D01*
X44096649Y-11166878D01*
X44115903Y-11160178D01*
X44214327Y-11127215D01*
X44294118Y-11103928D01*
X44367911Y-11088613D01*
X44448340Y-11079570D01*
X44548039Y-11075095D01*
X44679645Y-11073486D01*
X44761261Y-11073224D01*
X44938877Y-11074575D01*
G37*
G36*
X36616580Y-77355968D02*
G01*
X36618578Y-77388239D01*
X36621922Y-77517559D01*
X36621472Y-77660881D01*
X36618578Y-77756907D01*
X36615625Y-77797335D01*
X36613096Y-77790728D01*
X36611172Y-77740904D01*
X36610035Y-77651677D01*
X36609804Y-77572573D01*
X36610318Y-77459302D01*
X36611740Y-77382900D01*
X36613888Y-77347183D01*
X36616580Y-77355968D01*
G37*
G36*
X39167668Y-81627928D02*
G01*
X39154955Y-81640641D01*
X39142242Y-81627928D01*
X39154955Y-81615216D01*
X39167668Y-81627928D01*
G37*
G36*
X45540863Y-76676327D02*
G01*
X45544221Y-76728381D01*
X45540863Y-76739890D01*
X45531583Y-76743084D01*
X45528039Y-76708109D01*
X45532034Y-76672014D01*
X45540863Y-76676327D01*
G37*
G36*
X38875627Y-81472696D02*
G01*
X38907057Y-81487580D01*
X38950397Y-81512708D01*
X38964264Y-81527121D01*
X38956276Y-81537733D01*
X38925752Y-81520007D01*
X38899204Y-81499399D01*
X38866447Y-81472028D01*
X38875627Y-81472696D01*
G37*
G36*
X36896330Y-79131999D02*
G01*
X36899373Y-79162173D01*
X36896330Y-79165900D01*
X36881214Y-79162409D01*
X36879379Y-79148949D01*
X36888682Y-79128021D01*
X36896330Y-79131999D01*
G37*
G36*
X42436281Y-81879564D02*
G01*
X42409410Y-81894895D01*
X42350096Y-81913068D01*
X42320421Y-81916747D01*
X42306262Y-81910227D01*
X42333133Y-81894895D01*
X42392447Y-81876723D01*
X42422122Y-81873044D01*
X42436281Y-81879564D01*
G37*
G36*
X42994864Y-73464755D02*
G01*
X43054392Y-73491159D01*
X43127480Y-73526863D01*
X43199886Y-73564627D01*
X43257366Y-73597211D01*
X43285678Y-73617377D01*
X43286587Y-73619285D01*
X43285752Y-73627097D01*
X43277078Y-73627473D01*
X43251308Y-73616429D01*
X43199188Y-73589978D01*
X43111460Y-73544136D01*
X43108609Y-73542643D01*
X43031965Y-73501095D01*
X42979931Y-73470090D01*
X42962016Y-73455366D01*
X42963138Y-73454888D01*
X42994864Y-73464755D01*
G37*
G36*
X45617378Y-77358680D02*
G01*
X45619201Y-77389351D01*
X45622521Y-77515086D01*
X45622128Y-77651311D01*
X45619129Y-77745307D01*
X45616093Y-77782083D01*
X45613514Y-77772081D01*
X45611585Y-77719373D01*
X45610500Y-77628033D01*
X45610332Y-77559860D01*
X45610888Y-77449515D01*
X45612376Y-77376739D01*
X45614604Y-77345228D01*
X45617378Y-77358680D01*
G37*
G36*
X39857719Y-81882798D02*
G01*
X39892292Y-81894895D01*
X39920021Y-81911700D01*
X39905005Y-81916747D01*
X39850589Y-81906993D01*
X39816016Y-81894895D01*
X39788288Y-81878090D01*
X39803303Y-81873044D01*
X39857719Y-81882798D01*
G37*
G36*
X53337647Y-141556901D02*
G01*
X53561081Y-141617993D01*
X53764438Y-141723575D01*
X53953765Y-141876240D01*
X54010527Y-141933505D01*
X54157787Y-142123614D01*
X54261537Y-142331601D01*
X54322811Y-142551184D01*
X54342648Y-142776076D01*
X54322081Y-142999995D01*
X54262148Y-143216656D01*
X54163885Y-143419774D01*
X54028327Y-143603066D01*
X53856512Y-143760248D01*
X53692287Y-143863684D01*
X53484207Y-143952794D01*
X53271649Y-144007499D01*
X53067792Y-144025030D01*
X52960961Y-144017386D01*
X52720577Y-143960750D01*
X52497326Y-143862656D01*
X52298239Y-143727982D01*
X52130348Y-143561607D01*
X52000685Y-143368409D01*
X51987064Y-143341703D01*
X51912506Y-143162537D01*
X51870611Y-142986464D01*
X51857716Y-142794317D01*
X51861197Y-142682741D01*
X51871863Y-142555822D01*
X51890948Y-142455744D01*
X51924451Y-142358554D01*
X51965062Y-142268056D01*
X52096516Y-142045362D01*
X52259948Y-141859865D01*
X52451563Y-141714035D01*
X52667562Y-141610341D01*
X52904149Y-141551254D01*
X53088088Y-141537704D01*
X53337647Y-141556901D01*
G37*
G36*
X45592401Y-78036587D02*
G01*
X45596356Y-78101072D01*
X45592401Y-78125576D01*
X45585032Y-78133489D01*
X45581020Y-78098332D01*
X45580774Y-78081081D01*
X45583425Y-78034825D01*
X45590024Y-78029373D01*
X45592401Y-78036587D01*
G37*
G36*
X58177196Y-200273175D02*
G01*
X58317048Y-200274518D01*
X58424007Y-200276916D01*
X58502561Y-200280516D01*
X58557198Y-200285463D01*
X58592408Y-200291901D01*
X58612680Y-200299978D01*
X58622502Y-200309837D01*
X58622544Y-200309913D01*
X58626359Y-200356563D01*
X58593503Y-200401993D01*
X58565022Y-200425035D01*
X58527710Y-200440071D01*
X58470974Y-200448751D01*
X58384220Y-200452728D01*
X58262162Y-200453654D01*
X57982483Y-200453654D01*
X57982483Y-203682683D01*
X56990891Y-203682683D01*
X56990891Y-200447218D01*
X56641291Y-200456793D01*
X56291692Y-200466367D01*
X56283934Y-200399423D01*
X56287770Y-200348320D01*
X56323434Y-200317493D01*
X56353516Y-200305518D01*
X56400562Y-200298225D01*
X56496094Y-200291740D01*
X56637752Y-200286126D01*
X56823176Y-200281448D01*
X57050006Y-200277769D01*
X57315883Y-200275154D01*
X57515390Y-200274025D01*
X57780856Y-200273074D01*
X57999961Y-200272742D01*
X58177196Y-200273175D01*
G37*
G36*
X36642652Y-78036587D02*
G01*
X36646606Y-78101072D01*
X36642652Y-78125576D01*
X36635282Y-78133489D01*
X36631270Y-78098332D01*
X36631024Y-78081081D01*
X36633675Y-78034825D01*
X36640275Y-78029373D01*
X36642652Y-78036587D01*
G37*
G36*
X38891670Y-73653836D02*
G01*
X38854405Y-73679989D01*
X38785906Y-73725890D01*
X38681523Y-73794906D01*
X38625240Y-73832006D01*
X38275269Y-74089710D01*
X37947539Y-74384927D01*
X37649507Y-74709718D01*
X37388628Y-75056141D01*
X37219922Y-75328779D01*
X37167940Y-75419290D01*
X37125086Y-75490176D01*
X37097352Y-75531717D01*
X37090632Y-75538539D01*
X37096343Y-75518071D01*
X37121682Y-75463738D01*
X37161613Y-75386140D01*
X37173862Y-75363282D01*
X37329077Y-75107236D01*
X37520514Y-74842394D01*
X37738061Y-74580912D01*
X37971606Y-74334944D01*
X38210897Y-74116762D01*
X38330618Y-74020392D01*
X38462072Y-73921229D01*
X38594253Y-73826986D01*
X38716153Y-73745374D01*
X38816766Y-73684104D01*
X38862563Y-73660209D01*
X38891099Y-73647312D01*
X38902351Y-73644066D01*
X38891670Y-73653836D01*
G37*
G36*
X37082783Y-75576677D02*
G01*
X37070070Y-75589390D01*
X37057357Y-75576677D01*
X37070070Y-75563964D01*
X37082783Y-75576677D01*
G37*
G36*
X45181863Y-75631686D02*
G01*
X45213184Y-75683617D01*
X45221881Y-75699847D01*
X45251135Y-75761290D01*
X45264222Y-75801182D01*
X45263452Y-75807586D01*
X45247545Y-75793735D01*
X45220120Y-75746953D01*
X45210763Y-75728048D01*
X45179515Y-75656788D01*
X45170260Y-75623705D01*
X45181863Y-75631686D01*
G37*
G36*
X36744195Y-76474512D02*
G01*
X36747226Y-76514249D01*
X36742188Y-76523244D01*
X36730632Y-76515662D01*
X36728834Y-76489874D01*
X36735044Y-76462744D01*
X36744195Y-76474512D01*
G37*
G36*
X24345262Y-201354715D02*
G01*
X24427134Y-201110989D01*
X24503041Y-200886360D01*
X24571546Y-200685014D01*
X24631215Y-200511136D01*
X24680610Y-200368910D01*
X24718298Y-200262520D01*
X24742840Y-200196153D01*
X24752735Y-200173974D01*
X24763356Y-200197029D01*
X24790088Y-200263164D01*
X24831212Y-200367839D01*
X24885010Y-200506512D01*
X24949763Y-200674642D01*
X25023753Y-200867686D01*
X25105261Y-201081103D01*
X25192568Y-201310352D01*
X25283957Y-201550891D01*
X25377708Y-201798178D01*
X25472104Y-202047672D01*
X25565424Y-202294831D01*
X25655952Y-202535114D01*
X25741968Y-202763979D01*
X25821754Y-202976885D01*
X25893591Y-203169289D01*
X25955761Y-203336651D01*
X26006545Y-203474428D01*
X26044225Y-203578079D01*
X26067082Y-203643063D01*
X26073574Y-203664563D01*
X26049426Y-203670089D01*
X25982088Y-203674907D01*
X25879219Y-203678743D01*
X25748479Y-203681326D01*
X25597527Y-203682384D01*
X25571422Y-203682393D01*
X25069269Y-203682104D01*
X24911989Y-203263164D01*
X23865841Y-203249432D01*
X23834865Y-203345287D01*
X23787599Y-203487608D01*
X23750416Y-203587903D01*
X23719649Y-203653102D01*
X23691628Y-203690137D01*
X23662686Y-203705937D01*
X23642821Y-203708109D01*
X23589276Y-203693962D01*
X23565335Y-203669147D01*
X23567993Y-203628363D01*
X23588727Y-203556330D01*
X23623249Y-203467471D01*
X23629697Y-203452807D01*
X23667472Y-203367109D01*
X23695481Y-203301253D01*
X23708616Y-203267303D01*
X23709009Y-203265427D01*
X23687902Y-203251037D01*
X23637071Y-203230348D01*
X23636376Y-203230105D01*
X23570006Y-203189316D01*
X23544416Y-203136819D01*
X23555799Y-203085359D01*
X23600351Y-203047681D01*
X23674264Y-203036530D01*
X23693502Y-203038806D01*
X23779322Y-203052733D01*
X23779658Y-203051725D01*
X23937838Y-203051725D01*
X23949352Y-203064915D01*
X23987278Y-203075132D01*
X24056693Y-203082787D01*
X24162673Y-203088288D01*
X24310296Y-203092043D01*
X24464288Y-203094089D01*
X24850898Y-203097898D01*
X24816160Y-203002553D01*
X24781283Y-202907939D01*
X24736386Y-202787806D01*
X24684369Y-202649740D01*
X24628130Y-202501324D01*
X24570570Y-202350147D01*
X24514586Y-202203792D01*
X24463079Y-202069846D01*
X24418947Y-201955894D01*
X24385089Y-201869522D01*
X24364405Y-201818316D01*
X24359425Y-201807507D01*
X24349708Y-201828172D01*
X24326705Y-201889458D01*
X24293021Y-201983681D01*
X24251259Y-202103157D01*
X24204022Y-202240204D01*
X24153914Y-202387137D01*
X24103539Y-202536272D01*
X24055500Y-202679926D01*
X24012400Y-202810415D01*
X23976844Y-202920055D01*
X23951434Y-203001162D01*
X23938775Y-203046053D01*
X23937838Y-203051725D01*
X23779658Y-203051725D01*
X24258861Y-201613354D01*
X24345262Y-201354715D01*
G37*
G36*
X49563294Y-191641857D02*
G01*
X49632831Y-191670510D01*
X49720017Y-191711253D01*
X49737844Y-191720086D01*
X49939122Y-191846727D01*
X50104267Y-192003256D01*
X50233281Y-192183779D01*
X50326164Y-192382404D01*
X50382918Y-192593240D01*
X50403543Y-192810393D01*
X50388040Y-193027971D01*
X50336411Y-193240082D01*
X50248656Y-193440833D01*
X50124777Y-193624332D01*
X49964774Y-193784686D01*
X49768647Y-193916003D01*
X49737480Y-193932149D01*
X49648539Y-193974528D01*
X49574586Y-194005926D01*
X49529346Y-194020598D01*
X49525113Y-194021021D01*
X49516873Y-194013876D01*
X49509997Y-193989828D01*
X49504370Y-193944958D01*
X49499880Y-193875345D01*
X49496411Y-193777072D01*
X49493850Y-193646217D01*
X49492084Y-193478863D01*
X49490998Y-193271090D01*
X49490478Y-193018978D01*
X49490391Y-192826026D01*
X49490598Y-192542446D01*
X49491297Y-192305796D01*
X49492601Y-192112156D01*
X49494623Y-191957608D01*
X49497479Y-191838231D01*
X49501281Y-191750108D01*
X49506144Y-191689317D01*
X49512181Y-191651940D01*
X49519506Y-191634058D01*
X49525113Y-191631031D01*
X49563294Y-191641857D01*
G37*
G36*
X49332825Y-166616685D02*
G01*
X49370232Y-166630558D01*
X49416073Y-166653412D01*
X49471198Y-166681440D01*
X49485845Y-166688486D01*
X49678632Y-166807099D01*
X49846777Y-166966174D01*
X49984847Y-167159089D01*
X50087407Y-167379221D01*
X50110478Y-167449710D01*
X50134967Y-167572652D01*
X50147903Y-167724739D01*
X50148872Y-167885505D01*
X50137462Y-168034479D01*
X50123858Y-168112513D01*
X50050367Y-168323986D01*
X49934338Y-168521427D01*
X49783305Y-168696879D01*
X49604801Y-168842384D01*
X49406362Y-168949987D01*
X49293343Y-168989595D01*
X49236136Y-169005830D01*
X49236136Y-167809121D01*
X49235831Y-167523878D01*
X49235481Y-167285672D01*
X49235934Y-167090698D01*
X49238038Y-166935150D01*
X49242641Y-166815222D01*
X49250592Y-166727109D01*
X49262737Y-166667004D01*
X49279926Y-166631102D01*
X49303006Y-166615598D01*
X49332825Y-166616685D01*
G37*
G36*
X43355039Y-73654287D02*
G01*
X43375576Y-73664599D01*
X43434913Y-73698439D01*
X43491037Y-73735288D01*
X43531338Y-73766143D01*
X43543203Y-73782000D01*
X43540841Y-73782582D01*
X43513369Y-73770445D01*
X43459097Y-73739856D01*
X43432547Y-73723830D01*
X43362611Y-73678751D01*
X43324151Y-73649816D01*
X43320512Y-73640502D01*
X43355039Y-73654287D01*
G37*
G36*
X51289239Y-200282309D02*
G01*
X51509360Y-200287508D01*
X51708858Y-200294283D01*
X51881273Y-200302299D01*
X52020146Y-200311223D01*
X52119015Y-200320721D01*
X52160060Y-200327328D01*
X52392659Y-200403321D01*
X52595482Y-200518596D01*
X52765860Y-200669409D01*
X52901122Y-200852016D01*
X52998598Y-201062675D01*
X53055617Y-201297640D01*
X53069511Y-201553170D01*
X53067339Y-201599241D01*
X53030169Y-201890998D01*
X52957150Y-202148736D01*
X52848808Y-202371523D01*
X52705670Y-202558430D01*
X52528263Y-202708527D01*
X52395579Y-202785535D01*
X52294312Y-202833326D01*
X52215412Y-202861843D01*
X52137625Y-202876037D01*
X52039695Y-202880857D01*
X51984409Y-202881284D01*
X51878773Y-202880750D01*
X51813593Y-202876783D01*
X51778480Y-202866720D01*
X51763045Y-202847900D01*
X51757658Y-202823176D01*
X51763072Y-202750702D01*
X51805804Y-202710016D01*
X51887823Y-202699785D01*
X51933477Y-202704113D01*
X52077411Y-202704253D01*
X52235748Y-202672515D01*
X52388311Y-202614305D01*
X52488246Y-202555497D01*
X52644243Y-202412753D01*
X52764899Y-202234270D01*
X52849630Y-202021430D01*
X52897852Y-201775613D01*
X52909748Y-201559660D01*
X52902587Y-201360115D01*
X52878339Y-201197062D01*
X52833724Y-201058054D01*
X52765458Y-200930640D01*
X52730461Y-200879673D01*
X52596268Y-200729941D01*
X52434437Y-200614703D01*
X52240969Y-200532136D01*
X52011869Y-200480420D01*
X51810461Y-200460573D01*
X51549850Y-200446351D01*
X51549850Y-203682683D01*
X50558258Y-203682683D01*
X50558258Y-200268540D01*
X51289239Y-200282309D01*
G37*
G36*
X45345267Y-79136237D02*
G01*
X45332608Y-79178020D01*
X45320621Y-79199800D01*
X45300474Y-79220151D01*
X45295974Y-79212513D01*
X45308633Y-79170729D01*
X45320621Y-79148949D01*
X45340767Y-79128598D01*
X45345267Y-79136237D01*
G37*
G36*
X36667389Y-76828879D02*
G01*
X36670748Y-76880934D01*
X36667389Y-76892443D01*
X36658109Y-76895637D01*
X36654565Y-76860661D01*
X36658561Y-76824566D01*
X36667389Y-76828879D01*
G37*
G36*
X42186407Y-73184039D02*
G01*
X42178825Y-73195595D01*
X42153036Y-73197393D01*
X42125907Y-73191183D01*
X42137675Y-73182031D01*
X42177412Y-73179000D01*
X42186407Y-73184039D01*
G37*
G36*
X36641487Y-77015682D02*
G01*
X36642745Y-77020054D01*
X36646467Y-77075438D01*
X36641803Y-77096330D01*
X36633456Y-77097175D01*
X36630047Y-77057373D01*
X36630082Y-77051352D01*
X36633748Y-77011918D01*
X36641487Y-77015682D01*
G37*
G36*
X42719063Y-81779039D02*
G01*
X42701802Y-81793194D01*
X42655451Y-81814708D01*
X42638238Y-81817840D01*
X42633690Y-81807349D01*
X42650951Y-81793194D01*
X42697302Y-81771679D01*
X42714515Y-81768547D01*
X42719063Y-81779039D01*
G37*
G36*
X45515967Y-78533972D02*
G01*
X45518998Y-78573709D01*
X45513960Y-78582704D01*
X45502404Y-78575121D01*
X45500606Y-78549333D01*
X45506815Y-78522203D01*
X45515967Y-78533972D01*
G37*
G36*
X39743977Y-81852520D02*
G01*
X39740487Y-81867635D01*
X39727027Y-81869470D01*
X39706099Y-81860167D01*
X39710077Y-81852520D01*
X39740251Y-81849477D01*
X39743977Y-81852520D01*
G37*
G36*
X36744195Y-78635674D02*
G01*
X36747226Y-78675410D01*
X36742188Y-78684406D01*
X36730632Y-78676823D01*
X36728834Y-78651035D01*
X36735044Y-78623905D01*
X36744195Y-78635674D01*
G37*
G36*
X37356228Y-80053307D02*
G01*
X37396090Y-80101974D01*
X37456886Y-80182377D01*
X37490159Y-80227806D01*
X37674384Y-80463477D01*
X37877959Y-80687783D01*
X38110204Y-80910250D01*
X38380440Y-81140406D01*
X38392719Y-81150349D01*
X38446895Y-81196344D01*
X38477075Y-81226397D01*
X38479193Y-81232982D01*
X38455091Y-81217998D01*
X38400127Y-81176524D01*
X38322340Y-81114817D01*
X38229770Y-81039131D01*
X38224939Y-81035127D01*
X38108686Y-80934670D01*
X37986086Y-80822118D01*
X37874438Y-80713647D01*
X37813348Y-80650201D01*
X37728226Y-80554431D01*
X37635184Y-80443846D01*
X37542560Y-80328999D01*
X37458691Y-80220445D01*
X37391915Y-80128738D01*
X37350570Y-80064433D01*
X37350478Y-80064265D01*
X37340092Y-80039647D01*
X37356228Y-80053307D01*
G37*
G36*
X36692815Y-78379830D02*
G01*
X36696173Y-78431885D01*
X36692815Y-78443394D01*
X36683535Y-78446588D01*
X36679991Y-78411612D01*
X36683986Y-78375517D01*
X36692815Y-78379830D01*
G37*
G36*
X45232314Y-79421548D02*
G01*
X45201095Y-79488715D01*
X45156033Y-79577850D01*
X45103020Y-79677973D01*
X45047945Y-79778109D01*
X44996701Y-79867279D01*
X44955178Y-79934505D01*
X44935106Y-79962563D01*
X44882354Y-80026127D01*
X44928644Y-79949850D01*
X44959490Y-79896087D01*
X45006795Y-79810198D01*
X45063488Y-79705138D01*
X45109093Y-79619320D01*
X45162008Y-79520935D01*
X45205183Y-79444263D01*
X45233982Y-79397293D01*
X45243799Y-79387326D01*
X45232314Y-79421548D01*
G37*
G36*
X40559710Y-82029921D02*
G01*
X40567623Y-82037291D01*
X40532466Y-82041303D01*
X40515215Y-82041549D01*
X40468958Y-82038898D01*
X40463507Y-82032298D01*
X40470721Y-82029921D01*
X40535206Y-82025967D01*
X40559710Y-82029921D01*
G37*
G36*
X38525763Y-81255092D02*
G01*
X38574930Y-81282779D01*
X38641659Y-81322991D01*
X38713499Y-81368000D01*
X38777999Y-81410081D01*
X38822709Y-81441505D01*
X38833440Y-81450491D01*
X38841118Y-81464423D01*
X38810312Y-81451297D01*
X38744420Y-81412888D01*
X38663101Y-81361516D01*
X38587239Y-81310879D01*
X38531635Y-81270708D01*
X38506981Y-81248779D01*
X38506607Y-81247656D01*
X38525763Y-81255092D01*
G37*
G36*
X41780130Y-73105597D02*
G01*
X41788043Y-73112967D01*
X41752886Y-73116979D01*
X41735636Y-73117225D01*
X41689379Y-73114574D01*
X41683927Y-73107974D01*
X41691141Y-73105597D01*
X41755626Y-73101643D01*
X41780130Y-73105597D01*
G37*
G36*
X37001358Y-79405936D02*
G01*
X37032488Y-79459418D01*
X37075075Y-79539815D01*
X37102830Y-79594849D01*
X37147503Y-79687336D01*
X37180278Y-79759904D01*
X37196831Y-79802705D01*
X37197296Y-79810010D01*
X37181281Y-79788871D01*
X37148629Y-79732239D01*
X37105061Y-79650292D01*
X37081460Y-79603976D01*
X37036853Y-79512462D01*
X37004019Y-79439670D01*
X36987614Y-79396204D01*
X36986995Y-79388815D01*
X37001358Y-79405936D01*
G37*
G36*
X26810098Y-200382412D02*
G01*
X26882602Y-200451256D01*
X26986129Y-200550604D01*
X27115408Y-200675346D01*
X27265164Y-200820371D01*
X27430126Y-200980569D01*
X27605020Y-201150830D01*
X27784574Y-201326043D01*
X27878150Y-201417530D01*
X28694446Y-202216141D01*
X28691166Y-201255158D01*
X28690443Y-200998814D01*
X28690511Y-200788999D01*
X28691846Y-200621396D01*
X28694926Y-200491682D01*
X28700229Y-200395540D01*
X28708231Y-200328649D01*
X28719409Y-200286689D01*
X28734242Y-200265340D01*
X28753205Y-200260283D01*
X28776777Y-200267199D01*
X28799081Y-200278345D01*
X28808014Y-200285161D01*
X28815708Y-200297731D01*
X28822256Y-200319630D01*
X28827749Y-200354428D01*
X28832279Y-200405698D01*
X28835939Y-200477012D01*
X28838820Y-200571942D01*
X28841016Y-200694062D01*
X28842617Y-200846942D01*
X28843717Y-201034155D01*
X28844407Y-201259273D01*
X28844779Y-201525870D01*
X28844927Y-201837516D01*
X28844945Y-202056350D01*
X28844851Y-202349864D01*
X28844578Y-202627978D01*
X28844143Y-202886594D01*
X28843561Y-203121613D01*
X28842848Y-203328936D01*
X28842019Y-203504464D01*
X28841090Y-203644098D01*
X28840076Y-203743739D01*
X28838994Y-203799289D01*
X28838262Y-203809810D01*
X28819244Y-203792688D01*
X28766864Y-203743397D01*
X28684379Y-203665050D01*
X28575046Y-203560763D01*
X28442122Y-203433649D01*
X28288863Y-203286821D01*
X28118526Y-203123394D01*
X27934369Y-202946481D01*
X27776750Y-202794899D01*
X26721922Y-201779988D01*
X26708442Y-202737692D01*
X26705271Y-202953023D01*
X26702072Y-203151782D01*
X26698956Y-203328373D01*
X26696035Y-203477202D01*
X26693418Y-203592673D01*
X26691217Y-203669193D01*
X26689542Y-203701165D01*
X26689373Y-203701752D01*
X26655171Y-203710666D01*
X26603356Y-203703968D01*
X26561492Y-203686798D01*
X26553021Y-203676327D01*
X26551599Y-203646150D01*
X26550450Y-203569327D01*
X26549580Y-203450061D01*
X26548991Y-203292556D01*
X26548690Y-203101016D01*
X26548679Y-202879644D01*
X26548964Y-202632645D01*
X26549549Y-202364221D01*
X26550438Y-202078576D01*
X26551142Y-201895225D01*
X26558341Y-200145905D01*
X26810098Y-200382412D01*
G37*
G04 #@! TD*
M02*
