G04 #@! TF.GenerationSoftware,KiCad,Pcbnew,6.0.7-f9a2dced07~116~ubuntu22.04.1*
G04 #@! TF.CreationDate,2022-09-03T08:57:15-04:00*
G04 #@! TF.ProjectId,clock_panel,636c6f63-6b5f-4706-916e-656c2e6b6963,rev?*
G04 #@! TF.SameCoordinates,Original*
G04 #@! TF.FileFunction,Copper,L2,Bot*
G04 #@! TF.FilePolarity,Positive*
%FSLAX46Y46*%
G04 Gerber Fmt 4.6, Leading zero omitted, Abs format (unit mm)*
G04 Created by KiCad (PCBNEW 6.0.7-f9a2dced07~116~ubuntu22.04.1) date 2022-09-03 08:57:15*
%MOMM*%
%LPD*%
G01*
G04 APERTURE LIST*
G04 #@! TA.AperFunction,ComponentPad*
%ADD10O,6.800000X4.000000*%
G04 #@! TD*
G04 #@! TA.AperFunction,ComponentPad*
%ADD11C,5.500000*%
G04 #@! TD*
G04 #@! TA.AperFunction,ComponentPad*
%ADD12C,14.000000*%
G04 #@! TD*
G04 #@! TA.AperFunction,ComponentPad*
%ADD13C,9.500000*%
G04 #@! TD*
G04 APERTURE END LIST*
D10*
G04 #@! TO.P,H10,1*
G04 #@! TO.N,GND*
X61700000Y-10600000D03*
X61700000Y-204600000D03*
G04 #@! TD*
D11*
G04 #@! TO.P,H8,1*
G04 #@! TO.N,N/C*
X41100000Y-152600000D03*
G04 #@! TD*
D12*
G04 #@! TO.P,H5,1*
G04 #@! TO.N,GND*
X28600000Y-132600000D03*
G04 #@! TD*
G04 #@! TO.P,H6,1*
G04 #@! TO.N,GND*
X53600000Y-132600000D03*
G04 #@! TD*
G04 #@! TO.P,H1,1*
G04 #@! TO.N,GND*
X28600000Y-157600000D03*
G04 #@! TD*
D10*
G04 #@! TO.P,H7,1*
G04 #@! TO.N,GND*
X20500000Y-10600000D03*
X20500000Y-204600000D03*
G04 #@! TD*
D11*
G04 #@! TO.P,H9,1*
G04 #@! TO.N,N/C*
X41100000Y-127600000D03*
G04 #@! TD*
D12*
G04 #@! TO.P,H2,1*
G04 #@! TO.N,GND*
X28600000Y-182600000D03*
G04 #@! TD*
G04 #@! TO.P,H3,1*
G04 #@! TO.N,GND*
X53600000Y-157600000D03*
G04 #@! TD*
G04 #@! TO.P,H4,1*
G04 #@! TO.N,GND*
X53600000Y-182600000D03*
G04 #@! TD*
D13*
G04 #@! TO.P,H12,1*
G04 #@! TO.N,GND*
X41100000Y-77600000D03*
G04 #@! TD*
D11*
G04 #@! TO.P,H11,1*
G04 #@! TO.N,N/C*
X41100000Y-137600000D03*
G04 #@! TD*
G04 #@! TO.P,H13,1*
G04 #@! TO.N,N/C*
X41100000Y-162600000D03*
G04 #@! TD*
G04 #@! TO.P,H14,1*
G04 #@! TO.N,N/C*
X41100000Y-177600000D03*
G04 #@! TD*
G04 #@! TO.P,H15,1*
G04 #@! TO.N,N/C*
X41100000Y-187600000D03*
G04 #@! TD*
G04 #@! TA.AperFunction,Conductor*
G04 #@! TO.N,GND*
G36*
X59208761Y-8128502D02*
G01*
X59255254Y-8182158D01*
X59265358Y-8252432D01*
X59235864Y-8317012D01*
X59194288Y-8348508D01*
X59092959Y-8396190D01*
X59086026Y-8400001D01*
X58826271Y-8564847D01*
X58819868Y-8569498D01*
X58582813Y-8765607D01*
X58577046Y-8771023D01*
X58366443Y-8995293D01*
X58361404Y-9001384D01*
X58180570Y-9250281D01*
X58176330Y-9256961D01*
X58028110Y-9526572D01*
X58024753Y-9533707D01*
X57911492Y-9819770D01*
X57909047Y-9827296D01*
X57832538Y-10125279D01*
X57831055Y-10133050D01*
X57806425Y-10328026D01*
X57808728Y-10342306D01*
X57821720Y-10346000D01*
X61828000Y-10346000D01*
X61896121Y-10366002D01*
X61942614Y-10419658D01*
X61954000Y-10472000D01*
X61954000Y-13089885D01*
X61958475Y-13105124D01*
X61959865Y-13106329D01*
X61967548Y-13108000D01*
X63176829Y-13108000D01*
X63180820Y-13107874D01*
X63410994Y-13093393D01*
X63418855Y-13092400D01*
X63721046Y-13034754D01*
X63728723Y-13032783D01*
X64021309Y-12937716D01*
X64028672Y-12934801D01*
X64307041Y-12803811D01*
X64313974Y-12799999D01*
X64573729Y-12635153D01*
X64580132Y-12630502D01*
X64817187Y-12434393D01*
X64822954Y-12428977D01*
X65033557Y-12204707D01*
X65038596Y-12198616D01*
X65219430Y-11949719D01*
X65223670Y-11943039D01*
X65355085Y-11703996D01*
X65405431Y-11653937D01*
X65474848Y-11639044D01*
X65541297Y-11664045D01*
X65583681Y-11721002D01*
X65591500Y-11764697D01*
X65591500Y-203435303D01*
X65571498Y-203503424D01*
X65517842Y-203549917D01*
X65447568Y-203560021D01*
X65382988Y-203530527D01*
X65355085Y-203496004D01*
X65223670Y-203256961D01*
X65219430Y-203250281D01*
X65038596Y-203001384D01*
X65033557Y-202995293D01*
X64822954Y-202771023D01*
X64817187Y-202765607D01*
X64580132Y-202569498D01*
X64573729Y-202564847D01*
X64313974Y-202400001D01*
X64307041Y-202396189D01*
X64028672Y-202265199D01*
X64021309Y-202262284D01*
X63728723Y-202167217D01*
X63721046Y-202165246D01*
X63418855Y-202107600D01*
X63410994Y-202106607D01*
X63180820Y-202092126D01*
X63176829Y-202092000D01*
X61972115Y-202092000D01*
X61956876Y-202096475D01*
X61955671Y-202097865D01*
X61954000Y-202105548D01*
X61954000Y-204728000D01*
X61933998Y-204796121D01*
X61880342Y-204842614D01*
X61828000Y-204854000D01*
X57822269Y-204854000D01*
X57808392Y-204858075D01*
X57806355Y-204871426D01*
X57831055Y-205066950D01*
X57832538Y-205074721D01*
X57909047Y-205372704D01*
X57911492Y-205380230D01*
X58024753Y-205666293D01*
X58028110Y-205673428D01*
X58176330Y-205943039D01*
X58180570Y-205949719D01*
X58361404Y-206198616D01*
X58366443Y-206204707D01*
X58577046Y-206428977D01*
X58582813Y-206434393D01*
X58819868Y-206630502D01*
X58826271Y-206635153D01*
X59086026Y-206799999D01*
X59092959Y-206803810D01*
X59194288Y-206851492D01*
X59247409Y-206898594D01*
X59266632Y-206966939D01*
X59245853Y-207034827D01*
X59191670Y-207080704D01*
X59140640Y-207091500D01*
X23059360Y-207091500D01*
X22991239Y-207071498D01*
X22944746Y-207017842D01*
X22934642Y-206947568D01*
X22964136Y-206882988D01*
X23005712Y-206851492D01*
X23107041Y-206803810D01*
X23113974Y-206799999D01*
X23373729Y-206635153D01*
X23380132Y-206630502D01*
X23617187Y-206434393D01*
X23622954Y-206428977D01*
X23833557Y-206204707D01*
X23838596Y-206198616D01*
X24019430Y-205949719D01*
X24023670Y-205943039D01*
X24171890Y-205673428D01*
X24175247Y-205666293D01*
X24288508Y-205380230D01*
X24290953Y-205372704D01*
X24367462Y-205074721D01*
X24368945Y-205066950D01*
X24393575Y-204871974D01*
X24391272Y-204857694D01*
X24378280Y-204854000D01*
X20372000Y-204854000D01*
X20303879Y-204833998D01*
X20257386Y-204780342D01*
X20246000Y-204728000D01*
X20246000Y-204327885D01*
X20754000Y-204327885D01*
X20758475Y-204343124D01*
X20759865Y-204344329D01*
X20767548Y-204346000D01*
X24377731Y-204346000D01*
X24391608Y-204341925D01*
X24393645Y-204328574D01*
X24393576Y-204328026D01*
X57806425Y-204328026D01*
X57808728Y-204342306D01*
X57821720Y-204346000D01*
X61427885Y-204346000D01*
X61443124Y-204341525D01*
X61444329Y-204340135D01*
X61446000Y-204332452D01*
X61446000Y-202110115D01*
X61441525Y-202094876D01*
X61440135Y-202093671D01*
X61432452Y-202092000D01*
X60223171Y-202092000D01*
X60219180Y-202092126D01*
X59989006Y-202106607D01*
X59981145Y-202107600D01*
X59678954Y-202165246D01*
X59671277Y-202167217D01*
X59378691Y-202262284D01*
X59371328Y-202265199D01*
X59092959Y-202396189D01*
X59086026Y-202400001D01*
X58826271Y-202564847D01*
X58819868Y-202569498D01*
X58582813Y-202765607D01*
X58577046Y-202771023D01*
X58366443Y-202995293D01*
X58361404Y-203001384D01*
X58180570Y-203250281D01*
X58176330Y-203256961D01*
X58028110Y-203526572D01*
X58024753Y-203533707D01*
X57911492Y-203819770D01*
X57909047Y-203827296D01*
X57832538Y-204125279D01*
X57831055Y-204133050D01*
X57806425Y-204328026D01*
X24393576Y-204328026D01*
X24368945Y-204133050D01*
X24367462Y-204125279D01*
X24290953Y-203827296D01*
X24288508Y-203819770D01*
X24175247Y-203533707D01*
X24171890Y-203526572D01*
X24023670Y-203256961D01*
X24019430Y-203250281D01*
X23838596Y-203001384D01*
X23833557Y-202995293D01*
X23622954Y-202771023D01*
X23617187Y-202765607D01*
X23380132Y-202569498D01*
X23373729Y-202564847D01*
X23113974Y-202400001D01*
X23107041Y-202396189D01*
X22828672Y-202265199D01*
X22821309Y-202262284D01*
X22528723Y-202167217D01*
X22521046Y-202165246D01*
X22218855Y-202107600D01*
X22210994Y-202106607D01*
X21980820Y-202092126D01*
X21976829Y-202092000D01*
X20772115Y-202092000D01*
X20756876Y-202096475D01*
X20755671Y-202097865D01*
X20754000Y-202105548D01*
X20754000Y-204327885D01*
X20246000Y-204327885D01*
X20246000Y-202110115D01*
X20241525Y-202094876D01*
X20240135Y-202093671D01*
X20232452Y-202092000D01*
X19023171Y-202092000D01*
X19019180Y-202092126D01*
X18789006Y-202106607D01*
X18781145Y-202107600D01*
X18478954Y-202165246D01*
X18471277Y-202167217D01*
X18178691Y-202262284D01*
X18171328Y-202265199D01*
X17892959Y-202396189D01*
X17886026Y-202400001D01*
X17626271Y-202564847D01*
X17619868Y-202569498D01*
X17382813Y-202765607D01*
X17377046Y-202771023D01*
X17166443Y-202995293D01*
X17161404Y-203001384D01*
X16980570Y-203250281D01*
X16976330Y-203256961D01*
X16844915Y-203496004D01*
X16794569Y-203546063D01*
X16725152Y-203560956D01*
X16658703Y-203535955D01*
X16616319Y-203478998D01*
X16608500Y-203435303D01*
X16608500Y-188087102D01*
X23478438Y-188087102D01*
X23478462Y-188087441D01*
X23484285Y-188096073D01*
X23728991Y-188319913D01*
X23732445Y-188322852D01*
X24150430Y-188653550D01*
X24154067Y-188656222D01*
X24594618Y-188956182D01*
X24598446Y-188958593D01*
X25059337Y-189226300D01*
X25063309Y-189228421D01*
X25542148Y-189462483D01*
X25546284Y-189464325D01*
X26040627Y-189663551D01*
X26044871Y-189665087D01*
X26552218Y-189828467D01*
X26556539Y-189829689D01*
X27074254Y-189956374D01*
X27078695Y-189957294D01*
X27604141Y-190046637D01*
X27608595Y-190047232D01*
X28139106Y-190098782D01*
X28143579Y-190099056D01*
X28676427Y-190112543D01*
X28680930Y-190112496D01*
X29213352Y-190087853D01*
X29217836Y-190087485D01*
X29747152Y-190024836D01*
X29751591Y-190024149D01*
X30275087Y-189923814D01*
X30279446Y-189922815D01*
X30794414Y-189785311D01*
X30798727Y-189783992D01*
X31302525Y-189610028D01*
X31306740Y-189608402D01*
X31796805Y-189398866D01*
X31800892Y-189396943D01*
X32274731Y-189152900D01*
X32278658Y-189150696D01*
X32733828Y-188873404D01*
X32737624Y-188870901D01*
X33171786Y-188561788D01*
X33175372Y-188559036D01*
X33586362Y-188219640D01*
X33589705Y-188216672D01*
X33713630Y-188098453D01*
X33721568Y-188084695D01*
X33721518Y-188083649D01*
X33716625Y-188075835D01*
X28612812Y-182972022D01*
X28598868Y-182964408D01*
X28597035Y-182964539D01*
X28590420Y-182968790D01*
X23486052Y-188073158D01*
X23478438Y-188087102D01*
X16608500Y-188087102D01*
X16608500Y-182650201D01*
X21087236Y-182650201D01*
X21087267Y-182654699D01*
X21110052Y-183187215D01*
X21110404Y-183191696D01*
X21171206Y-183721240D01*
X21171874Y-183725659D01*
X21270381Y-184249497D01*
X21271370Y-184253884D01*
X21407070Y-184769308D01*
X21408381Y-184773648D01*
X21580581Y-185278039D01*
X21582188Y-185282249D01*
X21790028Y-185773079D01*
X21791917Y-185777129D01*
X22034314Y-186251836D01*
X22036507Y-186255776D01*
X22312217Y-186711925D01*
X22314678Y-186715685D01*
X22622290Y-187150947D01*
X22625036Y-187154552D01*
X22962987Y-187566712D01*
X22965944Y-187570066D01*
X23101751Y-187713428D01*
X23115482Y-187721415D01*
X23116410Y-187721374D01*
X23124399Y-187716391D01*
X28227978Y-182612812D01*
X28234356Y-182601132D01*
X28964408Y-182601132D01*
X28964539Y-182602965D01*
X28968790Y-182609580D01*
X34073389Y-187714179D01*
X34087333Y-187721793D01*
X34087556Y-187721778D01*
X34096338Y-187715831D01*
X34211898Y-187588609D01*
X37836734Y-187588609D01*
X37854591Y-187941106D01*
X37855128Y-187944461D01*
X37855129Y-187944467D01*
X37893957Y-188186878D01*
X37910412Y-188289613D01*
X38003546Y-188630053D01*
X38132903Y-188958443D01*
X38134486Y-188961458D01*
X38295384Y-189267926D01*
X38295389Y-189267934D01*
X38296968Y-189270942D01*
X38298862Y-189273760D01*
X38298867Y-189273769D01*
X38318518Y-189303012D01*
X38493824Y-189563895D01*
X38721167Y-189833873D01*
X38723627Y-189836224D01*
X38723630Y-189836227D01*
X38973875Y-190075366D01*
X38973882Y-190075372D01*
X38976338Y-190077719D01*
X39256351Y-190292581D01*
X39259269Y-190294355D01*
X39555017Y-190474173D01*
X39555022Y-190474176D01*
X39557932Y-190475945D01*
X39561020Y-190477391D01*
X39561019Y-190477391D01*
X39874468Y-190624222D01*
X39874478Y-190624226D01*
X39877552Y-190625666D01*
X39880770Y-190626768D01*
X39880773Y-190626769D01*
X40208241Y-190738887D01*
X40208245Y-190738888D01*
X40211472Y-190739993D01*
X40214802Y-190740743D01*
X40214811Y-190740746D01*
X40458164Y-190795587D01*
X40555786Y-190817587D01*
X40559171Y-190817973D01*
X40559179Y-190817974D01*
X40903083Y-190857157D01*
X40903091Y-190857157D01*
X40906466Y-190857542D01*
X40909870Y-190857560D01*
X40909873Y-190857560D01*
X41101627Y-190858564D01*
X41259411Y-190859390D01*
X41262797Y-190859040D01*
X41262799Y-190859040D01*
X41607098Y-190823461D01*
X41607107Y-190823460D01*
X41610490Y-190823110D01*
X41613823Y-190822396D01*
X41613826Y-190822395D01*
X41783692Y-190785979D01*
X41955598Y-190749125D01*
X42290697Y-190638301D01*
X42611867Y-190491936D01*
X42705405Y-190436397D01*
X42912407Y-190313489D01*
X42912412Y-190313486D01*
X42915352Y-190311740D01*
X42940870Y-190292581D01*
X43194867Y-190101874D01*
X43197600Y-190099822D01*
X43455310Y-189858661D01*
X43685468Y-189591078D01*
X43885380Y-189300203D01*
X43886992Y-189297209D01*
X43886997Y-189297201D01*
X44051087Y-188992452D01*
X44052709Y-188989440D01*
X44185498Y-188662422D01*
X44193816Y-188633223D01*
X44281257Y-188326254D01*
X44282191Y-188322976D01*
X44322510Y-188087102D01*
X48478438Y-188087102D01*
X48478462Y-188087441D01*
X48484285Y-188096073D01*
X48728991Y-188319913D01*
X48732445Y-188322852D01*
X49150430Y-188653550D01*
X49154067Y-188656222D01*
X49594618Y-188956182D01*
X49598446Y-188958593D01*
X50059337Y-189226300D01*
X50063309Y-189228421D01*
X50542148Y-189462483D01*
X50546284Y-189464325D01*
X51040627Y-189663551D01*
X51044871Y-189665087D01*
X51552218Y-189828467D01*
X51556539Y-189829689D01*
X52074254Y-189956374D01*
X52078695Y-189957294D01*
X52604141Y-190046637D01*
X52608595Y-190047232D01*
X53139106Y-190098782D01*
X53143579Y-190099056D01*
X53676427Y-190112543D01*
X53680930Y-190112496D01*
X54213352Y-190087853D01*
X54217836Y-190087485D01*
X54747152Y-190024836D01*
X54751591Y-190024149D01*
X55275087Y-189923814D01*
X55279446Y-189922815D01*
X55794414Y-189785311D01*
X55798727Y-189783992D01*
X56302525Y-189610028D01*
X56306740Y-189608402D01*
X56796805Y-189398866D01*
X56800892Y-189396943D01*
X57274731Y-189152900D01*
X57278658Y-189150696D01*
X57733828Y-188873404D01*
X57737624Y-188870901D01*
X58171786Y-188561788D01*
X58175372Y-188559036D01*
X58586362Y-188219640D01*
X58589705Y-188216672D01*
X58713630Y-188098453D01*
X58721568Y-188084695D01*
X58721518Y-188083649D01*
X58716625Y-188075835D01*
X53612812Y-182972022D01*
X53598868Y-182964408D01*
X53597035Y-182964539D01*
X53590420Y-182968790D01*
X48486052Y-188073158D01*
X48478438Y-188087102D01*
X44322510Y-188087102D01*
X44323100Y-188083649D01*
X44341087Y-187978420D01*
X44341087Y-187978418D01*
X44341659Y-187975073D01*
X44343945Y-187937711D01*
X44363096Y-187624580D01*
X44363206Y-187622782D01*
X44363286Y-187600000D01*
X44344199Y-187247567D01*
X44287161Y-186899257D01*
X44192839Y-186559145D01*
X44189849Y-186551630D01*
X44063597Y-186234372D01*
X44062338Y-186231208D01*
X43897182Y-185919283D01*
X43890579Y-185909530D01*
X43701211Y-185629834D01*
X43701204Y-185629825D01*
X43699305Y-185627020D01*
X43697109Y-185624430D01*
X43697104Y-185624424D01*
X43608715Y-185520201D01*
X43471021Y-185357837D01*
X43215001Y-185114883D01*
X43212294Y-185112821D01*
X43212286Y-185112814D01*
X43053809Y-184992088D01*
X42934239Y-184901000D01*
X42632020Y-184718689D01*
X42628930Y-184717255D01*
X42628925Y-184717252D01*
X42424903Y-184622549D01*
X42311879Y-184570085D01*
X42308654Y-184568993D01*
X42308648Y-184568991D01*
X41980798Y-184458020D01*
X41980793Y-184458018D01*
X41977562Y-184456925D01*
X41963832Y-184453881D01*
X41894730Y-184438562D01*
X41632979Y-184380533D01*
X41508353Y-184366774D01*
X41285543Y-184342175D01*
X41285538Y-184342175D01*
X41282162Y-184341802D01*
X41278763Y-184341796D01*
X41278762Y-184341796D01*
X41112289Y-184341506D01*
X40929213Y-184341186D01*
X40798206Y-184355187D01*
X40581646Y-184378330D01*
X40581640Y-184378331D01*
X40578262Y-184378692D01*
X40233414Y-184453881D01*
X39898704Y-184565873D01*
X39578047Y-184713359D01*
X39275194Y-184894613D01*
X38993687Y-185107515D01*
X38736820Y-185349574D01*
X38507598Y-185617959D01*
X38308702Y-185909530D01*
X38142458Y-186220876D01*
X38141183Y-186224048D01*
X38141181Y-186224052D01*
X38137033Y-186234372D01*
X38010813Y-186548355D01*
X38009894Y-186551623D01*
X38009892Y-186551630D01*
X37964835Y-186711925D01*
X37915304Y-186888136D01*
X37914743Y-186891489D01*
X37914742Y-186891493D01*
X37857614Y-187232880D01*
X37857051Y-187236245D01*
X37836734Y-187588609D01*
X34211898Y-187588609D01*
X34336905Y-187450987D01*
X34339793Y-187447570D01*
X34669044Y-187028414D01*
X34671701Y-187024771D01*
X34970130Y-186583164D01*
X34972526Y-186579329D01*
X35238617Y-186117514D01*
X35240726Y-186113531D01*
X35473116Y-185633878D01*
X35474941Y-185629741D01*
X35672446Y-185134690D01*
X35673961Y-185130460D01*
X35835567Y-184622549D01*
X35836781Y-184618202D01*
X35961661Y-184100034D01*
X35962555Y-184095638D01*
X36050064Y-183569885D01*
X36050649Y-183565380D01*
X36100363Y-183034517D01*
X36100613Y-183030439D01*
X36111566Y-182650201D01*
X46087236Y-182650201D01*
X46087267Y-182654699D01*
X46110052Y-183187215D01*
X46110404Y-183191696D01*
X46171206Y-183721240D01*
X46171874Y-183725659D01*
X46270381Y-184249497D01*
X46271370Y-184253884D01*
X46407070Y-184769308D01*
X46408381Y-184773648D01*
X46580581Y-185278039D01*
X46582188Y-185282249D01*
X46790028Y-185773079D01*
X46791917Y-185777129D01*
X47034314Y-186251836D01*
X47036507Y-186255776D01*
X47312217Y-186711925D01*
X47314678Y-186715685D01*
X47622290Y-187150947D01*
X47625036Y-187154552D01*
X47962987Y-187566712D01*
X47965944Y-187570066D01*
X48101751Y-187713428D01*
X48115482Y-187721415D01*
X48116410Y-187721374D01*
X48124399Y-187716391D01*
X53227978Y-182612812D01*
X53234356Y-182601132D01*
X53964408Y-182601132D01*
X53964539Y-182602965D01*
X53968790Y-182609580D01*
X59073389Y-187714179D01*
X59087333Y-187721793D01*
X59087556Y-187721778D01*
X59096338Y-187715831D01*
X59336905Y-187450987D01*
X59339793Y-187447570D01*
X59669044Y-187028414D01*
X59671701Y-187024771D01*
X59970130Y-186583164D01*
X59972526Y-186579329D01*
X60238617Y-186117514D01*
X60240726Y-186113531D01*
X60473116Y-185633878D01*
X60474941Y-185629741D01*
X60672446Y-185134690D01*
X60673961Y-185130460D01*
X60835567Y-184622549D01*
X60836781Y-184618202D01*
X60961661Y-184100034D01*
X60962555Y-184095638D01*
X61050064Y-183569885D01*
X61050649Y-183565380D01*
X61100363Y-183034517D01*
X61100613Y-183030439D01*
X61112954Y-182602024D01*
X61112939Y-182597967D01*
X61093866Y-182065096D01*
X61093544Y-182060601D01*
X61036442Y-181530662D01*
X61035800Y-181526211D01*
X60940955Y-181001710D01*
X60939999Y-180997327D01*
X60807892Y-180480933D01*
X60806630Y-180476645D01*
X60637938Y-179971015D01*
X60636370Y-179966818D01*
X60431966Y-179474558D01*
X60430088Y-179470456D01*
X60191023Y-178994094D01*
X60188855Y-178990133D01*
X59916347Y-178532090D01*
X59913891Y-178528279D01*
X59609331Y-178090890D01*
X59606624Y-178087284D01*
X59271552Y-177672765D01*
X59268609Y-177669380D01*
X59098034Y-177486780D01*
X59084361Y-177478698D01*
X59083667Y-177478724D01*
X59075320Y-177483890D01*
X53972022Y-182587188D01*
X53964408Y-182601132D01*
X53234356Y-182601132D01*
X53235592Y-182598868D01*
X53235461Y-182597035D01*
X53231210Y-182590420D01*
X48127007Y-177486217D01*
X48113063Y-177478603D01*
X48112606Y-177478635D01*
X48104130Y-177484332D01*
X47897104Y-177709077D01*
X47894190Y-177712477D01*
X47562015Y-178129331D01*
X47559344Y-178132941D01*
X47257831Y-178572465D01*
X47255409Y-178576283D01*
X46986107Y-179036216D01*
X46983964Y-179040196D01*
X46748233Y-179518211D01*
X46746376Y-179522343D01*
X46545427Y-180015984D01*
X46543874Y-180020230D01*
X46378729Y-180526984D01*
X46377484Y-180531326D01*
X46248991Y-181048608D01*
X46248067Y-181052991D01*
X46156885Y-181578152D01*
X46156274Y-181582609D01*
X46102873Y-182112930D01*
X46102583Y-182117413D01*
X46087236Y-182650201D01*
X36111566Y-182650201D01*
X36112954Y-182602024D01*
X36112939Y-182597967D01*
X36093866Y-182065096D01*
X36093544Y-182060601D01*
X36036442Y-181530662D01*
X36035800Y-181526211D01*
X35940955Y-181001710D01*
X35939999Y-180997327D01*
X35807892Y-180480933D01*
X35806630Y-180476645D01*
X35637938Y-179971015D01*
X35636370Y-179966818D01*
X35431966Y-179474558D01*
X35430088Y-179470456D01*
X35191023Y-178994094D01*
X35188855Y-178990133D01*
X34916347Y-178532090D01*
X34913891Y-178528279D01*
X34609331Y-178090890D01*
X34606624Y-178087284D01*
X34271552Y-177672765D01*
X34268609Y-177669380D01*
X34193157Y-177588609D01*
X37836734Y-177588609D01*
X37854591Y-177941106D01*
X37855128Y-177944461D01*
X37855129Y-177944467D01*
X37893957Y-178186878D01*
X37910412Y-178289613D01*
X38003546Y-178630053D01*
X38132903Y-178958443D01*
X38134486Y-178961458D01*
X38295384Y-179267926D01*
X38295389Y-179267934D01*
X38296968Y-179270942D01*
X38298862Y-179273760D01*
X38298867Y-179273769D01*
X38433792Y-179474558D01*
X38493824Y-179563895D01*
X38721167Y-179833873D01*
X38723627Y-179836224D01*
X38723630Y-179836227D01*
X38973875Y-180075366D01*
X38973882Y-180075372D01*
X38976338Y-180077719D01*
X39256351Y-180292581D01*
X39259269Y-180294355D01*
X39555017Y-180474173D01*
X39555022Y-180474176D01*
X39557932Y-180475945D01*
X39561020Y-180477391D01*
X39561019Y-180477391D01*
X39874468Y-180624222D01*
X39874478Y-180624226D01*
X39877552Y-180625666D01*
X39880770Y-180626768D01*
X39880773Y-180626769D01*
X40208241Y-180738887D01*
X40208245Y-180738888D01*
X40211472Y-180739993D01*
X40214802Y-180740743D01*
X40214811Y-180740746D01*
X40458164Y-180795587D01*
X40555786Y-180817587D01*
X40559171Y-180817973D01*
X40559179Y-180817974D01*
X40903083Y-180857157D01*
X40903091Y-180857157D01*
X40906466Y-180857542D01*
X40909870Y-180857560D01*
X40909873Y-180857560D01*
X41101627Y-180858564D01*
X41259411Y-180859390D01*
X41262797Y-180859040D01*
X41262799Y-180859040D01*
X41607098Y-180823461D01*
X41607107Y-180823460D01*
X41610490Y-180823110D01*
X41613823Y-180822396D01*
X41613826Y-180822395D01*
X41783692Y-180785979D01*
X41955598Y-180749125D01*
X42290697Y-180638301D01*
X42611867Y-180491936D01*
X42705405Y-180436397D01*
X42912407Y-180313489D01*
X42912412Y-180313486D01*
X42915352Y-180311740D01*
X42940870Y-180292581D01*
X43194867Y-180101874D01*
X43197600Y-180099822D01*
X43455310Y-179858661D01*
X43685468Y-179591078D01*
X43885380Y-179300203D01*
X43886992Y-179297209D01*
X43886997Y-179297201D01*
X44051087Y-178992452D01*
X44052709Y-178989440D01*
X44185498Y-178662422D01*
X44193816Y-178633223D01*
X44281257Y-178326254D01*
X44282191Y-178322976D01*
X44321862Y-178090890D01*
X44341087Y-177978420D01*
X44341087Y-177978418D01*
X44341659Y-177975073D01*
X44343945Y-177937711D01*
X44363096Y-177624580D01*
X44363206Y-177622782D01*
X44363286Y-177600000D01*
X44344199Y-177247567D01*
X44322587Y-177115591D01*
X48478674Y-177115591D01*
X48478707Y-177116404D01*
X48483783Y-177124573D01*
X53587188Y-182227978D01*
X53601132Y-182235592D01*
X53602965Y-182235461D01*
X53609580Y-182231210D01*
X58713682Y-177127108D01*
X58721296Y-177113164D01*
X58721255Y-177112590D01*
X58715684Y-177104268D01*
X58510818Y-176914228D01*
X58507387Y-176911267D01*
X58091729Y-176577666D01*
X58088115Y-176574972D01*
X57649654Y-176271933D01*
X57645835Y-176269490D01*
X57186846Y-175998585D01*
X57182877Y-175996430D01*
X56705679Y-175759028D01*
X56701575Y-175757166D01*
X56208610Y-175554483D01*
X56204395Y-175552924D01*
X55698199Y-175386006D01*
X55693883Y-175384752D01*
X55177042Y-175254451D01*
X55172665Y-175253513D01*
X54647822Y-175160496D01*
X54643365Y-175159870D01*
X54113241Y-175104620D01*
X54108747Y-175104313D01*
X53576027Y-175087107D01*
X53571530Y-175087122D01*
X53038927Y-175108048D01*
X53034451Y-175108384D01*
X52504713Y-175167336D01*
X52500261Y-175167994D01*
X51976106Y-175264667D01*
X51971701Y-175265643D01*
X51455801Y-175399545D01*
X51451490Y-175400830D01*
X50946471Y-175571278D01*
X50942259Y-175572870D01*
X50450723Y-175778988D01*
X50446647Y-175780871D01*
X49971109Y-176021605D01*
X49967158Y-176023786D01*
X49510063Y-176297893D01*
X49506267Y-176300358D01*
X49069930Y-176606452D01*
X49066347Y-176609162D01*
X48653007Y-176945674D01*
X48649617Y-176948642D01*
X48486708Y-177101891D01*
X48478674Y-177115591D01*
X44322587Y-177115591D01*
X44287161Y-176899257D01*
X44192839Y-176559145D01*
X44189849Y-176551630D01*
X44063597Y-176234372D01*
X44062338Y-176231208D01*
X43897182Y-175919283D01*
X43890579Y-175909530D01*
X43701211Y-175629834D01*
X43701204Y-175629825D01*
X43699305Y-175627020D01*
X43697109Y-175624430D01*
X43697104Y-175624424D01*
X43608715Y-175520201D01*
X43471021Y-175357837D01*
X43215001Y-175114883D01*
X43212294Y-175112821D01*
X43212286Y-175112814D01*
X43053809Y-174992088D01*
X42934239Y-174901000D01*
X42632020Y-174718689D01*
X42628930Y-174717255D01*
X42628925Y-174717252D01*
X42471950Y-174644387D01*
X42311879Y-174570085D01*
X42308654Y-174568993D01*
X42308648Y-174568991D01*
X41980798Y-174458020D01*
X41980793Y-174458018D01*
X41977562Y-174456925D01*
X41963832Y-174453881D01*
X41894730Y-174438562D01*
X41632979Y-174380533D01*
X41508353Y-174366774D01*
X41285543Y-174342175D01*
X41285538Y-174342175D01*
X41282162Y-174341802D01*
X41278763Y-174341796D01*
X41278762Y-174341796D01*
X41112289Y-174341506D01*
X40929213Y-174341186D01*
X40798206Y-174355187D01*
X40581646Y-174378330D01*
X40581640Y-174378331D01*
X40578262Y-174378692D01*
X40233414Y-174453881D01*
X39898704Y-174565873D01*
X39578047Y-174713359D01*
X39275194Y-174894613D01*
X38993687Y-175107515D01*
X38736820Y-175349574D01*
X38734608Y-175352164D01*
X38734607Y-175352165D01*
X38547467Y-175571278D01*
X38507598Y-175617959D01*
X38308702Y-175909530D01*
X38142458Y-176220876D01*
X38141183Y-176224048D01*
X38141181Y-176224052D01*
X38110507Y-176300358D01*
X38010813Y-176548355D01*
X38009894Y-176551623D01*
X38009892Y-176551630D01*
X37916225Y-176884858D01*
X37915304Y-176888136D01*
X37914743Y-176891489D01*
X37914742Y-176891493D01*
X37877241Y-177115591D01*
X37857051Y-177236245D01*
X37836734Y-177588609D01*
X34193157Y-177588609D01*
X34098034Y-177486780D01*
X34084361Y-177478698D01*
X34083667Y-177478724D01*
X34075320Y-177483890D01*
X28972022Y-182587188D01*
X28964408Y-182601132D01*
X28234356Y-182601132D01*
X28235592Y-182598868D01*
X28235461Y-182597035D01*
X28231210Y-182590420D01*
X23127007Y-177486217D01*
X23113063Y-177478603D01*
X23112606Y-177478635D01*
X23104130Y-177484332D01*
X22897104Y-177709077D01*
X22894190Y-177712477D01*
X22562015Y-178129331D01*
X22559344Y-178132941D01*
X22257831Y-178572465D01*
X22255409Y-178576283D01*
X21986107Y-179036216D01*
X21983964Y-179040196D01*
X21748233Y-179518211D01*
X21746376Y-179522343D01*
X21545427Y-180015984D01*
X21543874Y-180020230D01*
X21378729Y-180526984D01*
X21377484Y-180531326D01*
X21248991Y-181048608D01*
X21248067Y-181052991D01*
X21156885Y-181578152D01*
X21156274Y-181582609D01*
X21102873Y-182112930D01*
X21102583Y-182117413D01*
X21087236Y-182650201D01*
X16608500Y-182650201D01*
X16608500Y-177115591D01*
X23478674Y-177115591D01*
X23478707Y-177116404D01*
X23483783Y-177124573D01*
X28587188Y-182227978D01*
X28601132Y-182235592D01*
X28602965Y-182235461D01*
X28609580Y-182231210D01*
X33713682Y-177127108D01*
X33721296Y-177113164D01*
X33721255Y-177112590D01*
X33715684Y-177104268D01*
X33510818Y-176914228D01*
X33507387Y-176911267D01*
X33091729Y-176577666D01*
X33088115Y-176574972D01*
X32649654Y-176271933D01*
X32645835Y-176269490D01*
X32186846Y-175998585D01*
X32182877Y-175996430D01*
X31705679Y-175759028D01*
X31701575Y-175757166D01*
X31208610Y-175554483D01*
X31204395Y-175552924D01*
X30698199Y-175386006D01*
X30693883Y-175384752D01*
X30177042Y-175254451D01*
X30172665Y-175253513D01*
X29647822Y-175160496D01*
X29643365Y-175159870D01*
X29113241Y-175104620D01*
X29108747Y-175104313D01*
X28576027Y-175087107D01*
X28571530Y-175087122D01*
X28038927Y-175108048D01*
X28034451Y-175108384D01*
X27504713Y-175167336D01*
X27500261Y-175167994D01*
X26976106Y-175264667D01*
X26971701Y-175265643D01*
X26455801Y-175399545D01*
X26451490Y-175400830D01*
X25946471Y-175571278D01*
X25942259Y-175572870D01*
X25450723Y-175778988D01*
X25446647Y-175780871D01*
X24971109Y-176021605D01*
X24967158Y-176023786D01*
X24510063Y-176297893D01*
X24506267Y-176300358D01*
X24069930Y-176606452D01*
X24066347Y-176609162D01*
X23653007Y-176945674D01*
X23649617Y-176948642D01*
X23486708Y-177101891D01*
X23478674Y-177115591D01*
X16608500Y-177115591D01*
X16608500Y-163087102D01*
X23478438Y-163087102D01*
X23478462Y-163087441D01*
X23484285Y-163096073D01*
X23728991Y-163319913D01*
X23732445Y-163322852D01*
X24150430Y-163653550D01*
X24154067Y-163656222D01*
X24594618Y-163956182D01*
X24598446Y-163958593D01*
X25059337Y-164226300D01*
X25063309Y-164228421D01*
X25542148Y-164462483D01*
X25546284Y-164464325D01*
X26040627Y-164663551D01*
X26044871Y-164665087D01*
X26552218Y-164828467D01*
X26556539Y-164829689D01*
X27074254Y-164956374D01*
X27078695Y-164957294D01*
X27604141Y-165046637D01*
X27608595Y-165047232D01*
X28139106Y-165098782D01*
X28143579Y-165099056D01*
X28676427Y-165112543D01*
X28680930Y-165112496D01*
X29213352Y-165087853D01*
X29217836Y-165087485D01*
X29747152Y-165024836D01*
X29751591Y-165024149D01*
X30275087Y-164923814D01*
X30279446Y-164922815D01*
X30794414Y-164785311D01*
X30798727Y-164783992D01*
X31302525Y-164610028D01*
X31306740Y-164608402D01*
X31796805Y-164398866D01*
X31800892Y-164396943D01*
X32274731Y-164152900D01*
X32278658Y-164150696D01*
X32733828Y-163873404D01*
X32737624Y-163870901D01*
X33171786Y-163561788D01*
X33175372Y-163559036D01*
X33586362Y-163219640D01*
X33589705Y-163216672D01*
X33713630Y-163098453D01*
X33721568Y-163084695D01*
X33721518Y-163083649D01*
X33716625Y-163075835D01*
X28612812Y-157972022D01*
X28598868Y-157964408D01*
X28597035Y-157964539D01*
X28590420Y-157968790D01*
X23486052Y-163073158D01*
X23478438Y-163087102D01*
X16608500Y-163087102D01*
X16608500Y-157650201D01*
X21087236Y-157650201D01*
X21087267Y-157654699D01*
X21110052Y-158187215D01*
X21110404Y-158191696D01*
X21171206Y-158721240D01*
X21171874Y-158725659D01*
X21270381Y-159249497D01*
X21271370Y-159253884D01*
X21407070Y-159769308D01*
X21408381Y-159773648D01*
X21580581Y-160278039D01*
X21582188Y-160282249D01*
X21790028Y-160773079D01*
X21791917Y-160777129D01*
X22034314Y-161251836D01*
X22036507Y-161255776D01*
X22312217Y-161711925D01*
X22314678Y-161715685D01*
X22622290Y-162150947D01*
X22625036Y-162154552D01*
X22962987Y-162566712D01*
X22965944Y-162570066D01*
X23101751Y-162713428D01*
X23115482Y-162721415D01*
X23116410Y-162721374D01*
X23124399Y-162716391D01*
X28227978Y-157612812D01*
X28234356Y-157601132D01*
X28964408Y-157601132D01*
X28964539Y-157602965D01*
X28968790Y-157609580D01*
X34073389Y-162714179D01*
X34087333Y-162721793D01*
X34087556Y-162721778D01*
X34096338Y-162715831D01*
X34211898Y-162588609D01*
X37836734Y-162588609D01*
X37854591Y-162941106D01*
X37855128Y-162944461D01*
X37855129Y-162944467D01*
X37893957Y-163186878D01*
X37910412Y-163289613D01*
X38003546Y-163630053D01*
X38132903Y-163958443D01*
X38134486Y-163961458D01*
X38295384Y-164267926D01*
X38295389Y-164267934D01*
X38296968Y-164270942D01*
X38298862Y-164273760D01*
X38298867Y-164273769D01*
X38318518Y-164303012D01*
X38493824Y-164563895D01*
X38721167Y-164833873D01*
X38723627Y-164836224D01*
X38723630Y-164836227D01*
X38973875Y-165075366D01*
X38973882Y-165075372D01*
X38976338Y-165077719D01*
X39256351Y-165292581D01*
X39259269Y-165294355D01*
X39555017Y-165474173D01*
X39555022Y-165474176D01*
X39557932Y-165475945D01*
X39561020Y-165477391D01*
X39561019Y-165477391D01*
X39874468Y-165624222D01*
X39874478Y-165624226D01*
X39877552Y-165625666D01*
X39880770Y-165626768D01*
X39880773Y-165626769D01*
X40208241Y-165738887D01*
X40208245Y-165738888D01*
X40211472Y-165739993D01*
X40214802Y-165740743D01*
X40214811Y-165740746D01*
X40458164Y-165795587D01*
X40555786Y-165817587D01*
X40559171Y-165817973D01*
X40559179Y-165817974D01*
X40903083Y-165857157D01*
X40903091Y-165857157D01*
X40906466Y-165857542D01*
X40909870Y-165857560D01*
X40909873Y-165857560D01*
X41101627Y-165858564D01*
X41259411Y-165859390D01*
X41262797Y-165859040D01*
X41262799Y-165859040D01*
X41607098Y-165823461D01*
X41607107Y-165823460D01*
X41610490Y-165823110D01*
X41613823Y-165822396D01*
X41613826Y-165822395D01*
X41783692Y-165785979D01*
X41955598Y-165749125D01*
X42290697Y-165638301D01*
X42611867Y-165491936D01*
X42705405Y-165436397D01*
X42912407Y-165313489D01*
X42912412Y-165313486D01*
X42915352Y-165311740D01*
X42940870Y-165292581D01*
X43194867Y-165101874D01*
X43197600Y-165099822D01*
X43455310Y-164858661D01*
X43685468Y-164591078D01*
X43885380Y-164300203D01*
X43886992Y-164297209D01*
X43886997Y-164297201D01*
X44051087Y-163992452D01*
X44052709Y-163989440D01*
X44185498Y-163662422D01*
X44193816Y-163633223D01*
X44281257Y-163326254D01*
X44282191Y-163322976D01*
X44322510Y-163087102D01*
X48478438Y-163087102D01*
X48478462Y-163087441D01*
X48484285Y-163096073D01*
X48728991Y-163319913D01*
X48732445Y-163322852D01*
X49150430Y-163653550D01*
X49154067Y-163656222D01*
X49594618Y-163956182D01*
X49598446Y-163958593D01*
X50059337Y-164226300D01*
X50063309Y-164228421D01*
X50542148Y-164462483D01*
X50546284Y-164464325D01*
X51040627Y-164663551D01*
X51044871Y-164665087D01*
X51552218Y-164828467D01*
X51556539Y-164829689D01*
X52074254Y-164956374D01*
X52078695Y-164957294D01*
X52604141Y-165046637D01*
X52608595Y-165047232D01*
X53139106Y-165098782D01*
X53143579Y-165099056D01*
X53676427Y-165112543D01*
X53680930Y-165112496D01*
X54213352Y-165087853D01*
X54217836Y-165087485D01*
X54747152Y-165024836D01*
X54751591Y-165024149D01*
X55275087Y-164923814D01*
X55279446Y-164922815D01*
X55794414Y-164785311D01*
X55798727Y-164783992D01*
X56302525Y-164610028D01*
X56306740Y-164608402D01*
X56796805Y-164398866D01*
X56800892Y-164396943D01*
X57274731Y-164152900D01*
X57278658Y-164150696D01*
X57733828Y-163873404D01*
X57737624Y-163870901D01*
X58171786Y-163561788D01*
X58175372Y-163559036D01*
X58586362Y-163219640D01*
X58589705Y-163216672D01*
X58713630Y-163098453D01*
X58721568Y-163084695D01*
X58721518Y-163083649D01*
X58716625Y-163075835D01*
X53612812Y-157972022D01*
X53598868Y-157964408D01*
X53597035Y-157964539D01*
X53590420Y-157968790D01*
X48486052Y-163073158D01*
X48478438Y-163087102D01*
X44322510Y-163087102D01*
X44323100Y-163083649D01*
X44341087Y-162978420D01*
X44341087Y-162978418D01*
X44341659Y-162975073D01*
X44343945Y-162937711D01*
X44363096Y-162624580D01*
X44363206Y-162622782D01*
X44363286Y-162600000D01*
X44344199Y-162247567D01*
X44287161Y-161899257D01*
X44192839Y-161559145D01*
X44189849Y-161551630D01*
X44063597Y-161234372D01*
X44062338Y-161231208D01*
X43897182Y-160919283D01*
X43890579Y-160909530D01*
X43701211Y-160629834D01*
X43701204Y-160629825D01*
X43699305Y-160627020D01*
X43697109Y-160624430D01*
X43697104Y-160624424D01*
X43608715Y-160520201D01*
X43471021Y-160357837D01*
X43215001Y-160114883D01*
X43212294Y-160112821D01*
X43212286Y-160112814D01*
X43053809Y-159992088D01*
X42934239Y-159901000D01*
X42632020Y-159718689D01*
X42628930Y-159717255D01*
X42628925Y-159717252D01*
X42424903Y-159622549D01*
X42311879Y-159570085D01*
X42308654Y-159568993D01*
X42308648Y-159568991D01*
X41980798Y-159458020D01*
X41980793Y-159458018D01*
X41977562Y-159456925D01*
X41963832Y-159453881D01*
X41894730Y-159438562D01*
X41632979Y-159380533D01*
X41508353Y-159366774D01*
X41285543Y-159342175D01*
X41285538Y-159342175D01*
X41282162Y-159341802D01*
X41278763Y-159341796D01*
X41278762Y-159341796D01*
X41112289Y-159341506D01*
X40929213Y-159341186D01*
X40798206Y-159355187D01*
X40581646Y-159378330D01*
X40581640Y-159378331D01*
X40578262Y-159378692D01*
X40233414Y-159453881D01*
X39898704Y-159565873D01*
X39578047Y-159713359D01*
X39275194Y-159894613D01*
X38993687Y-160107515D01*
X38736820Y-160349574D01*
X38507598Y-160617959D01*
X38308702Y-160909530D01*
X38142458Y-161220876D01*
X38141183Y-161224048D01*
X38141181Y-161224052D01*
X38137033Y-161234372D01*
X38010813Y-161548355D01*
X38009894Y-161551623D01*
X38009892Y-161551630D01*
X37964835Y-161711925D01*
X37915304Y-161888136D01*
X37914743Y-161891489D01*
X37914742Y-161891493D01*
X37857614Y-162232880D01*
X37857051Y-162236245D01*
X37836734Y-162588609D01*
X34211898Y-162588609D01*
X34336905Y-162450987D01*
X34339793Y-162447570D01*
X34669044Y-162028414D01*
X34671701Y-162024771D01*
X34970130Y-161583164D01*
X34972526Y-161579329D01*
X35238617Y-161117514D01*
X35240726Y-161113531D01*
X35473116Y-160633878D01*
X35474941Y-160629741D01*
X35672446Y-160134690D01*
X35673961Y-160130460D01*
X35835567Y-159622549D01*
X35836781Y-159618202D01*
X35961661Y-159100034D01*
X35962555Y-159095638D01*
X36050064Y-158569885D01*
X36050649Y-158565380D01*
X36100363Y-158034517D01*
X36100613Y-158030439D01*
X36111566Y-157650201D01*
X46087236Y-157650201D01*
X46087267Y-157654699D01*
X46110052Y-158187215D01*
X46110404Y-158191696D01*
X46171206Y-158721240D01*
X46171874Y-158725659D01*
X46270381Y-159249497D01*
X46271370Y-159253884D01*
X46407070Y-159769308D01*
X46408381Y-159773648D01*
X46580581Y-160278039D01*
X46582188Y-160282249D01*
X46790028Y-160773079D01*
X46791917Y-160777129D01*
X47034314Y-161251836D01*
X47036507Y-161255776D01*
X47312217Y-161711925D01*
X47314678Y-161715685D01*
X47622290Y-162150947D01*
X47625036Y-162154552D01*
X47962987Y-162566712D01*
X47965944Y-162570066D01*
X48101751Y-162713428D01*
X48115482Y-162721415D01*
X48116410Y-162721374D01*
X48124399Y-162716391D01*
X53227978Y-157612812D01*
X53234356Y-157601132D01*
X53964408Y-157601132D01*
X53964539Y-157602965D01*
X53968790Y-157609580D01*
X59073389Y-162714179D01*
X59087333Y-162721793D01*
X59087556Y-162721778D01*
X59096338Y-162715831D01*
X59336905Y-162450987D01*
X59339793Y-162447570D01*
X59669044Y-162028414D01*
X59671701Y-162024771D01*
X59970130Y-161583164D01*
X59972526Y-161579329D01*
X60238617Y-161117514D01*
X60240726Y-161113531D01*
X60473116Y-160633878D01*
X60474941Y-160629741D01*
X60672446Y-160134690D01*
X60673961Y-160130460D01*
X60835567Y-159622549D01*
X60836781Y-159618202D01*
X60961661Y-159100034D01*
X60962555Y-159095638D01*
X61050064Y-158569885D01*
X61050649Y-158565380D01*
X61100363Y-158034517D01*
X61100613Y-158030439D01*
X61112954Y-157602024D01*
X61112939Y-157597967D01*
X61093866Y-157065096D01*
X61093544Y-157060601D01*
X61036442Y-156530662D01*
X61035800Y-156526211D01*
X60940955Y-156001710D01*
X60939999Y-155997327D01*
X60807892Y-155480933D01*
X60806630Y-155476645D01*
X60637938Y-154971015D01*
X60636370Y-154966818D01*
X60431966Y-154474558D01*
X60430088Y-154470456D01*
X60191023Y-153994094D01*
X60188855Y-153990133D01*
X59916347Y-153532090D01*
X59913891Y-153528279D01*
X59609331Y-153090890D01*
X59606624Y-153087284D01*
X59271552Y-152672765D01*
X59268609Y-152669380D01*
X59098034Y-152486780D01*
X59084361Y-152478698D01*
X59083667Y-152478724D01*
X59075320Y-152483890D01*
X53972022Y-157587188D01*
X53964408Y-157601132D01*
X53234356Y-157601132D01*
X53235592Y-157598868D01*
X53235461Y-157597035D01*
X53231210Y-157590420D01*
X48127007Y-152486217D01*
X48113063Y-152478603D01*
X48112606Y-152478635D01*
X48104130Y-152484332D01*
X47897104Y-152709077D01*
X47894190Y-152712477D01*
X47562015Y-153129331D01*
X47559344Y-153132941D01*
X47257831Y-153572465D01*
X47255409Y-153576283D01*
X46986107Y-154036216D01*
X46983964Y-154040196D01*
X46748233Y-154518211D01*
X46746376Y-154522343D01*
X46545427Y-155015984D01*
X46543874Y-155020230D01*
X46378729Y-155526984D01*
X46377484Y-155531326D01*
X46248991Y-156048608D01*
X46248067Y-156052991D01*
X46156885Y-156578152D01*
X46156274Y-156582609D01*
X46102873Y-157112930D01*
X46102583Y-157117413D01*
X46087236Y-157650201D01*
X36111566Y-157650201D01*
X36112954Y-157602024D01*
X36112939Y-157597967D01*
X36093866Y-157065096D01*
X36093544Y-157060601D01*
X36036442Y-156530662D01*
X36035800Y-156526211D01*
X35940955Y-156001710D01*
X35939999Y-155997327D01*
X35807892Y-155480933D01*
X35806630Y-155476645D01*
X35637938Y-154971015D01*
X35636370Y-154966818D01*
X35431966Y-154474558D01*
X35430088Y-154470456D01*
X35191023Y-153994094D01*
X35188855Y-153990133D01*
X34916347Y-153532090D01*
X34913891Y-153528279D01*
X34609331Y-153090890D01*
X34606624Y-153087284D01*
X34271552Y-152672765D01*
X34268609Y-152669380D01*
X34193157Y-152588609D01*
X37836734Y-152588609D01*
X37854591Y-152941106D01*
X37855128Y-152944461D01*
X37855129Y-152944467D01*
X37893957Y-153186878D01*
X37910412Y-153289613D01*
X38003546Y-153630053D01*
X38132903Y-153958443D01*
X38134486Y-153961458D01*
X38295384Y-154267926D01*
X38295389Y-154267934D01*
X38296968Y-154270942D01*
X38298862Y-154273760D01*
X38298867Y-154273769D01*
X38433792Y-154474558D01*
X38493824Y-154563895D01*
X38721167Y-154833873D01*
X38723627Y-154836224D01*
X38723630Y-154836227D01*
X38973875Y-155075366D01*
X38973882Y-155075372D01*
X38976338Y-155077719D01*
X39256351Y-155292581D01*
X39259269Y-155294355D01*
X39555017Y-155474173D01*
X39555022Y-155474176D01*
X39557932Y-155475945D01*
X39561020Y-155477391D01*
X39561019Y-155477391D01*
X39874468Y-155624222D01*
X39874478Y-155624226D01*
X39877552Y-155625666D01*
X39880770Y-155626768D01*
X39880773Y-155626769D01*
X40208241Y-155738887D01*
X40208245Y-155738888D01*
X40211472Y-155739993D01*
X40214802Y-155740743D01*
X40214811Y-155740746D01*
X40458164Y-155795587D01*
X40555786Y-155817587D01*
X40559171Y-155817973D01*
X40559179Y-155817974D01*
X40903083Y-155857157D01*
X40903091Y-155857157D01*
X40906466Y-155857542D01*
X40909870Y-155857560D01*
X40909873Y-155857560D01*
X41101627Y-155858564D01*
X41259411Y-155859390D01*
X41262797Y-155859040D01*
X41262799Y-155859040D01*
X41607098Y-155823461D01*
X41607107Y-155823460D01*
X41610490Y-155823110D01*
X41613823Y-155822396D01*
X41613826Y-155822395D01*
X41783692Y-155785979D01*
X41955598Y-155749125D01*
X42290697Y-155638301D01*
X42611867Y-155491936D01*
X42705405Y-155436397D01*
X42912407Y-155313489D01*
X42912412Y-155313486D01*
X42915352Y-155311740D01*
X42940870Y-155292581D01*
X43194867Y-155101874D01*
X43197600Y-155099822D01*
X43455310Y-154858661D01*
X43685468Y-154591078D01*
X43885380Y-154300203D01*
X43886992Y-154297209D01*
X43886997Y-154297201D01*
X44051087Y-153992452D01*
X44052709Y-153989440D01*
X44185498Y-153662422D01*
X44193816Y-153633223D01*
X44281257Y-153326254D01*
X44282191Y-153322976D01*
X44321862Y-153090890D01*
X44341087Y-152978420D01*
X44341087Y-152978418D01*
X44341659Y-152975073D01*
X44343945Y-152937711D01*
X44363096Y-152624580D01*
X44363206Y-152622782D01*
X44363286Y-152600000D01*
X44344199Y-152247567D01*
X44322587Y-152115591D01*
X48478674Y-152115591D01*
X48478707Y-152116404D01*
X48483783Y-152124573D01*
X53587188Y-157227978D01*
X53601132Y-157235592D01*
X53602965Y-157235461D01*
X53609580Y-157231210D01*
X58713682Y-152127108D01*
X58721296Y-152113164D01*
X58721255Y-152112590D01*
X58715684Y-152104268D01*
X58510818Y-151914228D01*
X58507387Y-151911267D01*
X58091729Y-151577666D01*
X58088115Y-151574972D01*
X57649654Y-151271933D01*
X57645835Y-151269490D01*
X57186846Y-150998585D01*
X57182877Y-150996430D01*
X56705679Y-150759028D01*
X56701575Y-150757166D01*
X56208610Y-150554483D01*
X56204395Y-150552924D01*
X55698199Y-150386006D01*
X55693883Y-150384752D01*
X55177042Y-150254451D01*
X55172665Y-150253513D01*
X54647822Y-150160496D01*
X54643365Y-150159870D01*
X54113241Y-150104620D01*
X54108747Y-150104313D01*
X53576027Y-150087107D01*
X53571530Y-150087122D01*
X53038927Y-150108048D01*
X53034451Y-150108384D01*
X52504713Y-150167336D01*
X52500261Y-150167994D01*
X51976106Y-150264667D01*
X51971701Y-150265643D01*
X51455801Y-150399545D01*
X51451490Y-150400830D01*
X50946471Y-150571278D01*
X50942259Y-150572870D01*
X50450723Y-150778988D01*
X50446647Y-150780871D01*
X49971109Y-151021605D01*
X49967158Y-151023786D01*
X49510063Y-151297893D01*
X49506267Y-151300358D01*
X49069930Y-151606452D01*
X49066347Y-151609162D01*
X48653007Y-151945674D01*
X48649617Y-151948642D01*
X48486708Y-152101891D01*
X48478674Y-152115591D01*
X44322587Y-152115591D01*
X44287161Y-151899257D01*
X44192839Y-151559145D01*
X44189849Y-151551630D01*
X44063597Y-151234372D01*
X44062338Y-151231208D01*
X43897182Y-150919283D01*
X43890579Y-150909530D01*
X43701211Y-150629834D01*
X43701204Y-150629825D01*
X43699305Y-150627020D01*
X43697109Y-150624430D01*
X43697104Y-150624424D01*
X43608715Y-150520201D01*
X43471021Y-150357837D01*
X43215001Y-150114883D01*
X43212294Y-150112821D01*
X43212286Y-150112814D01*
X43053809Y-149992088D01*
X42934239Y-149901000D01*
X42632020Y-149718689D01*
X42628930Y-149717255D01*
X42628925Y-149717252D01*
X42471950Y-149644387D01*
X42311879Y-149570085D01*
X42308654Y-149568993D01*
X42308648Y-149568991D01*
X41980798Y-149458020D01*
X41980793Y-149458018D01*
X41977562Y-149456925D01*
X41963832Y-149453881D01*
X41894730Y-149438562D01*
X41632979Y-149380533D01*
X41508353Y-149366774D01*
X41285543Y-149342175D01*
X41285538Y-149342175D01*
X41282162Y-149341802D01*
X41278763Y-149341796D01*
X41278762Y-149341796D01*
X41112289Y-149341506D01*
X40929213Y-149341186D01*
X40798206Y-149355187D01*
X40581646Y-149378330D01*
X40581640Y-149378331D01*
X40578262Y-149378692D01*
X40233414Y-149453881D01*
X39898704Y-149565873D01*
X39578047Y-149713359D01*
X39275194Y-149894613D01*
X38993687Y-150107515D01*
X38736820Y-150349574D01*
X38734608Y-150352164D01*
X38734607Y-150352165D01*
X38547467Y-150571278D01*
X38507598Y-150617959D01*
X38308702Y-150909530D01*
X38142458Y-151220876D01*
X38141183Y-151224048D01*
X38141181Y-151224052D01*
X38110507Y-151300358D01*
X38010813Y-151548355D01*
X38009894Y-151551623D01*
X38009892Y-151551630D01*
X37916225Y-151884858D01*
X37915304Y-151888136D01*
X37914743Y-151891489D01*
X37914742Y-151891493D01*
X37877241Y-152115591D01*
X37857051Y-152236245D01*
X37836734Y-152588609D01*
X34193157Y-152588609D01*
X34098034Y-152486780D01*
X34084361Y-152478698D01*
X34083667Y-152478724D01*
X34075320Y-152483890D01*
X28972022Y-157587188D01*
X28964408Y-157601132D01*
X28234356Y-157601132D01*
X28235592Y-157598868D01*
X28235461Y-157597035D01*
X28231210Y-157590420D01*
X23127007Y-152486217D01*
X23113063Y-152478603D01*
X23112606Y-152478635D01*
X23104130Y-152484332D01*
X22897104Y-152709077D01*
X22894190Y-152712477D01*
X22562015Y-153129331D01*
X22559344Y-153132941D01*
X22257831Y-153572465D01*
X22255409Y-153576283D01*
X21986107Y-154036216D01*
X21983964Y-154040196D01*
X21748233Y-154518211D01*
X21746376Y-154522343D01*
X21545427Y-155015984D01*
X21543874Y-155020230D01*
X21378729Y-155526984D01*
X21377484Y-155531326D01*
X21248991Y-156048608D01*
X21248067Y-156052991D01*
X21156885Y-156578152D01*
X21156274Y-156582609D01*
X21102873Y-157112930D01*
X21102583Y-157117413D01*
X21087236Y-157650201D01*
X16608500Y-157650201D01*
X16608500Y-152115591D01*
X23478674Y-152115591D01*
X23478707Y-152116404D01*
X23483783Y-152124573D01*
X28587188Y-157227978D01*
X28601132Y-157235592D01*
X28602965Y-157235461D01*
X28609580Y-157231210D01*
X33713682Y-152127108D01*
X33721296Y-152113164D01*
X33721255Y-152112590D01*
X33715684Y-152104268D01*
X33510818Y-151914228D01*
X33507387Y-151911267D01*
X33091729Y-151577666D01*
X33088115Y-151574972D01*
X32649654Y-151271933D01*
X32645835Y-151269490D01*
X32186846Y-150998585D01*
X32182877Y-150996430D01*
X31705679Y-150759028D01*
X31701575Y-150757166D01*
X31208610Y-150554483D01*
X31204395Y-150552924D01*
X30698199Y-150386006D01*
X30693883Y-150384752D01*
X30177042Y-150254451D01*
X30172665Y-150253513D01*
X29647822Y-150160496D01*
X29643365Y-150159870D01*
X29113241Y-150104620D01*
X29108747Y-150104313D01*
X28576027Y-150087107D01*
X28571530Y-150087122D01*
X28038927Y-150108048D01*
X28034451Y-150108384D01*
X27504713Y-150167336D01*
X27500261Y-150167994D01*
X26976106Y-150264667D01*
X26971701Y-150265643D01*
X26455801Y-150399545D01*
X26451490Y-150400830D01*
X25946471Y-150571278D01*
X25942259Y-150572870D01*
X25450723Y-150778988D01*
X25446647Y-150780871D01*
X24971109Y-151021605D01*
X24967158Y-151023786D01*
X24510063Y-151297893D01*
X24506267Y-151300358D01*
X24069930Y-151606452D01*
X24066347Y-151609162D01*
X23653007Y-151945674D01*
X23649617Y-151948642D01*
X23486708Y-152101891D01*
X23478674Y-152115591D01*
X16608500Y-152115591D01*
X16608500Y-138087102D01*
X23478438Y-138087102D01*
X23478462Y-138087441D01*
X23484285Y-138096073D01*
X23728991Y-138319913D01*
X23732445Y-138322852D01*
X24150430Y-138653550D01*
X24154067Y-138656222D01*
X24594618Y-138956182D01*
X24598446Y-138958593D01*
X25059337Y-139226300D01*
X25063309Y-139228421D01*
X25542148Y-139462483D01*
X25546284Y-139464325D01*
X26040627Y-139663551D01*
X26044871Y-139665087D01*
X26552218Y-139828467D01*
X26556539Y-139829689D01*
X27074254Y-139956374D01*
X27078695Y-139957294D01*
X27604141Y-140046637D01*
X27608595Y-140047232D01*
X28139106Y-140098782D01*
X28143579Y-140099056D01*
X28676427Y-140112543D01*
X28680930Y-140112496D01*
X29213352Y-140087853D01*
X29217836Y-140087485D01*
X29747152Y-140024836D01*
X29751591Y-140024149D01*
X30275087Y-139923814D01*
X30279446Y-139922815D01*
X30794414Y-139785311D01*
X30798727Y-139783992D01*
X31302525Y-139610028D01*
X31306740Y-139608402D01*
X31796805Y-139398866D01*
X31800892Y-139396943D01*
X32274731Y-139152900D01*
X32278658Y-139150696D01*
X32733828Y-138873404D01*
X32737624Y-138870901D01*
X33171786Y-138561788D01*
X33175372Y-138559036D01*
X33586362Y-138219640D01*
X33589705Y-138216672D01*
X33713630Y-138098453D01*
X33721568Y-138084695D01*
X33721518Y-138083649D01*
X33716625Y-138075835D01*
X28612812Y-132972022D01*
X28598868Y-132964408D01*
X28597035Y-132964539D01*
X28590420Y-132968790D01*
X23486052Y-138073158D01*
X23478438Y-138087102D01*
X16608500Y-138087102D01*
X16608500Y-132650201D01*
X21087236Y-132650201D01*
X21087267Y-132654699D01*
X21110052Y-133187215D01*
X21110404Y-133191696D01*
X21171206Y-133721240D01*
X21171874Y-133725659D01*
X21270381Y-134249497D01*
X21271370Y-134253884D01*
X21407070Y-134769308D01*
X21408381Y-134773648D01*
X21580581Y-135278039D01*
X21582188Y-135282249D01*
X21790028Y-135773079D01*
X21791917Y-135777129D01*
X22034314Y-136251836D01*
X22036507Y-136255776D01*
X22312217Y-136711925D01*
X22314678Y-136715685D01*
X22622290Y-137150947D01*
X22625036Y-137154552D01*
X22962987Y-137566712D01*
X22965944Y-137570066D01*
X23101751Y-137713428D01*
X23115482Y-137721415D01*
X23116410Y-137721374D01*
X23124399Y-137716391D01*
X28227978Y-132612812D01*
X28234356Y-132601132D01*
X28964408Y-132601132D01*
X28964539Y-132602965D01*
X28968790Y-132609580D01*
X34073389Y-137714179D01*
X34087333Y-137721793D01*
X34087556Y-137721778D01*
X34096338Y-137715831D01*
X34211898Y-137588609D01*
X37836734Y-137588609D01*
X37854591Y-137941106D01*
X37855128Y-137944461D01*
X37855129Y-137944467D01*
X37893957Y-138186878D01*
X37910412Y-138289613D01*
X38003546Y-138630053D01*
X38132903Y-138958443D01*
X38134486Y-138961458D01*
X38295384Y-139267926D01*
X38295389Y-139267934D01*
X38296968Y-139270942D01*
X38298862Y-139273760D01*
X38298867Y-139273769D01*
X38318518Y-139303012D01*
X38493824Y-139563895D01*
X38721167Y-139833873D01*
X38723627Y-139836224D01*
X38723630Y-139836227D01*
X38973875Y-140075366D01*
X38973882Y-140075372D01*
X38976338Y-140077719D01*
X39256351Y-140292581D01*
X39259269Y-140294355D01*
X39555017Y-140474173D01*
X39555022Y-140474176D01*
X39557932Y-140475945D01*
X39561020Y-140477391D01*
X39561019Y-140477391D01*
X39874468Y-140624222D01*
X39874478Y-140624226D01*
X39877552Y-140625666D01*
X39880770Y-140626768D01*
X39880773Y-140626769D01*
X40208241Y-140738887D01*
X40208245Y-140738888D01*
X40211472Y-140739993D01*
X40214802Y-140740743D01*
X40214811Y-140740746D01*
X40458164Y-140795587D01*
X40555786Y-140817587D01*
X40559171Y-140817973D01*
X40559179Y-140817974D01*
X40903083Y-140857157D01*
X40903091Y-140857157D01*
X40906466Y-140857542D01*
X40909870Y-140857560D01*
X40909873Y-140857560D01*
X41101627Y-140858564D01*
X41259411Y-140859390D01*
X41262797Y-140859040D01*
X41262799Y-140859040D01*
X41607098Y-140823461D01*
X41607107Y-140823460D01*
X41610490Y-140823110D01*
X41613823Y-140822396D01*
X41613826Y-140822395D01*
X41783692Y-140785979D01*
X41955598Y-140749125D01*
X42290697Y-140638301D01*
X42611867Y-140491936D01*
X42705405Y-140436397D01*
X42912407Y-140313489D01*
X42912412Y-140313486D01*
X42915352Y-140311740D01*
X42940870Y-140292581D01*
X43194867Y-140101874D01*
X43197600Y-140099822D01*
X43455310Y-139858661D01*
X43685468Y-139591078D01*
X43885380Y-139300203D01*
X43886992Y-139297209D01*
X43886997Y-139297201D01*
X44051087Y-138992452D01*
X44052709Y-138989440D01*
X44185498Y-138662422D01*
X44193816Y-138633223D01*
X44281257Y-138326254D01*
X44282191Y-138322976D01*
X44322510Y-138087102D01*
X48478438Y-138087102D01*
X48478462Y-138087441D01*
X48484285Y-138096073D01*
X48728991Y-138319913D01*
X48732445Y-138322852D01*
X49150430Y-138653550D01*
X49154067Y-138656222D01*
X49594618Y-138956182D01*
X49598446Y-138958593D01*
X50059337Y-139226300D01*
X50063309Y-139228421D01*
X50542148Y-139462483D01*
X50546284Y-139464325D01*
X51040627Y-139663551D01*
X51044871Y-139665087D01*
X51552218Y-139828467D01*
X51556539Y-139829689D01*
X52074254Y-139956374D01*
X52078695Y-139957294D01*
X52604141Y-140046637D01*
X52608595Y-140047232D01*
X53139106Y-140098782D01*
X53143579Y-140099056D01*
X53676427Y-140112543D01*
X53680930Y-140112496D01*
X54213352Y-140087853D01*
X54217836Y-140087485D01*
X54747152Y-140024836D01*
X54751591Y-140024149D01*
X55275087Y-139923814D01*
X55279446Y-139922815D01*
X55794414Y-139785311D01*
X55798727Y-139783992D01*
X56302525Y-139610028D01*
X56306740Y-139608402D01*
X56796805Y-139398866D01*
X56800892Y-139396943D01*
X57274731Y-139152900D01*
X57278658Y-139150696D01*
X57733828Y-138873404D01*
X57737624Y-138870901D01*
X58171786Y-138561788D01*
X58175372Y-138559036D01*
X58586362Y-138219640D01*
X58589705Y-138216672D01*
X58713630Y-138098453D01*
X58721568Y-138084695D01*
X58721518Y-138083649D01*
X58716625Y-138075835D01*
X53612812Y-132972022D01*
X53598868Y-132964408D01*
X53597035Y-132964539D01*
X53590420Y-132968790D01*
X48486052Y-138073158D01*
X48478438Y-138087102D01*
X44322510Y-138087102D01*
X44323100Y-138083649D01*
X44341087Y-137978420D01*
X44341087Y-137978418D01*
X44341659Y-137975073D01*
X44343945Y-137937711D01*
X44363096Y-137624580D01*
X44363206Y-137622782D01*
X44363286Y-137600000D01*
X44344199Y-137247567D01*
X44287161Y-136899257D01*
X44192839Y-136559145D01*
X44189849Y-136551630D01*
X44063597Y-136234372D01*
X44062338Y-136231208D01*
X43897182Y-135919283D01*
X43890579Y-135909530D01*
X43701211Y-135629834D01*
X43701204Y-135629825D01*
X43699305Y-135627020D01*
X43697109Y-135624430D01*
X43697104Y-135624424D01*
X43608715Y-135520201D01*
X43471021Y-135357837D01*
X43215001Y-135114883D01*
X43212294Y-135112821D01*
X43212286Y-135112814D01*
X43053809Y-134992088D01*
X42934239Y-134901000D01*
X42632020Y-134718689D01*
X42628930Y-134717255D01*
X42628925Y-134717252D01*
X42424903Y-134622549D01*
X42311879Y-134570085D01*
X42308654Y-134568993D01*
X42308648Y-134568991D01*
X41980798Y-134458020D01*
X41980793Y-134458018D01*
X41977562Y-134456925D01*
X41963832Y-134453881D01*
X41894730Y-134438562D01*
X41632979Y-134380533D01*
X41508353Y-134366774D01*
X41285543Y-134342175D01*
X41285538Y-134342175D01*
X41282162Y-134341802D01*
X41278763Y-134341796D01*
X41278762Y-134341796D01*
X41112289Y-134341506D01*
X40929213Y-134341186D01*
X40798206Y-134355187D01*
X40581646Y-134378330D01*
X40581640Y-134378331D01*
X40578262Y-134378692D01*
X40233414Y-134453881D01*
X39898704Y-134565873D01*
X39578047Y-134713359D01*
X39275194Y-134894613D01*
X38993687Y-135107515D01*
X38736820Y-135349574D01*
X38507598Y-135617959D01*
X38308702Y-135909530D01*
X38142458Y-136220876D01*
X38141183Y-136224048D01*
X38141181Y-136224052D01*
X38137033Y-136234372D01*
X38010813Y-136548355D01*
X38009894Y-136551623D01*
X38009892Y-136551630D01*
X37964835Y-136711925D01*
X37915304Y-136888136D01*
X37914743Y-136891489D01*
X37914742Y-136891493D01*
X37857614Y-137232880D01*
X37857051Y-137236245D01*
X37836734Y-137588609D01*
X34211898Y-137588609D01*
X34336905Y-137450987D01*
X34339793Y-137447570D01*
X34669044Y-137028414D01*
X34671701Y-137024771D01*
X34970130Y-136583164D01*
X34972526Y-136579329D01*
X35238617Y-136117514D01*
X35240726Y-136113531D01*
X35473116Y-135633878D01*
X35474941Y-135629741D01*
X35672446Y-135134690D01*
X35673961Y-135130460D01*
X35835567Y-134622549D01*
X35836781Y-134618202D01*
X35961661Y-134100034D01*
X35962555Y-134095638D01*
X36050064Y-133569885D01*
X36050649Y-133565380D01*
X36100363Y-133034517D01*
X36100613Y-133030439D01*
X36111566Y-132650201D01*
X46087236Y-132650201D01*
X46087267Y-132654699D01*
X46110052Y-133187215D01*
X46110404Y-133191696D01*
X46171206Y-133721240D01*
X46171874Y-133725659D01*
X46270381Y-134249497D01*
X46271370Y-134253884D01*
X46407070Y-134769308D01*
X46408381Y-134773648D01*
X46580581Y-135278039D01*
X46582188Y-135282249D01*
X46790028Y-135773079D01*
X46791917Y-135777129D01*
X47034314Y-136251836D01*
X47036507Y-136255776D01*
X47312217Y-136711925D01*
X47314678Y-136715685D01*
X47622290Y-137150947D01*
X47625036Y-137154552D01*
X47962987Y-137566712D01*
X47965944Y-137570066D01*
X48101751Y-137713428D01*
X48115482Y-137721415D01*
X48116410Y-137721374D01*
X48124399Y-137716391D01*
X53227978Y-132612812D01*
X53234356Y-132601132D01*
X53964408Y-132601132D01*
X53964539Y-132602965D01*
X53968790Y-132609580D01*
X59073389Y-137714179D01*
X59087333Y-137721793D01*
X59087556Y-137721778D01*
X59096338Y-137715831D01*
X59336905Y-137450987D01*
X59339793Y-137447570D01*
X59669044Y-137028414D01*
X59671701Y-137024771D01*
X59970130Y-136583164D01*
X59972526Y-136579329D01*
X60238617Y-136117514D01*
X60240726Y-136113531D01*
X60473116Y-135633878D01*
X60474941Y-135629741D01*
X60672446Y-135134690D01*
X60673961Y-135130460D01*
X60835567Y-134622549D01*
X60836781Y-134618202D01*
X60961661Y-134100034D01*
X60962555Y-134095638D01*
X61050064Y-133569885D01*
X61050649Y-133565380D01*
X61100363Y-133034517D01*
X61100613Y-133030439D01*
X61112954Y-132602024D01*
X61112939Y-132597967D01*
X61093866Y-132065096D01*
X61093544Y-132060601D01*
X61036442Y-131530662D01*
X61035800Y-131526211D01*
X60940955Y-131001710D01*
X60939999Y-130997327D01*
X60807892Y-130480933D01*
X60806630Y-130476645D01*
X60637938Y-129971015D01*
X60636370Y-129966818D01*
X60431966Y-129474558D01*
X60430088Y-129470456D01*
X60191023Y-128994094D01*
X60188855Y-128990133D01*
X59916347Y-128532090D01*
X59913891Y-128528279D01*
X59609331Y-128090890D01*
X59606624Y-128087284D01*
X59271552Y-127672765D01*
X59268609Y-127669380D01*
X59098034Y-127486780D01*
X59084361Y-127478698D01*
X59083667Y-127478724D01*
X59075320Y-127483890D01*
X53972022Y-132587188D01*
X53964408Y-132601132D01*
X53234356Y-132601132D01*
X53235592Y-132598868D01*
X53235461Y-132597035D01*
X53231210Y-132590420D01*
X48127007Y-127486217D01*
X48113063Y-127478603D01*
X48112606Y-127478635D01*
X48104130Y-127484332D01*
X47897104Y-127709077D01*
X47894190Y-127712477D01*
X47562015Y-128129331D01*
X47559344Y-128132941D01*
X47257831Y-128572465D01*
X47255409Y-128576283D01*
X46986107Y-129036216D01*
X46983964Y-129040196D01*
X46748233Y-129518211D01*
X46746376Y-129522343D01*
X46545427Y-130015984D01*
X46543874Y-130020230D01*
X46378729Y-130526984D01*
X46377484Y-130531326D01*
X46248991Y-131048608D01*
X46248067Y-131052991D01*
X46156885Y-131578152D01*
X46156274Y-131582609D01*
X46102873Y-132112930D01*
X46102583Y-132117413D01*
X46087236Y-132650201D01*
X36111566Y-132650201D01*
X36112954Y-132602024D01*
X36112939Y-132597967D01*
X36093866Y-132065096D01*
X36093544Y-132060601D01*
X36036442Y-131530662D01*
X36035800Y-131526211D01*
X35940955Y-131001710D01*
X35939999Y-130997327D01*
X35807892Y-130480933D01*
X35806630Y-130476645D01*
X35637938Y-129971015D01*
X35636370Y-129966818D01*
X35431966Y-129474558D01*
X35430088Y-129470456D01*
X35191023Y-128994094D01*
X35188855Y-128990133D01*
X34916347Y-128532090D01*
X34913891Y-128528279D01*
X34609331Y-128090890D01*
X34606624Y-128087284D01*
X34271552Y-127672765D01*
X34268609Y-127669380D01*
X34193157Y-127588609D01*
X37836734Y-127588609D01*
X37854591Y-127941106D01*
X37855128Y-127944461D01*
X37855129Y-127944467D01*
X37893957Y-128186878D01*
X37910412Y-128289613D01*
X38003546Y-128630053D01*
X38132903Y-128958443D01*
X38134486Y-128961458D01*
X38295384Y-129267926D01*
X38295389Y-129267934D01*
X38296968Y-129270942D01*
X38298862Y-129273760D01*
X38298867Y-129273769D01*
X38433792Y-129474558D01*
X38493824Y-129563895D01*
X38721167Y-129833873D01*
X38723627Y-129836224D01*
X38723630Y-129836227D01*
X38973875Y-130075366D01*
X38973882Y-130075372D01*
X38976338Y-130077719D01*
X39256351Y-130292581D01*
X39259269Y-130294355D01*
X39555017Y-130474173D01*
X39555022Y-130474176D01*
X39557932Y-130475945D01*
X39561020Y-130477391D01*
X39561019Y-130477391D01*
X39874468Y-130624222D01*
X39874478Y-130624226D01*
X39877552Y-130625666D01*
X39880770Y-130626768D01*
X39880773Y-130626769D01*
X40208241Y-130738887D01*
X40208245Y-130738888D01*
X40211472Y-130739993D01*
X40214802Y-130740743D01*
X40214811Y-130740746D01*
X40458164Y-130795587D01*
X40555786Y-130817587D01*
X40559171Y-130817973D01*
X40559179Y-130817974D01*
X40903083Y-130857157D01*
X40903091Y-130857157D01*
X40906466Y-130857542D01*
X40909870Y-130857560D01*
X40909873Y-130857560D01*
X41101627Y-130858564D01*
X41259411Y-130859390D01*
X41262797Y-130859040D01*
X41262799Y-130859040D01*
X41607098Y-130823461D01*
X41607107Y-130823460D01*
X41610490Y-130823110D01*
X41613823Y-130822396D01*
X41613826Y-130822395D01*
X41783692Y-130785979D01*
X41955598Y-130749125D01*
X42290697Y-130638301D01*
X42611867Y-130491936D01*
X42705405Y-130436397D01*
X42912407Y-130313489D01*
X42912412Y-130313486D01*
X42915352Y-130311740D01*
X42940870Y-130292581D01*
X43194867Y-130101874D01*
X43197600Y-130099822D01*
X43455310Y-129858661D01*
X43685468Y-129591078D01*
X43885380Y-129300203D01*
X43886992Y-129297209D01*
X43886997Y-129297201D01*
X44051087Y-128992452D01*
X44052709Y-128989440D01*
X44185498Y-128662422D01*
X44193816Y-128633223D01*
X44281257Y-128326254D01*
X44282191Y-128322976D01*
X44321862Y-128090890D01*
X44341087Y-127978420D01*
X44341087Y-127978418D01*
X44341659Y-127975073D01*
X44343945Y-127937711D01*
X44363096Y-127624580D01*
X44363206Y-127622782D01*
X44363286Y-127600000D01*
X44344199Y-127247567D01*
X44322587Y-127115591D01*
X48478674Y-127115591D01*
X48478707Y-127116404D01*
X48483783Y-127124573D01*
X53587188Y-132227978D01*
X53601132Y-132235592D01*
X53602965Y-132235461D01*
X53609580Y-132231210D01*
X58713682Y-127127108D01*
X58721296Y-127113164D01*
X58721255Y-127112590D01*
X58715684Y-127104268D01*
X58510818Y-126914228D01*
X58507387Y-126911267D01*
X58091729Y-126577666D01*
X58088115Y-126574972D01*
X57649654Y-126271933D01*
X57645835Y-126269490D01*
X57186846Y-125998585D01*
X57182877Y-125996430D01*
X56705679Y-125759028D01*
X56701575Y-125757166D01*
X56208610Y-125554483D01*
X56204395Y-125552924D01*
X55698199Y-125386006D01*
X55693883Y-125384752D01*
X55177042Y-125254451D01*
X55172665Y-125253513D01*
X54647822Y-125160496D01*
X54643365Y-125159870D01*
X54113241Y-125104620D01*
X54108747Y-125104313D01*
X53576027Y-125087107D01*
X53571530Y-125087122D01*
X53038927Y-125108048D01*
X53034451Y-125108384D01*
X52504713Y-125167336D01*
X52500261Y-125167994D01*
X51976106Y-125264667D01*
X51971701Y-125265643D01*
X51455801Y-125399545D01*
X51451490Y-125400830D01*
X50946471Y-125571278D01*
X50942259Y-125572870D01*
X50450723Y-125778988D01*
X50446647Y-125780871D01*
X49971109Y-126021605D01*
X49967158Y-126023786D01*
X49510063Y-126297893D01*
X49506267Y-126300358D01*
X49069930Y-126606452D01*
X49066347Y-126609162D01*
X48653007Y-126945674D01*
X48649617Y-126948642D01*
X48486708Y-127101891D01*
X48478674Y-127115591D01*
X44322587Y-127115591D01*
X44287161Y-126899257D01*
X44192839Y-126559145D01*
X44189849Y-126551630D01*
X44063597Y-126234372D01*
X44062338Y-126231208D01*
X43897182Y-125919283D01*
X43890579Y-125909530D01*
X43701211Y-125629834D01*
X43701204Y-125629825D01*
X43699305Y-125627020D01*
X43697109Y-125624430D01*
X43697104Y-125624424D01*
X43608715Y-125520201D01*
X43471021Y-125357837D01*
X43215001Y-125114883D01*
X43212294Y-125112821D01*
X43212286Y-125112814D01*
X43053809Y-124992088D01*
X42934239Y-124901000D01*
X42632020Y-124718689D01*
X42628930Y-124717255D01*
X42628925Y-124717252D01*
X42471949Y-124644387D01*
X42311879Y-124570085D01*
X42308654Y-124568993D01*
X42308648Y-124568991D01*
X41980798Y-124458020D01*
X41980793Y-124458018D01*
X41977562Y-124456925D01*
X41963832Y-124453881D01*
X41894730Y-124438562D01*
X41632979Y-124380533D01*
X41508353Y-124366774D01*
X41285543Y-124342175D01*
X41285538Y-124342175D01*
X41282162Y-124341802D01*
X41278763Y-124341796D01*
X41278762Y-124341796D01*
X41112289Y-124341506D01*
X40929213Y-124341186D01*
X40798206Y-124355187D01*
X40581646Y-124378330D01*
X40581640Y-124378331D01*
X40578262Y-124378692D01*
X40233414Y-124453881D01*
X39898704Y-124565873D01*
X39578047Y-124713359D01*
X39275194Y-124894613D01*
X38993687Y-125107515D01*
X38736820Y-125349574D01*
X38734608Y-125352164D01*
X38734607Y-125352165D01*
X38547467Y-125571278D01*
X38507598Y-125617959D01*
X38308702Y-125909530D01*
X38142458Y-126220876D01*
X38141183Y-126224048D01*
X38141181Y-126224052D01*
X38110507Y-126300358D01*
X38010813Y-126548355D01*
X38009894Y-126551623D01*
X38009892Y-126551630D01*
X37916225Y-126884858D01*
X37915304Y-126888136D01*
X37914743Y-126891489D01*
X37914742Y-126891493D01*
X37877241Y-127115591D01*
X37857051Y-127236245D01*
X37836734Y-127588609D01*
X34193157Y-127588609D01*
X34098034Y-127486780D01*
X34084361Y-127478698D01*
X34083667Y-127478724D01*
X34075320Y-127483890D01*
X28972022Y-132587188D01*
X28964408Y-132601132D01*
X28234356Y-132601132D01*
X28235592Y-132598868D01*
X28235461Y-132597035D01*
X28231210Y-132590420D01*
X23127007Y-127486217D01*
X23113063Y-127478603D01*
X23112606Y-127478635D01*
X23104130Y-127484332D01*
X22897104Y-127709077D01*
X22894190Y-127712477D01*
X22562015Y-128129331D01*
X22559344Y-128132941D01*
X22257831Y-128572465D01*
X22255409Y-128576283D01*
X21986107Y-129036216D01*
X21983964Y-129040196D01*
X21748233Y-129518211D01*
X21746376Y-129522343D01*
X21545427Y-130015984D01*
X21543874Y-130020230D01*
X21378729Y-130526984D01*
X21377484Y-130531326D01*
X21248991Y-131048608D01*
X21248067Y-131052991D01*
X21156885Y-131578152D01*
X21156274Y-131582609D01*
X21102873Y-132112930D01*
X21102583Y-132117413D01*
X21087236Y-132650201D01*
X16608500Y-132650201D01*
X16608500Y-127115591D01*
X23478674Y-127115591D01*
X23478707Y-127116404D01*
X23483783Y-127124573D01*
X28587188Y-132227978D01*
X28601132Y-132235592D01*
X28602965Y-132235461D01*
X28609580Y-132231210D01*
X33713682Y-127127108D01*
X33721296Y-127113164D01*
X33721255Y-127112590D01*
X33715684Y-127104268D01*
X33510818Y-126914228D01*
X33507387Y-126911267D01*
X33091729Y-126577666D01*
X33088115Y-126574972D01*
X32649654Y-126271933D01*
X32645835Y-126269490D01*
X32186846Y-125998585D01*
X32182877Y-125996430D01*
X31705679Y-125759028D01*
X31701575Y-125757166D01*
X31208610Y-125554483D01*
X31204395Y-125552924D01*
X30698199Y-125386006D01*
X30693883Y-125384752D01*
X30177042Y-125254451D01*
X30172665Y-125253513D01*
X29647822Y-125160496D01*
X29643365Y-125159870D01*
X29113241Y-125104620D01*
X29108747Y-125104313D01*
X28576027Y-125087107D01*
X28571530Y-125087122D01*
X28038927Y-125108048D01*
X28034451Y-125108384D01*
X27504713Y-125167336D01*
X27500261Y-125167994D01*
X26976106Y-125264667D01*
X26971701Y-125265643D01*
X26455801Y-125399545D01*
X26451490Y-125400830D01*
X25946471Y-125571278D01*
X25942259Y-125572870D01*
X25450723Y-125778988D01*
X25446647Y-125780871D01*
X24971109Y-126021605D01*
X24967158Y-126023786D01*
X24510063Y-126297893D01*
X24506267Y-126300358D01*
X24069930Y-126606452D01*
X24066347Y-126609162D01*
X23653007Y-126945674D01*
X23649617Y-126948642D01*
X23486708Y-127101891D01*
X23478674Y-127115591D01*
X16608500Y-127115591D01*
X16608500Y-114169721D01*
X34091024Y-114169721D01*
X34093491Y-114178352D01*
X34099150Y-114198153D01*
X34102728Y-114214915D01*
X34106920Y-114244187D01*
X34110634Y-114252355D01*
X34110634Y-114252356D01*
X34117548Y-114267562D01*
X34123996Y-114285086D01*
X34131051Y-114309771D01*
X34135843Y-114317365D01*
X34135844Y-114317368D01*
X34146830Y-114334780D01*
X34154969Y-114349863D01*
X34167208Y-114376782D01*
X34173069Y-114383584D01*
X34183970Y-114396235D01*
X34195073Y-114411239D01*
X34208776Y-114432958D01*
X34215501Y-114438897D01*
X34215504Y-114438901D01*
X34230938Y-114452532D01*
X34242982Y-114464724D01*
X34256427Y-114480327D01*
X34256430Y-114480329D01*
X34262287Y-114487127D01*
X34269816Y-114492007D01*
X34269817Y-114492008D01*
X34283835Y-114501094D01*
X34298709Y-114512385D01*
X34311217Y-114523431D01*
X34317951Y-114529378D01*
X34344711Y-114541942D01*
X34359691Y-114550263D01*
X34376983Y-114561471D01*
X34376988Y-114561473D01*
X34384515Y-114566352D01*
X34393108Y-114568922D01*
X34393113Y-114568924D01*
X34409120Y-114573711D01*
X34426564Y-114580372D01*
X34441676Y-114587467D01*
X34441678Y-114587468D01*
X34449800Y-114591281D01*
X34458667Y-114592662D01*
X34458668Y-114592662D01*
X34461353Y-114593080D01*
X34479017Y-114595830D01*
X34495732Y-114599613D01*
X34515466Y-114605515D01*
X34515472Y-114605516D01*
X34524066Y-114608086D01*
X34533037Y-114608141D01*
X34533038Y-114608141D01*
X34543097Y-114608202D01*
X34558506Y-114608296D01*
X34559289Y-114608329D01*
X34560386Y-114608500D01*
X34591377Y-114608500D01*
X34592147Y-114608502D01*
X34665785Y-114608952D01*
X34665786Y-114608952D01*
X34669721Y-114608976D01*
X34671065Y-114608592D01*
X34672410Y-114608500D01*
X47591377Y-114608500D01*
X47592148Y-114608502D01*
X47669721Y-114608976D01*
X47698152Y-114600850D01*
X47714915Y-114597272D01*
X47715753Y-114597152D01*
X47744187Y-114593080D01*
X47767564Y-114582451D01*
X47785087Y-114576004D01*
X47809771Y-114568949D01*
X47817365Y-114564157D01*
X47817368Y-114564156D01*
X47834780Y-114553170D01*
X47849865Y-114545030D01*
X47876782Y-114532792D01*
X47896235Y-114516030D01*
X47911239Y-114504927D01*
X47932958Y-114491224D01*
X47938897Y-114484499D01*
X47938901Y-114484496D01*
X47952532Y-114469062D01*
X47964724Y-114457018D01*
X47980327Y-114443573D01*
X47980329Y-114443570D01*
X47987127Y-114437713D01*
X48001094Y-114416165D01*
X48012385Y-114401291D01*
X48023431Y-114388783D01*
X48023432Y-114388782D01*
X48029378Y-114382049D01*
X48041943Y-114355287D01*
X48050263Y-114340309D01*
X48061471Y-114323017D01*
X48061473Y-114323012D01*
X48066352Y-114315485D01*
X48068922Y-114306892D01*
X48068924Y-114306887D01*
X48073711Y-114290880D01*
X48080372Y-114273436D01*
X48087467Y-114258324D01*
X48087468Y-114258322D01*
X48091281Y-114250200D01*
X48095830Y-114220983D01*
X48099613Y-114204268D01*
X48105515Y-114184534D01*
X48105516Y-114184528D01*
X48108086Y-114175934D01*
X48108296Y-114141494D01*
X48108329Y-114140711D01*
X48108500Y-114139614D01*
X48108500Y-114108623D01*
X48108502Y-114107853D01*
X48108952Y-114034215D01*
X48108952Y-114034214D01*
X48108976Y-114030279D01*
X48108592Y-114028935D01*
X48108500Y-114027590D01*
X48108500Y-101108623D01*
X48108502Y-101107853D01*
X48108800Y-101059102D01*
X48108976Y-101030279D01*
X48100850Y-101001847D01*
X48097272Y-100985085D01*
X48094352Y-100964698D01*
X48093080Y-100955813D01*
X48082451Y-100932436D01*
X48076004Y-100914913D01*
X48071416Y-100898862D01*
X48068949Y-100890229D01*
X48064156Y-100882632D01*
X48053170Y-100865220D01*
X48045030Y-100850135D01*
X48042564Y-100844711D01*
X48032792Y-100823218D01*
X48016030Y-100803765D01*
X48004927Y-100788761D01*
X47991224Y-100767042D01*
X47984499Y-100761103D01*
X47984496Y-100761099D01*
X47969062Y-100747468D01*
X47957018Y-100735276D01*
X47943573Y-100719673D01*
X47943570Y-100719671D01*
X47937713Y-100712873D01*
X47924009Y-100703990D01*
X47916165Y-100698906D01*
X47901291Y-100687615D01*
X47888783Y-100676569D01*
X47888782Y-100676568D01*
X47882049Y-100670622D01*
X47855287Y-100658057D01*
X47840309Y-100649737D01*
X47823017Y-100638529D01*
X47823012Y-100638527D01*
X47815485Y-100633648D01*
X47806892Y-100631078D01*
X47806887Y-100631076D01*
X47790880Y-100626289D01*
X47773436Y-100619628D01*
X47758324Y-100612533D01*
X47758322Y-100612532D01*
X47750200Y-100608719D01*
X47741333Y-100607338D01*
X47741332Y-100607338D01*
X47730478Y-100605648D01*
X47720983Y-100604170D01*
X47704268Y-100600387D01*
X47684534Y-100594485D01*
X47684528Y-100594484D01*
X47675934Y-100591914D01*
X47666963Y-100591859D01*
X47666962Y-100591859D01*
X47656903Y-100591798D01*
X47641494Y-100591704D01*
X47640711Y-100591671D01*
X47639614Y-100591500D01*
X47608623Y-100591500D01*
X47607853Y-100591498D01*
X47534215Y-100591048D01*
X47534214Y-100591048D01*
X47530279Y-100591024D01*
X47528935Y-100591408D01*
X47527590Y-100591500D01*
X34608623Y-100591500D01*
X34607853Y-100591498D01*
X34607037Y-100591493D01*
X34530279Y-100591024D01*
X34507918Y-100597415D01*
X34501847Y-100599150D01*
X34485085Y-100602728D01*
X34455813Y-100606920D01*
X34447645Y-100610634D01*
X34447644Y-100610634D01*
X34432438Y-100617548D01*
X34414914Y-100623996D01*
X34390229Y-100631051D01*
X34382635Y-100635843D01*
X34382632Y-100635844D01*
X34365220Y-100646830D01*
X34350137Y-100654969D01*
X34323218Y-100667208D01*
X34316416Y-100673069D01*
X34303765Y-100683970D01*
X34288761Y-100695073D01*
X34267042Y-100708776D01*
X34261103Y-100715501D01*
X34261099Y-100715504D01*
X34247468Y-100730938D01*
X34235276Y-100742982D01*
X34219673Y-100756427D01*
X34219671Y-100756430D01*
X34212873Y-100762287D01*
X34207993Y-100769816D01*
X34207992Y-100769817D01*
X34198906Y-100783835D01*
X34187615Y-100798709D01*
X34176569Y-100811217D01*
X34170622Y-100817951D01*
X34164312Y-100831391D01*
X34158058Y-100844711D01*
X34149737Y-100859691D01*
X34138529Y-100876983D01*
X34138527Y-100876988D01*
X34133648Y-100884515D01*
X34131078Y-100893108D01*
X34131076Y-100893113D01*
X34126289Y-100909120D01*
X34119628Y-100926564D01*
X34112533Y-100941676D01*
X34108719Y-100949800D01*
X34107338Y-100958667D01*
X34107338Y-100958668D01*
X34104170Y-100979015D01*
X34100387Y-100995732D01*
X34094485Y-101015466D01*
X34094484Y-101015472D01*
X34091914Y-101024066D01*
X34091859Y-101033037D01*
X34091859Y-101033038D01*
X34091704Y-101058497D01*
X34091671Y-101059289D01*
X34091500Y-101060386D01*
X34091500Y-101091377D01*
X34091498Y-101092147D01*
X34091024Y-101169721D01*
X34091408Y-101171065D01*
X34091500Y-101172410D01*
X34091500Y-114091377D01*
X34091498Y-114092147D01*
X34091024Y-114169721D01*
X16608500Y-114169721D01*
X16608500Y-81494405D01*
X37571135Y-81494405D01*
X37571161Y-81494775D01*
X37576950Y-81503364D01*
X37714967Y-81629834D01*
X37719195Y-81633381D01*
X38079082Y-81909533D01*
X38083576Y-81912679D01*
X38466171Y-82156418D01*
X38470943Y-82159173D01*
X38873310Y-82368632D01*
X38878298Y-82370959D01*
X39297404Y-82544558D01*
X39302573Y-82546440D01*
X39735203Y-82682847D01*
X39740526Y-82684273D01*
X40183401Y-82782456D01*
X40188813Y-82783411D01*
X40638560Y-82842621D01*
X40644059Y-82843102D01*
X41097252Y-82862889D01*
X41102748Y-82862889D01*
X41555941Y-82843102D01*
X41561440Y-82842621D01*
X42011187Y-82783411D01*
X42016599Y-82782456D01*
X42459474Y-82684273D01*
X42464797Y-82682847D01*
X42897427Y-82546440D01*
X42902596Y-82544558D01*
X43321702Y-82370959D01*
X43326690Y-82368632D01*
X43729057Y-82159173D01*
X43733829Y-82156418D01*
X44116424Y-81912679D01*
X44120918Y-81909533D01*
X44480805Y-81633381D01*
X44485033Y-81629834D01*
X44620706Y-81505512D01*
X44628920Y-81491916D01*
X44628910Y-81491546D01*
X44623499Y-81482709D01*
X41112812Y-77972022D01*
X41098868Y-77964408D01*
X41097035Y-77964539D01*
X41090420Y-77968790D01*
X37578749Y-81480461D01*
X37571135Y-81494405D01*
X16608500Y-81494405D01*
X16608500Y-77602748D01*
X35837111Y-77602748D01*
X35856898Y-78055941D01*
X35857379Y-78061440D01*
X35916589Y-78511187D01*
X35917544Y-78516599D01*
X36015727Y-78959474D01*
X36017153Y-78964797D01*
X36153560Y-79397427D01*
X36155442Y-79402596D01*
X36329041Y-79821702D01*
X36331365Y-79826686D01*
X36540832Y-80229066D01*
X36543579Y-80233824D01*
X36787321Y-80616424D01*
X36790467Y-80620918D01*
X37066619Y-80980805D01*
X37070166Y-80985033D01*
X37194488Y-81120706D01*
X37208084Y-81128920D01*
X37208454Y-81128910D01*
X37217291Y-81123499D01*
X40727978Y-77612812D01*
X40734356Y-77601132D01*
X41464408Y-77601132D01*
X41464539Y-77602965D01*
X41468790Y-77609580D01*
X44980461Y-81121251D01*
X44994405Y-81128865D01*
X44994775Y-81128839D01*
X45003364Y-81123050D01*
X45129834Y-80985033D01*
X45133381Y-80980805D01*
X45409533Y-80620918D01*
X45412679Y-80616424D01*
X45656421Y-80233824D01*
X45659168Y-80229066D01*
X45868635Y-79826686D01*
X45870959Y-79821702D01*
X46044558Y-79402596D01*
X46046440Y-79397427D01*
X46182847Y-78964797D01*
X46184273Y-78959474D01*
X46282456Y-78516599D01*
X46283411Y-78511187D01*
X46342621Y-78061440D01*
X46343102Y-78055941D01*
X46362889Y-77602748D01*
X46362889Y-77597252D01*
X46343102Y-77144059D01*
X46342621Y-77138560D01*
X46283411Y-76688813D01*
X46282456Y-76683401D01*
X46184273Y-76240526D01*
X46182847Y-76235203D01*
X46046440Y-75802573D01*
X46044558Y-75797404D01*
X45870959Y-75378298D01*
X45868635Y-75373314D01*
X45659168Y-74970934D01*
X45656421Y-74966176D01*
X45412679Y-74583576D01*
X45409533Y-74579082D01*
X45133381Y-74219195D01*
X45129834Y-74214967D01*
X45005512Y-74079294D01*
X44991916Y-74071080D01*
X44991546Y-74071090D01*
X44982709Y-74076501D01*
X41472022Y-77587188D01*
X41464408Y-77601132D01*
X40734356Y-77601132D01*
X40735592Y-77598868D01*
X40735461Y-77597035D01*
X40731210Y-77590420D01*
X37219539Y-74078749D01*
X37205595Y-74071135D01*
X37205225Y-74071161D01*
X37196636Y-74076950D01*
X37070166Y-74214967D01*
X37066619Y-74219195D01*
X36790467Y-74579082D01*
X36787321Y-74583576D01*
X36543579Y-74966176D01*
X36540832Y-74970934D01*
X36331365Y-75373314D01*
X36329041Y-75378298D01*
X36155442Y-75797404D01*
X36153560Y-75802573D01*
X36017153Y-76235203D01*
X36015727Y-76240526D01*
X35917544Y-76683401D01*
X35916589Y-76688813D01*
X35857379Y-77138560D01*
X35856898Y-77144059D01*
X35837111Y-77597252D01*
X35837111Y-77602748D01*
X16608500Y-77602748D01*
X16608500Y-73708084D01*
X37571080Y-73708084D01*
X37571090Y-73708454D01*
X37576501Y-73717291D01*
X41087188Y-77227978D01*
X41101132Y-77235592D01*
X41102965Y-77235461D01*
X41109580Y-77231210D01*
X44621251Y-73719539D01*
X44628865Y-73705595D01*
X44628839Y-73705225D01*
X44623050Y-73696636D01*
X44485033Y-73570166D01*
X44480805Y-73566619D01*
X44120918Y-73290467D01*
X44116424Y-73287321D01*
X43733829Y-73043582D01*
X43729057Y-73040827D01*
X43326690Y-72831368D01*
X43321702Y-72829041D01*
X42902596Y-72655442D01*
X42897427Y-72653560D01*
X42464797Y-72517153D01*
X42459474Y-72515727D01*
X42016599Y-72417544D01*
X42011187Y-72416589D01*
X41561440Y-72357379D01*
X41555941Y-72356898D01*
X41102748Y-72337111D01*
X41097252Y-72337111D01*
X40644059Y-72356898D01*
X40638560Y-72357379D01*
X40188813Y-72416589D01*
X40183401Y-72417544D01*
X39740526Y-72515727D01*
X39735203Y-72517153D01*
X39302573Y-72653560D01*
X39297404Y-72655442D01*
X38878298Y-72829041D01*
X38873314Y-72831365D01*
X38470934Y-73040832D01*
X38466176Y-73043579D01*
X38083576Y-73287321D01*
X38079082Y-73290467D01*
X37719195Y-73566619D01*
X37714967Y-73570166D01*
X37579294Y-73694488D01*
X37571080Y-73708084D01*
X16608500Y-73708084D01*
X16608500Y-53842277D01*
X24037009Y-53842277D01*
X24062625Y-54110769D01*
X24063710Y-54115203D01*
X24063711Y-54115209D01*
X24125645Y-54368312D01*
X24126731Y-54372750D01*
X24227985Y-54622733D01*
X24364265Y-54855482D01*
X24367118Y-54859049D01*
X24484686Y-55006060D01*
X24532716Y-55066119D01*
X24729809Y-55250234D01*
X24951416Y-55403968D01*
X24955499Y-55405999D01*
X24955502Y-55406001D01*
X25071013Y-55463466D01*
X25192894Y-55524101D01*
X25197228Y-55525522D01*
X25197231Y-55525523D01*
X25444853Y-55606698D01*
X25444859Y-55606699D01*
X25449186Y-55608118D01*
X25453677Y-55608898D01*
X25453678Y-55608898D01*
X25711140Y-55653601D01*
X25711148Y-55653602D01*
X25714921Y-55654257D01*
X25718758Y-55654448D01*
X25798578Y-55658422D01*
X25798586Y-55658422D01*
X25800149Y-55658500D01*
X25968512Y-55658500D01*
X25970780Y-55658335D01*
X25970792Y-55658335D01*
X26101884Y-55648823D01*
X26169004Y-55643953D01*
X26173459Y-55642969D01*
X26173462Y-55642969D01*
X26427912Y-55586791D01*
X26427916Y-55586790D01*
X26432372Y-55585806D01*
X26558480Y-55538028D01*
X26680318Y-55491868D01*
X26680321Y-55491867D01*
X26684588Y-55490250D01*
X26920368Y-55359286D01*
X27134773Y-55195657D01*
X27323312Y-55002792D01*
X27482034Y-54784730D01*
X27565190Y-54626676D01*
X27605490Y-54550079D01*
X27605493Y-54550073D01*
X27607615Y-54546039D01*
X27670378Y-54368312D01*
X27695902Y-54296033D01*
X27695902Y-54296032D01*
X27697425Y-54291720D01*
X27749581Y-54027100D01*
X27758782Y-53842277D01*
X54437009Y-53842277D01*
X54462625Y-54110769D01*
X54463710Y-54115203D01*
X54463711Y-54115209D01*
X54525645Y-54368312D01*
X54526731Y-54372750D01*
X54627985Y-54622733D01*
X54764265Y-54855482D01*
X54767118Y-54859049D01*
X54884686Y-55006060D01*
X54932716Y-55066119D01*
X55129809Y-55250234D01*
X55351416Y-55403968D01*
X55355499Y-55405999D01*
X55355502Y-55406001D01*
X55471013Y-55463466D01*
X55592894Y-55524101D01*
X55597228Y-55525522D01*
X55597231Y-55525523D01*
X55844853Y-55606698D01*
X55844859Y-55606699D01*
X55849186Y-55608118D01*
X55853677Y-55608898D01*
X55853678Y-55608898D01*
X56111140Y-55653601D01*
X56111148Y-55653602D01*
X56114921Y-55654257D01*
X56118758Y-55654448D01*
X56198578Y-55658422D01*
X56198586Y-55658422D01*
X56200149Y-55658500D01*
X56368512Y-55658500D01*
X56370780Y-55658335D01*
X56370792Y-55658335D01*
X56501884Y-55648823D01*
X56569004Y-55643953D01*
X56573459Y-55642969D01*
X56573462Y-55642969D01*
X56827912Y-55586791D01*
X56827916Y-55586790D01*
X56832372Y-55585806D01*
X56958480Y-55538028D01*
X57080318Y-55491868D01*
X57080321Y-55491867D01*
X57084588Y-55490250D01*
X57320368Y-55359286D01*
X57534773Y-55195657D01*
X57723312Y-55002792D01*
X57882034Y-54784730D01*
X57965190Y-54626676D01*
X58005490Y-54550079D01*
X58005493Y-54550073D01*
X58007615Y-54546039D01*
X58070378Y-54368312D01*
X58095902Y-54296033D01*
X58095902Y-54296032D01*
X58097425Y-54291720D01*
X58149581Y-54027100D01*
X58158782Y-53842277D01*
X58162764Y-53762292D01*
X58162764Y-53762286D01*
X58162991Y-53757723D01*
X58137375Y-53489231D01*
X58092042Y-53303967D01*
X58074355Y-53231688D01*
X58073269Y-53227250D01*
X57972015Y-52977267D01*
X57835735Y-52744518D01*
X57717928Y-52597208D01*
X57670136Y-52537447D01*
X57670135Y-52537445D01*
X57667284Y-52533881D01*
X57470191Y-52349766D01*
X57248584Y-52196032D01*
X57244501Y-52194001D01*
X57244498Y-52193999D01*
X57079606Y-52111967D01*
X57007106Y-52075899D01*
X57002772Y-52074478D01*
X57002769Y-52074477D01*
X56755147Y-51993302D01*
X56755141Y-51993301D01*
X56750814Y-51991882D01*
X56746322Y-51991102D01*
X56488860Y-51946399D01*
X56488852Y-51946398D01*
X56485079Y-51945743D01*
X56473817Y-51945182D01*
X56401422Y-51941578D01*
X56401414Y-51941578D01*
X56399851Y-51941500D01*
X56231488Y-51941500D01*
X56229220Y-51941665D01*
X56229208Y-51941665D01*
X56098116Y-51951177D01*
X56030996Y-51956047D01*
X56026541Y-51957031D01*
X56026538Y-51957031D01*
X55772088Y-52013209D01*
X55772084Y-52013210D01*
X55767628Y-52014194D01*
X55641520Y-52061972D01*
X55519682Y-52108132D01*
X55519679Y-52108133D01*
X55515412Y-52109750D01*
X55279632Y-52240714D01*
X55065227Y-52404343D01*
X54876688Y-52597208D01*
X54717966Y-52815270D01*
X54715844Y-52819304D01*
X54594510Y-53049921D01*
X54594507Y-53049927D01*
X54592385Y-53053961D01*
X54590865Y-53058266D01*
X54590863Y-53058270D01*
X54504098Y-53303967D01*
X54502575Y-53308280D01*
X54450419Y-53572900D01*
X54450192Y-53577453D01*
X54450192Y-53577456D01*
X54440991Y-53762292D01*
X54437009Y-53842277D01*
X27758782Y-53842277D01*
X27762764Y-53762292D01*
X27762764Y-53762286D01*
X27762991Y-53757723D01*
X27737375Y-53489231D01*
X27692042Y-53303967D01*
X27674355Y-53231688D01*
X27673269Y-53227250D01*
X27572015Y-52977267D01*
X27435735Y-52744518D01*
X27317928Y-52597208D01*
X27270136Y-52537447D01*
X27270135Y-52537445D01*
X27267284Y-52533881D01*
X27070191Y-52349766D01*
X26848584Y-52196032D01*
X26844501Y-52194001D01*
X26844498Y-52193999D01*
X26679606Y-52111967D01*
X26607106Y-52075899D01*
X26602772Y-52074478D01*
X26602769Y-52074477D01*
X26355147Y-51993302D01*
X26355141Y-51993301D01*
X26350814Y-51991882D01*
X26346322Y-51991102D01*
X26088860Y-51946399D01*
X26088852Y-51946398D01*
X26085079Y-51945743D01*
X26073817Y-51945182D01*
X26001422Y-51941578D01*
X26001414Y-51941578D01*
X25999851Y-51941500D01*
X25831488Y-51941500D01*
X25829220Y-51941665D01*
X25829208Y-51941665D01*
X25698116Y-51951177D01*
X25630996Y-51956047D01*
X25626541Y-51957031D01*
X25626538Y-51957031D01*
X25372088Y-52013209D01*
X25372084Y-52013210D01*
X25367628Y-52014194D01*
X25241520Y-52061972D01*
X25119682Y-52108132D01*
X25119679Y-52108133D01*
X25115412Y-52109750D01*
X24879632Y-52240714D01*
X24665227Y-52404343D01*
X24476688Y-52597208D01*
X24317966Y-52815270D01*
X24315844Y-52819304D01*
X24194510Y-53049921D01*
X24194507Y-53049927D01*
X24192385Y-53053961D01*
X24190865Y-53058266D01*
X24190863Y-53058270D01*
X24104098Y-53303967D01*
X24102575Y-53308280D01*
X24050419Y-53572900D01*
X24050192Y-53577453D01*
X24050192Y-53577456D01*
X24040991Y-53762292D01*
X24037009Y-53842277D01*
X16608500Y-53842277D01*
X16608500Y-47069721D01*
X24091024Y-47069721D01*
X24093491Y-47078352D01*
X24099150Y-47098153D01*
X24102728Y-47114915D01*
X24106920Y-47144187D01*
X24110634Y-47152355D01*
X24110634Y-47152356D01*
X24117548Y-47167562D01*
X24123996Y-47185086D01*
X24131051Y-47209771D01*
X24135843Y-47217365D01*
X24135844Y-47217368D01*
X24146830Y-47234780D01*
X24154969Y-47249863D01*
X24167208Y-47276782D01*
X24173069Y-47283584D01*
X24183970Y-47296235D01*
X24195073Y-47311239D01*
X24208776Y-47332958D01*
X24215501Y-47338897D01*
X24215504Y-47338901D01*
X24230938Y-47352532D01*
X24242982Y-47364724D01*
X24256427Y-47380327D01*
X24256430Y-47380329D01*
X24262287Y-47387127D01*
X24269816Y-47392007D01*
X24269817Y-47392008D01*
X24283835Y-47401094D01*
X24298709Y-47412385D01*
X24311217Y-47423431D01*
X24317951Y-47429378D01*
X24344711Y-47441942D01*
X24359691Y-47450263D01*
X24376983Y-47461471D01*
X24376988Y-47461473D01*
X24384515Y-47466352D01*
X24393108Y-47468922D01*
X24393113Y-47468924D01*
X24409120Y-47473711D01*
X24426564Y-47480372D01*
X24441676Y-47487467D01*
X24441678Y-47487468D01*
X24449800Y-47491281D01*
X24458667Y-47492662D01*
X24458668Y-47492662D01*
X24461353Y-47493080D01*
X24479017Y-47495830D01*
X24495732Y-47499613D01*
X24515466Y-47505515D01*
X24515472Y-47505516D01*
X24524066Y-47508086D01*
X24533037Y-47508141D01*
X24533038Y-47508141D01*
X24543097Y-47508202D01*
X24558506Y-47508296D01*
X24559289Y-47508329D01*
X24560386Y-47508500D01*
X24591377Y-47508500D01*
X24592147Y-47508502D01*
X24665785Y-47508952D01*
X24665786Y-47508952D01*
X24669721Y-47508976D01*
X24671065Y-47508592D01*
X24672410Y-47508500D01*
X57591377Y-47508500D01*
X57592148Y-47508502D01*
X57669721Y-47508976D01*
X57698152Y-47500850D01*
X57714915Y-47497272D01*
X57715753Y-47497152D01*
X57744187Y-47493080D01*
X57767564Y-47482451D01*
X57785087Y-47476004D01*
X57809771Y-47468949D01*
X57817365Y-47464157D01*
X57817368Y-47464156D01*
X57834780Y-47453170D01*
X57849865Y-47445030D01*
X57876782Y-47432792D01*
X57896235Y-47416030D01*
X57911239Y-47404927D01*
X57932958Y-47391224D01*
X57938897Y-47384499D01*
X57938901Y-47384496D01*
X57952532Y-47369062D01*
X57964724Y-47357018D01*
X57980327Y-47343573D01*
X57980329Y-47343570D01*
X57987127Y-47337713D01*
X58001094Y-47316165D01*
X58012385Y-47301291D01*
X58023431Y-47288783D01*
X58023432Y-47288782D01*
X58029378Y-47282049D01*
X58041943Y-47255287D01*
X58050263Y-47240309D01*
X58061471Y-47223017D01*
X58061473Y-47223012D01*
X58066352Y-47215485D01*
X58068922Y-47206892D01*
X58068924Y-47206887D01*
X58073711Y-47190880D01*
X58080372Y-47173436D01*
X58087467Y-47158324D01*
X58087468Y-47158322D01*
X58091281Y-47150200D01*
X58095830Y-47120983D01*
X58099613Y-47104268D01*
X58105515Y-47084534D01*
X58105516Y-47084528D01*
X58108086Y-47075934D01*
X58108296Y-47041494D01*
X58108329Y-47040711D01*
X58108500Y-47039614D01*
X58108500Y-47008623D01*
X58108502Y-47007853D01*
X58108952Y-46934215D01*
X58108952Y-46934214D01*
X58108976Y-46930279D01*
X58108592Y-46928935D01*
X58108500Y-46927590D01*
X58108500Y-28008623D01*
X58108502Y-28007853D01*
X58108800Y-27959102D01*
X58108976Y-27930279D01*
X58100850Y-27901847D01*
X58097272Y-27885085D01*
X58094352Y-27864698D01*
X58093080Y-27855813D01*
X58082451Y-27832436D01*
X58076004Y-27814913D01*
X58071416Y-27798862D01*
X58068949Y-27790229D01*
X58064156Y-27782632D01*
X58053170Y-27765220D01*
X58045030Y-27750135D01*
X58042564Y-27744711D01*
X58032792Y-27723218D01*
X58016030Y-27703765D01*
X58004927Y-27688761D01*
X57991224Y-27667042D01*
X57984499Y-27661103D01*
X57984496Y-27661099D01*
X57969062Y-27647468D01*
X57957018Y-27635276D01*
X57943573Y-27619673D01*
X57943570Y-27619671D01*
X57937713Y-27612873D01*
X57924009Y-27603990D01*
X57916165Y-27598906D01*
X57901291Y-27587615D01*
X57888783Y-27576569D01*
X57888782Y-27576568D01*
X57882049Y-27570622D01*
X57855287Y-27558057D01*
X57840309Y-27549737D01*
X57823017Y-27538529D01*
X57823012Y-27538527D01*
X57815485Y-27533648D01*
X57806892Y-27531078D01*
X57806887Y-27531076D01*
X57790880Y-27526289D01*
X57773436Y-27519628D01*
X57758324Y-27512533D01*
X57758322Y-27512532D01*
X57750200Y-27508719D01*
X57741333Y-27507338D01*
X57741332Y-27507338D01*
X57730478Y-27505648D01*
X57720983Y-27504170D01*
X57704268Y-27500387D01*
X57684534Y-27494485D01*
X57684528Y-27494484D01*
X57675934Y-27491914D01*
X57666963Y-27491859D01*
X57666962Y-27491859D01*
X57656903Y-27491798D01*
X57641494Y-27491704D01*
X57640711Y-27491671D01*
X57639614Y-27491500D01*
X57608623Y-27491500D01*
X57607853Y-27491498D01*
X57534215Y-27491048D01*
X57534214Y-27491048D01*
X57530279Y-27491024D01*
X57528935Y-27491408D01*
X57527590Y-27491500D01*
X24608623Y-27491500D01*
X24607853Y-27491498D01*
X24607037Y-27491493D01*
X24530279Y-27491024D01*
X24507918Y-27497415D01*
X24501847Y-27499150D01*
X24485085Y-27502728D01*
X24455813Y-27506920D01*
X24447645Y-27510634D01*
X24447644Y-27510634D01*
X24432438Y-27517548D01*
X24414914Y-27523996D01*
X24390229Y-27531051D01*
X24382635Y-27535843D01*
X24382632Y-27535844D01*
X24365220Y-27546830D01*
X24350137Y-27554969D01*
X24323218Y-27567208D01*
X24316416Y-27573069D01*
X24303765Y-27583970D01*
X24288761Y-27595073D01*
X24267042Y-27608776D01*
X24261103Y-27615501D01*
X24261099Y-27615504D01*
X24247468Y-27630938D01*
X24235276Y-27642982D01*
X24219673Y-27656427D01*
X24219671Y-27656430D01*
X24212873Y-27662287D01*
X24207993Y-27669816D01*
X24207992Y-27669817D01*
X24198906Y-27683835D01*
X24187615Y-27698709D01*
X24176569Y-27711217D01*
X24170622Y-27717951D01*
X24164312Y-27731391D01*
X24158058Y-27744711D01*
X24149737Y-27759691D01*
X24138529Y-27776983D01*
X24138527Y-27776988D01*
X24133648Y-27784515D01*
X24131078Y-27793108D01*
X24131076Y-27793113D01*
X24126289Y-27809120D01*
X24119628Y-27826564D01*
X24112533Y-27841676D01*
X24108719Y-27849800D01*
X24107338Y-27858667D01*
X24107338Y-27858668D01*
X24104170Y-27879015D01*
X24100387Y-27895732D01*
X24094485Y-27915466D01*
X24094484Y-27915472D01*
X24091914Y-27924066D01*
X24091859Y-27933037D01*
X24091859Y-27933038D01*
X24091704Y-27958497D01*
X24091671Y-27959289D01*
X24091500Y-27960386D01*
X24091500Y-27991377D01*
X24091498Y-27992147D01*
X24091024Y-28069721D01*
X24091408Y-28071065D01*
X24091500Y-28072410D01*
X24091500Y-46991377D01*
X24091498Y-46992147D01*
X24091024Y-47069721D01*
X16608500Y-47069721D01*
X16608500Y-25342277D01*
X24037009Y-25342277D01*
X24062625Y-25610769D01*
X24063710Y-25615203D01*
X24063711Y-25615209D01*
X24125645Y-25868312D01*
X24126731Y-25872750D01*
X24227985Y-26122733D01*
X24364265Y-26355482D01*
X24367118Y-26359049D01*
X24484686Y-26506060D01*
X24532716Y-26566119D01*
X24729809Y-26750234D01*
X24951416Y-26903968D01*
X24955499Y-26905999D01*
X24955502Y-26906001D01*
X25071013Y-26963466D01*
X25192894Y-27024101D01*
X25197228Y-27025522D01*
X25197231Y-27025523D01*
X25444853Y-27106698D01*
X25444859Y-27106699D01*
X25449186Y-27108118D01*
X25453677Y-27108898D01*
X25453678Y-27108898D01*
X25711140Y-27153601D01*
X25711148Y-27153602D01*
X25714921Y-27154257D01*
X25718758Y-27154448D01*
X25798578Y-27158422D01*
X25798586Y-27158422D01*
X25800149Y-27158500D01*
X25968512Y-27158500D01*
X25970780Y-27158335D01*
X25970792Y-27158335D01*
X26101884Y-27148823D01*
X26169004Y-27143953D01*
X26173459Y-27142969D01*
X26173462Y-27142969D01*
X26427912Y-27086791D01*
X26427916Y-27086790D01*
X26432372Y-27085806D01*
X26558480Y-27038028D01*
X26680318Y-26991868D01*
X26680321Y-26991867D01*
X26684588Y-26990250D01*
X26920368Y-26859286D01*
X27134773Y-26695657D01*
X27323312Y-26502792D01*
X27482034Y-26284730D01*
X27565190Y-26126676D01*
X27605490Y-26050079D01*
X27605493Y-26050073D01*
X27607615Y-26046039D01*
X27670378Y-25868312D01*
X27695902Y-25796033D01*
X27695902Y-25796032D01*
X27697425Y-25791720D01*
X27749581Y-25527100D01*
X27758782Y-25342277D01*
X54437009Y-25342277D01*
X54462625Y-25610769D01*
X54463710Y-25615203D01*
X54463711Y-25615209D01*
X54525645Y-25868312D01*
X54526731Y-25872750D01*
X54627985Y-26122733D01*
X54764265Y-26355482D01*
X54767118Y-26359049D01*
X54884686Y-26506060D01*
X54932716Y-26566119D01*
X55129809Y-26750234D01*
X55351416Y-26903968D01*
X55355499Y-26905999D01*
X55355502Y-26906001D01*
X55471013Y-26963466D01*
X55592894Y-27024101D01*
X55597228Y-27025522D01*
X55597231Y-27025523D01*
X55844853Y-27106698D01*
X55844859Y-27106699D01*
X55849186Y-27108118D01*
X55853677Y-27108898D01*
X55853678Y-27108898D01*
X56111140Y-27153601D01*
X56111148Y-27153602D01*
X56114921Y-27154257D01*
X56118758Y-27154448D01*
X56198578Y-27158422D01*
X56198586Y-27158422D01*
X56200149Y-27158500D01*
X56368512Y-27158500D01*
X56370780Y-27158335D01*
X56370792Y-27158335D01*
X56501884Y-27148823D01*
X56569004Y-27143953D01*
X56573459Y-27142969D01*
X56573462Y-27142969D01*
X56827912Y-27086791D01*
X56827916Y-27086790D01*
X56832372Y-27085806D01*
X56958480Y-27038028D01*
X57080318Y-26991868D01*
X57080321Y-26991867D01*
X57084588Y-26990250D01*
X57320368Y-26859286D01*
X57534773Y-26695657D01*
X57723312Y-26502792D01*
X57882034Y-26284730D01*
X57965190Y-26126676D01*
X58005490Y-26050079D01*
X58005493Y-26050073D01*
X58007615Y-26046039D01*
X58070378Y-25868312D01*
X58095902Y-25796033D01*
X58095902Y-25796032D01*
X58097425Y-25791720D01*
X58149581Y-25527100D01*
X58158782Y-25342277D01*
X58162764Y-25262292D01*
X58162764Y-25262286D01*
X58162991Y-25257723D01*
X58137375Y-24989231D01*
X58092042Y-24803967D01*
X58074355Y-24731688D01*
X58073269Y-24727250D01*
X57972015Y-24477267D01*
X57835735Y-24244518D01*
X57717928Y-24097208D01*
X57670136Y-24037447D01*
X57670135Y-24037445D01*
X57667284Y-24033881D01*
X57470191Y-23849766D01*
X57248584Y-23696032D01*
X57244501Y-23694001D01*
X57244498Y-23693999D01*
X57079606Y-23611967D01*
X57007106Y-23575899D01*
X57002772Y-23574478D01*
X57002769Y-23574477D01*
X56755147Y-23493302D01*
X56755141Y-23493301D01*
X56750814Y-23491882D01*
X56746322Y-23491102D01*
X56488860Y-23446399D01*
X56488852Y-23446398D01*
X56485079Y-23445743D01*
X56473817Y-23445182D01*
X56401422Y-23441578D01*
X56401414Y-23441578D01*
X56399851Y-23441500D01*
X56231488Y-23441500D01*
X56229220Y-23441665D01*
X56229208Y-23441665D01*
X56098116Y-23451177D01*
X56030996Y-23456047D01*
X56026541Y-23457031D01*
X56026538Y-23457031D01*
X55772088Y-23513209D01*
X55772084Y-23513210D01*
X55767628Y-23514194D01*
X55641520Y-23561972D01*
X55519682Y-23608132D01*
X55519679Y-23608133D01*
X55515412Y-23609750D01*
X55279632Y-23740714D01*
X55065227Y-23904343D01*
X54876688Y-24097208D01*
X54717966Y-24315270D01*
X54715844Y-24319304D01*
X54594510Y-24549921D01*
X54594507Y-24549927D01*
X54592385Y-24553961D01*
X54590865Y-24558266D01*
X54590863Y-24558270D01*
X54504098Y-24803967D01*
X54502575Y-24808280D01*
X54450419Y-25072900D01*
X54450192Y-25077453D01*
X54450192Y-25077456D01*
X54440991Y-25262292D01*
X54437009Y-25342277D01*
X27758782Y-25342277D01*
X27762764Y-25262292D01*
X27762764Y-25262286D01*
X27762991Y-25257723D01*
X27737375Y-24989231D01*
X27692042Y-24803967D01*
X27674355Y-24731688D01*
X27673269Y-24727250D01*
X27572015Y-24477267D01*
X27435735Y-24244518D01*
X27317928Y-24097208D01*
X27270136Y-24037447D01*
X27270135Y-24037445D01*
X27267284Y-24033881D01*
X27070191Y-23849766D01*
X26848584Y-23696032D01*
X26844501Y-23694001D01*
X26844498Y-23693999D01*
X26679606Y-23611967D01*
X26607106Y-23575899D01*
X26602772Y-23574478D01*
X26602769Y-23574477D01*
X26355147Y-23493302D01*
X26355141Y-23493301D01*
X26350814Y-23491882D01*
X26346322Y-23491102D01*
X26088860Y-23446399D01*
X26088852Y-23446398D01*
X26085079Y-23445743D01*
X26073817Y-23445182D01*
X26001422Y-23441578D01*
X26001414Y-23441578D01*
X25999851Y-23441500D01*
X25831488Y-23441500D01*
X25829220Y-23441665D01*
X25829208Y-23441665D01*
X25698116Y-23451177D01*
X25630996Y-23456047D01*
X25626541Y-23457031D01*
X25626538Y-23457031D01*
X25372088Y-23513209D01*
X25372084Y-23513210D01*
X25367628Y-23514194D01*
X25241520Y-23561972D01*
X25119682Y-23608132D01*
X25119679Y-23608133D01*
X25115412Y-23609750D01*
X24879632Y-23740714D01*
X24665227Y-23904343D01*
X24476688Y-24097208D01*
X24317966Y-24315270D01*
X24315844Y-24319304D01*
X24194510Y-24549921D01*
X24194507Y-24549927D01*
X24192385Y-24553961D01*
X24190865Y-24558266D01*
X24190863Y-24558270D01*
X24104098Y-24803967D01*
X24102575Y-24808280D01*
X24050419Y-25072900D01*
X24050192Y-25077453D01*
X24050192Y-25077456D01*
X24040991Y-25262292D01*
X24037009Y-25342277D01*
X16608500Y-25342277D01*
X16608500Y-11764697D01*
X16628502Y-11696576D01*
X16682158Y-11650083D01*
X16752432Y-11639979D01*
X16817012Y-11669473D01*
X16844915Y-11703996D01*
X16976330Y-11943039D01*
X16980570Y-11949719D01*
X17161404Y-12198616D01*
X17166443Y-12204707D01*
X17377046Y-12428977D01*
X17382813Y-12434393D01*
X17619868Y-12630502D01*
X17626271Y-12635153D01*
X17886026Y-12799999D01*
X17892959Y-12803811D01*
X18171328Y-12934801D01*
X18178691Y-12937716D01*
X18471277Y-13032783D01*
X18478954Y-13034754D01*
X18781145Y-13092400D01*
X18789006Y-13093393D01*
X19019180Y-13107874D01*
X19023171Y-13108000D01*
X20227885Y-13108000D01*
X20243124Y-13103525D01*
X20244329Y-13102135D01*
X20246000Y-13094452D01*
X20246000Y-13089885D01*
X20754000Y-13089885D01*
X20758475Y-13105124D01*
X20759865Y-13106329D01*
X20767548Y-13108000D01*
X21976829Y-13108000D01*
X21980820Y-13107874D01*
X22210994Y-13093393D01*
X22218855Y-13092400D01*
X22521046Y-13034754D01*
X22528723Y-13032783D01*
X22821309Y-12937716D01*
X22828672Y-12934801D01*
X23107041Y-12803811D01*
X23113974Y-12799999D01*
X23373729Y-12635153D01*
X23380132Y-12630502D01*
X23617187Y-12434393D01*
X23622954Y-12428977D01*
X23833557Y-12204707D01*
X23838596Y-12198616D01*
X24019430Y-11949719D01*
X24023670Y-11943039D01*
X24171890Y-11673428D01*
X24175247Y-11666293D01*
X24288508Y-11380230D01*
X24290953Y-11372704D01*
X24367462Y-11074721D01*
X24368945Y-11066950D01*
X24393575Y-10871974D01*
X24393487Y-10871426D01*
X57806355Y-10871426D01*
X57831055Y-11066950D01*
X57832538Y-11074721D01*
X57909047Y-11372704D01*
X57911492Y-11380230D01*
X58024753Y-11666293D01*
X58028110Y-11673428D01*
X58176330Y-11943039D01*
X58180570Y-11949719D01*
X58361404Y-12198616D01*
X58366443Y-12204707D01*
X58577046Y-12428977D01*
X58582813Y-12434393D01*
X58819868Y-12630502D01*
X58826271Y-12635153D01*
X59086026Y-12799999D01*
X59092959Y-12803811D01*
X59371328Y-12934801D01*
X59378691Y-12937716D01*
X59671277Y-13032783D01*
X59678954Y-13034754D01*
X59981145Y-13092400D01*
X59989006Y-13093393D01*
X60219180Y-13107874D01*
X60223171Y-13108000D01*
X61427885Y-13108000D01*
X61443124Y-13103525D01*
X61444329Y-13102135D01*
X61446000Y-13094452D01*
X61446000Y-10872115D01*
X61441525Y-10856876D01*
X61440135Y-10855671D01*
X61432452Y-10854000D01*
X57822269Y-10854000D01*
X57808392Y-10858075D01*
X57806355Y-10871426D01*
X24393487Y-10871426D01*
X24391272Y-10857694D01*
X24378280Y-10854000D01*
X20772115Y-10854000D01*
X20756876Y-10858475D01*
X20755671Y-10859865D01*
X20754000Y-10867548D01*
X20754000Y-13089885D01*
X20246000Y-13089885D01*
X20246000Y-10472000D01*
X20266002Y-10403879D01*
X20319658Y-10357386D01*
X20372000Y-10346000D01*
X24377731Y-10346000D01*
X24391608Y-10341925D01*
X24393645Y-10328574D01*
X24368945Y-10133050D01*
X24367462Y-10125279D01*
X24290953Y-9827296D01*
X24288508Y-9819770D01*
X24175247Y-9533707D01*
X24171890Y-9526572D01*
X24023670Y-9256961D01*
X24019430Y-9250281D01*
X23838596Y-9001384D01*
X23833557Y-8995293D01*
X23622954Y-8771023D01*
X23617187Y-8765607D01*
X23380132Y-8569498D01*
X23373729Y-8564847D01*
X23113974Y-8400001D01*
X23107041Y-8396190D01*
X23005712Y-8348508D01*
X22952591Y-8301406D01*
X22933368Y-8233061D01*
X22954147Y-8165173D01*
X23008330Y-8119296D01*
X23059360Y-8108500D01*
X59140640Y-8108500D01*
X59208761Y-8128502D01*
G37*
G04 #@! TD.AperFunction*
G04 #@! TD*
M02*
