G04 #@! TF.GenerationSoftware,KiCad,Pcbnew,6.0.7-f9a2dced07~116~ubuntu22.04.1*
G04 #@! TF.CreationDate,2022-09-03T08:45:22-04:00*
G04 #@! TF.ProjectId,clock_b2,636c6f63-6b5f-4623-922e-6b696361645f,rev?*
G04 #@! TF.SameCoordinates,Original*
G04 #@! TF.FileFunction,Copper,L2,Bot*
G04 #@! TF.FilePolarity,Positive*
%FSLAX46Y46*%
G04 Gerber Fmt 4.6, Leading zero omitted, Abs format (unit mm)*
G04 Created by KiCad (PCBNEW 6.0.7-f9a2dced07~116~ubuntu22.04.1) date 2022-09-03 08:45:22*
%MOMM*%
%LPD*%
G01*
G04 APERTURE LIST*
G04 Aperture macros list*
%AMRoundRect*
0 Rectangle with rounded corners*
0 $1 Rounding radius*
0 $2 $3 $4 $5 $6 $7 $8 $9 X,Y pos of 4 corners*
0 Add a 4 corners polygon primitive as box body*
4,1,4,$2,$3,$4,$5,$6,$7,$8,$9,$2,$3,0*
0 Add four circle primitives for the rounded corners*
1,1,$1+$1,$2,$3*
1,1,$1+$1,$4,$5*
1,1,$1+$1,$6,$7*
1,1,$1+$1,$8,$9*
0 Add four rect primitives between the rounded corners*
20,1,$1+$1,$2,$3,$4,$5,0*
20,1,$1+$1,$4,$5,$6,$7,0*
20,1,$1+$1,$6,$7,$8,$9,0*
20,1,$1+$1,$8,$9,$2,$3,0*%
%AMFreePoly0*
4,1,22,0.550000,-0.750000,0.000000,-0.750000,0.000000,-0.745033,-0.079941,-0.743568,-0.215256,-0.701293,-0.333266,-0.622738,-0.424486,-0.514219,-0.481581,-0.384460,-0.499164,-0.250000,-0.500000,-0.250000,-0.500000,0.250000,-0.499164,0.250000,-0.499963,0.256109,-0.478152,0.396186,-0.417904,0.524511,-0.324060,0.630769,-0.204165,0.706417,-0.067858,0.745374,0.000000,0.744959,0.000000,0.750000,
0.550000,0.750000,0.550000,-0.750000,0.550000,-0.750000,$1*%
%AMFreePoly1*
4,1,20,0.000000,0.744959,0.073905,0.744508,0.209726,0.703889,0.328688,0.626782,0.421226,0.519385,0.479903,0.390333,0.500000,0.250000,0.500000,-0.250000,0.499851,-0.262216,0.476331,-0.402017,0.414519,-0.529596,0.319384,-0.634700,0.198574,-0.708877,0.061801,-0.746166,0.000000,-0.745033,0.000000,-0.750000,-0.550000,-0.750000,-0.550000,0.750000,0.000000,0.750000,0.000000,0.744959,
0.000000,0.744959,$1*%
G04 Aperture macros list end*
G04 #@! TA.AperFunction,ComponentPad*
%ADD10O,3.606800X1.803400*%
G04 #@! TD*
G04 #@! TA.AperFunction,ComponentPad*
%ADD11R,2.000000X2.000000*%
G04 #@! TD*
G04 #@! TA.AperFunction,ComponentPad*
%ADD12C,2.000000*%
G04 #@! TD*
G04 #@! TA.AperFunction,ComponentPad*
%ADD13R,3.000000X2.500000*%
G04 #@! TD*
G04 #@! TA.AperFunction,ComponentPad*
%ADD14R,1.700000X1.700000*%
G04 #@! TD*
G04 #@! TA.AperFunction,ComponentPad*
%ADD15O,1.700000X1.700000*%
G04 #@! TD*
G04 #@! TA.AperFunction,ComponentPad*
%ADD16RoundRect,0.250000X-0.600000X0.600000X-0.600000X-0.600000X0.600000X-0.600000X0.600000X0.600000X0*%
G04 #@! TD*
G04 #@! TA.AperFunction,ComponentPad*
%ADD17C,1.700000*%
G04 #@! TD*
G04 #@! TA.AperFunction,ComponentPad*
%ADD18C,1.400000*%
G04 #@! TD*
G04 #@! TA.AperFunction,ComponentPad*
%ADD19O,1.400000X1.400000*%
G04 #@! TD*
G04 #@! TA.AperFunction,ComponentPad*
%ADD20C,1.600000*%
G04 #@! TD*
G04 #@! TA.AperFunction,SMDPad,CuDef*
%ADD21FreePoly0,180.000000*%
G04 #@! TD*
G04 #@! TA.AperFunction,SMDPad,CuDef*
%ADD22R,1.000000X1.500000*%
G04 #@! TD*
G04 #@! TA.AperFunction,SMDPad,CuDef*
%ADD23FreePoly1,180.000000*%
G04 #@! TD*
G04 #@! TA.AperFunction,SMDPad,CuDef*
%ADD24FreePoly0,0.000000*%
G04 #@! TD*
G04 #@! TA.AperFunction,SMDPad,CuDef*
%ADD25FreePoly1,0.000000*%
G04 #@! TD*
G04 #@! TA.AperFunction,ViaPad*
%ADD26C,0.800000*%
G04 #@! TD*
G04 #@! TA.AperFunction,Conductor*
%ADD27C,0.750000*%
G04 #@! TD*
G04 #@! TA.AperFunction,Conductor*
%ADD28C,0.250000*%
G04 #@! TD*
G04 APERTURE END LIST*
D10*
G04 #@! TO.P,SW1,1,1*
G04 #@! TO.N,Board_0-GND1*
X31751600Y-98010800D03*
G04 #@! TO.P,SW1,2,2*
G04 #@! TO.N,Board_0-Net-(R1-Pad2)*
X44248400Y-98010800D03*
G04 #@! TO.P,SW1,3*
G04 #@! TO.N,N/C*
X31751600Y-102989200D03*
G04 #@! TO.P,SW1,4*
X44248400Y-102989200D03*
G04 #@! TD*
D11*
G04 #@! TO.P,SW2,A,A*
G04 #@! TO.N,Board_0-Net-(R3-Pad2)*
X30520000Y-67990000D03*
D12*
G04 #@! TO.P,SW2,B,B*
G04 #@! TO.N,Board_0-Net-(R4-Pad2)*
X30520000Y-72990000D03*
G04 #@! TO.P,SW2,C,C*
G04 #@! TO.N,Board_0-GND1*
X30520000Y-70490000D03*
D13*
G04 #@! TO.P,SW2,MP*
G04 #@! TO.N,N/C*
X38020000Y-64790000D03*
X38020000Y-76190000D03*
D12*
G04 #@! TO.P,SW2,S1,S1*
G04 #@! TO.N,Board_0-Net-(R5-Pad2)*
X45020000Y-67990000D03*
G04 #@! TO.P,SW2,S2,S2*
G04 #@! TO.N,Board_0-GND1*
X45020000Y-72990000D03*
G04 #@! TD*
D14*
G04 #@! TO.P,OLED1,1,GND*
G04 #@! TO.N,Board_0-Net-(JP1-Pad2)*
X34200000Y-17680000D03*
D15*
G04 #@! TO.P,OLED1,2,VCC*
G04 #@! TO.N,Board_0-Net-(JP2-Pad2)*
X36740000Y-17680000D03*
G04 #@! TO.P,OLED1,3,SCL*
G04 #@! TO.N,Board_0-/SCL_JA*
X39280000Y-17680000D03*
G04 #@! TO.P,OLED1,4,SDA*
G04 #@! TO.N,Board_0-/SDA_JA*
X41820000Y-17680000D03*
G04 #@! TD*
D16*
G04 #@! TO.P,J1,1,Pin_1*
G04 #@! TO.N,Board_0-GND1*
X22770000Y-55030000D03*
D17*
G04 #@! TO.P,J1,2,Pin_2*
G04 #@! TO.N,Board_0-/TACT_JA*
X22770000Y-57570000D03*
G04 #@! TO.P,J1,3,Pin_3*
G04 #@! TO.N,Board_0-+5V_1*
X25310000Y-55030000D03*
G04 #@! TO.P,J1,4,Pin_4*
G04 #@! TO.N,Board_0-/ENC_PUSH_JA*
X25310000Y-57570000D03*
G04 #@! TO.P,J1,5,Pin_5*
G04 #@! TO.N,Board_0-/SCL_JA*
X27850000Y-55030000D03*
G04 #@! TO.P,J1,6,Pin_6*
G04 #@! TO.N,Board_0-/ENC_B_JA*
X27850000Y-57570000D03*
G04 #@! TO.P,J1,7,Pin_7*
G04 #@! TO.N,Board_0-/SDA_JA*
X30390000Y-55030000D03*
G04 #@! TO.P,J1,8,Pin_8*
G04 #@! TO.N,Board_0-/ENC_A_JA*
X30390000Y-57570000D03*
G04 #@! TD*
D18*
G04 #@! TO.P,R6,1*
G04 #@! TO.N,Board_0-Net-(R3-Pad2)*
X26910000Y-67730000D03*
D19*
G04 #@! TO.P,R6,2*
G04 #@! TO.N,Board_0-/ENC_A_JA*
X19290000Y-67730000D03*
G04 #@! TD*
D20*
G04 #@! TO.P,C1,1*
G04 #@! TO.N,Board_0-/TACT_JA*
X52270000Y-100830000D03*
G04 #@! TO.P,C1,2*
G04 #@! TO.N,Board_0-GND1*
X49770000Y-100830000D03*
G04 #@! TD*
D21*
G04 #@! TO.P,JP2,1,A*
G04 #@! TO.N,Board_0-GND1*
X37715000Y-22090000D03*
D22*
G04 #@! TO.P,JP2,2,C*
G04 #@! TO.N,Board_0-Net-(JP2-Pad2)*
X36415000Y-22090000D03*
D23*
G04 #@! TO.P,JP2,3,B*
G04 #@! TO.N,Board_0-+5V_1*
X35115000Y-22090000D03*
G04 #@! TD*
D24*
G04 #@! TO.P,JP1,1,A*
G04 #@! TO.N,Board_0-GND1*
X30035000Y-22090000D03*
D22*
G04 #@! TO.P,JP1,2,C*
G04 #@! TO.N,Board_0-Net-(JP1-Pad2)*
X31335000Y-22090000D03*
D25*
G04 #@! TO.P,JP1,3,B*
G04 #@! TO.N,Board_0-+5V_1*
X32635000Y-22090000D03*
G04 #@! TD*
D18*
G04 #@! TO.P,R8,1*
G04 #@! TO.N,Board_0-Net-(R5-Pad2)*
X51040000Y-67810000D03*
D19*
G04 #@! TO.P,R8,2*
G04 #@! TO.N,Board_0-/ENC_PUSH_JA*
X58660000Y-67810000D03*
G04 #@! TD*
D18*
G04 #@! TO.P,R7,1*
G04 #@! TO.N,Board_0-Net-(R4-Pad2)*
X26910000Y-85590000D03*
D19*
G04 #@! TO.P,R7,2*
G04 #@! TO.N,Board_0-/ENC_B_JA*
X19290000Y-85590000D03*
G04 #@! TD*
D18*
G04 #@! TO.P,R2,1*
G04 #@! TO.N,Board_0-Net-(R1-Pad2)*
X49770000Y-97020000D03*
D19*
G04 #@! TO.P,R2,2*
G04 #@! TO.N,Board_0-/TACT_JA*
X57390000Y-97020000D03*
G04 #@! TD*
D18*
G04 #@! TO.P,R1,1*
G04 #@! TO.N,Board_0-+5V_1*
X57390000Y-93210000D03*
D19*
G04 #@! TO.P,R1,2*
G04 #@! TO.N,Board_0-Net-(R1-Pad2)*
X49770000Y-93210000D03*
G04 #@! TD*
D18*
G04 #@! TO.P,R5,1*
G04 #@! TO.N,Board_0-+5V_1*
X58660000Y-64000000D03*
D19*
G04 #@! TO.P,R5,2*
G04 #@! TO.N,Board_0-Net-(R5-Pad2)*
X51040000Y-64000000D03*
G04 #@! TD*
D20*
G04 #@! TO.P,C2,1*
G04 #@! TO.N,Board_0-/ENC_A_JA*
X19290000Y-71540000D03*
G04 #@! TO.P,C2,2*
G04 #@! TO.N,Board_0-GND1*
X21790000Y-71540000D03*
G04 #@! TD*
G04 #@! TO.P,C4,1*
G04 #@! TO.N,Board_0-/ENC_PUSH_JA*
X58660000Y-71620000D03*
G04 #@! TO.P,C4,2*
G04 #@! TO.N,Board_0-GND1*
X56160000Y-71620000D03*
G04 #@! TD*
G04 #@! TO.P,C3,1*
G04 #@! TO.N,Board_0-/ENC_B_JA*
X24370000Y-80510000D03*
G04 #@! TO.P,C3,2*
G04 #@! TO.N,Board_0-GND1*
X26870000Y-80510000D03*
G04 #@! TD*
D18*
G04 #@! TO.P,R3,1*
G04 #@! TO.N,Board_0-+5V_1*
X19290000Y-63920000D03*
D19*
G04 #@! TO.P,R3,2*
G04 #@! TO.N,Board_0-Net-(R3-Pad2)*
X26910000Y-63920000D03*
G04 #@! TD*
D18*
G04 #@! TO.P,R4,1*
G04 #@! TO.N,Board_0-+5V_1*
X19290000Y-75350000D03*
D19*
G04 #@! TO.P,R4,2*
G04 #@! TO.N,Board_0-Net-(R4-Pad2)*
X26910000Y-75350000D03*
G04 #@! TD*
D26*
G04 #@! TO.N,Board_0-GND1*
X38096000Y-19931000D03*
G04 #@! TD*
D27*
G04 #@! TO.N,Board_0-+5V_1*
X29079000Y-31361000D02*
X32635000Y-27805000D01*
X32635000Y-22090000D02*
X35115000Y-22090000D01*
X17639000Y-73699000D02*
X19290000Y-75350000D01*
X17639000Y-65571000D02*
X17639000Y-73699000D01*
X19290000Y-63920000D02*
X17639000Y-65571000D01*
X25310000Y-55030000D02*
X29079000Y-51261000D01*
X32635000Y-27805000D02*
X32635000Y-22090000D01*
X29079000Y-51261000D02*
X29079000Y-31361000D01*
D28*
G04 #@! TO.N,Board_0-/ENC_PUSH_JA*
X30955000Y-63215000D02*
X48805431Y-63215000D01*
X53400431Y-67810000D02*
X58660000Y-67810000D01*
X48805431Y-63215000D02*
X53400431Y-67810000D01*
X25310000Y-57570000D02*
X30955000Y-63215000D01*
G04 #@! TO.N,Board_0-/SCL_JA*
X29940000Y-52940000D02*
X29940000Y-32785302D01*
X27850000Y-55030000D02*
X29940000Y-52940000D01*
X29940000Y-32785302D02*
X39280000Y-23445302D01*
X39280000Y-23445302D02*
X39280000Y-17680000D01*
G04 #@! TO.N,Board_0-/SDA_JA*
X30390000Y-55030000D02*
X30390000Y-32971000D01*
X30390000Y-32971000D02*
X41820000Y-21541000D01*
X41820000Y-21541000D02*
X41820000Y-17680000D01*
G04 #@! TO.N,Board_0-/TACT_JA*
X39844511Y-79474511D02*
X57390000Y-97020000D01*
X22770000Y-57570000D02*
X39844511Y-74644511D01*
X39844511Y-74644511D02*
X39844511Y-79474511D01*
D27*
G04 #@! TO.N,Board_0-Net-(JP1-Pad2)*
X31335000Y-22090000D02*
X31335000Y-20545000D01*
X31335000Y-20545000D02*
X34200000Y-17680000D01*
G04 #@! TO.N,Board_0-Net-(JP2-Pad2)*
X36415000Y-22090000D02*
X36415000Y-18005000D01*
D28*
G04 #@! TO.N,Board_0-Net-(R1-Pad2)*
X48779200Y-98010800D02*
X49770000Y-97020000D01*
X44248400Y-98010800D02*
X48779200Y-98010800D01*
G04 #@! TO.N,Board_0-Net-(R3-Pad2)*
X26910000Y-67730000D02*
X31530000Y-67730000D01*
G04 #@! TO.N,Board_0-Net-(R4-Pad2)*
X28160000Y-75350000D02*
X30520000Y-72990000D01*
X26910000Y-75350000D02*
X28160000Y-75350000D01*
G04 #@! TO.N,Board_0-Net-(R5-Pad2)*
X45020000Y-67990000D02*
X50860000Y-67990000D01*
G04 #@! TD*
G04 #@! TA.AperFunction,Conductor*
G04 #@! TO.N,Board_0-GND1*
G36*
X60433621Y-15528502D02*
G01*
X60480114Y-15582158D01*
X60491500Y-15634500D01*
X60491500Y-107365500D01*
X60471498Y-107433621D01*
X60417842Y-107480114D01*
X60365500Y-107491500D01*
X15634500Y-107491500D01*
X15566379Y-107471498D01*
X15519886Y-107417842D01*
X15508500Y-107365500D01*
X15508500Y-102922530D01*
X29436172Y-102922530D01*
X29445150Y-103161682D01*
X29494295Y-103395901D01*
X29582200Y-103618492D01*
X29706353Y-103823089D01*
X29709850Y-103827119D01*
X29796527Y-103927005D01*
X29863203Y-104003843D01*
X29867329Y-104007226D01*
X29867333Y-104007230D01*
X30044138Y-104152201D01*
X30044144Y-104152205D01*
X30048266Y-104155585D01*
X30052902Y-104158224D01*
X30052905Y-104158226D01*
X30230743Y-104259457D01*
X30256250Y-104273977D01*
X30481208Y-104355632D01*
X30486457Y-104356581D01*
X30486460Y-104356582D01*
X30567997Y-104371326D01*
X30716709Y-104398218D01*
X30720848Y-104398413D01*
X30720855Y-104398414D01*
X30740285Y-104399330D01*
X30740294Y-104399330D01*
X30741774Y-104399400D01*
X32713393Y-104399400D01*
X32782934Y-104393499D01*
X32886452Y-104384716D01*
X32886456Y-104384715D01*
X32891763Y-104384265D01*
X32896918Y-104382927D01*
X32896924Y-104382926D01*
X33118238Y-104325484D01*
X33118242Y-104325483D01*
X33123407Y-104324142D01*
X33128273Y-104321950D01*
X33128276Y-104321949D01*
X33336737Y-104228044D01*
X33341610Y-104225849D01*
X33540132Y-104092196D01*
X33713296Y-103927005D01*
X33856152Y-103735000D01*
X33917915Y-103613523D01*
X33962197Y-103526426D01*
X33962197Y-103526425D01*
X33964615Y-103521670D01*
X34035583Y-103293115D01*
X34052312Y-103166899D01*
X34066328Y-103061153D01*
X34066328Y-103061150D01*
X34067028Y-103055870D01*
X34062022Y-102922530D01*
X41932972Y-102922530D01*
X41941950Y-103161682D01*
X41991095Y-103395901D01*
X42079000Y-103618492D01*
X42203153Y-103823089D01*
X42206650Y-103827119D01*
X42293327Y-103927005D01*
X42360003Y-104003843D01*
X42364129Y-104007226D01*
X42364133Y-104007230D01*
X42540938Y-104152201D01*
X42540944Y-104152205D01*
X42545066Y-104155585D01*
X42549702Y-104158224D01*
X42549705Y-104158226D01*
X42727543Y-104259457D01*
X42753050Y-104273977D01*
X42978008Y-104355632D01*
X42983257Y-104356581D01*
X42983260Y-104356582D01*
X43064797Y-104371326D01*
X43213509Y-104398218D01*
X43217648Y-104398413D01*
X43217655Y-104398414D01*
X43237085Y-104399330D01*
X43237094Y-104399330D01*
X43238574Y-104399400D01*
X45210193Y-104399400D01*
X45279734Y-104393499D01*
X45383252Y-104384716D01*
X45383256Y-104384715D01*
X45388563Y-104384265D01*
X45393718Y-104382927D01*
X45393724Y-104382926D01*
X45615038Y-104325484D01*
X45615042Y-104325483D01*
X45620207Y-104324142D01*
X45625073Y-104321950D01*
X45625076Y-104321949D01*
X45833537Y-104228044D01*
X45838410Y-104225849D01*
X46036932Y-104092196D01*
X46210096Y-103927005D01*
X46352952Y-103735000D01*
X46414715Y-103613523D01*
X46458997Y-103526426D01*
X46458997Y-103526425D01*
X46461415Y-103521670D01*
X46532383Y-103293115D01*
X46549112Y-103166899D01*
X46563128Y-103061153D01*
X46563128Y-103061150D01*
X46563828Y-103055870D01*
X46554850Y-102816718D01*
X46505705Y-102582499D01*
X46417800Y-102359908D01*
X46293647Y-102155311D01*
X46212642Y-102061961D01*
X46140297Y-101978590D01*
X46140295Y-101978588D01*
X46136797Y-101974557D01*
X46132671Y-101971174D01*
X46132667Y-101971170D01*
X46065458Y-101916062D01*
X49048493Y-101916062D01*
X49057789Y-101928077D01*
X49108994Y-101963931D01*
X49118489Y-101969414D01*
X49315947Y-102061490D01*
X49326239Y-102065236D01*
X49536688Y-102121625D01*
X49547481Y-102123528D01*
X49764525Y-102142517D01*
X49775475Y-102142517D01*
X49992519Y-102123528D01*
X50003312Y-102121625D01*
X50213761Y-102065236D01*
X50224053Y-102061490D01*
X50421511Y-101969414D01*
X50431006Y-101963931D01*
X50483048Y-101927491D01*
X50491424Y-101917012D01*
X50484356Y-101903566D01*
X49782812Y-101202022D01*
X49768868Y-101194408D01*
X49767035Y-101194539D01*
X49760420Y-101198790D01*
X49054923Y-101904287D01*
X49048493Y-101916062D01*
X46065458Y-101916062D01*
X45955862Y-101826199D01*
X45955856Y-101826195D01*
X45951734Y-101822815D01*
X45947098Y-101820176D01*
X45947095Y-101820174D01*
X45748393Y-101707066D01*
X45743750Y-101704423D01*
X45518792Y-101622768D01*
X45513543Y-101621819D01*
X45513540Y-101621818D01*
X45432003Y-101607074D01*
X45283291Y-101580182D01*
X45279152Y-101579987D01*
X45279145Y-101579986D01*
X45259715Y-101579070D01*
X45259706Y-101579070D01*
X45258226Y-101579000D01*
X43286607Y-101579000D01*
X43217066Y-101584901D01*
X43113548Y-101593684D01*
X43113544Y-101593685D01*
X43108237Y-101594135D01*
X43103082Y-101595473D01*
X43103076Y-101595474D01*
X42881762Y-101652916D01*
X42881758Y-101652917D01*
X42876593Y-101654258D01*
X42871727Y-101656450D01*
X42871724Y-101656451D01*
X42759363Y-101707066D01*
X42658390Y-101752551D01*
X42459868Y-101886204D01*
X42286704Y-102051395D01*
X42283521Y-102055672D01*
X42283521Y-102055673D01*
X42234451Y-102121625D01*
X42143848Y-102243400D01*
X42141432Y-102248151D01*
X42141430Y-102248155D01*
X42037803Y-102451974D01*
X42035385Y-102456730D01*
X41964417Y-102685285D01*
X41963716Y-102690574D01*
X41946997Y-102816718D01*
X41932972Y-102922530D01*
X34062022Y-102922530D01*
X34058050Y-102816718D01*
X34008905Y-102582499D01*
X33921000Y-102359908D01*
X33796847Y-102155311D01*
X33715842Y-102061961D01*
X33643497Y-101978590D01*
X33643495Y-101978588D01*
X33639997Y-101974557D01*
X33635871Y-101971174D01*
X33635867Y-101971170D01*
X33459062Y-101826199D01*
X33459056Y-101826195D01*
X33454934Y-101822815D01*
X33450298Y-101820176D01*
X33450295Y-101820174D01*
X33251593Y-101707066D01*
X33246950Y-101704423D01*
X33021992Y-101622768D01*
X33016743Y-101621819D01*
X33016740Y-101621818D01*
X32935203Y-101607074D01*
X32786491Y-101580182D01*
X32782352Y-101579987D01*
X32782345Y-101579986D01*
X32762915Y-101579070D01*
X32762906Y-101579070D01*
X32761426Y-101579000D01*
X30789807Y-101579000D01*
X30720266Y-101584901D01*
X30616748Y-101593684D01*
X30616744Y-101593685D01*
X30611437Y-101594135D01*
X30606282Y-101595473D01*
X30606276Y-101595474D01*
X30384962Y-101652916D01*
X30384958Y-101652917D01*
X30379793Y-101654258D01*
X30374927Y-101656450D01*
X30374924Y-101656451D01*
X30262563Y-101707066D01*
X30161590Y-101752551D01*
X29963068Y-101886204D01*
X29789904Y-102051395D01*
X29786721Y-102055672D01*
X29786721Y-102055673D01*
X29737651Y-102121625D01*
X29647048Y-102243400D01*
X29644632Y-102248151D01*
X29644630Y-102248155D01*
X29541003Y-102451974D01*
X29538585Y-102456730D01*
X29467617Y-102685285D01*
X29466916Y-102690574D01*
X29450197Y-102816718D01*
X29436172Y-102922530D01*
X15508500Y-102922530D01*
X15508500Y-100835475D01*
X48457483Y-100835475D01*
X48476472Y-101052519D01*
X48478375Y-101063312D01*
X48534764Y-101273761D01*
X48538510Y-101284053D01*
X48630586Y-101481511D01*
X48636069Y-101491006D01*
X48672509Y-101543048D01*
X48682988Y-101551424D01*
X48696434Y-101544356D01*
X49397978Y-100842812D01*
X49404356Y-100831132D01*
X50134408Y-100831132D01*
X50134539Y-100832965D01*
X50138790Y-100839580D01*
X50844287Y-101545077D01*
X50856062Y-101551507D01*
X50868077Y-101542211D01*
X50903934Y-101491002D01*
X50910591Y-101479472D01*
X50961973Y-101430479D01*
X51031687Y-101417042D01*
X51097598Y-101443429D01*
X51128829Y-101479472D01*
X51130153Y-101481765D01*
X51132477Y-101486749D01*
X51135631Y-101491253D01*
X51248829Y-101652916D01*
X51263802Y-101674300D01*
X51425700Y-101836198D01*
X51430208Y-101839355D01*
X51430211Y-101839357D01*
X51492860Y-101883224D01*
X51613251Y-101967523D01*
X51618233Y-101969846D01*
X51618238Y-101969849D01*
X51814765Y-102061490D01*
X51820757Y-102064284D01*
X51826065Y-102065706D01*
X51826067Y-102065707D01*
X52036598Y-102122119D01*
X52036600Y-102122119D01*
X52041913Y-102123543D01*
X52270000Y-102143498D01*
X52498087Y-102123543D01*
X52503400Y-102122119D01*
X52503402Y-102122119D01*
X52713933Y-102065707D01*
X52713935Y-102065706D01*
X52719243Y-102064284D01*
X52725235Y-102061490D01*
X52921762Y-101969849D01*
X52921767Y-101969846D01*
X52926749Y-101967523D01*
X53047140Y-101883224D01*
X53109789Y-101839357D01*
X53109792Y-101839355D01*
X53114300Y-101836198D01*
X53276198Y-101674300D01*
X53291172Y-101652916D01*
X53404366Y-101491257D01*
X53407523Y-101486749D01*
X53409846Y-101481767D01*
X53409849Y-101481762D01*
X53501961Y-101284225D01*
X53501961Y-101284224D01*
X53504284Y-101279243D01*
X53524976Y-101202022D01*
X53562119Y-101063402D01*
X53562119Y-101063400D01*
X53563543Y-101058087D01*
X53583498Y-100830000D01*
X53563543Y-100601913D01*
X53526981Y-100465461D01*
X53505707Y-100386067D01*
X53505706Y-100386065D01*
X53504284Y-100380757D01*
X53501961Y-100375775D01*
X53409849Y-100178238D01*
X53409846Y-100178233D01*
X53407523Y-100173251D01*
X53276198Y-99985700D01*
X53114300Y-99823802D01*
X53109792Y-99820645D01*
X53109789Y-99820643D01*
X52983920Y-99732509D01*
X52926749Y-99692477D01*
X52921767Y-99690154D01*
X52921762Y-99690151D01*
X52724225Y-99598039D01*
X52724224Y-99598039D01*
X52719243Y-99595716D01*
X52713935Y-99594294D01*
X52713933Y-99594293D01*
X52503402Y-99537881D01*
X52503400Y-99537881D01*
X52498087Y-99536457D01*
X52270000Y-99516502D01*
X52041913Y-99536457D01*
X52036600Y-99537881D01*
X52036598Y-99537881D01*
X51826067Y-99594293D01*
X51826065Y-99594294D01*
X51820757Y-99595716D01*
X51815776Y-99598039D01*
X51815775Y-99598039D01*
X51618238Y-99690151D01*
X51618233Y-99690154D01*
X51613251Y-99692477D01*
X51556080Y-99732509D01*
X51430211Y-99820643D01*
X51430208Y-99820645D01*
X51425700Y-99823802D01*
X51263802Y-99985700D01*
X51132477Y-100173251D01*
X51130153Y-100178235D01*
X51128829Y-100180528D01*
X51077447Y-100229521D01*
X51007733Y-100242957D01*
X50941822Y-100216571D01*
X50910591Y-100180528D01*
X50903934Y-100168998D01*
X50867491Y-100116952D01*
X50857012Y-100108576D01*
X50843566Y-100115644D01*
X50142022Y-100817188D01*
X50134408Y-100831132D01*
X49404356Y-100831132D01*
X49405592Y-100828868D01*
X49405461Y-100827035D01*
X49401210Y-100820420D01*
X48695713Y-100114923D01*
X48683938Y-100108493D01*
X48671923Y-100117789D01*
X48636069Y-100168994D01*
X48630586Y-100178489D01*
X48538510Y-100375947D01*
X48534764Y-100386239D01*
X48478375Y-100596688D01*
X48476472Y-100607481D01*
X48457483Y-100824525D01*
X48457483Y-100835475D01*
X15508500Y-100835475D01*
X15508500Y-99742988D01*
X49048576Y-99742988D01*
X49055644Y-99756434D01*
X49757188Y-100457978D01*
X49771132Y-100465592D01*
X49772965Y-100465461D01*
X49779580Y-100461210D01*
X50485077Y-99755713D01*
X50491507Y-99743938D01*
X50482211Y-99731923D01*
X50431006Y-99696069D01*
X50421511Y-99690586D01*
X50224053Y-99598510D01*
X50213761Y-99594764D01*
X50003312Y-99538375D01*
X49992519Y-99536472D01*
X49775475Y-99517483D01*
X49764525Y-99517483D01*
X49547481Y-99536472D01*
X49536688Y-99538375D01*
X49326239Y-99594764D01*
X49315947Y-99598510D01*
X49118489Y-99690586D01*
X49108994Y-99696069D01*
X49056952Y-99732509D01*
X49048576Y-99742988D01*
X15508500Y-99742988D01*
X15508500Y-98279380D01*
X29465825Y-98279380D01*
X29493679Y-98412130D01*
X29496739Y-98422327D01*
X29580687Y-98634899D01*
X29585421Y-98644436D01*
X29703988Y-98839829D01*
X29710259Y-98848427D01*
X29860049Y-99021045D01*
X29867685Y-99028471D01*
X30044422Y-99173387D01*
X30053189Y-99179412D01*
X30251817Y-99292478D01*
X30261481Y-99296943D01*
X30476324Y-99374927D01*
X30486591Y-99377698D01*
X30712672Y-99418579D01*
X30720902Y-99419514D01*
X30740332Y-99420430D01*
X30743307Y-99420500D01*
X31479485Y-99420500D01*
X31494724Y-99416025D01*
X31495929Y-99414635D01*
X31497600Y-99406952D01*
X31497600Y-99402385D01*
X32005600Y-99402385D01*
X32010075Y-99417624D01*
X32011465Y-99418829D01*
X32019148Y-99420500D01*
X32710709Y-99420500D01*
X32716017Y-99420275D01*
X32886367Y-99405821D01*
X32896839Y-99404031D01*
X33118070Y-99346611D01*
X33128110Y-99343076D01*
X33336505Y-99249200D01*
X33345791Y-99244031D01*
X33535390Y-99116385D01*
X33543676Y-99109724D01*
X33709063Y-98951952D01*
X33716103Y-98943995D01*
X33852540Y-98760617D01*
X33858144Y-98751580D01*
X33961732Y-98547837D01*
X33965732Y-98537986D01*
X34033512Y-98319699D01*
X34035794Y-98309320D01*
X34039314Y-98282758D01*
X34037117Y-98268593D01*
X34023933Y-98264800D01*
X32023715Y-98264800D01*
X32008476Y-98269275D01*
X32007271Y-98270665D01*
X32005600Y-98278348D01*
X32005600Y-99402385D01*
X31497600Y-99402385D01*
X31497600Y-98282915D01*
X31493125Y-98267676D01*
X31491735Y-98266471D01*
X31484052Y-98264800D01*
X29480881Y-98264800D01*
X29467350Y-98268773D01*
X29465825Y-98279380D01*
X15508500Y-98279380D01*
X15508500Y-97944130D01*
X41932972Y-97944130D01*
X41941950Y-98183282D01*
X41991095Y-98417501D01*
X42079000Y-98640092D01*
X42203153Y-98844689D01*
X42206650Y-98848719D01*
X42356187Y-99021045D01*
X42360003Y-99025443D01*
X42364129Y-99028826D01*
X42364133Y-99028830D01*
X42540938Y-99173801D01*
X42540944Y-99173805D01*
X42545066Y-99177185D01*
X42549702Y-99179824D01*
X42549705Y-99179826D01*
X42727543Y-99281057D01*
X42753050Y-99295577D01*
X42978008Y-99377232D01*
X42983257Y-99378181D01*
X42983260Y-99378182D01*
X43064797Y-99392926D01*
X43213509Y-99419818D01*
X43217648Y-99420013D01*
X43217655Y-99420014D01*
X43237085Y-99420930D01*
X43237094Y-99420930D01*
X43238574Y-99421000D01*
X45210193Y-99421000D01*
X45285206Y-99414635D01*
X45383252Y-99406316D01*
X45383256Y-99406315D01*
X45388563Y-99405865D01*
X45393718Y-99404527D01*
X45393724Y-99404526D01*
X45615038Y-99347084D01*
X45615042Y-99347083D01*
X45620207Y-99345742D01*
X45625073Y-99343550D01*
X45625076Y-99343549D01*
X45833537Y-99249644D01*
X45838410Y-99247449D01*
X46036932Y-99113796D01*
X46210096Y-98948605D01*
X46352952Y-98756600D01*
X46355505Y-98751580D01*
X46375020Y-98713196D01*
X46423723Y-98661538D01*
X46487337Y-98644300D01*
X48700433Y-98644300D01*
X48711616Y-98644827D01*
X48719109Y-98646502D01*
X48727035Y-98646253D01*
X48727036Y-98646253D01*
X48787186Y-98644362D01*
X48791145Y-98644300D01*
X48819056Y-98644300D01*
X48822991Y-98643803D01*
X48823056Y-98643795D01*
X48834893Y-98642862D01*
X48867151Y-98641848D01*
X48871170Y-98641722D01*
X48879089Y-98641473D01*
X48898543Y-98635821D01*
X48917900Y-98631813D01*
X48930130Y-98630268D01*
X48930131Y-98630268D01*
X48937997Y-98629274D01*
X48945368Y-98626355D01*
X48945370Y-98626355D01*
X48979112Y-98612996D01*
X48990342Y-98609151D01*
X49025183Y-98599029D01*
X49025184Y-98599029D01*
X49032793Y-98596818D01*
X49039612Y-98592785D01*
X49039617Y-98592783D01*
X49050228Y-98586507D01*
X49067976Y-98577812D01*
X49086817Y-98570352D01*
X49122587Y-98544364D01*
X49132507Y-98537848D01*
X49163735Y-98519380D01*
X49163738Y-98519378D01*
X49170562Y-98515342D01*
X49184883Y-98501021D01*
X49199917Y-98488180D01*
X49209894Y-98480931D01*
X49216307Y-98476272D01*
X49221357Y-98470168D01*
X49221362Y-98470163D01*
X49244493Y-98442202D01*
X49252483Y-98433421D01*
X49438463Y-98247442D01*
X49500775Y-98213417D01*
X49549441Y-98212453D01*
X49554035Y-98213263D01*
X49559345Y-98214686D01*
X49564818Y-98215165D01*
X49564819Y-98215165D01*
X49764525Y-98232637D01*
X49770000Y-98233116D01*
X49980655Y-98214686D01*
X49985968Y-98213262D01*
X49985970Y-98213262D01*
X50179600Y-98161379D01*
X50179602Y-98161378D01*
X50184910Y-98159956D01*
X50189892Y-98157633D01*
X50371577Y-98072912D01*
X50371580Y-98072910D01*
X50376558Y-98070589D01*
X50549776Y-97949301D01*
X50699301Y-97799776D01*
X50820589Y-97626558D01*
X50828558Y-97609470D01*
X50907633Y-97439892D01*
X50907634Y-97439891D01*
X50909956Y-97434910D01*
X50941640Y-97316666D01*
X50963262Y-97235970D01*
X50963262Y-97235968D01*
X50964686Y-97230655D01*
X50983116Y-97020000D01*
X50964686Y-96809345D01*
X50948992Y-96750773D01*
X50911379Y-96610400D01*
X50911378Y-96610398D01*
X50909956Y-96605090D01*
X50820589Y-96413442D01*
X50699301Y-96240224D01*
X50549776Y-96090699D01*
X50376558Y-95969411D01*
X50371580Y-95967090D01*
X50371577Y-95967088D01*
X50189892Y-95882367D01*
X50189891Y-95882366D01*
X50184910Y-95880044D01*
X50179602Y-95878622D01*
X50179600Y-95878621D01*
X49985970Y-95826738D01*
X49985968Y-95826738D01*
X49980655Y-95825314D01*
X49770000Y-95806884D01*
X49559345Y-95825314D01*
X49554032Y-95826738D01*
X49554030Y-95826738D01*
X49360400Y-95878621D01*
X49360398Y-95878622D01*
X49355090Y-95880044D01*
X49350109Y-95882366D01*
X49350108Y-95882367D01*
X49168423Y-95967088D01*
X49168420Y-95967090D01*
X49163442Y-95969411D01*
X48990224Y-96090699D01*
X48840699Y-96240224D01*
X48719411Y-96413442D01*
X48630044Y-96605090D01*
X48628622Y-96610398D01*
X48628621Y-96610400D01*
X48591008Y-96750773D01*
X48575314Y-96809345D01*
X48556884Y-97020000D01*
X48557363Y-97025475D01*
X48574835Y-97225175D01*
X48575314Y-97230655D01*
X48575406Y-97230998D01*
X48567714Y-97299978D01*
X48522948Y-97355082D01*
X48451497Y-97377300D01*
X46486172Y-97377300D01*
X46418051Y-97357298D01*
X46378453Y-97316666D01*
X46350147Y-97270020D01*
X46293647Y-97176911D01*
X46207186Y-97077273D01*
X46140297Y-97000190D01*
X46140295Y-97000188D01*
X46136797Y-96996157D01*
X46132671Y-96992774D01*
X46132667Y-96992770D01*
X45955862Y-96847799D01*
X45955856Y-96847795D01*
X45951734Y-96844415D01*
X45947098Y-96841776D01*
X45947095Y-96841774D01*
X45748393Y-96728666D01*
X45743750Y-96726023D01*
X45518792Y-96644368D01*
X45513543Y-96643419D01*
X45513540Y-96643418D01*
X45432003Y-96628674D01*
X45283291Y-96601782D01*
X45279152Y-96601587D01*
X45279145Y-96601586D01*
X45259715Y-96600670D01*
X45259706Y-96600670D01*
X45258226Y-96600600D01*
X43286607Y-96600600D01*
X43217066Y-96606501D01*
X43113548Y-96615284D01*
X43113544Y-96615285D01*
X43108237Y-96615735D01*
X43103082Y-96617073D01*
X43103076Y-96617074D01*
X42881762Y-96674516D01*
X42881758Y-96674517D01*
X42876593Y-96675858D01*
X42871727Y-96678050D01*
X42871724Y-96678051D01*
X42759363Y-96728666D01*
X42658390Y-96774151D01*
X42459868Y-96907804D01*
X42286704Y-97072995D01*
X42143848Y-97265000D01*
X42141432Y-97269751D01*
X42141430Y-97269755D01*
X42081972Y-97386701D01*
X42035385Y-97478330D01*
X41964417Y-97706885D01*
X41963716Y-97712174D01*
X41958579Y-97750935D01*
X41932972Y-97944130D01*
X15508500Y-97944130D01*
X15508500Y-97738842D01*
X29463886Y-97738842D01*
X29466083Y-97753007D01*
X29479267Y-97756800D01*
X31479485Y-97756800D01*
X31494724Y-97752325D01*
X31495929Y-97750935D01*
X31497600Y-97743252D01*
X31497600Y-97738685D01*
X32005600Y-97738685D01*
X32010075Y-97753924D01*
X32011465Y-97755129D01*
X32019148Y-97756800D01*
X34022319Y-97756800D01*
X34035850Y-97752827D01*
X34037375Y-97742220D01*
X34009521Y-97609470D01*
X34006461Y-97599273D01*
X33922513Y-97386701D01*
X33917779Y-97377164D01*
X33799212Y-97181771D01*
X33792941Y-97173173D01*
X33643151Y-97000555D01*
X33635515Y-96993129D01*
X33458778Y-96848213D01*
X33450011Y-96842188D01*
X33251383Y-96729122D01*
X33241719Y-96724657D01*
X33026876Y-96646673D01*
X33016609Y-96643902D01*
X32790528Y-96603021D01*
X32782298Y-96602086D01*
X32762868Y-96601170D01*
X32759893Y-96601100D01*
X32023715Y-96601100D01*
X32008476Y-96605575D01*
X32007271Y-96606965D01*
X32005600Y-96614648D01*
X32005600Y-97738685D01*
X31497600Y-97738685D01*
X31497600Y-96619215D01*
X31493125Y-96603976D01*
X31491735Y-96602771D01*
X31484052Y-96601100D01*
X30792491Y-96601100D01*
X30787183Y-96601325D01*
X30616833Y-96615779D01*
X30606361Y-96617569D01*
X30385130Y-96674989D01*
X30375090Y-96678524D01*
X30166695Y-96772400D01*
X30157409Y-96777569D01*
X29967810Y-96905215D01*
X29959524Y-96911876D01*
X29794137Y-97069648D01*
X29787097Y-97077605D01*
X29650660Y-97260983D01*
X29645056Y-97270020D01*
X29541468Y-97473763D01*
X29537468Y-97483614D01*
X29469688Y-97701901D01*
X29467406Y-97712280D01*
X29463886Y-97738842D01*
X15508500Y-97738842D01*
X15508500Y-93210000D01*
X48556884Y-93210000D01*
X48575314Y-93420655D01*
X48630044Y-93624910D01*
X48719411Y-93816558D01*
X48840699Y-93989776D01*
X48990224Y-94139301D01*
X49163442Y-94260589D01*
X49168420Y-94262910D01*
X49168423Y-94262912D01*
X49350108Y-94347633D01*
X49355090Y-94349956D01*
X49360398Y-94351378D01*
X49360400Y-94351379D01*
X49554030Y-94403262D01*
X49554032Y-94403262D01*
X49559345Y-94404686D01*
X49770000Y-94423116D01*
X49980655Y-94404686D01*
X49985968Y-94403262D01*
X49985970Y-94403262D01*
X50179600Y-94351379D01*
X50179602Y-94351378D01*
X50184910Y-94349956D01*
X50189892Y-94347633D01*
X50371577Y-94262912D01*
X50371580Y-94262910D01*
X50376558Y-94260589D01*
X50549776Y-94139301D01*
X50699301Y-93989776D01*
X50820589Y-93816558D01*
X50909956Y-93624910D01*
X50964686Y-93420655D01*
X50983116Y-93210000D01*
X50964686Y-92999345D01*
X50909956Y-92795090D01*
X50820589Y-92603442D01*
X50699301Y-92430224D01*
X50549776Y-92280699D01*
X50376558Y-92159411D01*
X50371580Y-92157090D01*
X50371577Y-92157088D01*
X50189892Y-92072367D01*
X50189891Y-92072366D01*
X50184910Y-92070044D01*
X50179602Y-92068622D01*
X50179600Y-92068621D01*
X49985970Y-92016738D01*
X49985968Y-92016738D01*
X49980655Y-92015314D01*
X49770000Y-91996884D01*
X49559345Y-92015314D01*
X49554032Y-92016738D01*
X49554030Y-92016738D01*
X49360400Y-92068621D01*
X49360398Y-92068622D01*
X49355090Y-92070044D01*
X49350109Y-92072366D01*
X49350108Y-92072367D01*
X49168423Y-92157088D01*
X49168420Y-92157090D01*
X49163442Y-92159411D01*
X48990224Y-92280699D01*
X48840699Y-92430224D01*
X48719411Y-92603442D01*
X48630044Y-92795090D01*
X48575314Y-92999345D01*
X48556884Y-93210000D01*
X15508500Y-93210000D01*
X15508500Y-85590000D01*
X18076884Y-85590000D01*
X18095314Y-85800655D01*
X18150044Y-86004910D01*
X18239411Y-86196558D01*
X18360699Y-86369776D01*
X18510224Y-86519301D01*
X18683442Y-86640589D01*
X18688420Y-86642910D01*
X18688423Y-86642912D01*
X18870108Y-86727633D01*
X18875090Y-86729956D01*
X18880398Y-86731378D01*
X18880400Y-86731379D01*
X19074030Y-86783262D01*
X19074032Y-86783262D01*
X19079345Y-86784686D01*
X19290000Y-86803116D01*
X19500655Y-86784686D01*
X19505968Y-86783262D01*
X19505970Y-86783262D01*
X19699600Y-86731379D01*
X19699602Y-86731378D01*
X19704910Y-86729956D01*
X19709892Y-86727633D01*
X19891577Y-86642912D01*
X19891580Y-86642910D01*
X19896558Y-86640589D01*
X20069776Y-86519301D01*
X20219301Y-86369776D01*
X20340589Y-86196558D01*
X20429956Y-86004910D01*
X20484686Y-85800655D01*
X20503116Y-85590000D01*
X25696884Y-85590000D01*
X25715314Y-85800655D01*
X25770044Y-86004910D01*
X25859411Y-86196558D01*
X25980699Y-86369776D01*
X26130224Y-86519301D01*
X26303442Y-86640589D01*
X26308420Y-86642910D01*
X26308423Y-86642912D01*
X26490108Y-86727633D01*
X26495090Y-86729956D01*
X26500398Y-86731378D01*
X26500400Y-86731379D01*
X26694030Y-86783262D01*
X26694032Y-86783262D01*
X26699345Y-86784686D01*
X26910000Y-86803116D01*
X27120655Y-86784686D01*
X27125968Y-86783262D01*
X27125970Y-86783262D01*
X27319600Y-86731379D01*
X27319602Y-86731378D01*
X27324910Y-86729956D01*
X27329892Y-86727633D01*
X27511577Y-86642912D01*
X27511580Y-86642910D01*
X27516558Y-86640589D01*
X27689776Y-86519301D01*
X27839301Y-86369776D01*
X27960589Y-86196558D01*
X28049956Y-86004910D01*
X28104686Y-85800655D01*
X28123116Y-85590000D01*
X28104686Y-85379345D01*
X28049956Y-85175090D01*
X27960589Y-84983442D01*
X27839301Y-84810224D01*
X27689776Y-84660699D01*
X27516558Y-84539411D01*
X27511580Y-84537090D01*
X27511577Y-84537088D01*
X27329892Y-84452367D01*
X27329891Y-84452366D01*
X27324910Y-84450044D01*
X27319602Y-84448622D01*
X27319600Y-84448621D01*
X27125970Y-84396738D01*
X27125968Y-84396738D01*
X27120655Y-84395314D01*
X26910000Y-84376884D01*
X26699345Y-84395314D01*
X26694032Y-84396738D01*
X26694030Y-84396738D01*
X26500400Y-84448621D01*
X26500398Y-84448622D01*
X26495090Y-84450044D01*
X26490109Y-84452366D01*
X26490108Y-84452367D01*
X26308423Y-84537088D01*
X26308420Y-84537090D01*
X26303442Y-84539411D01*
X26130224Y-84660699D01*
X25980699Y-84810224D01*
X25859411Y-84983442D01*
X25770044Y-85175090D01*
X25715314Y-85379345D01*
X25696884Y-85590000D01*
X20503116Y-85590000D01*
X20484686Y-85379345D01*
X20429956Y-85175090D01*
X20340589Y-84983442D01*
X20219301Y-84810224D01*
X20069776Y-84660699D01*
X19896558Y-84539411D01*
X19891580Y-84537090D01*
X19891577Y-84537088D01*
X19709892Y-84452367D01*
X19709891Y-84452366D01*
X19704910Y-84450044D01*
X19699602Y-84448622D01*
X19699600Y-84448621D01*
X19505970Y-84396738D01*
X19505968Y-84396738D01*
X19500655Y-84395314D01*
X19290000Y-84376884D01*
X19079345Y-84395314D01*
X19074032Y-84396738D01*
X19074030Y-84396738D01*
X18880400Y-84448621D01*
X18880398Y-84448622D01*
X18875090Y-84450044D01*
X18870109Y-84452366D01*
X18870108Y-84452367D01*
X18688423Y-84537088D01*
X18688420Y-84537090D01*
X18683442Y-84539411D01*
X18510224Y-84660699D01*
X18360699Y-84810224D01*
X18239411Y-84983442D01*
X18150044Y-85175090D01*
X18095314Y-85379345D01*
X18076884Y-85590000D01*
X15508500Y-85590000D01*
X15508500Y-80632703D01*
X15890743Y-80632703D01*
X15928268Y-80917734D01*
X15929401Y-80921874D01*
X15929401Y-80921876D01*
X15940939Y-80964053D01*
X16004129Y-81195036D01*
X16005813Y-81198984D01*
X16073724Y-81358197D01*
X16116923Y-81459476D01*
X16152761Y-81519357D01*
X16230599Y-81649414D01*
X16264561Y-81706161D01*
X16444313Y-81930528D01*
X16652851Y-82128423D01*
X16886317Y-82296186D01*
X16890112Y-82298195D01*
X16890113Y-82298196D01*
X16911869Y-82309715D01*
X17140392Y-82430712D01*
X17410373Y-82529511D01*
X17691264Y-82590755D01*
X17719841Y-82593004D01*
X17914282Y-82608307D01*
X17914291Y-82608307D01*
X17916739Y-82608500D01*
X18072271Y-82608500D01*
X18074407Y-82608354D01*
X18074418Y-82608354D01*
X18282548Y-82594165D01*
X18282554Y-82594164D01*
X18286825Y-82593873D01*
X18291020Y-82593004D01*
X18291022Y-82593004D01*
X18427583Y-82564724D01*
X18568342Y-82535574D01*
X18839343Y-82439607D01*
X19094812Y-82307750D01*
X19098313Y-82305289D01*
X19098317Y-82305287D01*
X19212417Y-82225096D01*
X19330023Y-82142441D01*
X19540622Y-81946740D01*
X19722713Y-81724268D01*
X19872927Y-81479142D01*
X19988483Y-81215898D01*
X20001201Y-81171253D01*
X20066068Y-80943534D01*
X20067244Y-80939406D01*
X20107751Y-80654784D01*
X20107845Y-80636951D01*
X20108510Y-80510000D01*
X23056502Y-80510000D01*
X23076457Y-80738087D01*
X23077881Y-80743400D01*
X23077881Y-80743402D01*
X23130401Y-80939406D01*
X23135716Y-80959243D01*
X23138039Y-80964224D01*
X23138039Y-80964225D01*
X23230151Y-81161762D01*
X23230154Y-81161767D01*
X23232477Y-81166749D01*
X23363802Y-81354300D01*
X23525700Y-81516198D01*
X23530208Y-81519355D01*
X23530211Y-81519357D01*
X23608389Y-81574098D01*
X23713251Y-81647523D01*
X23718233Y-81649846D01*
X23718238Y-81649849D01*
X23914765Y-81741490D01*
X23920757Y-81744284D01*
X23926065Y-81745706D01*
X23926067Y-81745707D01*
X24136598Y-81802119D01*
X24136600Y-81802119D01*
X24141913Y-81803543D01*
X24370000Y-81823498D01*
X24598087Y-81803543D01*
X24603400Y-81802119D01*
X24603402Y-81802119D01*
X24813933Y-81745707D01*
X24813935Y-81745706D01*
X24819243Y-81744284D01*
X24825235Y-81741490D01*
X25021762Y-81649849D01*
X25021767Y-81649846D01*
X25026749Y-81647523D01*
X25100243Y-81596062D01*
X26148493Y-81596062D01*
X26157789Y-81608077D01*
X26208994Y-81643931D01*
X26218489Y-81649414D01*
X26415947Y-81741490D01*
X26426239Y-81745236D01*
X26636688Y-81801625D01*
X26647481Y-81803528D01*
X26864525Y-81822517D01*
X26875475Y-81822517D01*
X27092519Y-81803528D01*
X27103312Y-81801625D01*
X27313761Y-81745236D01*
X27324053Y-81741490D01*
X27521511Y-81649414D01*
X27531006Y-81643931D01*
X27583048Y-81607491D01*
X27591424Y-81597012D01*
X27584356Y-81583566D01*
X26882812Y-80882022D01*
X26868868Y-80874408D01*
X26867035Y-80874539D01*
X26860420Y-80878790D01*
X26154923Y-81584287D01*
X26148493Y-81596062D01*
X25100243Y-81596062D01*
X25131611Y-81574098D01*
X25209789Y-81519357D01*
X25209792Y-81519355D01*
X25214300Y-81516198D01*
X25376198Y-81354300D01*
X25507523Y-81166749D01*
X25509847Y-81161765D01*
X25511171Y-81159472D01*
X25562553Y-81110479D01*
X25632267Y-81097043D01*
X25698178Y-81123429D01*
X25729409Y-81159472D01*
X25736066Y-81171002D01*
X25772509Y-81223048D01*
X25782988Y-81231424D01*
X25796434Y-81224356D01*
X26497978Y-80522812D01*
X26504356Y-80511132D01*
X27234408Y-80511132D01*
X27234539Y-80512965D01*
X27238790Y-80519580D01*
X27944287Y-81225077D01*
X27956062Y-81231507D01*
X27968077Y-81222211D01*
X28003931Y-81171006D01*
X28009414Y-81161511D01*
X28101490Y-80964053D01*
X28105236Y-80953761D01*
X28161625Y-80743312D01*
X28163528Y-80732519D01*
X28182517Y-80515475D01*
X28182517Y-80504525D01*
X28163528Y-80287481D01*
X28161625Y-80276688D01*
X28105236Y-80066239D01*
X28101490Y-80055947D01*
X28009414Y-79858489D01*
X28003931Y-79848994D01*
X27967491Y-79796952D01*
X27957012Y-79788576D01*
X27943566Y-79795644D01*
X27242022Y-80497188D01*
X27234408Y-80511132D01*
X26504356Y-80511132D01*
X26505592Y-80508868D01*
X26505461Y-80507035D01*
X26501210Y-80500420D01*
X25795713Y-79794923D01*
X25783938Y-79788493D01*
X25771923Y-79797789D01*
X25736066Y-79848998D01*
X25729409Y-79860528D01*
X25678027Y-79909521D01*
X25608313Y-79922958D01*
X25542402Y-79896571D01*
X25511171Y-79860528D01*
X25509847Y-79858235D01*
X25507523Y-79853251D01*
X25414565Y-79720494D01*
X25379357Y-79670211D01*
X25379355Y-79670208D01*
X25376198Y-79665700D01*
X25214300Y-79503802D01*
X25209792Y-79500645D01*
X25209789Y-79500643D01*
X25098886Y-79422988D01*
X26148576Y-79422988D01*
X26155644Y-79436434D01*
X26857188Y-80137978D01*
X26871132Y-80145592D01*
X26872965Y-80145461D01*
X26879580Y-80141210D01*
X27585077Y-79435713D01*
X27591507Y-79423938D01*
X27582211Y-79411923D01*
X27531006Y-79376069D01*
X27521511Y-79370586D01*
X27324053Y-79278510D01*
X27313761Y-79274764D01*
X27103312Y-79218375D01*
X27092519Y-79216472D01*
X26875475Y-79197483D01*
X26864525Y-79197483D01*
X26647481Y-79216472D01*
X26636688Y-79218375D01*
X26426239Y-79274764D01*
X26415947Y-79278510D01*
X26218489Y-79370586D01*
X26208994Y-79376069D01*
X26156952Y-79412509D01*
X26148576Y-79422988D01*
X25098886Y-79422988D01*
X25026749Y-79372477D01*
X25021767Y-79370154D01*
X25021762Y-79370151D01*
X24824225Y-79278039D01*
X24824224Y-79278039D01*
X24819243Y-79275716D01*
X24813935Y-79274294D01*
X24813933Y-79274293D01*
X24603402Y-79217881D01*
X24603400Y-79217881D01*
X24598087Y-79216457D01*
X24370000Y-79196502D01*
X24141913Y-79216457D01*
X24136600Y-79217881D01*
X24136598Y-79217881D01*
X23926067Y-79274293D01*
X23926065Y-79274294D01*
X23920757Y-79275716D01*
X23915776Y-79278039D01*
X23915775Y-79278039D01*
X23718238Y-79370151D01*
X23718233Y-79370154D01*
X23713251Y-79372477D01*
X23641114Y-79422988D01*
X23530211Y-79500643D01*
X23530208Y-79500645D01*
X23525700Y-79503802D01*
X23363802Y-79665700D01*
X23360645Y-79670208D01*
X23360643Y-79670211D01*
X23325435Y-79720494D01*
X23232477Y-79853251D01*
X23230154Y-79858233D01*
X23230151Y-79858238D01*
X23138039Y-80055775D01*
X23135716Y-80060757D01*
X23134294Y-80066065D01*
X23134293Y-80066067D01*
X23113019Y-80145461D01*
X23076457Y-80281913D01*
X23056502Y-80510000D01*
X20108510Y-80510000D01*
X20109235Y-80371583D01*
X20109235Y-80371576D01*
X20109257Y-80367297D01*
X20098738Y-80287393D01*
X20079492Y-80141210D01*
X20071732Y-80082266D01*
X20067301Y-80066067D01*
X20018370Y-79887208D01*
X19995871Y-79804964D01*
X19938394Y-79670211D01*
X19884763Y-79544476D01*
X19884761Y-79544472D01*
X19883077Y-79540524D01*
X19735439Y-79293839D01*
X19555687Y-79069472D01*
X19347149Y-78871577D01*
X19113683Y-78703814D01*
X19091843Y-78692250D01*
X19068654Y-78679972D01*
X18859608Y-78569288D01*
X18589627Y-78470489D01*
X18308736Y-78409245D01*
X18277685Y-78406801D01*
X18085718Y-78391693D01*
X18085709Y-78391693D01*
X18083261Y-78391500D01*
X17927729Y-78391500D01*
X17925593Y-78391646D01*
X17925582Y-78391646D01*
X17717452Y-78405835D01*
X17717446Y-78405836D01*
X17713175Y-78406127D01*
X17708980Y-78406996D01*
X17708978Y-78406996D01*
X17572417Y-78435276D01*
X17431658Y-78464426D01*
X17160657Y-78560393D01*
X16905188Y-78692250D01*
X16901687Y-78694711D01*
X16901683Y-78694713D01*
X16891594Y-78701804D01*
X16669977Y-78857559D01*
X16459378Y-79053260D01*
X16277287Y-79275732D01*
X16127073Y-79520858D01*
X16011517Y-79784102D01*
X16010342Y-79788229D01*
X16010341Y-79788230D01*
X15984144Y-79880194D01*
X15932756Y-80060594D01*
X15892249Y-80345216D01*
X15892227Y-80349505D01*
X15892226Y-80349512D01*
X15890765Y-80628417D01*
X15890743Y-80632703D01*
X15508500Y-80632703D01*
X15508500Y-73652507D01*
X16751850Y-73652507D01*
X16752195Y-73659094D01*
X16752195Y-73659098D01*
X16755327Y-73718850D01*
X16755500Y-73725445D01*
X16755500Y-73745306D01*
X16755844Y-73748577D01*
X16757576Y-73765059D01*
X16758093Y-73771628D01*
X16761570Y-73837971D01*
X16765042Y-73850929D01*
X16768645Y-73870372D01*
X16770046Y-73883702D01*
X16790578Y-73946894D01*
X16792444Y-73953196D01*
X16809638Y-74017363D01*
X16812634Y-74023242D01*
X16812637Y-74023251D01*
X16815728Y-74029317D01*
X16823292Y-74047579D01*
X16825392Y-74054043D01*
X16825395Y-74054051D01*
X16827436Y-74060331D01*
X16830738Y-74066050D01*
X16830740Y-74066055D01*
X16860654Y-74117867D01*
X16863787Y-74123637D01*
X16893953Y-74182839D01*
X16898109Y-74187971D01*
X16902391Y-74193259D01*
X16913589Y-74209552D01*
X16920296Y-74221169D01*
X16924713Y-74226075D01*
X16924717Y-74226080D01*
X16964747Y-74270538D01*
X16969031Y-74275554D01*
X16979441Y-74288409D01*
X16981528Y-74290986D01*
X16995573Y-74305031D01*
X17000114Y-74309816D01*
X17044566Y-74359185D01*
X17055426Y-74367075D01*
X17070454Y-74379912D01*
X18047939Y-75357397D01*
X18081965Y-75419709D01*
X18084365Y-75435509D01*
X18095314Y-75560655D01*
X18150044Y-75764910D01*
X18152366Y-75769891D01*
X18152367Y-75769892D01*
X18236358Y-75950010D01*
X18239411Y-75956558D01*
X18360699Y-76129776D01*
X18510224Y-76279301D01*
X18683442Y-76400589D01*
X18688420Y-76402910D01*
X18688423Y-76402912D01*
X18870108Y-76487633D01*
X18875090Y-76489956D01*
X18880398Y-76491378D01*
X18880400Y-76491379D01*
X19074030Y-76543262D01*
X19074032Y-76543262D01*
X19079345Y-76544686D01*
X19290000Y-76563116D01*
X19500655Y-76544686D01*
X19505968Y-76543262D01*
X19505970Y-76543262D01*
X19699600Y-76491379D01*
X19699602Y-76491378D01*
X19704910Y-76489956D01*
X19709892Y-76487633D01*
X19891577Y-76402912D01*
X19891580Y-76402910D01*
X19896558Y-76400589D01*
X20069776Y-76279301D01*
X20219301Y-76129776D01*
X20340589Y-75956558D01*
X20343643Y-75950010D01*
X20427633Y-75769892D01*
X20427634Y-75769891D01*
X20429956Y-75764910D01*
X20484686Y-75560655D01*
X20503116Y-75350000D01*
X25696884Y-75350000D01*
X25715314Y-75560655D01*
X25770044Y-75764910D01*
X25772366Y-75769891D01*
X25772367Y-75769892D01*
X25856358Y-75950010D01*
X25859411Y-75956558D01*
X25980699Y-76129776D01*
X26130224Y-76279301D01*
X26303442Y-76400589D01*
X26308420Y-76402910D01*
X26308423Y-76402912D01*
X26490108Y-76487633D01*
X26495090Y-76489956D01*
X26500398Y-76491378D01*
X26500400Y-76491379D01*
X26694030Y-76543262D01*
X26694032Y-76543262D01*
X26699345Y-76544686D01*
X26910000Y-76563116D01*
X27120655Y-76544686D01*
X27125968Y-76543262D01*
X27125970Y-76543262D01*
X27319600Y-76491379D01*
X27319602Y-76491378D01*
X27324910Y-76489956D01*
X27329892Y-76487633D01*
X27511577Y-76402912D01*
X27511580Y-76402910D01*
X27516558Y-76400589D01*
X27689776Y-76279301D01*
X27839301Y-76129776D01*
X27904102Y-76037230D01*
X27959559Y-75992901D01*
X28007315Y-75983500D01*
X28081233Y-75983500D01*
X28092416Y-75984027D01*
X28099909Y-75985702D01*
X28107835Y-75985453D01*
X28107836Y-75985453D01*
X28167986Y-75983562D01*
X28171945Y-75983500D01*
X28199856Y-75983500D01*
X28203791Y-75983003D01*
X28203856Y-75982995D01*
X28215693Y-75982062D01*
X28247951Y-75981048D01*
X28251970Y-75980922D01*
X28259889Y-75980673D01*
X28279343Y-75975021D01*
X28298700Y-75971013D01*
X28310930Y-75969468D01*
X28310931Y-75969468D01*
X28318797Y-75968474D01*
X28326168Y-75965555D01*
X28326170Y-75965555D01*
X28359912Y-75952196D01*
X28371142Y-75948351D01*
X28405983Y-75938229D01*
X28405984Y-75938229D01*
X28413593Y-75936018D01*
X28420412Y-75931985D01*
X28420417Y-75931983D01*
X28431028Y-75925707D01*
X28448776Y-75917012D01*
X28467617Y-75909552D01*
X28503387Y-75883564D01*
X28513307Y-75877048D01*
X28544535Y-75858580D01*
X28544538Y-75858578D01*
X28551362Y-75854542D01*
X28565683Y-75840221D01*
X28580717Y-75827380D01*
X28590694Y-75820131D01*
X28597107Y-75815472D01*
X28625298Y-75781395D01*
X28633288Y-75772616D01*
X29941541Y-74464364D01*
X30003853Y-74430338D01*
X30060049Y-74430940D01*
X30070167Y-74433369D01*
X30278476Y-74483380D01*
X30278482Y-74483381D01*
X30283289Y-74484535D01*
X30520000Y-74503165D01*
X30756711Y-74484535D01*
X30761518Y-74483381D01*
X30761524Y-74483380D01*
X30923057Y-74444599D01*
X30987594Y-74429105D01*
X30992167Y-74427211D01*
X31202389Y-74340135D01*
X31202393Y-74340133D01*
X31206963Y-74338240D01*
X31261155Y-74305031D01*
X31405202Y-74216759D01*
X31405208Y-74216755D01*
X31409416Y-74214176D01*
X31589969Y-74059969D01*
X31744176Y-73879416D01*
X31746755Y-73875208D01*
X31746759Y-73875202D01*
X31865654Y-73681183D01*
X31868240Y-73676963D01*
X31870229Y-73672163D01*
X31957211Y-73462167D01*
X31957212Y-73462165D01*
X31959105Y-73457594D01*
X32014535Y-73226711D01*
X32033165Y-72990000D01*
X32014535Y-72753289D01*
X32006082Y-72718077D01*
X31960260Y-72527218D01*
X31959105Y-72522406D01*
X31935037Y-72464300D01*
X31870135Y-72307611D01*
X31870133Y-72307607D01*
X31868240Y-72303037D01*
X31842790Y-72261507D01*
X31746759Y-72104798D01*
X31746755Y-72104792D01*
X31744176Y-72100584D01*
X31589969Y-71920031D01*
X31576808Y-71908790D01*
X31427474Y-71781247D01*
X31393598Y-71735314D01*
X31384122Y-71713332D01*
X30532812Y-70862022D01*
X30518868Y-70854408D01*
X30517035Y-70854539D01*
X30510420Y-70858790D01*
X29658920Y-71710290D01*
X29637974Y-71748648D01*
X29609218Y-71784072D01*
X29459408Y-71912022D01*
X29450031Y-71920031D01*
X29295824Y-72100584D01*
X29293245Y-72104792D01*
X29293241Y-72104798D01*
X29197210Y-72261507D01*
X29171760Y-72303037D01*
X29169867Y-72307607D01*
X29169865Y-72307611D01*
X29104963Y-72464300D01*
X29080895Y-72522406D01*
X29079740Y-72527218D01*
X29033919Y-72718077D01*
X29025465Y-72753289D01*
X29006835Y-72990000D01*
X29025465Y-73226711D01*
X29026619Y-73231518D01*
X29026620Y-73231524D01*
X29079060Y-73449951D01*
X29075513Y-73520859D01*
X29045636Y-73568460D01*
X28029527Y-74584568D01*
X27967215Y-74618594D01*
X27896399Y-74613529D01*
X27843910Y-74576464D01*
X27842460Y-74574736D01*
X27839301Y-74570224D01*
X27689776Y-74420699D01*
X27516558Y-74299411D01*
X27511580Y-74297090D01*
X27511577Y-74297088D01*
X27329892Y-74212367D01*
X27329891Y-74212366D01*
X27324910Y-74210044D01*
X27319602Y-74208622D01*
X27319600Y-74208621D01*
X27125970Y-74156738D01*
X27125968Y-74156738D01*
X27120655Y-74155314D01*
X26910000Y-74136884D01*
X26699345Y-74155314D01*
X26694032Y-74156738D01*
X26694030Y-74156738D01*
X26500400Y-74208621D01*
X26500398Y-74208622D01*
X26495090Y-74210044D01*
X26490109Y-74212366D01*
X26490108Y-74212367D01*
X26308423Y-74297088D01*
X26308420Y-74297090D01*
X26303442Y-74299411D01*
X26130224Y-74420699D01*
X25980699Y-74570224D01*
X25859411Y-74743442D01*
X25857090Y-74748420D01*
X25857088Y-74748423D01*
X25815532Y-74837540D01*
X25770044Y-74935090D01*
X25715314Y-75139345D01*
X25696884Y-75350000D01*
X20503116Y-75350000D01*
X20484686Y-75139345D01*
X20429956Y-74935090D01*
X20384468Y-74837540D01*
X20342912Y-74748423D01*
X20342910Y-74748420D01*
X20340589Y-74743442D01*
X20219301Y-74570224D01*
X20069776Y-74420699D01*
X19896558Y-74299411D01*
X19891580Y-74297090D01*
X19891577Y-74297088D01*
X19709892Y-74212367D01*
X19709891Y-74212366D01*
X19704910Y-74210044D01*
X19699602Y-74208622D01*
X19699600Y-74208621D01*
X19505970Y-74156738D01*
X19505968Y-74156738D01*
X19500655Y-74155314D01*
X19375510Y-74144365D01*
X19309392Y-74118501D01*
X19297397Y-74107939D01*
X18559405Y-73369947D01*
X18525379Y-73307635D01*
X18522500Y-73280852D01*
X18522500Y-72823659D01*
X18542502Y-72755538D01*
X18596158Y-72709045D01*
X18666432Y-72698941D01*
X18701748Y-72709463D01*
X18840757Y-72774284D01*
X18846065Y-72775706D01*
X18846067Y-72775707D01*
X19056598Y-72832119D01*
X19056600Y-72832119D01*
X19061913Y-72833543D01*
X19290000Y-72853498D01*
X19518087Y-72833543D01*
X19523400Y-72832119D01*
X19523402Y-72832119D01*
X19733933Y-72775707D01*
X19733935Y-72775706D01*
X19739243Y-72774284D01*
X19745235Y-72771490D01*
X19941762Y-72679849D01*
X19941767Y-72679846D01*
X19946749Y-72677523D01*
X20020243Y-72626062D01*
X21068493Y-72626062D01*
X21077789Y-72638077D01*
X21128994Y-72673931D01*
X21138489Y-72679414D01*
X21335947Y-72771490D01*
X21346239Y-72775236D01*
X21556688Y-72831625D01*
X21567481Y-72833528D01*
X21784525Y-72852517D01*
X21795475Y-72852517D01*
X22012519Y-72833528D01*
X22023312Y-72831625D01*
X22233761Y-72775236D01*
X22244053Y-72771490D01*
X22441511Y-72679414D01*
X22451006Y-72673931D01*
X22503048Y-72637491D01*
X22511424Y-72627012D01*
X22504356Y-72613566D01*
X21802812Y-71912022D01*
X21788868Y-71904408D01*
X21787035Y-71904539D01*
X21780420Y-71908790D01*
X21074923Y-72614287D01*
X21068493Y-72626062D01*
X20020243Y-72626062D01*
X20057500Y-72599974D01*
X20129789Y-72549357D01*
X20129792Y-72549355D01*
X20134300Y-72546198D01*
X20296198Y-72384300D01*
X20330665Y-72335077D01*
X20424369Y-72201253D01*
X20427523Y-72196749D01*
X20429847Y-72191765D01*
X20431171Y-72189472D01*
X20482553Y-72140479D01*
X20552267Y-72127043D01*
X20618178Y-72153429D01*
X20649409Y-72189472D01*
X20656066Y-72201002D01*
X20692509Y-72253048D01*
X20702988Y-72261424D01*
X20716434Y-72254356D01*
X21417978Y-71552812D01*
X21424356Y-71541132D01*
X22154408Y-71541132D01*
X22154539Y-71542965D01*
X22158790Y-71549580D01*
X22864287Y-72255077D01*
X22876062Y-72261507D01*
X22888077Y-72252211D01*
X22923931Y-72201006D01*
X22929414Y-72191511D01*
X23021490Y-71994053D01*
X23025236Y-71983761D01*
X23081625Y-71773312D01*
X23083528Y-71762519D01*
X23102517Y-71545475D01*
X23102517Y-71534525D01*
X23083528Y-71317481D01*
X23081625Y-71306688D01*
X23025236Y-71096239D01*
X23021490Y-71085947D01*
X22929414Y-70888489D01*
X22923931Y-70878994D01*
X22887491Y-70826952D01*
X22877012Y-70818576D01*
X22863566Y-70825644D01*
X22162022Y-71527188D01*
X22154408Y-71541132D01*
X21424356Y-71541132D01*
X21425592Y-71538868D01*
X21425461Y-71537035D01*
X21421210Y-71530420D01*
X20715713Y-70824923D01*
X20703938Y-70818493D01*
X20691923Y-70827789D01*
X20656066Y-70878998D01*
X20649409Y-70890528D01*
X20598027Y-70939521D01*
X20528313Y-70952958D01*
X20462402Y-70926571D01*
X20431171Y-70890528D01*
X20429847Y-70888235D01*
X20427523Y-70883251D01*
X20296198Y-70695700D01*
X20134300Y-70533802D01*
X20129792Y-70530645D01*
X20129789Y-70530643D01*
X20018886Y-70452988D01*
X21068576Y-70452988D01*
X21075644Y-70466434D01*
X21777188Y-71167978D01*
X21791132Y-71175592D01*
X21792965Y-71175461D01*
X21799580Y-71171210D01*
X22505077Y-70465713D01*
X22511507Y-70453938D01*
X22502211Y-70441923D01*
X22451006Y-70406069D01*
X22441511Y-70400586D01*
X22244053Y-70308510D01*
X22233761Y-70304764D01*
X22023312Y-70248375D01*
X22012519Y-70246472D01*
X21795475Y-70227483D01*
X21784525Y-70227483D01*
X21567481Y-70246472D01*
X21556688Y-70248375D01*
X21346239Y-70304764D01*
X21335947Y-70308510D01*
X21138489Y-70400586D01*
X21128994Y-70406069D01*
X21076952Y-70442509D01*
X21068576Y-70452988D01*
X20018886Y-70452988D01*
X20003920Y-70442509D01*
X19946749Y-70402477D01*
X19941767Y-70400154D01*
X19941762Y-70400151D01*
X19744225Y-70308039D01*
X19744224Y-70308039D01*
X19739243Y-70305716D01*
X19733935Y-70304294D01*
X19733933Y-70304293D01*
X19523402Y-70247881D01*
X19523400Y-70247881D01*
X19518087Y-70246457D01*
X19290000Y-70226502D01*
X19061913Y-70246457D01*
X19056600Y-70247881D01*
X19056598Y-70247881D01*
X18846067Y-70304293D01*
X18846065Y-70304294D01*
X18840757Y-70305716D01*
X18701749Y-70370536D01*
X18631558Y-70381197D01*
X18566746Y-70352217D01*
X18527889Y-70292797D01*
X18522500Y-70256341D01*
X18522500Y-68903321D01*
X18542502Y-68835200D01*
X18596158Y-68788707D01*
X18666432Y-68778603D01*
X18701750Y-68789126D01*
X18848237Y-68857434D01*
X18875090Y-68869956D01*
X18880398Y-68871378D01*
X18880400Y-68871379D01*
X19074030Y-68923262D01*
X19074032Y-68923262D01*
X19079345Y-68924686D01*
X19290000Y-68943116D01*
X19500655Y-68924686D01*
X19505968Y-68923262D01*
X19505970Y-68923262D01*
X19699600Y-68871379D01*
X19699602Y-68871378D01*
X19704910Y-68869956D01*
X19724998Y-68860589D01*
X19891577Y-68782912D01*
X19891580Y-68782910D01*
X19896558Y-68780589D01*
X20069776Y-68659301D01*
X20219301Y-68509776D01*
X20340589Y-68336558D01*
X20359354Y-68296318D01*
X20427633Y-68149892D01*
X20427634Y-68149891D01*
X20429956Y-68144910D01*
X20464719Y-68015175D01*
X20483262Y-67945970D01*
X20483262Y-67945968D01*
X20484686Y-67940655D01*
X20503116Y-67730000D01*
X20484686Y-67519345D01*
X20429956Y-67315090D01*
X20427633Y-67310108D01*
X20342912Y-67128423D01*
X20342910Y-67128420D01*
X20340589Y-67123442D01*
X20219301Y-66950224D01*
X20069776Y-66800699D01*
X19896558Y-66679411D01*
X19891580Y-66677090D01*
X19891577Y-66677088D01*
X19709892Y-66592367D01*
X19709891Y-66592366D01*
X19704910Y-66590044D01*
X19699602Y-66588622D01*
X19699600Y-66588621D01*
X19505970Y-66536738D01*
X19505968Y-66536738D01*
X19500655Y-66535314D01*
X19290000Y-66516884D01*
X19079345Y-66535314D01*
X19074032Y-66536738D01*
X19074030Y-66536738D01*
X18880400Y-66588621D01*
X18880398Y-66588622D01*
X18875090Y-66590044D01*
X18870109Y-66592366D01*
X18870108Y-66592367D01*
X18807937Y-66621358D01*
X18706582Y-66668621D01*
X18701750Y-66670874D01*
X18631558Y-66681535D01*
X18566746Y-66652555D01*
X18527889Y-66593135D01*
X18522500Y-66556679D01*
X18522500Y-65989148D01*
X18542502Y-65921027D01*
X18559405Y-65900053D01*
X19297397Y-65162061D01*
X19359709Y-65128035D01*
X19375509Y-65125635D01*
X19500655Y-65114686D01*
X19505968Y-65113262D01*
X19505970Y-65113262D01*
X19699600Y-65061379D01*
X19699602Y-65061378D01*
X19704910Y-65059956D01*
X19709892Y-65057633D01*
X19891577Y-64972912D01*
X19891580Y-64972910D01*
X19896558Y-64970589D01*
X20069776Y-64849301D01*
X20219301Y-64699776D01*
X20340589Y-64526558D01*
X20392652Y-64414910D01*
X20427633Y-64339892D01*
X20427634Y-64339891D01*
X20429956Y-64334910D01*
X20464719Y-64205175D01*
X20483262Y-64135970D01*
X20483262Y-64135968D01*
X20484686Y-64130655D01*
X20503116Y-63920000D01*
X20484686Y-63709345D01*
X20482535Y-63701317D01*
X20431379Y-63510400D01*
X20431378Y-63510398D01*
X20429956Y-63505090D01*
X20412759Y-63468210D01*
X20342912Y-63318423D01*
X20342910Y-63318420D01*
X20340589Y-63313442D01*
X20219301Y-63140224D01*
X20069776Y-62990699D01*
X19896558Y-62869411D01*
X19891580Y-62867090D01*
X19891577Y-62867088D01*
X19709892Y-62782367D01*
X19709891Y-62782366D01*
X19704910Y-62780044D01*
X19699602Y-62778622D01*
X19699600Y-62778621D01*
X19505970Y-62726738D01*
X19505968Y-62726738D01*
X19500655Y-62725314D01*
X19290000Y-62706884D01*
X19079345Y-62725314D01*
X19074032Y-62726738D01*
X19074030Y-62726738D01*
X18880400Y-62778621D01*
X18880398Y-62778622D01*
X18875090Y-62780044D01*
X18870109Y-62782366D01*
X18870108Y-62782367D01*
X18688423Y-62867088D01*
X18688420Y-62867090D01*
X18683442Y-62869411D01*
X18510224Y-62990699D01*
X18360699Y-63140224D01*
X18239411Y-63313442D01*
X18237090Y-63318420D01*
X18237088Y-63318423D01*
X18167241Y-63468210D01*
X18150044Y-63505090D01*
X18148622Y-63510398D01*
X18148621Y-63510400D01*
X18097465Y-63701317D01*
X18095314Y-63709345D01*
X18086449Y-63810667D01*
X18084365Y-63834490D01*
X18058501Y-63900608D01*
X18047939Y-63912603D01*
X17070454Y-64890088D01*
X17055426Y-64902925D01*
X17044566Y-64910815D01*
X17040145Y-64915725D01*
X17040144Y-64915726D01*
X17000114Y-64960184D01*
X16995573Y-64964969D01*
X16981528Y-64979014D01*
X16979444Y-64981588D01*
X16979441Y-64981591D01*
X16969031Y-64994446D01*
X16964747Y-64999462D01*
X16924717Y-65043920D01*
X16924713Y-65043925D01*
X16920296Y-65048831D01*
X16913873Y-65059956D01*
X16913589Y-65060448D01*
X16902391Y-65076741D01*
X16893953Y-65087161D01*
X16863787Y-65146363D01*
X16860654Y-65152133D01*
X16830740Y-65203945D01*
X16830738Y-65203950D01*
X16827436Y-65209669D01*
X16825395Y-65215949D01*
X16825392Y-65215957D01*
X16823292Y-65222421D01*
X16815728Y-65240683D01*
X16812637Y-65246749D01*
X16812634Y-65246758D01*
X16809638Y-65252637D01*
X16807929Y-65259015D01*
X16792444Y-65316804D01*
X16790578Y-65323106D01*
X16770046Y-65386298D01*
X16769356Y-65392866D01*
X16768645Y-65399628D01*
X16765042Y-65419071D01*
X16761570Y-65432029D01*
X16761225Y-65438619D01*
X16761224Y-65438623D01*
X16758093Y-65498367D01*
X16757577Y-65504931D01*
X16755500Y-65524694D01*
X16755500Y-65544555D01*
X16755327Y-65551150D01*
X16751850Y-65617493D01*
X16752882Y-65624007D01*
X16753949Y-65630744D01*
X16755500Y-65650456D01*
X16755500Y-73619543D01*
X16753949Y-73639255D01*
X16751850Y-73652507D01*
X15508500Y-73652507D01*
X15508500Y-57536695D01*
X21407251Y-57536695D01*
X21407548Y-57541848D01*
X21407548Y-57541851D01*
X21413011Y-57636590D01*
X21420110Y-57759715D01*
X21421247Y-57764761D01*
X21421248Y-57764767D01*
X21424543Y-57779386D01*
X21469222Y-57977639D01*
X21553266Y-58184616D01*
X21604019Y-58267438D01*
X21667291Y-58370688D01*
X21669987Y-58375088D01*
X21816250Y-58543938D01*
X21988126Y-58686632D01*
X22181000Y-58799338D01*
X22389692Y-58879030D01*
X22394760Y-58880061D01*
X22394763Y-58880062D01*
X22502012Y-58901882D01*
X22608597Y-58923567D01*
X22613772Y-58923757D01*
X22613774Y-58923757D01*
X22826673Y-58931564D01*
X22826677Y-58931564D01*
X22831837Y-58931753D01*
X22836957Y-58931097D01*
X22836959Y-58931097D01*
X23048288Y-58904025D01*
X23048289Y-58904025D01*
X23053416Y-58903368D01*
X23058367Y-58901883D01*
X23058370Y-58901882D01*
X23099829Y-58889444D01*
X23170825Y-58889028D01*
X23225131Y-58921035D01*
X26811789Y-62507694D01*
X26845815Y-62570006D01*
X26840750Y-62640822D01*
X26798203Y-62697657D01*
X26733677Y-62722309D01*
X26704836Y-62724833D01*
X26704829Y-62724834D01*
X26699345Y-62725314D01*
X26694032Y-62726738D01*
X26694030Y-62726738D01*
X26500400Y-62778621D01*
X26500398Y-62778622D01*
X26495090Y-62780044D01*
X26490109Y-62782366D01*
X26490108Y-62782367D01*
X26308423Y-62867088D01*
X26308420Y-62867090D01*
X26303442Y-62869411D01*
X26130224Y-62990699D01*
X25980699Y-63140224D01*
X25859411Y-63313442D01*
X25857090Y-63318420D01*
X25857088Y-63318423D01*
X25787241Y-63468210D01*
X25770044Y-63505090D01*
X25768622Y-63510398D01*
X25768621Y-63510400D01*
X25717465Y-63701317D01*
X25715314Y-63709345D01*
X25696884Y-63920000D01*
X25715314Y-64130655D01*
X25716738Y-64135968D01*
X25716738Y-64135970D01*
X25735282Y-64205175D01*
X25770044Y-64334910D01*
X25772366Y-64339891D01*
X25772367Y-64339892D01*
X25807349Y-64414910D01*
X25859411Y-64526558D01*
X25980699Y-64699776D01*
X26130224Y-64849301D01*
X26303442Y-64970589D01*
X26308420Y-64972910D01*
X26308423Y-64972912D01*
X26490108Y-65057633D01*
X26495090Y-65059956D01*
X26500398Y-65061378D01*
X26500400Y-65061379D01*
X26694030Y-65113262D01*
X26694032Y-65113262D01*
X26699345Y-65114686D01*
X26910000Y-65133116D01*
X27120655Y-65114686D01*
X27125968Y-65113262D01*
X27125970Y-65113262D01*
X27319600Y-65061379D01*
X27319602Y-65061378D01*
X27324910Y-65059956D01*
X27329892Y-65057633D01*
X27511577Y-64972912D01*
X27511580Y-64972910D01*
X27516558Y-64970589D01*
X27689776Y-64849301D01*
X27839301Y-64699776D01*
X27960589Y-64526558D01*
X28012652Y-64414910D01*
X28047633Y-64339892D01*
X28047634Y-64339891D01*
X28049956Y-64334910D01*
X28084719Y-64205175D01*
X28103262Y-64135970D01*
X28103262Y-64135968D01*
X28104686Y-64130655D01*
X28105166Y-64125171D01*
X28105167Y-64125164D01*
X28107691Y-64096323D01*
X28133554Y-64030205D01*
X28191059Y-63988566D01*
X28261946Y-63984626D01*
X28322306Y-64018211D01*
X30570501Y-66266405D01*
X30604526Y-66328717D01*
X30599462Y-66399532D01*
X30556915Y-66456368D01*
X30490395Y-66481179D01*
X30481406Y-66481500D01*
X29471866Y-66481500D01*
X29409684Y-66488255D01*
X29273295Y-66539385D01*
X29156739Y-66626739D01*
X29069385Y-66743295D01*
X29018255Y-66879684D01*
X29011500Y-66941866D01*
X29011500Y-66970500D01*
X28991498Y-67038621D01*
X28937842Y-67085114D01*
X28885500Y-67096500D01*
X28007315Y-67096500D01*
X27939194Y-67076498D01*
X27904102Y-67042770D01*
X27842460Y-66954736D01*
X27839301Y-66950224D01*
X27689776Y-66800699D01*
X27516558Y-66679411D01*
X27511580Y-66677090D01*
X27511577Y-66677088D01*
X27329892Y-66592367D01*
X27329891Y-66592366D01*
X27324910Y-66590044D01*
X27319602Y-66588622D01*
X27319600Y-66588621D01*
X27125970Y-66536738D01*
X27125968Y-66536738D01*
X27120655Y-66535314D01*
X26910000Y-66516884D01*
X26699345Y-66535314D01*
X26694032Y-66536738D01*
X26694030Y-66536738D01*
X26500400Y-66588621D01*
X26500398Y-66588622D01*
X26495090Y-66590044D01*
X26490109Y-66592366D01*
X26490108Y-66592367D01*
X26308423Y-66677088D01*
X26308420Y-66677090D01*
X26303442Y-66679411D01*
X26130224Y-66800699D01*
X25980699Y-66950224D01*
X25859411Y-67123442D01*
X25857090Y-67128420D01*
X25857088Y-67128423D01*
X25772367Y-67310108D01*
X25770044Y-67315090D01*
X25715314Y-67519345D01*
X25696884Y-67730000D01*
X25715314Y-67940655D01*
X25716738Y-67945968D01*
X25716738Y-67945970D01*
X25735282Y-68015175D01*
X25770044Y-68144910D01*
X25772366Y-68149891D01*
X25772367Y-68149892D01*
X25840647Y-68296318D01*
X25859411Y-68336558D01*
X25980699Y-68509776D01*
X26130224Y-68659301D01*
X26303442Y-68780589D01*
X26308420Y-68782910D01*
X26308423Y-68782912D01*
X26475002Y-68860589D01*
X26495090Y-68869956D01*
X26500398Y-68871378D01*
X26500400Y-68871379D01*
X26694030Y-68923262D01*
X26694032Y-68923262D01*
X26699345Y-68924686D01*
X26910000Y-68943116D01*
X27120655Y-68924686D01*
X27125968Y-68923262D01*
X27125970Y-68923262D01*
X27319600Y-68871379D01*
X27319602Y-68871378D01*
X27324910Y-68869956D01*
X27344998Y-68860589D01*
X27511577Y-68782912D01*
X27511580Y-68782910D01*
X27516558Y-68780589D01*
X27689776Y-68659301D01*
X27839301Y-68509776D01*
X27904102Y-68417230D01*
X27959559Y-68372901D01*
X28007315Y-68363500D01*
X28885500Y-68363500D01*
X28953621Y-68383502D01*
X29000114Y-68437158D01*
X29011500Y-68489500D01*
X29011500Y-69038134D01*
X29018255Y-69100316D01*
X29069385Y-69236705D01*
X29156739Y-69353261D01*
X29163919Y-69358642D01*
X29163920Y-69358643D01*
X29264503Y-69434026D01*
X29307018Y-69490885D01*
X29312044Y-69561704D01*
X29294824Y-69600017D01*
X29296230Y-69600879D01*
X29174795Y-69799042D01*
X29170313Y-69807837D01*
X29083266Y-70017988D01*
X29080217Y-70027373D01*
X29027115Y-70248554D01*
X29025572Y-70258301D01*
X29007725Y-70485070D01*
X29007725Y-70494930D01*
X29025572Y-70721699D01*
X29027115Y-70731446D01*
X29080217Y-70952627D01*
X29083266Y-70962012D01*
X29170313Y-71172163D01*
X29174795Y-71180958D01*
X29277432Y-71348445D01*
X29287890Y-71357907D01*
X29296666Y-71354124D01*
X30430905Y-70219885D01*
X30493217Y-70185859D01*
X30564032Y-70190924D01*
X30609095Y-70219885D01*
X31740290Y-71351080D01*
X31752670Y-71357840D01*
X31760320Y-71352113D01*
X31865205Y-71180958D01*
X31869687Y-71172163D01*
X31956734Y-70962012D01*
X31959783Y-70952627D01*
X32012885Y-70731446D01*
X32014428Y-70721699D01*
X32032275Y-70494930D01*
X32032275Y-70485070D01*
X32014428Y-70258301D01*
X32012885Y-70248554D01*
X31959783Y-70027373D01*
X31956734Y-70017988D01*
X31869687Y-69807837D01*
X31865205Y-69799042D01*
X31743770Y-69600879D01*
X31745851Y-69599604D01*
X31725280Y-69542261D01*
X31741242Y-69473082D01*
X31775497Y-69434026D01*
X31876080Y-69358643D01*
X31876081Y-69358642D01*
X31883261Y-69353261D01*
X31970615Y-69236705D01*
X32021745Y-69100316D01*
X32028500Y-69038134D01*
X32028500Y-68166624D01*
X32048502Y-68098503D01*
X32057414Y-68086310D01*
X32064080Y-68078252D01*
X32069133Y-68072144D01*
X32091071Y-68025524D01*
X32138172Y-67972404D01*
X32206517Y-67953181D01*
X32274405Y-67973960D01*
X32294173Y-67990078D01*
X38520500Y-74216405D01*
X38554526Y-74278717D01*
X38549461Y-74349532D01*
X38506914Y-74406368D01*
X38440394Y-74431179D01*
X38431405Y-74431500D01*
X36471866Y-74431500D01*
X36409684Y-74438255D01*
X36273295Y-74489385D01*
X36156739Y-74576739D01*
X36069385Y-74693295D01*
X36018255Y-74829684D01*
X36011500Y-74891866D01*
X36011500Y-77488134D01*
X36018255Y-77550316D01*
X36069385Y-77686705D01*
X36156739Y-77803261D01*
X36273295Y-77890615D01*
X36409684Y-77941745D01*
X36471866Y-77948500D01*
X39085011Y-77948500D01*
X39153132Y-77968502D01*
X39199625Y-78022158D01*
X39211011Y-78074500D01*
X39211011Y-79395744D01*
X39210484Y-79406927D01*
X39208809Y-79414420D01*
X39209058Y-79422346D01*
X39209058Y-79422347D01*
X39210949Y-79482497D01*
X39211011Y-79486456D01*
X39211011Y-79514367D01*
X39211508Y-79518301D01*
X39211508Y-79518302D01*
X39211516Y-79518367D01*
X39212449Y-79530204D01*
X39213838Y-79574400D01*
X39219489Y-79593850D01*
X39223498Y-79613211D01*
X39226037Y-79633308D01*
X39228956Y-79640679D01*
X39228956Y-79640681D01*
X39242315Y-79674423D01*
X39246160Y-79685653D01*
X39258493Y-79728104D01*
X39262526Y-79734923D01*
X39262528Y-79734928D01*
X39268804Y-79745539D01*
X39277499Y-79763287D01*
X39284959Y-79782128D01*
X39289621Y-79788544D01*
X39289621Y-79788545D01*
X39310947Y-79817898D01*
X39317463Y-79827818D01*
X39335454Y-79858238D01*
X39339969Y-79865873D01*
X39354290Y-79880194D01*
X39367130Y-79895227D01*
X39379039Y-79911618D01*
X39385145Y-79916669D01*
X39413116Y-79939809D01*
X39421895Y-79947799D01*
X56162557Y-96688461D01*
X56196583Y-96750773D01*
X56197548Y-96799437D01*
X56196738Y-96804029D01*
X56195314Y-96809345D01*
X56176884Y-97020000D01*
X56195314Y-97230655D01*
X56196738Y-97235968D01*
X56196738Y-97235970D01*
X56218361Y-97316666D01*
X56250044Y-97434910D01*
X56252366Y-97439891D01*
X56252367Y-97439892D01*
X56331443Y-97609470D01*
X56339411Y-97626558D01*
X56460699Y-97799776D01*
X56610224Y-97949301D01*
X56783442Y-98070589D01*
X56788420Y-98072910D01*
X56788423Y-98072912D01*
X56970108Y-98157633D01*
X56975090Y-98159956D01*
X56980398Y-98161378D01*
X56980400Y-98161379D01*
X57174030Y-98213262D01*
X57174032Y-98213262D01*
X57179345Y-98214686D01*
X57390000Y-98233116D01*
X57600655Y-98214686D01*
X57605968Y-98213262D01*
X57605970Y-98213262D01*
X57799600Y-98161379D01*
X57799602Y-98161378D01*
X57804910Y-98159956D01*
X57809892Y-98157633D01*
X57991577Y-98072912D01*
X57991580Y-98072910D01*
X57996558Y-98070589D01*
X58169776Y-97949301D01*
X58319301Y-97799776D01*
X58440589Y-97626558D01*
X58448558Y-97609470D01*
X58527633Y-97439892D01*
X58527634Y-97439891D01*
X58529956Y-97434910D01*
X58561640Y-97316666D01*
X58583262Y-97235970D01*
X58583262Y-97235968D01*
X58584686Y-97230655D01*
X58603116Y-97020000D01*
X58584686Y-96809345D01*
X58568992Y-96750773D01*
X58531379Y-96610400D01*
X58531378Y-96610398D01*
X58529956Y-96605090D01*
X58440589Y-96413442D01*
X58319301Y-96240224D01*
X58169776Y-96090699D01*
X57996558Y-95969411D01*
X57991580Y-95967090D01*
X57991577Y-95967088D01*
X57809892Y-95882367D01*
X57809891Y-95882366D01*
X57804910Y-95880044D01*
X57799602Y-95878622D01*
X57799600Y-95878621D01*
X57605970Y-95826738D01*
X57605968Y-95826738D01*
X57600655Y-95825314D01*
X57390000Y-95806884D01*
X57179345Y-95825314D01*
X57174029Y-95826738D01*
X57169437Y-95827548D01*
X57098877Y-95819679D01*
X57058461Y-95792557D01*
X54475904Y-93210000D01*
X56176884Y-93210000D01*
X56195314Y-93420655D01*
X56250044Y-93624910D01*
X56339411Y-93816558D01*
X56460699Y-93989776D01*
X56610224Y-94139301D01*
X56783442Y-94260589D01*
X56788420Y-94262910D01*
X56788423Y-94262912D01*
X56970108Y-94347633D01*
X56975090Y-94349956D01*
X56980398Y-94351378D01*
X56980400Y-94351379D01*
X57174030Y-94403262D01*
X57174032Y-94403262D01*
X57179345Y-94404686D01*
X57390000Y-94423116D01*
X57600655Y-94404686D01*
X57605968Y-94403262D01*
X57605970Y-94403262D01*
X57799600Y-94351379D01*
X57799602Y-94351378D01*
X57804910Y-94349956D01*
X57809892Y-94347633D01*
X57991577Y-94262912D01*
X57991580Y-94262910D01*
X57996558Y-94260589D01*
X58169776Y-94139301D01*
X58319301Y-93989776D01*
X58440589Y-93816558D01*
X58529956Y-93624910D01*
X58584686Y-93420655D01*
X58603116Y-93210000D01*
X58584686Y-92999345D01*
X58529956Y-92795090D01*
X58440589Y-92603442D01*
X58319301Y-92430224D01*
X58169776Y-92280699D01*
X57996558Y-92159411D01*
X57991580Y-92157090D01*
X57991577Y-92157088D01*
X57809892Y-92072367D01*
X57809891Y-92072366D01*
X57804910Y-92070044D01*
X57799602Y-92068622D01*
X57799600Y-92068621D01*
X57605970Y-92016738D01*
X57605968Y-92016738D01*
X57600655Y-92015314D01*
X57390000Y-91996884D01*
X57179345Y-92015314D01*
X57174032Y-92016738D01*
X57174030Y-92016738D01*
X56980400Y-92068621D01*
X56980398Y-92068622D01*
X56975090Y-92070044D01*
X56970109Y-92072366D01*
X56970108Y-92072367D01*
X56788423Y-92157088D01*
X56788420Y-92157090D01*
X56783442Y-92159411D01*
X56610224Y-92280699D01*
X56460699Y-92430224D01*
X56339411Y-92603442D01*
X56250044Y-92795090D01*
X56195314Y-92999345D01*
X56176884Y-93210000D01*
X54475904Y-93210000D01*
X40514916Y-79249011D01*
X40480890Y-79186699D01*
X40478011Y-79159916D01*
X40478011Y-74723278D01*
X40478538Y-74712095D01*
X40480213Y-74704602D01*
X40478073Y-74636525D01*
X40478011Y-74632566D01*
X40478011Y-74604655D01*
X40477506Y-74600655D01*
X40476573Y-74588812D01*
X40476025Y-74571358D01*
X40475184Y-74544622D01*
X40469532Y-74525168D01*
X40465524Y-74505811D01*
X40463979Y-74493581D01*
X40463979Y-74493580D01*
X40462985Y-74485714D01*
X40454532Y-74464364D01*
X40446707Y-74444599D01*
X40442862Y-74433369D01*
X40432740Y-74398528D01*
X40432740Y-74398527D01*
X40430529Y-74390918D01*
X40426496Y-74384099D01*
X40426494Y-74384094D01*
X40420218Y-74373483D01*
X40411523Y-74355735D01*
X40404063Y-74336894D01*
X40378075Y-74301124D01*
X40371559Y-74291204D01*
X40353091Y-74259976D01*
X40353089Y-74259973D01*
X40349053Y-74253149D01*
X40334732Y-74238828D01*
X40321891Y-74223794D01*
X40321074Y-74222670D01*
X44152160Y-74222670D01*
X44157887Y-74230320D01*
X44329042Y-74335205D01*
X44337837Y-74339687D01*
X44547988Y-74426734D01*
X44557373Y-74429783D01*
X44778554Y-74482885D01*
X44788301Y-74484428D01*
X45015070Y-74502275D01*
X45024930Y-74502275D01*
X45251699Y-74484428D01*
X45261446Y-74482885D01*
X45482627Y-74429783D01*
X45492012Y-74426734D01*
X45702163Y-74339687D01*
X45710958Y-74335205D01*
X45878445Y-74232568D01*
X45887907Y-74222110D01*
X45884124Y-74213334D01*
X45032812Y-73362022D01*
X45018868Y-73354408D01*
X45017035Y-73354539D01*
X45010420Y-73358790D01*
X44158920Y-74210290D01*
X44152160Y-74222670D01*
X40321074Y-74222670D01*
X40309983Y-74207404D01*
X40275906Y-74179213D01*
X40267127Y-74171223D01*
X39090834Y-72994930D01*
X43507725Y-72994930D01*
X43525572Y-73221699D01*
X43527115Y-73231446D01*
X43580217Y-73452627D01*
X43583266Y-73462012D01*
X43670313Y-73672163D01*
X43674795Y-73680958D01*
X43777432Y-73848445D01*
X43787890Y-73857907D01*
X43796666Y-73854124D01*
X44647978Y-73002812D01*
X44654356Y-72991132D01*
X45384408Y-72991132D01*
X45384539Y-72992965D01*
X45388790Y-72999580D01*
X46240290Y-73851080D01*
X46252670Y-73857840D01*
X46260320Y-73852113D01*
X46365205Y-73680958D01*
X46369687Y-73672163D01*
X46456734Y-73462012D01*
X46459783Y-73452627D01*
X46512885Y-73231446D01*
X46514428Y-73221699D01*
X46532275Y-72994930D01*
X46532275Y-72985070D01*
X46514428Y-72758301D01*
X46512885Y-72748554D01*
X46502683Y-72706062D01*
X55438493Y-72706062D01*
X55447789Y-72718077D01*
X55498994Y-72753931D01*
X55508489Y-72759414D01*
X55705947Y-72851490D01*
X55716239Y-72855236D01*
X55926688Y-72911625D01*
X55937481Y-72913528D01*
X56154525Y-72932517D01*
X56165475Y-72932517D01*
X56382519Y-72913528D01*
X56393312Y-72911625D01*
X56603761Y-72855236D01*
X56614053Y-72851490D01*
X56811511Y-72759414D01*
X56821006Y-72753931D01*
X56873048Y-72717491D01*
X56881424Y-72707012D01*
X56874356Y-72693566D01*
X56172812Y-71992022D01*
X56158868Y-71984408D01*
X56157035Y-71984539D01*
X56150420Y-71988790D01*
X55444923Y-72694287D01*
X55438493Y-72706062D01*
X46502683Y-72706062D01*
X46459783Y-72527373D01*
X46456734Y-72517988D01*
X46369687Y-72307837D01*
X46365205Y-72299042D01*
X46262568Y-72131555D01*
X46252110Y-72122093D01*
X46243334Y-72125876D01*
X45392022Y-72977188D01*
X45384408Y-72991132D01*
X44654356Y-72991132D01*
X44655592Y-72988868D01*
X44655461Y-72987035D01*
X44651210Y-72980420D01*
X43799710Y-72128920D01*
X43787330Y-72122160D01*
X43779680Y-72127887D01*
X43674795Y-72299042D01*
X43670313Y-72307837D01*
X43583266Y-72517988D01*
X43580217Y-72527373D01*
X43527115Y-72748554D01*
X43525572Y-72758301D01*
X43507725Y-72985070D01*
X43507725Y-72994930D01*
X39090834Y-72994930D01*
X37853794Y-71757890D01*
X44152093Y-71757890D01*
X44155876Y-71766666D01*
X45007188Y-72617978D01*
X45021132Y-72625592D01*
X45022965Y-72625461D01*
X45029580Y-72621210D01*
X45881080Y-71769710D01*
X45887840Y-71757330D01*
X45882113Y-71749680D01*
X45710958Y-71644795D01*
X45702163Y-71640313D01*
X45666341Y-71625475D01*
X54847483Y-71625475D01*
X54866472Y-71842519D01*
X54868375Y-71853312D01*
X54924764Y-72063761D01*
X54928510Y-72074053D01*
X55020586Y-72271511D01*
X55026069Y-72281006D01*
X55062509Y-72333048D01*
X55072988Y-72341424D01*
X55086434Y-72334356D01*
X55787978Y-71632812D01*
X55794356Y-71621132D01*
X56524408Y-71621132D01*
X56524539Y-71622965D01*
X56528790Y-71629580D01*
X57234287Y-72335077D01*
X57246062Y-72341507D01*
X57258077Y-72332211D01*
X57293934Y-72281002D01*
X57300591Y-72269472D01*
X57351973Y-72220479D01*
X57421687Y-72207042D01*
X57487598Y-72233429D01*
X57518829Y-72269472D01*
X57520153Y-72271765D01*
X57522477Y-72276749D01*
X57653802Y-72464300D01*
X57815700Y-72626198D01*
X57820208Y-72629355D01*
X57820211Y-72629357D01*
X57884491Y-72674366D01*
X58003251Y-72757523D01*
X58008233Y-72759846D01*
X58008238Y-72759849D01*
X58204765Y-72851490D01*
X58210757Y-72854284D01*
X58216065Y-72855706D01*
X58216067Y-72855707D01*
X58426598Y-72912119D01*
X58426600Y-72912119D01*
X58431913Y-72913543D01*
X58660000Y-72933498D01*
X58888087Y-72913543D01*
X58893400Y-72912119D01*
X58893402Y-72912119D01*
X59103933Y-72855707D01*
X59103935Y-72855706D01*
X59109243Y-72854284D01*
X59115235Y-72851490D01*
X59311762Y-72759849D01*
X59311767Y-72759846D01*
X59316749Y-72757523D01*
X59435509Y-72674366D01*
X59499789Y-72629357D01*
X59499792Y-72629355D01*
X59504300Y-72626198D01*
X59666198Y-72464300D01*
X59797523Y-72276749D01*
X59799846Y-72271767D01*
X59799849Y-72271762D01*
X59891961Y-72074225D01*
X59891961Y-72074224D01*
X59894284Y-72069243D01*
X59914976Y-71992022D01*
X59952119Y-71853402D01*
X59952119Y-71853400D01*
X59953543Y-71848087D01*
X59973498Y-71620000D01*
X59953543Y-71391913D01*
X59944413Y-71357840D01*
X59895707Y-71176067D01*
X59895706Y-71176065D01*
X59894284Y-71170757D01*
X59854737Y-71085947D01*
X59799849Y-70968238D01*
X59799846Y-70968233D01*
X59797523Y-70963251D01*
X59701169Y-70825644D01*
X59669357Y-70780211D01*
X59669355Y-70780208D01*
X59666198Y-70775700D01*
X59504300Y-70613802D01*
X59499792Y-70610645D01*
X59499789Y-70610643D01*
X59373920Y-70522509D01*
X59316749Y-70482477D01*
X59311767Y-70480154D01*
X59311762Y-70480151D01*
X59114225Y-70388039D01*
X59114224Y-70388039D01*
X59109243Y-70385716D01*
X59103935Y-70384294D01*
X59103933Y-70384293D01*
X58893402Y-70327881D01*
X58893400Y-70327881D01*
X58888087Y-70326457D01*
X58660000Y-70306502D01*
X58431913Y-70326457D01*
X58426600Y-70327881D01*
X58426598Y-70327881D01*
X58216067Y-70384293D01*
X58216065Y-70384294D01*
X58210757Y-70385716D01*
X58205776Y-70388039D01*
X58205775Y-70388039D01*
X58008238Y-70480151D01*
X58008233Y-70480154D01*
X58003251Y-70482477D01*
X57946080Y-70522509D01*
X57820211Y-70610643D01*
X57820208Y-70610645D01*
X57815700Y-70613802D01*
X57653802Y-70775700D01*
X57650645Y-70780208D01*
X57650643Y-70780211D01*
X57581475Y-70878994D01*
X57522477Y-70963251D01*
X57520153Y-70968235D01*
X57518829Y-70970528D01*
X57467447Y-71019521D01*
X57397733Y-71032957D01*
X57331822Y-71006571D01*
X57300591Y-70970528D01*
X57293934Y-70958998D01*
X57257491Y-70906952D01*
X57247012Y-70898576D01*
X57233566Y-70905644D01*
X56532022Y-71607188D01*
X56524408Y-71621132D01*
X55794356Y-71621132D01*
X55795592Y-71618868D01*
X55795461Y-71617035D01*
X55791210Y-71610420D01*
X55085713Y-70904923D01*
X55073938Y-70898493D01*
X55061923Y-70907789D01*
X55026069Y-70958994D01*
X55020586Y-70968489D01*
X54928510Y-71165947D01*
X54924764Y-71176239D01*
X54868375Y-71386688D01*
X54866472Y-71397481D01*
X54847483Y-71614525D01*
X54847483Y-71625475D01*
X45666341Y-71625475D01*
X45492012Y-71553266D01*
X45482627Y-71550217D01*
X45261446Y-71497115D01*
X45251699Y-71495572D01*
X45024930Y-71477725D01*
X45015070Y-71477725D01*
X44788301Y-71495572D01*
X44778554Y-71497115D01*
X44557373Y-71550217D01*
X44547988Y-71553266D01*
X44337837Y-71640313D01*
X44329042Y-71644795D01*
X44161555Y-71747432D01*
X44152093Y-71757890D01*
X37853794Y-71757890D01*
X36628892Y-70532988D01*
X55438576Y-70532988D01*
X55445644Y-70546434D01*
X56147188Y-71247978D01*
X56161132Y-71255592D01*
X56162965Y-71255461D01*
X56169580Y-71251210D01*
X56875077Y-70545713D01*
X56881507Y-70533938D01*
X56872211Y-70521923D01*
X56821006Y-70486069D01*
X56811511Y-70480586D01*
X56614053Y-70388510D01*
X56603761Y-70384764D01*
X56393312Y-70328375D01*
X56382519Y-70326472D01*
X56165475Y-70307483D01*
X56154525Y-70307483D01*
X55937481Y-70326472D01*
X55926688Y-70328375D01*
X55716239Y-70384764D01*
X55705947Y-70388510D01*
X55508489Y-70480586D01*
X55498994Y-70486069D01*
X55446952Y-70522509D01*
X55438576Y-70532988D01*
X36628892Y-70532988D01*
X25241318Y-59145413D01*
X25207292Y-59083101D01*
X25212357Y-59012286D01*
X25254904Y-58955450D01*
X25321424Y-58930639D01*
X25335024Y-58930403D01*
X25351698Y-58931015D01*
X25366674Y-58931564D01*
X25366678Y-58931564D01*
X25371837Y-58931753D01*
X25376957Y-58931097D01*
X25376959Y-58931097D01*
X25588288Y-58904025D01*
X25588289Y-58904025D01*
X25593416Y-58903368D01*
X25598367Y-58901883D01*
X25598370Y-58901882D01*
X25639829Y-58889444D01*
X25710825Y-58889028D01*
X25765131Y-58921035D01*
X30451343Y-63607247D01*
X30458887Y-63615537D01*
X30463000Y-63622018D01*
X30468777Y-63627443D01*
X30512667Y-63668658D01*
X30515509Y-63671413D01*
X30535231Y-63691135D01*
X30538355Y-63693558D01*
X30538359Y-63693562D01*
X30538424Y-63693612D01*
X30547445Y-63701317D01*
X30579679Y-63731586D01*
X30586627Y-63735405D01*
X30586629Y-63735407D01*
X30597432Y-63741346D01*
X30613959Y-63752202D01*
X30623698Y-63759757D01*
X30623700Y-63759758D01*
X30629960Y-63764614D01*
X30670540Y-63782174D01*
X30681188Y-63787391D01*
X30694711Y-63794825D01*
X30719940Y-63808695D01*
X30727616Y-63810666D01*
X30727619Y-63810667D01*
X30739562Y-63813733D01*
X30758267Y-63820137D01*
X30776855Y-63828181D01*
X30784678Y-63829420D01*
X30784688Y-63829423D01*
X30820524Y-63835099D01*
X30832144Y-63837505D01*
X30867289Y-63846528D01*
X30874970Y-63848500D01*
X30895224Y-63848500D01*
X30914934Y-63850051D01*
X30934943Y-63853220D01*
X30942835Y-63852474D01*
X30978961Y-63849059D01*
X30990819Y-63848500D01*
X35885500Y-63848500D01*
X35953621Y-63868502D01*
X36000114Y-63922158D01*
X36011500Y-63974500D01*
X36011500Y-66088134D01*
X36018255Y-66150316D01*
X36069385Y-66286705D01*
X36156739Y-66403261D01*
X36273295Y-66490615D01*
X36409684Y-66541745D01*
X36471866Y-66548500D01*
X39568134Y-66548500D01*
X39630316Y-66541745D01*
X39766705Y-66490615D01*
X39883261Y-66403261D01*
X39970615Y-66286705D01*
X40021745Y-66150316D01*
X40028500Y-66088134D01*
X40028500Y-63974500D01*
X40048502Y-63906379D01*
X40102158Y-63859886D01*
X40154500Y-63848500D01*
X48490837Y-63848500D01*
X48558958Y-63868502D01*
X48579932Y-63885405D01*
X51080119Y-66385592D01*
X51114145Y-66447904D01*
X51109080Y-66518719D01*
X51066533Y-66575555D01*
X51002006Y-66600208D01*
X50982554Y-66601910D01*
X50829345Y-66615314D01*
X50824032Y-66616738D01*
X50824030Y-66616738D01*
X50630400Y-66668621D01*
X50630398Y-66668622D01*
X50625090Y-66670044D01*
X50620109Y-66672366D01*
X50620108Y-66672367D01*
X50438423Y-66757088D01*
X50438420Y-66757090D01*
X50433442Y-66759411D01*
X50260224Y-66880699D01*
X50110699Y-67030224D01*
X49989411Y-67203442D01*
X49987090Y-67208420D01*
X49987088Y-67208423D01*
X49951963Y-67283750D01*
X49905046Y-67337035D01*
X49837768Y-67356500D01*
X46471566Y-67356500D01*
X46403445Y-67336498D01*
X46364133Y-67296335D01*
X46246759Y-67104798D01*
X46246755Y-67104792D01*
X46244176Y-67100584D01*
X46089969Y-66920031D01*
X45909416Y-66765824D01*
X45905208Y-66763245D01*
X45905202Y-66763241D01*
X45711183Y-66644346D01*
X45706963Y-66641760D01*
X45702393Y-66639867D01*
X45702389Y-66639865D01*
X45492167Y-66552789D01*
X45492165Y-66552788D01*
X45487594Y-66550895D01*
X45407391Y-66531640D01*
X45261524Y-66496620D01*
X45261518Y-66496619D01*
X45256711Y-66495465D01*
X45020000Y-66476835D01*
X44783289Y-66495465D01*
X44778482Y-66496619D01*
X44778476Y-66496620D01*
X44632609Y-66531640D01*
X44552406Y-66550895D01*
X44547835Y-66552788D01*
X44547833Y-66552789D01*
X44337611Y-66639865D01*
X44337607Y-66639867D01*
X44333037Y-66641760D01*
X44328817Y-66644346D01*
X44134798Y-66763241D01*
X44134792Y-66763245D01*
X44130584Y-66765824D01*
X43950031Y-66920031D01*
X43795824Y-67100584D01*
X43793245Y-67104792D01*
X43793241Y-67104798D01*
X43755063Y-67167099D01*
X43671760Y-67303037D01*
X43669867Y-67307607D01*
X43669865Y-67307611D01*
X43631431Y-67400400D01*
X43580895Y-67522406D01*
X43579740Y-67527218D01*
X43528599Y-67740237D01*
X43525465Y-67753289D01*
X43506835Y-67990000D01*
X43525465Y-68226711D01*
X43526619Y-68231518D01*
X43526620Y-68231524D01*
X43556205Y-68354753D01*
X43580895Y-68457594D01*
X43582788Y-68462165D01*
X43582789Y-68462167D01*
X43668005Y-68667897D01*
X43671760Y-68676963D01*
X43674346Y-68681183D01*
X43793241Y-68875202D01*
X43793245Y-68875208D01*
X43795824Y-68879416D01*
X43950031Y-69059969D01*
X44130584Y-69214176D01*
X44134792Y-69216755D01*
X44134798Y-69216759D01*
X44328817Y-69335654D01*
X44333037Y-69338240D01*
X44337607Y-69340133D01*
X44337611Y-69340135D01*
X44547833Y-69427211D01*
X44552406Y-69429105D01*
X44600349Y-69440615D01*
X44778476Y-69483380D01*
X44778482Y-69483381D01*
X44783289Y-69484535D01*
X45020000Y-69503165D01*
X45256711Y-69484535D01*
X45261518Y-69483381D01*
X45261524Y-69483380D01*
X45439651Y-69440615D01*
X45487594Y-69429105D01*
X45492167Y-69427211D01*
X45702389Y-69340135D01*
X45702393Y-69340133D01*
X45706963Y-69338240D01*
X45711183Y-69335654D01*
X45905202Y-69216759D01*
X45905208Y-69216755D01*
X45909416Y-69214176D01*
X46089969Y-69059969D01*
X46244176Y-68879416D01*
X46246755Y-68875208D01*
X46246759Y-68875202D01*
X46364133Y-68683665D01*
X46416781Y-68636034D01*
X46471566Y-68623500D01*
X50092233Y-68623500D01*
X50160354Y-68643502D01*
X50181328Y-68660405D01*
X50260224Y-68739301D01*
X50433442Y-68860589D01*
X50438420Y-68862910D01*
X50438423Y-68862912D01*
X50620108Y-68947633D01*
X50625090Y-68949956D01*
X50630398Y-68951378D01*
X50630400Y-68951379D01*
X50824030Y-69003262D01*
X50824032Y-69003262D01*
X50829345Y-69004686D01*
X51040000Y-69023116D01*
X51250655Y-69004686D01*
X51255968Y-69003262D01*
X51255970Y-69003262D01*
X51449600Y-68951379D01*
X51449602Y-68951378D01*
X51454910Y-68949956D01*
X51459892Y-68947633D01*
X51641577Y-68862912D01*
X51641580Y-68862910D01*
X51646558Y-68860589D01*
X51819776Y-68739301D01*
X51969301Y-68589776D01*
X52090589Y-68416558D01*
X52094239Y-68408732D01*
X52177633Y-68229892D01*
X52177634Y-68229891D01*
X52179956Y-68224910D01*
X52184355Y-68208495D01*
X52233262Y-68025970D01*
X52233262Y-68025968D01*
X52234686Y-68020655D01*
X52249792Y-67847994D01*
X52275656Y-67781876D01*
X52333159Y-67740237D01*
X52404046Y-67736296D01*
X52464408Y-67769881D01*
X52896774Y-68202247D01*
X52904318Y-68210537D01*
X52908431Y-68217018D01*
X52914208Y-68222443D01*
X52958098Y-68263658D01*
X52960940Y-68266413D01*
X52980661Y-68286134D01*
X52983856Y-68288612D01*
X52992878Y-68296318D01*
X53025110Y-68326586D01*
X53032059Y-68330406D01*
X53042863Y-68336346D01*
X53059387Y-68347199D01*
X53075390Y-68359613D01*
X53115974Y-68377176D01*
X53126604Y-68382383D01*
X53165371Y-68403695D01*
X53173048Y-68405666D01*
X53173053Y-68405668D01*
X53184989Y-68408732D01*
X53203697Y-68415137D01*
X53222286Y-68423181D01*
X53230114Y-68424421D01*
X53230121Y-68424423D01*
X53265955Y-68430099D01*
X53277575Y-68432505D01*
X53312720Y-68441528D01*
X53320401Y-68443500D01*
X53340655Y-68443500D01*
X53360365Y-68445051D01*
X53380374Y-68448220D01*
X53388266Y-68447474D01*
X53424392Y-68444059D01*
X53436250Y-68443500D01*
X57562685Y-68443500D01*
X57630806Y-68463502D01*
X57665898Y-68497230D01*
X57730699Y-68589776D01*
X57880224Y-68739301D01*
X58053442Y-68860589D01*
X58058420Y-68862910D01*
X58058423Y-68862912D01*
X58240108Y-68947633D01*
X58245090Y-68949956D01*
X58250398Y-68951378D01*
X58250400Y-68951379D01*
X58444030Y-69003262D01*
X58444032Y-69003262D01*
X58449345Y-69004686D01*
X58660000Y-69023116D01*
X58870655Y-69004686D01*
X58875968Y-69003262D01*
X58875970Y-69003262D01*
X59069600Y-68951379D01*
X59069602Y-68951378D01*
X59074910Y-68949956D01*
X59079892Y-68947633D01*
X59261577Y-68862912D01*
X59261580Y-68862910D01*
X59266558Y-68860589D01*
X59439776Y-68739301D01*
X59589301Y-68589776D01*
X59710589Y-68416558D01*
X59714239Y-68408732D01*
X59797633Y-68229892D01*
X59797634Y-68229891D01*
X59799956Y-68224910D01*
X59804355Y-68208495D01*
X59853262Y-68025970D01*
X59853262Y-68025968D01*
X59854686Y-68020655D01*
X59873116Y-67810000D01*
X59854686Y-67599345D01*
X59835360Y-67527218D01*
X59801379Y-67400400D01*
X59801378Y-67400398D01*
X59799956Y-67395090D01*
X59781961Y-67356500D01*
X59712912Y-67208423D01*
X59712910Y-67208420D01*
X59710589Y-67203442D01*
X59589301Y-67030224D01*
X59439776Y-66880699D01*
X59266558Y-66759411D01*
X59261580Y-66757090D01*
X59261577Y-66757088D01*
X59079892Y-66672367D01*
X59079891Y-66672366D01*
X59074910Y-66670044D01*
X59069602Y-66668622D01*
X59069600Y-66668621D01*
X58875970Y-66616738D01*
X58875968Y-66616738D01*
X58870655Y-66615314D01*
X58660000Y-66596884D01*
X58449345Y-66615314D01*
X58444032Y-66616738D01*
X58444030Y-66616738D01*
X58250400Y-66668621D01*
X58250398Y-66668622D01*
X58245090Y-66670044D01*
X58240109Y-66672366D01*
X58240108Y-66672367D01*
X58058423Y-66757088D01*
X58058420Y-66757090D01*
X58053442Y-66759411D01*
X57880224Y-66880699D01*
X57730699Y-67030224D01*
X57698298Y-67076498D01*
X57665898Y-67122770D01*
X57610441Y-67167099D01*
X57562685Y-67176500D01*
X53715026Y-67176500D01*
X53646905Y-67156498D01*
X53625931Y-67139595D01*
X51688255Y-65201919D01*
X51654229Y-65139607D01*
X51659294Y-65068792D01*
X51705077Y-65009614D01*
X51819776Y-64929301D01*
X51969301Y-64779776D01*
X52090589Y-64606558D01*
X52130217Y-64521577D01*
X52177633Y-64419892D01*
X52177634Y-64419891D01*
X52179956Y-64414910D01*
X52234686Y-64210655D01*
X52253116Y-64000000D01*
X57446884Y-64000000D01*
X57465314Y-64210655D01*
X57520044Y-64414910D01*
X57522366Y-64419891D01*
X57522367Y-64419892D01*
X57569784Y-64521577D01*
X57609411Y-64606558D01*
X57730699Y-64779776D01*
X57880224Y-64929301D01*
X58053442Y-65050589D01*
X58058420Y-65052910D01*
X58058423Y-65052912D01*
X58240108Y-65137633D01*
X58245090Y-65139956D01*
X58250398Y-65141378D01*
X58250400Y-65141379D01*
X58444030Y-65193262D01*
X58444032Y-65193262D01*
X58449345Y-65194686D01*
X58660000Y-65213116D01*
X58870655Y-65194686D01*
X58875968Y-65193262D01*
X58875970Y-65193262D01*
X59069600Y-65141379D01*
X59069602Y-65141378D01*
X59074910Y-65139956D01*
X59079892Y-65137633D01*
X59261577Y-65052912D01*
X59261580Y-65052910D01*
X59266558Y-65050589D01*
X59439776Y-64929301D01*
X59589301Y-64779776D01*
X59710589Y-64606558D01*
X59750217Y-64521577D01*
X59797633Y-64419892D01*
X59797634Y-64419891D01*
X59799956Y-64414910D01*
X59854686Y-64210655D01*
X59873116Y-64000000D01*
X59854686Y-63789345D01*
X59844734Y-63752202D01*
X59801379Y-63590400D01*
X59801378Y-63590398D01*
X59799956Y-63585090D01*
X59797633Y-63580108D01*
X59712912Y-63398423D01*
X59712910Y-63398420D01*
X59710589Y-63393442D01*
X59589301Y-63220224D01*
X59439776Y-63070699D01*
X59266558Y-62949411D01*
X59261580Y-62947090D01*
X59261577Y-62947088D01*
X59079892Y-62862367D01*
X59079891Y-62862366D01*
X59074910Y-62860044D01*
X59069602Y-62858622D01*
X59069600Y-62858621D01*
X58875970Y-62806738D01*
X58875968Y-62806738D01*
X58870655Y-62805314D01*
X58660000Y-62786884D01*
X58449345Y-62805314D01*
X58444032Y-62806738D01*
X58444030Y-62806738D01*
X58250400Y-62858621D01*
X58250398Y-62858622D01*
X58245090Y-62860044D01*
X58240109Y-62862366D01*
X58240108Y-62862367D01*
X58058423Y-62947088D01*
X58058420Y-62947090D01*
X58053442Y-62949411D01*
X57880224Y-63070699D01*
X57730699Y-63220224D01*
X57609411Y-63393442D01*
X57607090Y-63398420D01*
X57607088Y-63398423D01*
X57522367Y-63580108D01*
X57520044Y-63585090D01*
X57518622Y-63590398D01*
X57518621Y-63590400D01*
X57475266Y-63752202D01*
X57465314Y-63789345D01*
X57446884Y-64000000D01*
X52253116Y-64000000D01*
X52234686Y-63789345D01*
X52224734Y-63752202D01*
X52181379Y-63590400D01*
X52181378Y-63590398D01*
X52179956Y-63585090D01*
X52177633Y-63580108D01*
X52092912Y-63398423D01*
X52092910Y-63398420D01*
X52090589Y-63393442D01*
X51969301Y-63220224D01*
X51819776Y-63070699D01*
X51646558Y-62949411D01*
X51641580Y-62947090D01*
X51641577Y-62947088D01*
X51459892Y-62862367D01*
X51459891Y-62862366D01*
X51454910Y-62860044D01*
X51449602Y-62858622D01*
X51449600Y-62858621D01*
X51255970Y-62806738D01*
X51255968Y-62806738D01*
X51250655Y-62805314D01*
X51040000Y-62786884D01*
X50829345Y-62805314D01*
X50824032Y-62806738D01*
X50824030Y-62806738D01*
X50630400Y-62858621D01*
X50630398Y-62858622D01*
X50625090Y-62860044D01*
X50620109Y-62862366D01*
X50620108Y-62862367D01*
X50438423Y-62947088D01*
X50438420Y-62947090D01*
X50433442Y-62949411D01*
X50260224Y-63070699D01*
X50110699Y-63220224D01*
X50030386Y-63334923D01*
X49974933Y-63379249D01*
X49904313Y-63386558D01*
X49838081Y-63351745D01*
X49309083Y-62822747D01*
X49301543Y-62814461D01*
X49297431Y-62807982D01*
X49247779Y-62761356D01*
X49244938Y-62758602D01*
X49225201Y-62738865D01*
X49222004Y-62736385D01*
X49212982Y-62728680D01*
X49209398Y-62725314D01*
X49180752Y-62698414D01*
X49173806Y-62694595D01*
X49173803Y-62694593D01*
X49162997Y-62688652D01*
X49146478Y-62677801D01*
X49146014Y-62677441D01*
X49130472Y-62665386D01*
X49123203Y-62662241D01*
X49123199Y-62662238D01*
X49089894Y-62647826D01*
X49079244Y-62642609D01*
X49040491Y-62621305D01*
X49020868Y-62616267D01*
X49002165Y-62609863D01*
X48990851Y-62604967D01*
X48990850Y-62604967D01*
X48983576Y-62601819D01*
X48975753Y-62600580D01*
X48975743Y-62600577D01*
X48939907Y-62594901D01*
X48928287Y-62592495D01*
X48893142Y-62583472D01*
X48893141Y-62583472D01*
X48885461Y-62581500D01*
X48865207Y-62581500D01*
X48845496Y-62579949D01*
X48833317Y-62578020D01*
X48825488Y-62576780D01*
X48817596Y-62577526D01*
X48781470Y-62580941D01*
X48769612Y-62581500D01*
X31269594Y-62581500D01*
X31201473Y-62561498D01*
X31180499Y-62544595D01*
X27781318Y-59145413D01*
X27774378Y-59132703D01*
X46890743Y-59132703D01*
X46928268Y-59417734D01*
X47004129Y-59695036D01*
X47116923Y-59959476D01*
X47264561Y-60206161D01*
X47444313Y-60430528D01*
X47652851Y-60628423D01*
X47886317Y-60796186D01*
X47890112Y-60798195D01*
X47890113Y-60798196D01*
X47911869Y-60809715D01*
X48140392Y-60930712D01*
X48410373Y-61029511D01*
X48691264Y-61090755D01*
X48719841Y-61093004D01*
X48914282Y-61108307D01*
X48914291Y-61108307D01*
X48916739Y-61108500D01*
X49072271Y-61108500D01*
X49074407Y-61108354D01*
X49074418Y-61108354D01*
X49282548Y-61094165D01*
X49282554Y-61094164D01*
X49286825Y-61093873D01*
X49291020Y-61093004D01*
X49291022Y-61093004D01*
X49427584Y-61064723D01*
X49568342Y-61035574D01*
X49839343Y-60939607D01*
X50094812Y-60807750D01*
X50098313Y-60805289D01*
X50098317Y-60805287D01*
X50212417Y-60725096D01*
X50330023Y-60642441D01*
X50540622Y-60446740D01*
X50722713Y-60224268D01*
X50872927Y-59979142D01*
X50988483Y-59715898D01*
X51067244Y-59439406D01*
X51107751Y-59154784D01*
X51107801Y-59145413D01*
X51109235Y-58871583D01*
X51109235Y-58871576D01*
X51109257Y-58867297D01*
X51105751Y-58840661D01*
X51075932Y-58614171D01*
X51071732Y-58582266D01*
X50995871Y-58304964D01*
X50883077Y-58040524D01*
X50735439Y-57793839D01*
X50555687Y-57569472D01*
X50347149Y-57371577D01*
X50113683Y-57203814D01*
X50091843Y-57192250D01*
X49985076Y-57135720D01*
X49859608Y-57069288D01*
X49589627Y-56970489D01*
X49308736Y-56909245D01*
X49277685Y-56906801D01*
X49085718Y-56891693D01*
X49085709Y-56891693D01*
X49083261Y-56891500D01*
X48927729Y-56891500D01*
X48925593Y-56891646D01*
X48925582Y-56891646D01*
X48717452Y-56905835D01*
X48717446Y-56905836D01*
X48713175Y-56906127D01*
X48708980Y-56906996D01*
X48708978Y-56906996D01*
X48632702Y-56922792D01*
X48431658Y-56964426D01*
X48160657Y-57060393D01*
X48156848Y-57062359D01*
X48033635Y-57125954D01*
X47905188Y-57192250D01*
X47901687Y-57194711D01*
X47901683Y-57194713D01*
X47891594Y-57201804D01*
X47669977Y-57357559D01*
X47654892Y-57371577D01*
X47471656Y-57541851D01*
X47459378Y-57553260D01*
X47277287Y-57775732D01*
X47127073Y-58020858D01*
X47125347Y-58024791D01*
X47125346Y-58024792D01*
X47057290Y-58179829D01*
X47011517Y-58284102D01*
X46932756Y-58560594D01*
X46892249Y-58845216D01*
X46892227Y-58849505D01*
X46892226Y-58849512D01*
X46890765Y-59128417D01*
X46890743Y-59132703D01*
X27774378Y-59132703D01*
X27747292Y-59083101D01*
X27752357Y-59012285D01*
X27794904Y-58955450D01*
X27861424Y-58930639D01*
X27875024Y-58930403D01*
X27891698Y-58931015D01*
X27906674Y-58931564D01*
X27906678Y-58931564D01*
X27911837Y-58931753D01*
X27916957Y-58931097D01*
X27916959Y-58931097D01*
X28128288Y-58904025D01*
X28128289Y-58904025D01*
X28133416Y-58903368D01*
X28138369Y-58901882D01*
X28342429Y-58840661D01*
X28342434Y-58840659D01*
X28347384Y-58839174D01*
X28547994Y-58740896D01*
X28729860Y-58611173D01*
X28888096Y-58453489D01*
X28947594Y-58370689D01*
X29018453Y-58272077D01*
X29019776Y-58273028D01*
X29066645Y-58229857D01*
X29136580Y-58217625D01*
X29202026Y-58245144D01*
X29229875Y-58276994D01*
X29244596Y-58301016D01*
X29289987Y-58375088D01*
X29436250Y-58543938D01*
X29608126Y-58686632D01*
X29801000Y-58799338D01*
X30009692Y-58879030D01*
X30014760Y-58880061D01*
X30014763Y-58880062D01*
X30122012Y-58901882D01*
X30228597Y-58923567D01*
X30233772Y-58923757D01*
X30233774Y-58923757D01*
X30446673Y-58931564D01*
X30446677Y-58931564D01*
X30451837Y-58931753D01*
X30456957Y-58931097D01*
X30456959Y-58931097D01*
X30668288Y-58904025D01*
X30668289Y-58904025D01*
X30673416Y-58903368D01*
X30678369Y-58901882D01*
X30882429Y-58840661D01*
X30882434Y-58840659D01*
X30887384Y-58839174D01*
X31087994Y-58740896D01*
X31269860Y-58611173D01*
X31428096Y-58453489D01*
X31487594Y-58370689D01*
X31555435Y-58276277D01*
X31558453Y-58272077D01*
X31579320Y-58229857D01*
X31655136Y-58076453D01*
X31655137Y-58076451D01*
X31657430Y-58071811D01*
X31722370Y-57858069D01*
X31751529Y-57636590D01*
X31753156Y-57570000D01*
X31734852Y-57347361D01*
X31680431Y-57130702D01*
X31591354Y-56925840D01*
X31470014Y-56738277D01*
X31319670Y-56573051D01*
X31315616Y-56569849D01*
X31315615Y-56569848D01*
X31148414Y-56437800D01*
X31148410Y-56437798D01*
X31144359Y-56434598D01*
X31103053Y-56411796D01*
X31053084Y-56361364D01*
X31038312Y-56291921D01*
X31063428Y-56225516D01*
X31090780Y-56198909D01*
X31134603Y-56167650D01*
X31269860Y-56071173D01*
X31428096Y-55913489D01*
X31447084Y-55887065D01*
X31555435Y-55736277D01*
X31558453Y-55732077D01*
X31579320Y-55689857D01*
X31655136Y-55536453D01*
X31655137Y-55536451D01*
X31657430Y-55531811D01*
X31722370Y-55318069D01*
X31751529Y-55096590D01*
X31753156Y-55030000D01*
X31734852Y-54807361D01*
X31680431Y-54590702D01*
X31591354Y-54385840D01*
X31551906Y-54324862D01*
X31472822Y-54202617D01*
X31472820Y-54202614D01*
X31470014Y-54198277D01*
X31319670Y-54033051D01*
X31315619Y-54029852D01*
X31315615Y-54029848D01*
X31148414Y-53897800D01*
X31148410Y-53897798D01*
X31144359Y-53894598D01*
X31139835Y-53892101D01*
X31139831Y-53892098D01*
X31088608Y-53863822D01*
X31038636Y-53813390D01*
X31023500Y-53753513D01*
X31023500Y-33285594D01*
X31043502Y-33217473D01*
X31060405Y-33196499D01*
X42212253Y-22044652D01*
X42220539Y-22037112D01*
X42227018Y-22033000D01*
X42273644Y-21983348D01*
X42276398Y-21980507D01*
X42296135Y-21960770D01*
X42298615Y-21957573D01*
X42306320Y-21948551D01*
X42331159Y-21922100D01*
X42336586Y-21916321D01*
X42340405Y-21909375D01*
X42340407Y-21909372D01*
X42346348Y-21898566D01*
X42357199Y-21882047D01*
X42364758Y-21872301D01*
X42369614Y-21866041D01*
X42372759Y-21858772D01*
X42372762Y-21858768D01*
X42387174Y-21825463D01*
X42392391Y-21814813D01*
X42413695Y-21776060D01*
X42418733Y-21756437D01*
X42425137Y-21737734D01*
X42430033Y-21726420D01*
X42430033Y-21726419D01*
X42433181Y-21719145D01*
X42434420Y-21711322D01*
X42434423Y-21711312D01*
X42440099Y-21675476D01*
X42442505Y-21663856D01*
X42451528Y-21628711D01*
X42451528Y-21628710D01*
X42453500Y-21621030D01*
X42453500Y-21600776D01*
X42455051Y-21581065D01*
X42456980Y-21568886D01*
X42458220Y-21561057D01*
X42454059Y-21517038D01*
X42453500Y-21505181D01*
X42453500Y-18960427D01*
X42473502Y-18892306D01*
X42514618Y-18852550D01*
X42517994Y-18850896D01*
X42699860Y-18721173D01*
X42858096Y-18563489D01*
X42988453Y-18382077D01*
X43009320Y-18339857D01*
X43085136Y-18186453D01*
X43085137Y-18186451D01*
X43087430Y-18181811D01*
X43152370Y-17968069D01*
X43181529Y-17746590D01*
X43183156Y-17680000D01*
X43164852Y-17457361D01*
X43110431Y-17240702D01*
X43021354Y-17035840D01*
X42900014Y-16848277D01*
X42749670Y-16683051D01*
X42745619Y-16679852D01*
X42745615Y-16679848D01*
X42578414Y-16547800D01*
X42578410Y-16547798D01*
X42574359Y-16544598D01*
X42378789Y-16436638D01*
X42373920Y-16434914D01*
X42373916Y-16434912D01*
X42173087Y-16363795D01*
X42173083Y-16363794D01*
X42168212Y-16362069D01*
X42163119Y-16361162D01*
X42163116Y-16361161D01*
X41953373Y-16323800D01*
X41953367Y-16323799D01*
X41948284Y-16322894D01*
X41874452Y-16321992D01*
X41730081Y-16320228D01*
X41730079Y-16320228D01*
X41724911Y-16320165D01*
X41504091Y-16353955D01*
X41291756Y-16423357D01*
X41093607Y-16526507D01*
X41089474Y-16529610D01*
X41089471Y-16529612D01*
X40919100Y-16657530D01*
X40914965Y-16660635D01*
X40911393Y-16664373D01*
X40803729Y-16777037D01*
X40760629Y-16822138D01*
X40653201Y-16979621D01*
X40598293Y-17024621D01*
X40527768Y-17032792D01*
X40464021Y-17001538D01*
X40443324Y-16977054D01*
X40362822Y-16852617D01*
X40362820Y-16852614D01*
X40360014Y-16848277D01*
X40209670Y-16683051D01*
X40205619Y-16679852D01*
X40205615Y-16679848D01*
X40038414Y-16547800D01*
X40038410Y-16547798D01*
X40034359Y-16544598D01*
X39838789Y-16436638D01*
X39833920Y-16434914D01*
X39833916Y-16434912D01*
X39633087Y-16363795D01*
X39633083Y-16363794D01*
X39628212Y-16362069D01*
X39623119Y-16361162D01*
X39623116Y-16361161D01*
X39413373Y-16323800D01*
X39413367Y-16323799D01*
X39408284Y-16322894D01*
X39334452Y-16321992D01*
X39190081Y-16320228D01*
X39190079Y-16320228D01*
X39184911Y-16320165D01*
X38964091Y-16353955D01*
X38751756Y-16423357D01*
X38553607Y-16526507D01*
X38549474Y-16529610D01*
X38549471Y-16529612D01*
X38379100Y-16657530D01*
X38374965Y-16660635D01*
X38371393Y-16664373D01*
X38263729Y-16777037D01*
X38220629Y-16822138D01*
X38113201Y-16979621D01*
X38058293Y-17024621D01*
X37987768Y-17032792D01*
X37924021Y-17001538D01*
X37903324Y-16977054D01*
X37822822Y-16852617D01*
X37822820Y-16852614D01*
X37820014Y-16848277D01*
X37669670Y-16683051D01*
X37665619Y-16679852D01*
X37665615Y-16679848D01*
X37498414Y-16547800D01*
X37498410Y-16547798D01*
X37494359Y-16544598D01*
X37298789Y-16436638D01*
X37293920Y-16434914D01*
X37293916Y-16434912D01*
X37093087Y-16363795D01*
X37093083Y-16363794D01*
X37088212Y-16362069D01*
X37083119Y-16361162D01*
X37083116Y-16361161D01*
X36873373Y-16323800D01*
X36873367Y-16323799D01*
X36868284Y-16322894D01*
X36794452Y-16321992D01*
X36650081Y-16320228D01*
X36650079Y-16320228D01*
X36644911Y-16320165D01*
X36424091Y-16353955D01*
X36211756Y-16423357D01*
X36013607Y-16526507D01*
X36009474Y-16529610D01*
X36009471Y-16529612D01*
X35839100Y-16657530D01*
X35834965Y-16660635D01*
X35778537Y-16719684D01*
X35754283Y-16745064D01*
X35692759Y-16780494D01*
X35621846Y-16777037D01*
X35564060Y-16735791D01*
X35545207Y-16702243D01*
X35503767Y-16591703D01*
X35500615Y-16583295D01*
X35413261Y-16466739D01*
X35296705Y-16379385D01*
X35160316Y-16328255D01*
X35098134Y-16321500D01*
X33301866Y-16321500D01*
X33239684Y-16328255D01*
X33103295Y-16379385D01*
X32986739Y-16466739D01*
X32899385Y-16583295D01*
X32848255Y-16719684D01*
X32841500Y-16781866D01*
X32841500Y-17736853D01*
X32821498Y-17804974D01*
X32804595Y-17825948D01*
X30766454Y-19864088D01*
X30751426Y-19876925D01*
X30740566Y-19884815D01*
X30736145Y-19889725D01*
X30736144Y-19889726D01*
X30696114Y-19934184D01*
X30691573Y-19938969D01*
X30677528Y-19953014D01*
X30675444Y-19955588D01*
X30675441Y-19955591D01*
X30665031Y-19968446D01*
X30660747Y-19973462D01*
X30620717Y-20017920D01*
X30620713Y-20017925D01*
X30616296Y-20022831D01*
X30609791Y-20034097D01*
X30609589Y-20034448D01*
X30598391Y-20050741D01*
X30589953Y-20061161D01*
X30559787Y-20120363D01*
X30556654Y-20126133D01*
X30526740Y-20177945D01*
X30526738Y-20177950D01*
X30523436Y-20183669D01*
X30521395Y-20189949D01*
X30521392Y-20189957D01*
X30519292Y-20196421D01*
X30511728Y-20214683D01*
X30508637Y-20220749D01*
X30508634Y-20220758D01*
X30505638Y-20226637D01*
X30503929Y-20233015D01*
X30488444Y-20290804D01*
X30486578Y-20297106D01*
X30466046Y-20360298D01*
X30465356Y-20366866D01*
X30464645Y-20373628D01*
X30461042Y-20393071D01*
X30457570Y-20406029D01*
X30457225Y-20412619D01*
X30457224Y-20412623D01*
X30454093Y-20472367D01*
X30453577Y-20478931D01*
X30451500Y-20498694D01*
X30451500Y-20518555D01*
X30451327Y-20525150D01*
X30447850Y-20591493D01*
X30448882Y-20598007D01*
X30449949Y-20604744D01*
X30451500Y-20624456D01*
X30451500Y-20961768D01*
X30431498Y-21029889D01*
X30426326Y-21037333D01*
X30384385Y-21093295D01*
X30333255Y-21229684D01*
X30326500Y-21291866D01*
X30326500Y-22888134D01*
X30333255Y-22950316D01*
X30384385Y-23086705D01*
X30471739Y-23203261D01*
X30588295Y-23290615D01*
X30724684Y-23341745D01*
X30786866Y-23348500D01*
X31625500Y-23348500D01*
X31693621Y-23368502D01*
X31740114Y-23422158D01*
X31751500Y-23474500D01*
X31751500Y-27386852D01*
X31731498Y-27454973D01*
X31714595Y-27475947D01*
X28510454Y-30680088D01*
X28495426Y-30692925D01*
X28484566Y-30700815D01*
X28480145Y-30705725D01*
X28480144Y-30705726D01*
X28440114Y-30750184D01*
X28435573Y-30754969D01*
X28421528Y-30769014D01*
X28419444Y-30771588D01*
X28419441Y-30771591D01*
X28409031Y-30784446D01*
X28404747Y-30789462D01*
X28364717Y-30833920D01*
X28364713Y-30833925D01*
X28360296Y-30838831D01*
X28353791Y-30850097D01*
X28353589Y-30850448D01*
X28342391Y-30866741D01*
X28333953Y-30877161D01*
X28303787Y-30936363D01*
X28300654Y-30942133D01*
X28270740Y-30993945D01*
X28270738Y-30993950D01*
X28267436Y-30999669D01*
X28265395Y-31005949D01*
X28265392Y-31005957D01*
X28263292Y-31012421D01*
X28255728Y-31030683D01*
X28252637Y-31036749D01*
X28252634Y-31036758D01*
X28249638Y-31042637D01*
X28247929Y-31049015D01*
X28232444Y-31106804D01*
X28230578Y-31113106D01*
X28210046Y-31176298D01*
X28209356Y-31182866D01*
X28208645Y-31189628D01*
X28205042Y-31209071D01*
X28201570Y-31222029D01*
X28201225Y-31228619D01*
X28201224Y-31228623D01*
X28198093Y-31288367D01*
X28197577Y-31294931D01*
X28195500Y-31314694D01*
X28195500Y-31334555D01*
X28195327Y-31341150D01*
X28191850Y-31407493D01*
X28192882Y-31414007D01*
X28193949Y-31420744D01*
X28195500Y-31440456D01*
X28195500Y-50842853D01*
X28175498Y-50910974D01*
X28158595Y-50931948D01*
X25455442Y-53635100D01*
X25393130Y-53669126D01*
X25364808Y-53671996D01*
X25220081Y-53670228D01*
X25220079Y-53670228D01*
X25214911Y-53670165D01*
X24994091Y-53703955D01*
X24781756Y-53773357D01*
X24777164Y-53775747D01*
X24777165Y-53775747D01*
X24607975Y-53863822D01*
X24583607Y-53876507D01*
X24579474Y-53879610D01*
X24579471Y-53879612D01*
X24468089Y-53963240D01*
X24404965Y-54010635D01*
X24270652Y-54151185D01*
X24209130Y-54186614D01*
X24138217Y-54183157D01*
X24080431Y-54141911D01*
X24065460Y-54117586D01*
X24057241Y-54100042D01*
X23971937Y-53962193D01*
X23962901Y-53950792D01*
X23848171Y-53836261D01*
X23836760Y-53827249D01*
X23698757Y-53742184D01*
X23685576Y-53736037D01*
X23531290Y-53684862D01*
X23517914Y-53681995D01*
X23423562Y-53672328D01*
X23417145Y-53672000D01*
X23042115Y-53672000D01*
X23026876Y-53676475D01*
X23025671Y-53677865D01*
X23024000Y-53685548D01*
X23024000Y-55158000D01*
X23003998Y-55226121D01*
X22950342Y-55272614D01*
X22898000Y-55284000D01*
X21430116Y-55284000D01*
X21414877Y-55288475D01*
X21413672Y-55289865D01*
X21412001Y-55297548D01*
X21412001Y-55677095D01*
X21412338Y-55683614D01*
X21422257Y-55779206D01*
X21425149Y-55792600D01*
X21476588Y-55946784D01*
X21482761Y-55959962D01*
X21568063Y-56097807D01*
X21577099Y-56109208D01*
X21691829Y-56223739D01*
X21703240Y-56232751D01*
X21841244Y-56317817D01*
X21856735Y-56325041D01*
X21910019Y-56371959D01*
X21929479Y-56440237D01*
X21908936Y-56508196D01*
X21879136Y-56539995D01*
X21864965Y-56550635D01*
X21710629Y-56712138D01*
X21584743Y-56896680D01*
X21537715Y-56997993D01*
X21507838Y-57062359D01*
X21490688Y-57099305D01*
X21430989Y-57314570D01*
X21407251Y-57536695D01*
X15508500Y-57536695D01*
X15508500Y-54757885D01*
X21412000Y-54757885D01*
X21416475Y-54773124D01*
X21417865Y-54774329D01*
X21425548Y-54776000D01*
X22497885Y-54776000D01*
X22513124Y-54771525D01*
X22514329Y-54770135D01*
X22516000Y-54762452D01*
X22516000Y-53690116D01*
X22511525Y-53674877D01*
X22510135Y-53673672D01*
X22502452Y-53672001D01*
X22122905Y-53672001D01*
X22116386Y-53672338D01*
X22020794Y-53682257D01*
X22007400Y-53685149D01*
X21853216Y-53736588D01*
X21840038Y-53742761D01*
X21702193Y-53828063D01*
X21690792Y-53837099D01*
X21576261Y-53951829D01*
X21567249Y-53963240D01*
X21482184Y-54101243D01*
X21476037Y-54114424D01*
X21424862Y-54268710D01*
X21421995Y-54282086D01*
X21412328Y-54376438D01*
X21412000Y-54382855D01*
X21412000Y-54757885D01*
X15508500Y-54757885D01*
X15508500Y-15634500D01*
X15528502Y-15566379D01*
X15582158Y-15519886D01*
X15634500Y-15508500D01*
X60365500Y-15508500D01*
X60433621Y-15528502D01*
G37*
G04 #@! TD.AperFunction*
G04 #@! TA.AperFunction,Conductor*
G36*
X38092026Y-18355144D02*
G01*
X38119875Y-18386994D01*
X38179987Y-18485088D01*
X38326250Y-18653938D01*
X38498126Y-18796632D01*
X38502593Y-18799242D01*
X38584070Y-18846853D01*
X38632794Y-18898491D01*
X38646500Y-18955641D01*
X38646500Y-23130708D01*
X38626498Y-23198829D01*
X38609595Y-23219803D01*
X33713210Y-28116188D01*
X33650899Y-28150213D01*
X33580084Y-28145148D01*
X33523248Y-28102601D01*
X33498437Y-28036081D01*
X33500869Y-28000897D01*
X33501913Y-27995982D01*
X33503954Y-27989702D01*
X33505356Y-27976364D01*
X33508958Y-27956931D01*
X33510718Y-27950361D01*
X33510719Y-27950354D01*
X33512429Y-27943972D01*
X33515905Y-27877654D01*
X33516422Y-27871080D01*
X33518156Y-27854579D01*
X33518500Y-27851306D01*
X33518500Y-27831426D01*
X33518673Y-27824832D01*
X33521804Y-27765099D01*
X33521804Y-27765094D01*
X33522149Y-27758507D01*
X33520051Y-27745260D01*
X33518500Y-27725550D01*
X33518500Y-23099500D01*
X33538502Y-23031379D01*
X33592158Y-22984886D01*
X33644500Y-22973500D01*
X34264910Y-22973500D01*
X34333031Y-22993502D01*
X34360362Y-23017251D01*
X34393748Y-23055998D01*
X34503511Y-23151750D01*
X34623696Y-23229650D01*
X34755924Y-23290748D01*
X34824533Y-23311266D01*
X34888844Y-23330499D01*
X34888849Y-23330500D01*
X34893142Y-23331784D01*
X34897574Y-23332446D01*
X34897577Y-23332447D01*
X35032765Y-23352650D01*
X35032768Y-23352650D01*
X35037196Y-23353312D01*
X35111855Y-23353768D01*
X35175945Y-23354160D01*
X35175950Y-23354160D01*
X35180417Y-23354187D01*
X35182861Y-23353852D01*
X35186656Y-23353729D01*
X35665000Y-23353729D01*
X35683214Y-23352426D01*
X35731375Y-23348982D01*
X35731377Y-23348982D01*
X35738111Y-23348500D01*
X35747989Y-23345600D01*
X35750423Y-23344885D01*
X35804496Y-23343474D01*
X35804684Y-23341745D01*
X35866866Y-23348500D01*
X36963134Y-23348500D01*
X37025316Y-23341745D01*
X37161705Y-23290615D01*
X37278261Y-23203261D01*
X37365615Y-23086705D01*
X37416745Y-22950316D01*
X37423500Y-22888134D01*
X37423500Y-21291866D01*
X37416745Y-21229684D01*
X37365615Y-21093295D01*
X37323674Y-21037333D01*
X37298826Y-20970826D01*
X37298500Y-20961768D01*
X37298500Y-18997814D01*
X37318502Y-18929693D01*
X37369068Y-18884663D01*
X37433347Y-18853173D01*
X37433351Y-18853171D01*
X37437994Y-18850896D01*
X37442198Y-18847898D01*
X37442202Y-18847895D01*
X37518703Y-18793327D01*
X37619860Y-18721173D01*
X37778096Y-18563489D01*
X37908453Y-18382077D01*
X37909776Y-18383028D01*
X37956645Y-18339857D01*
X38026580Y-18327625D01*
X38092026Y-18355144D01*
G37*
G04 #@! TD.AperFunction*
G04 #@! TD*
M02*
