G04 #@! TF.GenerationSoftware,KiCad,Pcbnew,6.0.7-f9a2dced07~116~ubuntu22.04.1*
G04 #@! TF.CreationDate,2022-09-03T08:45:22-04:00*
G04 #@! TF.ProjectId,clock_b2,636c6f63-6b5f-4623-922e-6b696361645f,rev?*
G04 #@! TF.SameCoordinates,Original*
G04 #@! TF.FileFunction,Copper,L1,Top*
G04 #@! TF.FilePolarity,Positive*
%FSLAX46Y46*%
G04 Gerber Fmt 4.6, Leading zero omitted, Abs format (unit mm)*
G04 Created by KiCad (PCBNEW 6.0.7-f9a2dced07~116~ubuntu22.04.1) date 2022-09-03 08:45:22*
%MOMM*%
%LPD*%
G01*
G04 APERTURE LIST*
G04 Aperture macros list*
%AMRoundRect*
0 Rectangle with rounded corners*
0 $1 Rounding radius*
0 $2 $3 $4 $5 $6 $7 $8 $9 X,Y pos of 4 corners*
0 Add a 4 corners polygon primitive as box body*
4,1,4,$2,$3,$4,$5,$6,$7,$8,$9,$2,$3,0*
0 Add four circle primitives for the rounded corners*
1,1,$1+$1,$2,$3*
1,1,$1+$1,$4,$5*
1,1,$1+$1,$6,$7*
1,1,$1+$1,$8,$9*
0 Add four rect primitives between the rounded corners*
20,1,$1+$1,$2,$3,$4,$5,0*
20,1,$1+$1,$4,$5,$6,$7,0*
20,1,$1+$1,$6,$7,$8,$9,0*
20,1,$1+$1,$8,$9,$2,$3,0*%
G04 Aperture macros list end*
G04 #@! TA.AperFunction,ComponentPad*
%ADD10O,3.606800X1.803400*%
G04 #@! TD*
G04 #@! TA.AperFunction,ComponentPad*
%ADD11R,2.000000X2.000000*%
G04 #@! TD*
G04 #@! TA.AperFunction,ComponentPad*
%ADD12C,2.000000*%
G04 #@! TD*
G04 #@! TA.AperFunction,ComponentPad*
%ADD13R,3.000000X2.500000*%
G04 #@! TD*
G04 #@! TA.AperFunction,ComponentPad*
%ADD14R,1.700000X1.700000*%
G04 #@! TD*
G04 #@! TA.AperFunction,ComponentPad*
%ADD15O,1.700000X1.700000*%
G04 #@! TD*
G04 #@! TA.AperFunction,ComponentPad*
%ADD16RoundRect,0.250000X-0.600000X0.600000X-0.600000X-0.600000X0.600000X-0.600000X0.600000X0.600000X0*%
G04 #@! TD*
G04 #@! TA.AperFunction,ComponentPad*
%ADD17C,1.700000*%
G04 #@! TD*
G04 #@! TA.AperFunction,ComponentPad*
%ADD18C,1.400000*%
G04 #@! TD*
G04 #@! TA.AperFunction,ComponentPad*
%ADD19O,1.400000X1.400000*%
G04 #@! TD*
G04 #@! TA.AperFunction,ComponentPad*
%ADD20C,1.600000*%
G04 #@! TD*
G04 #@! TA.AperFunction,ViaPad*
%ADD21C,0.800000*%
G04 #@! TD*
G04 #@! TA.AperFunction,Conductor*
%ADD22C,0.750000*%
G04 #@! TD*
G04 #@! TA.AperFunction,Conductor*
%ADD23C,0.250000*%
G04 #@! TD*
G04 APERTURE END LIST*
D10*
G04 #@! TO.P,SW1,1,1*
G04 #@! TO.N,Board_0-GND1*
X31751600Y-98010800D03*
G04 #@! TO.P,SW1,2,2*
G04 #@! TO.N,Board_0-Net-(R1-Pad2)*
X44248400Y-98010800D03*
G04 #@! TO.P,SW1,3*
G04 #@! TO.N,N/C*
X31751600Y-102989200D03*
G04 #@! TO.P,SW1,4*
X44248400Y-102989200D03*
G04 #@! TD*
D11*
G04 #@! TO.P,SW2,A,A*
G04 #@! TO.N,Board_0-Net-(R3-Pad2)*
X30520000Y-67990000D03*
D12*
G04 #@! TO.P,SW2,B,B*
G04 #@! TO.N,Board_0-Net-(R4-Pad2)*
X30520000Y-72990000D03*
G04 #@! TO.P,SW2,C,C*
G04 #@! TO.N,Board_0-GND1*
X30520000Y-70490000D03*
D13*
G04 #@! TO.P,SW2,MP*
G04 #@! TO.N,N/C*
X38020000Y-64790000D03*
X38020000Y-76190000D03*
D12*
G04 #@! TO.P,SW2,S1,S1*
G04 #@! TO.N,Board_0-Net-(R5-Pad2)*
X45020000Y-67990000D03*
G04 #@! TO.P,SW2,S2,S2*
G04 #@! TO.N,Board_0-GND1*
X45020000Y-72990000D03*
G04 #@! TD*
D14*
G04 #@! TO.P,OLED1,1,GND*
G04 #@! TO.N,Board_0-Net-(JP1-Pad2)*
X34200000Y-17680000D03*
D15*
G04 #@! TO.P,OLED1,2,VCC*
G04 #@! TO.N,Board_0-Net-(JP2-Pad2)*
X36740000Y-17680000D03*
G04 #@! TO.P,OLED1,3,SCL*
G04 #@! TO.N,Board_0-/SCL_JA*
X39280000Y-17680000D03*
G04 #@! TO.P,OLED1,4,SDA*
G04 #@! TO.N,Board_0-/SDA_JA*
X41820000Y-17680000D03*
G04 #@! TD*
D16*
G04 #@! TO.P,J1,1,Pin_1*
G04 #@! TO.N,Board_0-GND1*
X22770000Y-55030000D03*
D17*
G04 #@! TO.P,J1,2,Pin_2*
G04 #@! TO.N,Board_0-/TACT_JA*
X22770000Y-57570000D03*
G04 #@! TO.P,J1,3,Pin_3*
G04 #@! TO.N,Board_0-+5V_1*
X25310000Y-55030000D03*
G04 #@! TO.P,J1,4,Pin_4*
G04 #@! TO.N,Board_0-/ENC_PUSH_JA*
X25310000Y-57570000D03*
G04 #@! TO.P,J1,5,Pin_5*
G04 #@! TO.N,Board_0-/SCL_JA*
X27850000Y-55030000D03*
G04 #@! TO.P,J1,6,Pin_6*
G04 #@! TO.N,Board_0-/ENC_B_JA*
X27850000Y-57570000D03*
G04 #@! TO.P,J1,7,Pin_7*
G04 #@! TO.N,Board_0-/SDA_JA*
X30390000Y-55030000D03*
G04 #@! TO.P,J1,8,Pin_8*
G04 #@! TO.N,Board_0-/ENC_A_JA*
X30390000Y-57570000D03*
G04 #@! TD*
D18*
G04 #@! TO.P,R6,1*
G04 #@! TO.N,Board_0-Net-(R3-Pad2)*
X26910000Y-67730000D03*
D19*
G04 #@! TO.P,R6,2*
G04 #@! TO.N,Board_0-/ENC_A_JA*
X19290000Y-67730000D03*
G04 #@! TD*
D20*
G04 #@! TO.P,C1,1*
G04 #@! TO.N,Board_0-/TACT_JA*
X52270000Y-100830000D03*
G04 #@! TO.P,C1,2*
G04 #@! TO.N,Board_0-GND1*
X49770000Y-100830000D03*
G04 #@! TD*
D18*
G04 #@! TO.P,R8,1*
G04 #@! TO.N,Board_0-Net-(R5-Pad2)*
X51040000Y-67810000D03*
D19*
G04 #@! TO.P,R8,2*
G04 #@! TO.N,Board_0-/ENC_PUSH_JA*
X58660000Y-67810000D03*
G04 #@! TD*
D18*
G04 #@! TO.P,R7,1*
G04 #@! TO.N,Board_0-Net-(R4-Pad2)*
X26910000Y-85590000D03*
D19*
G04 #@! TO.P,R7,2*
G04 #@! TO.N,Board_0-/ENC_B_JA*
X19290000Y-85590000D03*
G04 #@! TD*
D18*
G04 #@! TO.P,R2,1*
G04 #@! TO.N,Board_0-Net-(R1-Pad2)*
X49770000Y-97020000D03*
D19*
G04 #@! TO.P,R2,2*
G04 #@! TO.N,Board_0-/TACT_JA*
X57390000Y-97020000D03*
G04 #@! TD*
D18*
G04 #@! TO.P,R1,1*
G04 #@! TO.N,Board_0-+5V_1*
X57390000Y-93210000D03*
D19*
G04 #@! TO.P,R1,2*
G04 #@! TO.N,Board_0-Net-(R1-Pad2)*
X49770000Y-93210000D03*
G04 #@! TD*
D18*
G04 #@! TO.P,R5,1*
G04 #@! TO.N,Board_0-+5V_1*
X58660000Y-64000000D03*
D19*
G04 #@! TO.P,R5,2*
G04 #@! TO.N,Board_0-Net-(R5-Pad2)*
X51040000Y-64000000D03*
G04 #@! TD*
D20*
G04 #@! TO.P,C2,1*
G04 #@! TO.N,Board_0-/ENC_A_JA*
X19290000Y-71540000D03*
G04 #@! TO.P,C2,2*
G04 #@! TO.N,Board_0-GND1*
X21790000Y-71540000D03*
G04 #@! TD*
G04 #@! TO.P,C4,1*
G04 #@! TO.N,Board_0-/ENC_PUSH_JA*
X58660000Y-71620000D03*
G04 #@! TO.P,C4,2*
G04 #@! TO.N,Board_0-GND1*
X56160000Y-71620000D03*
G04 #@! TD*
G04 #@! TO.P,C3,1*
G04 #@! TO.N,Board_0-/ENC_B_JA*
X24370000Y-80510000D03*
G04 #@! TO.P,C3,2*
G04 #@! TO.N,Board_0-GND1*
X26870000Y-80510000D03*
G04 #@! TD*
D18*
G04 #@! TO.P,R3,1*
G04 #@! TO.N,Board_0-+5V_1*
X19290000Y-63920000D03*
D19*
G04 #@! TO.P,R3,2*
G04 #@! TO.N,Board_0-Net-(R3-Pad2)*
X26910000Y-63920000D03*
G04 #@! TD*
D18*
G04 #@! TO.P,R4,1*
G04 #@! TO.N,Board_0-+5V_1*
X19290000Y-75350000D03*
D19*
G04 #@! TO.P,R4,2*
G04 #@! TO.N,Board_0-Net-(R4-Pad2)*
X26910000Y-75350000D03*
G04 #@! TD*
D21*
G04 #@! TO.N,Board_0-GND1*
X38096000Y-19931000D03*
G04 #@! TD*
D22*
G04 #@! TO.N,Board_0-+5V_1*
X57146000Y-62476000D02*
X57146000Y-62486000D01*
X25310000Y-55030000D02*
X27008000Y-53332000D01*
X54500000Y-90320000D02*
X57390000Y-93210000D01*
X18147000Y-57216242D02*
X21807762Y-53555480D01*
X57146000Y-62486000D02*
X58660000Y-64000000D01*
X54500000Y-68160000D02*
X54500000Y-90320000D01*
X21807762Y-53555480D02*
X23835480Y-53555480D01*
X19290000Y-63920000D02*
X18147000Y-62777000D01*
X27008000Y-53332000D02*
X37038748Y-53332000D01*
X37038748Y-53332000D02*
X46182748Y-62476000D01*
X58660000Y-64000000D02*
X54500000Y-68160000D01*
X18147000Y-62777000D02*
X18147000Y-57216242D01*
X46182748Y-62476000D02*
X57146000Y-62476000D01*
X23835480Y-53555480D02*
X25310000Y-55030000D01*
D23*
G04 #@! TO.N,Board_0-/ENC_A_JA*
X26675000Y-56662000D02*
X27037000Y-56300000D01*
X19290000Y-67730000D02*
X19290000Y-71540000D01*
X29120000Y-56300000D02*
X30390000Y-57570000D01*
X19290000Y-67730000D02*
X26675000Y-60345000D01*
X27037000Y-56300000D02*
X29120000Y-56300000D01*
X26675000Y-60345000D02*
X26675000Y-56662000D01*
G04 #@! TO.N,Board_0-/ENC_B_JA*
X28053000Y-57773000D02*
X28053000Y-70477000D01*
X28053000Y-70477000D02*
X24370000Y-74160000D01*
X19290000Y-85590000D02*
X24370000Y-80510000D01*
X24370000Y-74160000D02*
X24370000Y-80510000D01*
G04 #@! TO.N,Board_0-/ENC_PUSH_JA*
X58660000Y-67810000D02*
X58660000Y-71620000D01*
G04 #@! TO.N,Board_0-/TACT_JA*
X53580000Y-100830000D02*
X57390000Y-97020000D01*
X52270000Y-100830000D02*
X53580000Y-100830000D01*
G04 #@! TO.N,Board_0-Net-(R1-Pad2)*
X49770000Y-93210000D02*
X49770000Y-97020000D01*
G04 #@! TO.N,Board_0-Net-(R3-Pad2)*
X26910000Y-63920000D02*
X26910000Y-67730000D01*
G04 #@! TO.N,Board_0-Net-(R4-Pad2)*
X27994511Y-80044211D02*
X27994511Y-84505489D01*
X27994511Y-84505489D02*
X26910000Y-85590000D01*
X26910000Y-78959700D02*
X27994511Y-80044211D01*
X26910000Y-75350000D02*
X26910000Y-78959700D01*
G04 #@! TO.N,Board_0-Net-(R5-Pad2)*
X51040000Y-64000000D02*
X51040000Y-67810000D01*
G04 #@! TD*
G04 #@! TA.AperFunction,Conductor*
G04 #@! TO.N,Board_0-GND1*
G36*
X60433621Y-15528502D02*
G01*
X60480114Y-15582158D01*
X60491500Y-15634500D01*
X60491500Y-107365500D01*
X60471498Y-107433621D01*
X60417842Y-107480114D01*
X60365500Y-107491500D01*
X15634500Y-107491500D01*
X15566379Y-107471498D01*
X15519886Y-107417842D01*
X15508500Y-107365500D01*
X15508500Y-102922530D01*
X29436172Y-102922530D01*
X29445150Y-103161682D01*
X29494295Y-103395901D01*
X29582200Y-103618492D01*
X29706353Y-103823089D01*
X29709850Y-103827119D01*
X29796527Y-103927005D01*
X29863203Y-104003843D01*
X29867329Y-104007226D01*
X29867333Y-104007230D01*
X30044138Y-104152201D01*
X30044144Y-104152205D01*
X30048266Y-104155585D01*
X30052902Y-104158224D01*
X30052905Y-104158226D01*
X30230743Y-104259457D01*
X30256250Y-104273977D01*
X30481208Y-104355632D01*
X30486457Y-104356581D01*
X30486460Y-104356582D01*
X30567997Y-104371326D01*
X30716709Y-104398218D01*
X30720848Y-104398413D01*
X30720855Y-104398414D01*
X30740285Y-104399330D01*
X30740294Y-104399330D01*
X30741774Y-104399400D01*
X32713393Y-104399400D01*
X32782934Y-104393499D01*
X32886452Y-104384716D01*
X32886456Y-104384715D01*
X32891763Y-104384265D01*
X32896918Y-104382927D01*
X32896924Y-104382926D01*
X33118238Y-104325484D01*
X33118242Y-104325483D01*
X33123407Y-104324142D01*
X33128273Y-104321950D01*
X33128276Y-104321949D01*
X33336737Y-104228044D01*
X33341610Y-104225849D01*
X33540132Y-104092196D01*
X33713296Y-103927005D01*
X33856152Y-103735000D01*
X33917915Y-103613523D01*
X33962197Y-103526426D01*
X33962197Y-103526425D01*
X33964615Y-103521670D01*
X34035583Y-103293115D01*
X34052312Y-103166899D01*
X34066328Y-103061153D01*
X34066328Y-103061150D01*
X34067028Y-103055870D01*
X34062022Y-102922530D01*
X41932972Y-102922530D01*
X41941950Y-103161682D01*
X41991095Y-103395901D01*
X42079000Y-103618492D01*
X42203153Y-103823089D01*
X42206650Y-103827119D01*
X42293327Y-103927005D01*
X42360003Y-104003843D01*
X42364129Y-104007226D01*
X42364133Y-104007230D01*
X42540938Y-104152201D01*
X42540944Y-104152205D01*
X42545066Y-104155585D01*
X42549702Y-104158224D01*
X42549705Y-104158226D01*
X42727543Y-104259457D01*
X42753050Y-104273977D01*
X42978008Y-104355632D01*
X42983257Y-104356581D01*
X42983260Y-104356582D01*
X43064797Y-104371326D01*
X43213509Y-104398218D01*
X43217648Y-104398413D01*
X43217655Y-104398414D01*
X43237085Y-104399330D01*
X43237094Y-104399330D01*
X43238574Y-104399400D01*
X45210193Y-104399400D01*
X45279734Y-104393499D01*
X45383252Y-104384716D01*
X45383256Y-104384715D01*
X45388563Y-104384265D01*
X45393718Y-104382927D01*
X45393724Y-104382926D01*
X45615038Y-104325484D01*
X45615042Y-104325483D01*
X45620207Y-104324142D01*
X45625073Y-104321950D01*
X45625076Y-104321949D01*
X45833537Y-104228044D01*
X45838410Y-104225849D01*
X46036932Y-104092196D01*
X46210096Y-103927005D01*
X46352952Y-103735000D01*
X46414715Y-103613523D01*
X46458997Y-103526426D01*
X46458997Y-103526425D01*
X46461415Y-103521670D01*
X46532383Y-103293115D01*
X46549112Y-103166899D01*
X46563128Y-103061153D01*
X46563128Y-103061150D01*
X46563828Y-103055870D01*
X46554850Y-102816718D01*
X46505705Y-102582499D01*
X46417800Y-102359908D01*
X46293647Y-102155311D01*
X46212642Y-102061961D01*
X46140297Y-101978590D01*
X46140295Y-101978588D01*
X46136797Y-101974557D01*
X46132671Y-101971174D01*
X46132667Y-101971170D01*
X46065458Y-101916062D01*
X49048493Y-101916062D01*
X49057789Y-101928077D01*
X49108994Y-101963931D01*
X49118489Y-101969414D01*
X49315947Y-102061490D01*
X49326239Y-102065236D01*
X49536688Y-102121625D01*
X49547481Y-102123528D01*
X49764525Y-102142517D01*
X49775475Y-102142517D01*
X49992519Y-102123528D01*
X50003312Y-102121625D01*
X50213761Y-102065236D01*
X50224053Y-102061490D01*
X50421511Y-101969414D01*
X50431006Y-101963931D01*
X50483048Y-101927491D01*
X50491424Y-101917012D01*
X50484356Y-101903566D01*
X49782812Y-101202022D01*
X49768868Y-101194408D01*
X49767035Y-101194539D01*
X49760420Y-101198790D01*
X49054923Y-101904287D01*
X49048493Y-101916062D01*
X46065458Y-101916062D01*
X45955862Y-101826199D01*
X45955856Y-101826195D01*
X45951734Y-101822815D01*
X45947098Y-101820176D01*
X45947095Y-101820174D01*
X45748393Y-101707066D01*
X45743750Y-101704423D01*
X45518792Y-101622768D01*
X45513543Y-101621819D01*
X45513540Y-101621818D01*
X45432003Y-101607074D01*
X45283291Y-101580182D01*
X45279152Y-101579987D01*
X45279145Y-101579986D01*
X45259715Y-101579070D01*
X45259706Y-101579070D01*
X45258226Y-101579000D01*
X43286607Y-101579000D01*
X43217066Y-101584901D01*
X43113548Y-101593684D01*
X43113544Y-101593685D01*
X43108237Y-101594135D01*
X43103082Y-101595473D01*
X43103076Y-101595474D01*
X42881762Y-101652916D01*
X42881758Y-101652917D01*
X42876593Y-101654258D01*
X42871727Y-101656450D01*
X42871724Y-101656451D01*
X42759363Y-101707066D01*
X42658390Y-101752551D01*
X42459868Y-101886204D01*
X42286704Y-102051395D01*
X42283521Y-102055672D01*
X42283521Y-102055673D01*
X42234451Y-102121625D01*
X42143848Y-102243400D01*
X42141432Y-102248151D01*
X42141430Y-102248155D01*
X42037803Y-102451974D01*
X42035385Y-102456730D01*
X41964417Y-102685285D01*
X41963716Y-102690574D01*
X41946997Y-102816718D01*
X41932972Y-102922530D01*
X34062022Y-102922530D01*
X34058050Y-102816718D01*
X34008905Y-102582499D01*
X33921000Y-102359908D01*
X33796847Y-102155311D01*
X33715842Y-102061961D01*
X33643497Y-101978590D01*
X33643495Y-101978588D01*
X33639997Y-101974557D01*
X33635871Y-101971174D01*
X33635867Y-101971170D01*
X33459062Y-101826199D01*
X33459056Y-101826195D01*
X33454934Y-101822815D01*
X33450298Y-101820176D01*
X33450295Y-101820174D01*
X33251593Y-101707066D01*
X33246950Y-101704423D01*
X33021992Y-101622768D01*
X33016743Y-101621819D01*
X33016740Y-101621818D01*
X32935203Y-101607074D01*
X32786491Y-101580182D01*
X32782352Y-101579987D01*
X32782345Y-101579986D01*
X32762915Y-101579070D01*
X32762906Y-101579070D01*
X32761426Y-101579000D01*
X30789807Y-101579000D01*
X30720266Y-101584901D01*
X30616748Y-101593684D01*
X30616744Y-101593685D01*
X30611437Y-101594135D01*
X30606282Y-101595473D01*
X30606276Y-101595474D01*
X30384962Y-101652916D01*
X30384958Y-101652917D01*
X30379793Y-101654258D01*
X30374927Y-101656450D01*
X30374924Y-101656451D01*
X30262563Y-101707066D01*
X30161590Y-101752551D01*
X29963068Y-101886204D01*
X29789904Y-102051395D01*
X29786721Y-102055672D01*
X29786721Y-102055673D01*
X29737651Y-102121625D01*
X29647048Y-102243400D01*
X29644632Y-102248151D01*
X29644630Y-102248155D01*
X29541003Y-102451974D01*
X29538585Y-102456730D01*
X29467617Y-102685285D01*
X29466916Y-102690574D01*
X29450197Y-102816718D01*
X29436172Y-102922530D01*
X15508500Y-102922530D01*
X15508500Y-100835475D01*
X48457483Y-100835475D01*
X48476472Y-101052519D01*
X48478375Y-101063312D01*
X48534764Y-101273761D01*
X48538510Y-101284053D01*
X48630586Y-101481511D01*
X48636069Y-101491006D01*
X48672509Y-101543048D01*
X48682988Y-101551424D01*
X48696434Y-101544356D01*
X49397978Y-100842812D01*
X49404356Y-100831132D01*
X50134408Y-100831132D01*
X50134539Y-100832965D01*
X50138790Y-100839580D01*
X50844287Y-101545077D01*
X50856062Y-101551507D01*
X50868077Y-101542211D01*
X50903934Y-101491002D01*
X50910591Y-101479472D01*
X50961973Y-101430479D01*
X51031687Y-101417042D01*
X51097598Y-101443429D01*
X51128829Y-101479472D01*
X51130153Y-101481765D01*
X51132477Y-101486749D01*
X51171312Y-101542211D01*
X51248829Y-101652916D01*
X51263802Y-101674300D01*
X51425700Y-101836198D01*
X51430208Y-101839355D01*
X51430211Y-101839357D01*
X51492860Y-101883224D01*
X51613251Y-101967523D01*
X51618233Y-101969846D01*
X51618238Y-101969849D01*
X51814765Y-102061490D01*
X51820757Y-102064284D01*
X51826065Y-102065706D01*
X51826067Y-102065707D01*
X52036598Y-102122119D01*
X52036600Y-102122119D01*
X52041913Y-102123543D01*
X52270000Y-102143498D01*
X52498087Y-102123543D01*
X52503400Y-102122119D01*
X52503402Y-102122119D01*
X52713933Y-102065707D01*
X52713935Y-102065706D01*
X52719243Y-102064284D01*
X52725235Y-102061490D01*
X52921762Y-101969849D01*
X52921767Y-101969846D01*
X52926749Y-101967523D01*
X53047140Y-101883224D01*
X53109789Y-101839357D01*
X53109792Y-101839355D01*
X53114300Y-101836198D01*
X53276198Y-101674300D01*
X53290232Y-101654258D01*
X53386181Y-101517229D01*
X53441638Y-101472901D01*
X53489394Y-101463500D01*
X53501233Y-101463500D01*
X53512416Y-101464027D01*
X53519909Y-101465702D01*
X53527835Y-101465453D01*
X53527836Y-101465453D01*
X53587986Y-101463562D01*
X53591945Y-101463500D01*
X53619856Y-101463500D01*
X53623791Y-101463003D01*
X53623856Y-101462995D01*
X53635693Y-101462062D01*
X53667951Y-101461048D01*
X53671970Y-101460922D01*
X53679889Y-101460673D01*
X53699343Y-101455021D01*
X53718700Y-101451013D01*
X53730930Y-101449468D01*
X53730931Y-101449468D01*
X53738797Y-101448474D01*
X53746168Y-101445555D01*
X53746170Y-101445555D01*
X53779912Y-101432196D01*
X53791142Y-101428351D01*
X53825983Y-101418229D01*
X53825984Y-101418229D01*
X53833593Y-101416018D01*
X53840412Y-101411985D01*
X53840417Y-101411983D01*
X53851028Y-101405707D01*
X53868776Y-101397012D01*
X53887617Y-101389552D01*
X53923387Y-101363564D01*
X53933307Y-101357048D01*
X53964535Y-101338580D01*
X53964538Y-101338578D01*
X53971362Y-101334542D01*
X53985683Y-101320221D01*
X54000717Y-101307380D01*
X54010694Y-101300131D01*
X54017107Y-101295472D01*
X54045298Y-101261395D01*
X54053288Y-101252616D01*
X57058461Y-98247443D01*
X57120773Y-98213417D01*
X57169437Y-98212452D01*
X57174029Y-98213262D01*
X57179345Y-98214686D01*
X57390000Y-98233116D01*
X57600655Y-98214686D01*
X57605968Y-98213262D01*
X57605970Y-98213262D01*
X57799600Y-98161379D01*
X57799602Y-98161378D01*
X57804910Y-98159956D01*
X57809892Y-98157633D01*
X57991577Y-98072912D01*
X57991580Y-98072910D01*
X57996558Y-98070589D01*
X58169776Y-97949301D01*
X58319301Y-97799776D01*
X58440589Y-97626558D01*
X58448558Y-97609470D01*
X58527633Y-97439892D01*
X58527634Y-97439891D01*
X58529956Y-97434910D01*
X58552296Y-97351538D01*
X58583262Y-97235970D01*
X58583262Y-97235968D01*
X58584686Y-97230655D01*
X58603116Y-97020000D01*
X58584686Y-96809345D01*
X58548918Y-96675858D01*
X58531379Y-96610400D01*
X58531378Y-96610398D01*
X58529956Y-96605090D01*
X58440589Y-96413442D01*
X58319301Y-96240224D01*
X58169776Y-96090699D01*
X57996558Y-95969411D01*
X57991580Y-95967090D01*
X57991577Y-95967088D01*
X57809892Y-95882367D01*
X57809891Y-95882366D01*
X57804910Y-95880044D01*
X57799602Y-95878622D01*
X57799600Y-95878621D01*
X57605970Y-95826738D01*
X57605968Y-95826738D01*
X57600655Y-95825314D01*
X57390000Y-95806884D01*
X57179345Y-95825314D01*
X57174032Y-95826738D01*
X57174030Y-95826738D01*
X56980400Y-95878621D01*
X56980398Y-95878622D01*
X56975090Y-95880044D01*
X56970109Y-95882366D01*
X56970108Y-95882367D01*
X56788423Y-95967088D01*
X56788420Y-95967090D01*
X56783442Y-95969411D01*
X56610224Y-96090699D01*
X56460699Y-96240224D01*
X56339411Y-96413442D01*
X56250044Y-96605090D01*
X56248622Y-96610398D01*
X56248621Y-96610400D01*
X56231082Y-96675858D01*
X56195314Y-96809345D01*
X56176884Y-97020000D01*
X56177363Y-97025475D01*
X56194835Y-97225175D01*
X56195314Y-97230655D01*
X56196736Y-97235961D01*
X56197547Y-97240561D01*
X56189679Y-97311121D01*
X56162557Y-97351538D01*
X53486242Y-100027853D01*
X53423930Y-100061879D01*
X53353115Y-100056814D01*
X53293935Y-100011030D01*
X53279359Y-99990214D01*
X53279357Y-99990212D01*
X53276198Y-99985700D01*
X53114300Y-99823802D01*
X53109792Y-99820645D01*
X53109789Y-99820643D01*
X52983920Y-99732509D01*
X52926749Y-99692477D01*
X52921767Y-99690154D01*
X52921762Y-99690151D01*
X52724225Y-99598039D01*
X52724224Y-99598039D01*
X52719243Y-99595716D01*
X52713935Y-99594294D01*
X52713933Y-99594293D01*
X52503402Y-99537881D01*
X52503400Y-99537881D01*
X52498087Y-99536457D01*
X52270000Y-99516502D01*
X52041913Y-99536457D01*
X52036600Y-99537881D01*
X52036598Y-99537881D01*
X51826067Y-99594293D01*
X51826065Y-99594294D01*
X51820757Y-99595716D01*
X51815776Y-99598039D01*
X51815775Y-99598039D01*
X51618238Y-99690151D01*
X51618233Y-99690154D01*
X51613251Y-99692477D01*
X51556080Y-99732509D01*
X51430211Y-99820643D01*
X51430208Y-99820645D01*
X51425700Y-99823802D01*
X51263802Y-99985700D01*
X51260645Y-99990208D01*
X51260643Y-99990211D01*
X51234286Y-100027853D01*
X51132477Y-100173251D01*
X51130153Y-100178235D01*
X51128829Y-100180528D01*
X51077447Y-100229521D01*
X51007733Y-100242957D01*
X50941822Y-100216571D01*
X50910591Y-100180528D01*
X50903934Y-100168998D01*
X50867491Y-100116952D01*
X50857012Y-100108576D01*
X50843566Y-100115644D01*
X50142022Y-100817188D01*
X50134408Y-100831132D01*
X49404356Y-100831132D01*
X49405592Y-100828868D01*
X49405461Y-100827035D01*
X49401210Y-100820420D01*
X48695713Y-100114923D01*
X48683938Y-100108493D01*
X48671923Y-100117789D01*
X48636069Y-100168994D01*
X48630586Y-100178489D01*
X48538510Y-100375947D01*
X48534764Y-100386239D01*
X48478375Y-100596688D01*
X48476472Y-100607481D01*
X48457483Y-100824525D01*
X48457483Y-100835475D01*
X15508500Y-100835475D01*
X15508500Y-99742988D01*
X49048576Y-99742988D01*
X49055644Y-99756434D01*
X49757188Y-100457978D01*
X49771132Y-100465592D01*
X49772965Y-100465461D01*
X49779580Y-100461210D01*
X50485077Y-99755713D01*
X50491507Y-99743938D01*
X50482211Y-99731923D01*
X50431006Y-99696069D01*
X50421511Y-99690586D01*
X50224053Y-99598510D01*
X50213761Y-99594764D01*
X50003312Y-99538375D01*
X49992519Y-99536472D01*
X49775475Y-99517483D01*
X49764525Y-99517483D01*
X49547481Y-99536472D01*
X49536688Y-99538375D01*
X49326239Y-99594764D01*
X49315947Y-99598510D01*
X49118489Y-99690586D01*
X49108994Y-99696069D01*
X49056952Y-99732509D01*
X49048576Y-99742988D01*
X15508500Y-99742988D01*
X15508500Y-98279380D01*
X29465825Y-98279380D01*
X29493679Y-98412130D01*
X29496739Y-98422327D01*
X29580687Y-98634899D01*
X29585421Y-98644436D01*
X29703988Y-98839829D01*
X29710259Y-98848427D01*
X29860049Y-99021045D01*
X29867685Y-99028471D01*
X30044422Y-99173387D01*
X30053189Y-99179412D01*
X30251817Y-99292478D01*
X30261481Y-99296943D01*
X30476324Y-99374927D01*
X30486591Y-99377698D01*
X30712672Y-99418579D01*
X30720902Y-99419514D01*
X30740332Y-99420430D01*
X30743307Y-99420500D01*
X31479485Y-99420500D01*
X31494724Y-99416025D01*
X31495929Y-99414635D01*
X31497600Y-99406952D01*
X31497600Y-99402385D01*
X32005600Y-99402385D01*
X32010075Y-99417624D01*
X32011465Y-99418829D01*
X32019148Y-99420500D01*
X32710709Y-99420500D01*
X32716017Y-99420275D01*
X32886367Y-99405821D01*
X32896839Y-99404031D01*
X33118070Y-99346611D01*
X33128110Y-99343076D01*
X33336505Y-99249200D01*
X33345791Y-99244031D01*
X33535390Y-99116385D01*
X33543676Y-99109724D01*
X33709063Y-98951952D01*
X33716103Y-98943995D01*
X33852540Y-98760617D01*
X33858144Y-98751580D01*
X33961732Y-98547837D01*
X33965732Y-98537986D01*
X34033512Y-98319699D01*
X34035794Y-98309320D01*
X34039314Y-98282758D01*
X34037117Y-98268593D01*
X34023933Y-98264800D01*
X32023715Y-98264800D01*
X32008476Y-98269275D01*
X32007271Y-98270665D01*
X32005600Y-98278348D01*
X32005600Y-99402385D01*
X31497600Y-99402385D01*
X31497600Y-98282915D01*
X31493125Y-98267676D01*
X31491735Y-98266471D01*
X31484052Y-98264800D01*
X29480881Y-98264800D01*
X29467350Y-98268773D01*
X29465825Y-98279380D01*
X15508500Y-98279380D01*
X15508500Y-97944130D01*
X41932972Y-97944130D01*
X41941950Y-98183282D01*
X41991095Y-98417501D01*
X42079000Y-98640092D01*
X42203153Y-98844689D01*
X42206650Y-98848719D01*
X42356187Y-99021045D01*
X42360003Y-99025443D01*
X42364129Y-99028826D01*
X42364133Y-99028830D01*
X42540938Y-99173801D01*
X42540944Y-99173805D01*
X42545066Y-99177185D01*
X42549702Y-99179824D01*
X42549705Y-99179826D01*
X42727543Y-99281057D01*
X42753050Y-99295577D01*
X42978008Y-99377232D01*
X42983257Y-99378181D01*
X42983260Y-99378182D01*
X43064797Y-99392926D01*
X43213509Y-99419818D01*
X43217648Y-99420013D01*
X43217655Y-99420014D01*
X43237085Y-99420930D01*
X43237094Y-99420930D01*
X43238574Y-99421000D01*
X45210193Y-99421000D01*
X45285206Y-99414635D01*
X45383252Y-99406316D01*
X45383256Y-99406315D01*
X45388563Y-99405865D01*
X45393718Y-99404527D01*
X45393724Y-99404526D01*
X45615038Y-99347084D01*
X45615042Y-99347083D01*
X45620207Y-99345742D01*
X45625073Y-99343550D01*
X45625076Y-99343549D01*
X45833537Y-99249644D01*
X45838410Y-99247449D01*
X46036932Y-99113796D01*
X46210096Y-98948605D01*
X46352952Y-98756600D01*
X46355505Y-98751580D01*
X46458997Y-98548026D01*
X46458997Y-98548025D01*
X46461415Y-98543270D01*
X46532383Y-98314715D01*
X46537203Y-98278348D01*
X46563128Y-98082753D01*
X46563128Y-98082750D01*
X46563828Y-98077470D01*
X46554850Y-97838318D01*
X46511363Y-97631063D01*
X46506800Y-97609316D01*
X46506799Y-97609312D01*
X46505705Y-97604099D01*
X46417800Y-97381508D01*
X46293647Y-97176911D01*
X46207186Y-97077273D01*
X46157487Y-97020000D01*
X48556884Y-97020000D01*
X48575314Y-97230655D01*
X48576738Y-97235968D01*
X48576738Y-97235970D01*
X48607705Y-97351538D01*
X48630044Y-97434910D01*
X48632366Y-97439891D01*
X48632367Y-97439892D01*
X48711443Y-97609470D01*
X48719411Y-97626558D01*
X48840699Y-97799776D01*
X48990224Y-97949301D01*
X49163442Y-98070589D01*
X49168420Y-98072910D01*
X49168423Y-98072912D01*
X49350108Y-98157633D01*
X49355090Y-98159956D01*
X49360398Y-98161378D01*
X49360400Y-98161379D01*
X49554030Y-98213262D01*
X49554032Y-98213262D01*
X49559345Y-98214686D01*
X49770000Y-98233116D01*
X49980655Y-98214686D01*
X49985968Y-98213262D01*
X49985970Y-98213262D01*
X50179600Y-98161379D01*
X50179602Y-98161378D01*
X50184910Y-98159956D01*
X50189892Y-98157633D01*
X50371577Y-98072912D01*
X50371580Y-98072910D01*
X50376558Y-98070589D01*
X50549776Y-97949301D01*
X50699301Y-97799776D01*
X50820589Y-97626558D01*
X50828558Y-97609470D01*
X50907633Y-97439892D01*
X50907634Y-97439891D01*
X50909956Y-97434910D01*
X50932296Y-97351538D01*
X50963262Y-97235970D01*
X50963262Y-97235968D01*
X50964686Y-97230655D01*
X50983116Y-97020000D01*
X50964686Y-96809345D01*
X50928918Y-96675858D01*
X50911379Y-96610400D01*
X50911378Y-96610398D01*
X50909956Y-96605090D01*
X50820589Y-96413442D01*
X50699301Y-96240224D01*
X50549776Y-96090699D01*
X50457230Y-96025898D01*
X50412901Y-95970441D01*
X50403500Y-95922685D01*
X50403500Y-94307315D01*
X50423502Y-94239194D01*
X50457230Y-94204102D01*
X50545264Y-94142460D01*
X50549776Y-94139301D01*
X50699301Y-93989776D01*
X50820589Y-93816558D01*
X50909956Y-93624910D01*
X50964686Y-93420655D01*
X50983116Y-93210000D01*
X50964686Y-92999345D01*
X50909956Y-92795090D01*
X50820589Y-92603442D01*
X50699301Y-92430224D01*
X50549776Y-92280699D01*
X50376558Y-92159411D01*
X50371580Y-92157090D01*
X50371577Y-92157088D01*
X50189892Y-92072367D01*
X50189891Y-92072366D01*
X50184910Y-92070044D01*
X50179602Y-92068622D01*
X50179600Y-92068621D01*
X49985970Y-92016738D01*
X49985968Y-92016738D01*
X49980655Y-92015314D01*
X49770000Y-91996884D01*
X49559345Y-92015314D01*
X49554032Y-92016738D01*
X49554030Y-92016738D01*
X49360400Y-92068621D01*
X49360398Y-92068622D01*
X49355090Y-92070044D01*
X49350109Y-92072366D01*
X49350108Y-92072367D01*
X49168423Y-92157088D01*
X49168420Y-92157090D01*
X49163442Y-92159411D01*
X48990224Y-92280699D01*
X48840699Y-92430224D01*
X48719411Y-92603442D01*
X48630044Y-92795090D01*
X48575314Y-92999345D01*
X48556884Y-93210000D01*
X48575314Y-93420655D01*
X48630044Y-93624910D01*
X48719411Y-93816558D01*
X48840699Y-93989776D01*
X48990224Y-94139301D01*
X48994736Y-94142460D01*
X49082770Y-94204102D01*
X49127099Y-94259559D01*
X49136500Y-94307315D01*
X49136500Y-95922685D01*
X49116498Y-95990806D01*
X49082770Y-96025898D01*
X48990224Y-96090699D01*
X48840699Y-96240224D01*
X48719411Y-96413442D01*
X48630044Y-96605090D01*
X48628622Y-96610398D01*
X48628621Y-96610400D01*
X48611082Y-96675858D01*
X48575314Y-96809345D01*
X48556884Y-97020000D01*
X46157487Y-97020000D01*
X46140297Y-97000190D01*
X46140295Y-97000188D01*
X46136797Y-96996157D01*
X46132671Y-96992774D01*
X46132667Y-96992770D01*
X45955862Y-96847799D01*
X45955856Y-96847795D01*
X45951734Y-96844415D01*
X45947098Y-96841776D01*
X45947095Y-96841774D01*
X45748393Y-96728666D01*
X45743750Y-96726023D01*
X45518792Y-96644368D01*
X45513543Y-96643419D01*
X45513540Y-96643418D01*
X45432003Y-96628674D01*
X45283291Y-96601782D01*
X45279152Y-96601587D01*
X45279145Y-96601586D01*
X45259715Y-96600670D01*
X45259706Y-96600670D01*
X45258226Y-96600600D01*
X43286607Y-96600600D01*
X43217066Y-96606501D01*
X43113548Y-96615284D01*
X43113544Y-96615285D01*
X43108237Y-96615735D01*
X43103082Y-96617073D01*
X43103076Y-96617074D01*
X42881762Y-96674516D01*
X42881758Y-96674517D01*
X42876593Y-96675858D01*
X42871727Y-96678050D01*
X42871724Y-96678051D01*
X42759363Y-96728666D01*
X42658390Y-96774151D01*
X42459868Y-96907804D01*
X42286704Y-97072995D01*
X42143848Y-97265000D01*
X42141432Y-97269751D01*
X42141430Y-97269755D01*
X42081972Y-97386701D01*
X42035385Y-97478330D01*
X41964417Y-97706885D01*
X41963716Y-97712174D01*
X41946997Y-97838318D01*
X41932972Y-97944130D01*
X15508500Y-97944130D01*
X15508500Y-97738842D01*
X29463886Y-97738842D01*
X29466083Y-97753007D01*
X29479267Y-97756800D01*
X31479485Y-97756800D01*
X31494724Y-97752325D01*
X31495929Y-97750935D01*
X31497600Y-97743252D01*
X31497600Y-97738685D01*
X32005600Y-97738685D01*
X32010075Y-97753924D01*
X32011465Y-97755129D01*
X32019148Y-97756800D01*
X34022319Y-97756800D01*
X34035850Y-97752827D01*
X34037375Y-97742220D01*
X34009521Y-97609470D01*
X34006461Y-97599273D01*
X33922513Y-97386701D01*
X33917779Y-97377164D01*
X33799212Y-97181771D01*
X33792941Y-97173173D01*
X33643151Y-97000555D01*
X33635515Y-96993129D01*
X33458778Y-96848213D01*
X33450011Y-96842188D01*
X33251383Y-96729122D01*
X33241719Y-96724657D01*
X33026876Y-96646673D01*
X33016609Y-96643902D01*
X32790528Y-96603021D01*
X32782298Y-96602086D01*
X32762868Y-96601170D01*
X32759893Y-96601100D01*
X32023715Y-96601100D01*
X32008476Y-96605575D01*
X32007271Y-96606965D01*
X32005600Y-96614648D01*
X32005600Y-97738685D01*
X31497600Y-97738685D01*
X31497600Y-96619215D01*
X31493125Y-96603976D01*
X31491735Y-96602771D01*
X31484052Y-96601100D01*
X30792491Y-96601100D01*
X30787183Y-96601325D01*
X30616833Y-96615779D01*
X30606361Y-96617569D01*
X30385130Y-96674989D01*
X30375090Y-96678524D01*
X30166695Y-96772400D01*
X30157409Y-96777569D01*
X29967810Y-96905215D01*
X29959524Y-96911876D01*
X29794137Y-97069648D01*
X29787097Y-97077605D01*
X29650660Y-97260983D01*
X29645056Y-97270020D01*
X29541468Y-97473763D01*
X29537468Y-97483614D01*
X29469688Y-97701901D01*
X29467406Y-97712280D01*
X29463886Y-97738842D01*
X15508500Y-97738842D01*
X15508500Y-80632703D01*
X15890743Y-80632703D01*
X15928268Y-80917734D01*
X15929401Y-80921874D01*
X15929401Y-80921876D01*
X15950415Y-80998689D01*
X16004129Y-81195036D01*
X16005813Y-81198984D01*
X16073724Y-81358197D01*
X16116923Y-81459476D01*
X16152761Y-81519357D01*
X16230599Y-81649414D01*
X16264561Y-81706161D01*
X16444313Y-81930528D01*
X16652851Y-82128423D01*
X16886317Y-82296186D01*
X16890112Y-82298195D01*
X16890113Y-82298196D01*
X16911869Y-82309715D01*
X17140392Y-82430712D01*
X17410373Y-82529511D01*
X17691264Y-82590755D01*
X17719841Y-82593004D01*
X17914282Y-82608307D01*
X17914291Y-82608307D01*
X17916739Y-82608500D01*
X18072271Y-82608500D01*
X18074407Y-82608354D01*
X18074418Y-82608354D01*
X18282548Y-82594165D01*
X18282554Y-82594164D01*
X18286825Y-82593873D01*
X18291020Y-82593004D01*
X18291022Y-82593004D01*
X18427583Y-82564724D01*
X18568342Y-82535574D01*
X18839343Y-82439607D01*
X19094812Y-82307750D01*
X19098313Y-82305289D01*
X19098317Y-82305287D01*
X19212417Y-82225096D01*
X19330023Y-82142441D01*
X19540622Y-81946740D01*
X19722713Y-81724268D01*
X19872927Y-81479142D01*
X19988483Y-81215898D01*
X20001201Y-81171253D01*
X20066068Y-80943534D01*
X20067244Y-80939406D01*
X20107751Y-80654784D01*
X20107845Y-80636951D01*
X20109235Y-80371583D01*
X20109235Y-80371576D01*
X20109257Y-80367297D01*
X20098738Y-80287393D01*
X20072292Y-80086522D01*
X20071732Y-80082266D01*
X20067301Y-80066067D01*
X20028150Y-79922958D01*
X19995871Y-79804964D01*
X19938394Y-79670211D01*
X19884763Y-79544476D01*
X19884761Y-79544472D01*
X19883077Y-79540524D01*
X19769686Y-79351062D01*
X19737643Y-79297521D01*
X19737640Y-79297517D01*
X19735439Y-79293839D01*
X19555687Y-79069472D01*
X19347149Y-78871577D01*
X19113683Y-78703814D01*
X19091843Y-78692250D01*
X19002801Y-78645105D01*
X18859608Y-78569288D01*
X18589627Y-78470489D01*
X18308736Y-78409245D01*
X18277685Y-78406801D01*
X18085718Y-78391693D01*
X18085709Y-78391693D01*
X18083261Y-78391500D01*
X17927729Y-78391500D01*
X17925593Y-78391646D01*
X17925582Y-78391646D01*
X17717452Y-78405835D01*
X17717446Y-78405836D01*
X17713175Y-78406127D01*
X17708980Y-78406996D01*
X17708978Y-78406996D01*
X17572417Y-78435276D01*
X17431658Y-78464426D01*
X17160657Y-78560393D01*
X16905188Y-78692250D01*
X16901687Y-78694711D01*
X16901683Y-78694713D01*
X16891594Y-78701804D01*
X16669977Y-78857559D01*
X16459378Y-79053260D01*
X16277287Y-79275732D01*
X16127073Y-79520858D01*
X16125347Y-79524791D01*
X16125346Y-79524792D01*
X16032372Y-79736594D01*
X16011517Y-79784102D01*
X16010342Y-79788229D01*
X16010341Y-79788230D01*
X16007618Y-79797789D01*
X15932756Y-80060594D01*
X15892249Y-80345216D01*
X15892227Y-80349505D01*
X15892226Y-80349512D01*
X15891155Y-80554032D01*
X15890743Y-80632703D01*
X15508500Y-80632703D01*
X15508500Y-75350000D01*
X18076884Y-75350000D01*
X18095314Y-75560655D01*
X18150044Y-75764910D01*
X18239411Y-75956558D01*
X18360699Y-76129776D01*
X18510224Y-76279301D01*
X18683442Y-76400589D01*
X18688420Y-76402910D01*
X18688423Y-76402912D01*
X18783646Y-76447315D01*
X18875090Y-76489956D01*
X18880398Y-76491378D01*
X18880400Y-76491379D01*
X19074030Y-76543262D01*
X19074032Y-76543262D01*
X19079345Y-76544686D01*
X19290000Y-76563116D01*
X19500655Y-76544686D01*
X19505968Y-76543262D01*
X19505970Y-76543262D01*
X19699600Y-76491379D01*
X19699602Y-76491378D01*
X19704910Y-76489956D01*
X19796354Y-76447315D01*
X19891577Y-76402912D01*
X19891580Y-76402910D01*
X19896558Y-76400589D01*
X20069776Y-76279301D01*
X20219301Y-76129776D01*
X20340589Y-75956558D01*
X20429956Y-75764910D01*
X20484686Y-75560655D01*
X20503116Y-75350000D01*
X20484686Y-75139345D01*
X20429956Y-74935090D01*
X20384468Y-74837540D01*
X20342912Y-74748423D01*
X20342910Y-74748420D01*
X20340589Y-74743442D01*
X20219301Y-74570224D01*
X20069776Y-74420699D01*
X19896558Y-74299411D01*
X19891580Y-74297090D01*
X19891577Y-74297088D01*
X19709892Y-74212367D01*
X19709891Y-74212366D01*
X19704910Y-74210044D01*
X19699602Y-74208622D01*
X19699600Y-74208621D01*
X19505970Y-74156738D01*
X19505968Y-74156738D01*
X19500655Y-74155314D01*
X19290000Y-74136884D01*
X19079345Y-74155314D01*
X19074032Y-74156738D01*
X19074030Y-74156738D01*
X18880400Y-74208621D01*
X18880398Y-74208622D01*
X18875090Y-74210044D01*
X18870109Y-74212366D01*
X18870108Y-74212367D01*
X18688423Y-74297088D01*
X18688420Y-74297090D01*
X18683442Y-74299411D01*
X18510224Y-74420699D01*
X18360699Y-74570224D01*
X18239411Y-74743442D01*
X18237090Y-74748420D01*
X18237088Y-74748423D01*
X18195532Y-74837540D01*
X18150044Y-74935090D01*
X18095314Y-75139345D01*
X18076884Y-75350000D01*
X15508500Y-75350000D01*
X15508500Y-62730507D01*
X17259850Y-62730507D01*
X17260195Y-62737094D01*
X17260195Y-62737098D01*
X17263327Y-62796850D01*
X17263500Y-62803445D01*
X17263500Y-62823306D01*
X17263844Y-62826577D01*
X17265576Y-62843059D01*
X17266093Y-62849628D01*
X17269570Y-62915971D01*
X17273042Y-62928929D01*
X17276645Y-62948372D01*
X17278046Y-62961702D01*
X17298578Y-63024894D01*
X17300444Y-63031196D01*
X17302107Y-63037402D01*
X17317638Y-63095363D01*
X17320634Y-63101242D01*
X17320637Y-63101251D01*
X17323728Y-63107317D01*
X17331292Y-63125579D01*
X17333392Y-63132043D01*
X17333395Y-63132051D01*
X17335436Y-63138331D01*
X17338738Y-63144050D01*
X17338740Y-63144055D01*
X17368654Y-63195867D01*
X17371787Y-63201637D01*
X17401953Y-63260839D01*
X17406109Y-63265971D01*
X17410391Y-63271259D01*
X17421589Y-63287552D01*
X17428296Y-63299169D01*
X17432713Y-63304075D01*
X17432717Y-63304080D01*
X17472747Y-63348538D01*
X17477031Y-63353554D01*
X17484802Y-63363150D01*
X17489528Y-63368986D01*
X17503573Y-63383031D01*
X17508114Y-63387816D01*
X17552566Y-63437185D01*
X17563426Y-63445075D01*
X17578454Y-63457912D01*
X18047939Y-63927397D01*
X18081965Y-63989709D01*
X18084365Y-64005509D01*
X18095314Y-64130655D01*
X18096738Y-64135968D01*
X18096738Y-64135970D01*
X18115282Y-64205175D01*
X18150044Y-64334910D01*
X18152366Y-64339891D01*
X18152367Y-64339892D01*
X18187349Y-64414910D01*
X18239411Y-64526558D01*
X18360699Y-64699776D01*
X18510224Y-64849301D01*
X18683442Y-64970589D01*
X18688420Y-64972910D01*
X18688423Y-64972912D01*
X18855002Y-65050589D01*
X18875090Y-65059956D01*
X18880398Y-65061378D01*
X18880400Y-65061379D01*
X19074030Y-65113262D01*
X19074032Y-65113262D01*
X19079345Y-65114686D01*
X19290000Y-65133116D01*
X19500655Y-65114686D01*
X19505968Y-65113262D01*
X19505970Y-65113262D01*
X19699600Y-65061379D01*
X19699602Y-65061378D01*
X19704910Y-65059956D01*
X19724998Y-65050589D01*
X19891577Y-64972912D01*
X19891580Y-64972910D01*
X19896558Y-64970589D01*
X20069776Y-64849301D01*
X20219301Y-64699776D01*
X20340589Y-64526558D01*
X20392652Y-64414910D01*
X20427633Y-64339892D01*
X20427634Y-64339891D01*
X20429956Y-64334910D01*
X20464719Y-64205175D01*
X20483262Y-64135970D01*
X20483262Y-64135968D01*
X20484686Y-64130655D01*
X20503116Y-63920000D01*
X20484686Y-63709345D01*
X20450056Y-63580103D01*
X20431379Y-63510400D01*
X20431378Y-63510398D01*
X20429956Y-63505090D01*
X20423790Y-63491866D01*
X20342912Y-63318423D01*
X20342910Y-63318420D01*
X20340589Y-63313442D01*
X20219301Y-63140224D01*
X20069776Y-62990699D01*
X19896558Y-62869411D01*
X19891580Y-62867090D01*
X19891577Y-62867088D01*
X19709892Y-62782367D01*
X19709891Y-62782366D01*
X19704910Y-62780044D01*
X19699602Y-62778622D01*
X19699600Y-62778621D01*
X19505970Y-62726738D01*
X19505968Y-62726738D01*
X19500655Y-62725314D01*
X19375510Y-62714365D01*
X19309392Y-62688501D01*
X19297397Y-62677939D01*
X19067405Y-62447947D01*
X19033379Y-62385635D01*
X19030500Y-62358852D01*
X19030500Y-57634390D01*
X19050502Y-57566269D01*
X19067405Y-57545295D01*
X21196906Y-55415794D01*
X21259218Y-55381768D01*
X21330033Y-55386833D01*
X21386869Y-55429380D01*
X21411680Y-55495900D01*
X21412001Y-55504889D01*
X21412001Y-55677095D01*
X21412338Y-55683614D01*
X21422257Y-55779206D01*
X21425149Y-55792600D01*
X21476588Y-55946784D01*
X21482761Y-55959962D01*
X21568063Y-56097807D01*
X21577099Y-56109208D01*
X21691829Y-56223739D01*
X21703240Y-56232751D01*
X21841244Y-56317817D01*
X21856735Y-56325041D01*
X21910019Y-56371959D01*
X21929479Y-56440237D01*
X21908936Y-56508196D01*
X21879136Y-56539995D01*
X21864965Y-56550635D01*
X21710629Y-56712138D01*
X21584743Y-56896680D01*
X21537715Y-56997993D01*
X21507838Y-57062359D01*
X21490688Y-57099305D01*
X21430989Y-57314570D01*
X21407251Y-57536695D01*
X21407548Y-57541848D01*
X21407548Y-57541851D01*
X21412884Y-57634390D01*
X21420110Y-57759715D01*
X21421247Y-57764761D01*
X21421248Y-57764767D01*
X21424543Y-57779386D01*
X21469222Y-57977639D01*
X21553266Y-58184616D01*
X21604019Y-58267438D01*
X21667291Y-58370688D01*
X21669987Y-58375088D01*
X21816250Y-58543938D01*
X21988126Y-58686632D01*
X22181000Y-58799338D01*
X22389692Y-58879030D01*
X22394760Y-58880061D01*
X22394763Y-58880062D01*
X22502017Y-58901883D01*
X22608597Y-58923567D01*
X22613772Y-58923757D01*
X22613774Y-58923757D01*
X22826673Y-58931564D01*
X22826677Y-58931564D01*
X22831837Y-58931753D01*
X22836957Y-58931097D01*
X22836959Y-58931097D01*
X23048288Y-58904025D01*
X23048289Y-58904025D01*
X23053416Y-58903368D01*
X23058366Y-58901883D01*
X23262429Y-58840661D01*
X23262434Y-58840659D01*
X23267384Y-58839174D01*
X23467994Y-58740896D01*
X23649860Y-58611173D01*
X23808096Y-58453489D01*
X23867594Y-58370689D01*
X23938453Y-58272077D01*
X23939776Y-58273028D01*
X23986645Y-58229857D01*
X24056580Y-58217625D01*
X24122026Y-58245144D01*
X24149875Y-58276994D01*
X24164596Y-58301016D01*
X24209987Y-58375088D01*
X24356250Y-58543938D01*
X24528126Y-58686632D01*
X24721000Y-58799338D01*
X24929692Y-58879030D01*
X24934760Y-58880061D01*
X24934763Y-58880062D01*
X25042017Y-58901883D01*
X25148597Y-58923567D01*
X25153772Y-58923757D01*
X25153774Y-58923757D01*
X25366673Y-58931564D01*
X25366677Y-58931564D01*
X25371837Y-58931753D01*
X25376957Y-58931097D01*
X25376959Y-58931097D01*
X25588288Y-58904025D01*
X25588289Y-58904025D01*
X25593416Y-58903368D01*
X25598366Y-58901883D01*
X25802429Y-58840661D01*
X25802434Y-58840659D01*
X25807384Y-58839174D01*
X25860070Y-58813364D01*
X25930041Y-58801357D01*
X25995398Y-58829087D01*
X26035388Y-58887749D01*
X26041500Y-58926515D01*
X26041500Y-60030405D01*
X26021498Y-60098526D01*
X26004595Y-60119500D01*
X19621538Y-66502557D01*
X19559226Y-66536583D01*
X19510561Y-66537547D01*
X19505961Y-66536736D01*
X19500655Y-66535314D01*
X19495188Y-66534836D01*
X19495184Y-66534835D01*
X19295475Y-66517363D01*
X19290000Y-66516884D01*
X19079345Y-66535314D01*
X19074032Y-66536738D01*
X19074030Y-66536738D01*
X18880400Y-66588621D01*
X18880398Y-66588622D01*
X18875090Y-66590044D01*
X18870109Y-66592366D01*
X18870108Y-66592367D01*
X18688423Y-66677088D01*
X18688420Y-66677090D01*
X18683442Y-66679411D01*
X18510224Y-66800699D01*
X18360699Y-66950224D01*
X18239411Y-67123442D01*
X18237090Y-67128420D01*
X18237088Y-67128423D01*
X18152367Y-67310108D01*
X18150044Y-67315090D01*
X18148622Y-67320398D01*
X18148621Y-67320400D01*
X18106101Y-67479088D01*
X18095314Y-67519345D01*
X18076884Y-67730000D01*
X18095314Y-67940655D01*
X18096738Y-67945968D01*
X18096738Y-67945970D01*
X18142562Y-68116985D01*
X18150044Y-68144910D01*
X18152366Y-68149891D01*
X18152367Y-68149892D01*
X18194132Y-68239456D01*
X18239411Y-68336558D01*
X18360699Y-68509776D01*
X18510224Y-68659301D01*
X18514736Y-68662460D01*
X18602770Y-68724102D01*
X18647099Y-68779559D01*
X18656500Y-68827315D01*
X18656500Y-70320606D01*
X18636498Y-70388727D01*
X18602771Y-70423819D01*
X18450211Y-70530643D01*
X18450208Y-70530645D01*
X18445700Y-70533802D01*
X18283802Y-70695700D01*
X18280645Y-70700208D01*
X18280643Y-70700211D01*
X18237746Y-70761475D01*
X18152477Y-70883251D01*
X18150154Y-70888233D01*
X18150151Y-70888238D01*
X18082668Y-71032957D01*
X18055716Y-71090757D01*
X18054294Y-71096065D01*
X18054293Y-71096067D01*
X17997881Y-71306598D01*
X17996457Y-71311913D01*
X17976502Y-71540000D01*
X17996457Y-71768087D01*
X17997881Y-71773400D01*
X17997881Y-71773402D01*
X18037171Y-71920031D01*
X18055716Y-71989243D01*
X18058039Y-71994224D01*
X18058039Y-71994225D01*
X18150151Y-72191762D01*
X18150154Y-72191767D01*
X18152477Y-72196749D01*
X18169093Y-72220479D01*
X18249336Y-72335077D01*
X18283802Y-72384300D01*
X18445700Y-72546198D01*
X18450208Y-72549355D01*
X18450211Y-72549357D01*
X18528389Y-72604098D01*
X18633251Y-72677523D01*
X18638233Y-72679846D01*
X18638238Y-72679849D01*
X18834765Y-72771490D01*
X18840757Y-72774284D01*
X18846065Y-72775706D01*
X18846067Y-72775707D01*
X19056598Y-72832119D01*
X19056600Y-72832119D01*
X19061913Y-72833543D01*
X19290000Y-72853498D01*
X19518087Y-72833543D01*
X19523400Y-72832119D01*
X19523402Y-72832119D01*
X19733933Y-72775707D01*
X19733935Y-72775706D01*
X19739243Y-72774284D01*
X19745235Y-72771490D01*
X19941762Y-72679849D01*
X19941767Y-72679846D01*
X19946749Y-72677523D01*
X20020243Y-72626062D01*
X21068493Y-72626062D01*
X21077789Y-72638077D01*
X21128994Y-72673931D01*
X21138489Y-72679414D01*
X21335947Y-72771490D01*
X21346239Y-72775236D01*
X21556688Y-72831625D01*
X21567481Y-72833528D01*
X21784525Y-72852517D01*
X21795475Y-72852517D01*
X22012519Y-72833528D01*
X22023312Y-72831625D01*
X22233761Y-72775236D01*
X22244053Y-72771490D01*
X22441511Y-72679414D01*
X22451006Y-72673931D01*
X22503048Y-72637491D01*
X22511424Y-72627012D01*
X22504356Y-72613566D01*
X21802812Y-71912022D01*
X21788868Y-71904408D01*
X21787035Y-71904539D01*
X21780420Y-71908790D01*
X21074923Y-72614287D01*
X21068493Y-72626062D01*
X20020243Y-72626062D01*
X20051611Y-72604098D01*
X20129789Y-72549357D01*
X20129792Y-72549355D01*
X20134300Y-72546198D01*
X20296198Y-72384300D01*
X20330665Y-72335077D01*
X20424369Y-72201253D01*
X20427523Y-72196749D01*
X20429847Y-72191765D01*
X20431171Y-72189472D01*
X20482553Y-72140479D01*
X20552267Y-72127043D01*
X20618178Y-72153429D01*
X20649409Y-72189472D01*
X20656066Y-72201002D01*
X20692509Y-72253048D01*
X20702988Y-72261424D01*
X20716434Y-72254356D01*
X21417978Y-71552812D01*
X21424356Y-71541132D01*
X22154408Y-71541132D01*
X22154539Y-71542965D01*
X22158790Y-71549580D01*
X22864287Y-72255077D01*
X22876062Y-72261507D01*
X22888077Y-72252211D01*
X22923931Y-72201006D01*
X22929414Y-72191511D01*
X23021490Y-71994053D01*
X23025236Y-71983761D01*
X23081625Y-71773312D01*
X23083528Y-71762519D01*
X23102517Y-71545475D01*
X23102517Y-71534525D01*
X23083528Y-71317481D01*
X23081625Y-71306688D01*
X23025236Y-71096239D01*
X23021490Y-71085947D01*
X22929414Y-70888489D01*
X22923931Y-70878994D01*
X22887491Y-70826952D01*
X22877012Y-70818576D01*
X22863566Y-70825644D01*
X22162022Y-71527188D01*
X22154408Y-71541132D01*
X21424356Y-71541132D01*
X21425592Y-71538868D01*
X21425461Y-71537035D01*
X21421210Y-71530420D01*
X20715713Y-70824923D01*
X20703938Y-70818493D01*
X20691923Y-70827789D01*
X20656066Y-70878998D01*
X20649409Y-70890528D01*
X20598027Y-70939521D01*
X20528313Y-70952958D01*
X20462402Y-70926571D01*
X20431171Y-70890528D01*
X20429847Y-70888235D01*
X20427523Y-70883251D01*
X20342254Y-70761475D01*
X20299357Y-70700211D01*
X20299355Y-70700208D01*
X20296198Y-70695700D01*
X20134300Y-70533802D01*
X20129792Y-70530645D01*
X20129789Y-70530643D01*
X20018887Y-70452988D01*
X21068576Y-70452988D01*
X21075644Y-70466434D01*
X21777188Y-71167978D01*
X21791132Y-71175592D01*
X21792965Y-71175461D01*
X21799580Y-71171210D01*
X22505077Y-70465713D01*
X22511507Y-70453938D01*
X22502211Y-70441923D01*
X22451006Y-70406069D01*
X22441511Y-70400586D01*
X22244053Y-70308510D01*
X22233761Y-70304764D01*
X22023312Y-70248375D01*
X22012519Y-70246472D01*
X21795475Y-70227483D01*
X21784525Y-70227483D01*
X21567481Y-70246472D01*
X21556688Y-70248375D01*
X21346239Y-70304764D01*
X21335947Y-70308510D01*
X21138489Y-70400586D01*
X21128994Y-70406069D01*
X21076952Y-70442509D01*
X21068576Y-70452988D01*
X20018887Y-70452988D01*
X19977229Y-70423819D01*
X19932901Y-70368362D01*
X19923500Y-70320606D01*
X19923500Y-68827315D01*
X19943502Y-68759194D01*
X19977230Y-68724102D01*
X20065264Y-68662460D01*
X20069776Y-68659301D01*
X20219301Y-68509776D01*
X20340589Y-68336558D01*
X20385869Y-68239456D01*
X20427633Y-68149892D01*
X20427634Y-68149891D01*
X20429956Y-68144910D01*
X20437439Y-68116985D01*
X20483262Y-67945970D01*
X20483262Y-67945968D01*
X20484686Y-67940655D01*
X20503116Y-67730000D01*
X20484686Y-67519345D01*
X20483262Y-67514029D01*
X20482452Y-67509437D01*
X20490321Y-67438877D01*
X20517443Y-67398461D01*
X27067247Y-60848657D01*
X27075537Y-60841113D01*
X27082018Y-60837000D01*
X27128659Y-60787332D01*
X27131413Y-60784491D01*
X27151134Y-60764770D01*
X27153612Y-60761575D01*
X27161318Y-60752553D01*
X27186160Y-60726099D01*
X27191586Y-60720321D01*
X27193186Y-60717410D01*
X27247786Y-60675307D01*
X27318522Y-60669232D01*
X27381314Y-60702363D01*
X27416225Y-60764183D01*
X27419500Y-60792722D01*
X27419500Y-62641183D01*
X27399498Y-62709304D01*
X27345842Y-62755797D01*
X27275568Y-62765901D01*
X27260898Y-62762892D01*
X27120655Y-62725314D01*
X26910000Y-62706884D01*
X26699345Y-62725314D01*
X26694032Y-62726738D01*
X26694030Y-62726738D01*
X26500400Y-62778621D01*
X26500398Y-62778622D01*
X26495090Y-62780044D01*
X26490109Y-62782366D01*
X26490108Y-62782367D01*
X26308423Y-62867088D01*
X26308420Y-62867090D01*
X26303442Y-62869411D01*
X26130224Y-62990699D01*
X25980699Y-63140224D01*
X25859411Y-63313442D01*
X25857090Y-63318420D01*
X25857088Y-63318423D01*
X25776210Y-63491866D01*
X25770044Y-63505090D01*
X25768622Y-63510398D01*
X25768621Y-63510400D01*
X25749944Y-63580103D01*
X25715314Y-63709345D01*
X25696884Y-63920000D01*
X25715314Y-64130655D01*
X25716738Y-64135968D01*
X25716738Y-64135970D01*
X25735282Y-64205175D01*
X25770044Y-64334910D01*
X25772366Y-64339891D01*
X25772367Y-64339892D01*
X25807349Y-64414910D01*
X25859411Y-64526558D01*
X25980699Y-64699776D01*
X26130224Y-64849301D01*
X26134736Y-64852460D01*
X26222770Y-64914102D01*
X26267099Y-64969559D01*
X26276500Y-65017315D01*
X26276500Y-66632685D01*
X26256498Y-66700806D01*
X26222770Y-66735898D01*
X26130224Y-66800699D01*
X25980699Y-66950224D01*
X25859411Y-67123442D01*
X25857090Y-67128420D01*
X25857088Y-67128423D01*
X25772367Y-67310108D01*
X25770044Y-67315090D01*
X25768622Y-67320398D01*
X25768621Y-67320400D01*
X25726101Y-67479088D01*
X25715314Y-67519345D01*
X25696884Y-67730000D01*
X25715314Y-67940655D01*
X25716738Y-67945968D01*
X25716738Y-67945970D01*
X25762562Y-68116985D01*
X25770044Y-68144910D01*
X25772366Y-68149891D01*
X25772367Y-68149892D01*
X25814132Y-68239456D01*
X25859411Y-68336558D01*
X25980699Y-68509776D01*
X26130224Y-68659301D01*
X26303442Y-68780589D01*
X26308420Y-68782910D01*
X26308423Y-68782912D01*
X26475002Y-68860589D01*
X26495090Y-68869956D01*
X26500398Y-68871378D01*
X26500400Y-68871379D01*
X26694030Y-68923262D01*
X26694032Y-68923262D01*
X26699345Y-68924686D01*
X26910000Y-68943116D01*
X27120655Y-68924686D01*
X27260890Y-68887110D01*
X27331865Y-68888800D01*
X27390661Y-68928594D01*
X27418609Y-68993858D01*
X27419500Y-69008817D01*
X27419500Y-70162406D01*
X27399498Y-70230527D01*
X27382595Y-70251501D01*
X23977747Y-73656348D01*
X23969461Y-73663888D01*
X23962982Y-73668000D01*
X23957557Y-73673777D01*
X23916357Y-73717651D01*
X23913602Y-73720493D01*
X23893865Y-73740230D01*
X23891385Y-73743427D01*
X23883682Y-73752447D01*
X23853414Y-73784679D01*
X23849595Y-73791625D01*
X23849593Y-73791628D01*
X23843652Y-73802434D01*
X23832801Y-73818953D01*
X23820386Y-73834959D01*
X23817241Y-73842228D01*
X23817238Y-73842232D01*
X23802826Y-73875537D01*
X23797609Y-73886187D01*
X23776305Y-73924940D01*
X23774334Y-73932615D01*
X23774334Y-73932616D01*
X23771267Y-73944562D01*
X23764863Y-73963266D01*
X23756819Y-73981855D01*
X23755580Y-73989678D01*
X23755577Y-73989688D01*
X23749901Y-74025524D01*
X23747495Y-74037144D01*
X23738472Y-74072289D01*
X23736500Y-74079970D01*
X23736500Y-74100224D01*
X23734949Y-74119934D01*
X23731780Y-74139943D01*
X23732526Y-74147835D01*
X23735941Y-74183961D01*
X23736500Y-74195819D01*
X23736500Y-79290606D01*
X23716498Y-79358727D01*
X23682771Y-79393819D01*
X23530211Y-79500643D01*
X23530208Y-79500645D01*
X23525700Y-79503802D01*
X23363802Y-79665700D01*
X23232477Y-79853251D01*
X23230154Y-79858233D01*
X23230151Y-79858238D01*
X23160168Y-80008319D01*
X23135716Y-80060757D01*
X23134294Y-80066065D01*
X23134293Y-80066067D01*
X23128812Y-80086522D01*
X23076457Y-80281913D01*
X23056502Y-80510000D01*
X23076457Y-80738087D01*
X23077880Y-80743398D01*
X23077882Y-80743409D01*
X23093459Y-80801541D01*
X23091770Y-80872517D01*
X23060848Y-80923248D01*
X19621538Y-84362557D01*
X19559226Y-84396583D01*
X19510561Y-84397547D01*
X19505961Y-84396736D01*
X19500655Y-84395314D01*
X19495188Y-84394836D01*
X19495184Y-84394835D01*
X19295475Y-84377363D01*
X19290000Y-84376884D01*
X19079345Y-84395314D01*
X19074032Y-84396738D01*
X19074030Y-84396738D01*
X18880400Y-84448621D01*
X18880398Y-84448622D01*
X18875090Y-84450044D01*
X18870109Y-84452366D01*
X18870108Y-84452367D01*
X18688423Y-84537088D01*
X18688420Y-84537090D01*
X18683442Y-84539411D01*
X18510224Y-84660699D01*
X18360699Y-84810224D01*
X18239411Y-84983442D01*
X18237090Y-84988420D01*
X18237088Y-84988423D01*
X18227425Y-85009146D01*
X18150044Y-85175090D01*
X18148622Y-85180398D01*
X18148621Y-85180400D01*
X18113937Y-85309842D01*
X18095314Y-85379345D01*
X18076884Y-85590000D01*
X18095314Y-85800655D01*
X18150044Y-86004910D01*
X18239411Y-86196558D01*
X18360699Y-86369776D01*
X18510224Y-86519301D01*
X18683442Y-86640589D01*
X18688420Y-86642910D01*
X18688423Y-86642912D01*
X18870108Y-86727633D01*
X18875090Y-86729956D01*
X18880398Y-86731378D01*
X18880400Y-86731379D01*
X19074030Y-86783262D01*
X19074032Y-86783262D01*
X19079345Y-86784686D01*
X19290000Y-86803116D01*
X19500655Y-86784686D01*
X19505968Y-86783262D01*
X19505970Y-86783262D01*
X19699600Y-86731379D01*
X19699602Y-86731378D01*
X19704910Y-86729956D01*
X19709892Y-86727633D01*
X19891577Y-86642912D01*
X19891580Y-86642910D01*
X19896558Y-86640589D01*
X20069776Y-86519301D01*
X20219301Y-86369776D01*
X20340589Y-86196558D01*
X20429956Y-86004910D01*
X20484686Y-85800655D01*
X20503116Y-85590000D01*
X25696884Y-85590000D01*
X25715314Y-85800655D01*
X25770044Y-86004910D01*
X25859411Y-86196558D01*
X25980699Y-86369776D01*
X26130224Y-86519301D01*
X26303442Y-86640589D01*
X26308420Y-86642910D01*
X26308423Y-86642912D01*
X26490108Y-86727633D01*
X26495090Y-86729956D01*
X26500398Y-86731378D01*
X26500400Y-86731379D01*
X26694030Y-86783262D01*
X26694032Y-86783262D01*
X26699345Y-86784686D01*
X26910000Y-86803116D01*
X27120655Y-86784686D01*
X27125968Y-86783262D01*
X27125970Y-86783262D01*
X27319600Y-86731379D01*
X27319602Y-86731378D01*
X27324910Y-86729956D01*
X27329892Y-86727633D01*
X27511577Y-86642912D01*
X27511580Y-86642910D01*
X27516558Y-86640589D01*
X27689776Y-86519301D01*
X27839301Y-86369776D01*
X27960589Y-86196558D01*
X28049956Y-86004910D01*
X28104686Y-85800655D01*
X28123116Y-85590000D01*
X28104686Y-85379345D01*
X28103262Y-85374029D01*
X28102452Y-85369437D01*
X28110321Y-85298877D01*
X28137443Y-85258461D01*
X28386758Y-85009146D01*
X28395048Y-85001602D01*
X28401529Y-84997489D01*
X28410043Y-84988423D01*
X28448169Y-84947822D01*
X28450924Y-84944980D01*
X28470645Y-84925259D01*
X28473123Y-84922064D01*
X28480829Y-84913042D01*
X28505669Y-84886590D01*
X28511097Y-84880810D01*
X28520857Y-84863057D01*
X28531710Y-84846534D01*
X28539264Y-84836795D01*
X28544124Y-84830530D01*
X28561687Y-84789946D01*
X28566894Y-84779316D01*
X28588206Y-84740549D01*
X28590177Y-84732872D01*
X28590179Y-84732867D01*
X28593243Y-84720931D01*
X28599649Y-84702219D01*
X28604544Y-84690908D01*
X28607692Y-84683634D01*
X28608932Y-84675806D01*
X28608934Y-84675799D01*
X28614610Y-84639965D01*
X28617016Y-84628345D01*
X28626039Y-84593200D01*
X28626039Y-84593199D01*
X28628011Y-84585519D01*
X28628011Y-84565265D01*
X28629562Y-84545554D01*
X28631491Y-84533375D01*
X28632731Y-84525546D01*
X28628570Y-84481527D01*
X28628011Y-84469670D01*
X28628011Y-80122978D01*
X28628538Y-80111795D01*
X28630213Y-80104302D01*
X28628073Y-80036225D01*
X28628011Y-80032266D01*
X28628011Y-80004355D01*
X28627506Y-80000355D01*
X28626573Y-79988512D01*
X28625433Y-79952240D01*
X28625184Y-79944321D01*
X28619533Y-79924869D01*
X28615525Y-79905517D01*
X28613978Y-79893274D01*
X28612985Y-79885414D01*
X28610067Y-79878043D01*
X28596711Y-79844308D01*
X28592866Y-79833081D01*
X28592232Y-79830898D01*
X28580529Y-79790618D01*
X28576495Y-79783796D01*
X28576492Y-79783790D01*
X28570217Y-79773179D01*
X28561521Y-79755429D01*
X28556983Y-79743967D01*
X28556980Y-79743962D01*
X28554063Y-79736594D01*
X28528084Y-79700836D01*
X28521568Y-79690918D01*
X28509321Y-79670211D01*
X28499053Y-79652848D01*
X28484729Y-79638524D01*
X28471887Y-79623489D01*
X28459983Y-79607104D01*
X28425917Y-79578922D01*
X28417138Y-79570933D01*
X27580405Y-78734200D01*
X27546379Y-78671888D01*
X27543500Y-78645105D01*
X27543500Y-77488134D01*
X36011500Y-77488134D01*
X36018255Y-77550316D01*
X36069385Y-77686705D01*
X36156739Y-77803261D01*
X36273295Y-77890615D01*
X36409684Y-77941745D01*
X36471866Y-77948500D01*
X39568134Y-77948500D01*
X39630316Y-77941745D01*
X39766705Y-77890615D01*
X39883261Y-77803261D01*
X39970615Y-77686705D01*
X40021745Y-77550316D01*
X40028500Y-77488134D01*
X40028500Y-74891866D01*
X40021745Y-74829684D01*
X39970615Y-74693295D01*
X39883261Y-74576739D01*
X39766705Y-74489385D01*
X39630316Y-74438255D01*
X39568134Y-74431500D01*
X36471866Y-74431500D01*
X36409684Y-74438255D01*
X36273295Y-74489385D01*
X36156739Y-74576739D01*
X36069385Y-74693295D01*
X36018255Y-74829684D01*
X36011500Y-74891866D01*
X36011500Y-77488134D01*
X27543500Y-77488134D01*
X27543500Y-76447315D01*
X27563502Y-76379194D01*
X27597230Y-76344102D01*
X27685264Y-76282460D01*
X27689776Y-76279301D01*
X27839301Y-76129776D01*
X27960589Y-75956558D01*
X28049956Y-75764910D01*
X28104686Y-75560655D01*
X28123116Y-75350000D01*
X28104686Y-75139345D01*
X28049956Y-74935090D01*
X28004468Y-74837540D01*
X27962912Y-74748423D01*
X27962910Y-74748420D01*
X27960589Y-74743442D01*
X27839301Y-74570224D01*
X27689776Y-74420699D01*
X27516558Y-74299411D01*
X27511580Y-74297090D01*
X27511577Y-74297088D01*
X27329892Y-74212367D01*
X27329891Y-74212366D01*
X27324910Y-74210044D01*
X27319602Y-74208622D01*
X27319600Y-74208621D01*
X27125970Y-74156738D01*
X27125968Y-74156738D01*
X27120655Y-74155314D01*
X26910000Y-74136884D01*
X26699345Y-74155314D01*
X26694032Y-74156738D01*
X26694030Y-74156738D01*
X26500400Y-74208621D01*
X26500398Y-74208622D01*
X26495090Y-74210044D01*
X26490109Y-74212366D01*
X26490108Y-74212367D01*
X26308423Y-74297088D01*
X26308420Y-74297090D01*
X26303442Y-74299411D01*
X26130224Y-74420699D01*
X25980699Y-74570224D01*
X25859411Y-74743442D01*
X25857090Y-74748420D01*
X25857088Y-74748423D01*
X25815532Y-74837540D01*
X25770044Y-74935090D01*
X25715314Y-75139345D01*
X25696884Y-75350000D01*
X25715314Y-75560655D01*
X25770044Y-75764910D01*
X25859411Y-75956558D01*
X25980699Y-76129776D01*
X26130224Y-76279301D01*
X26134736Y-76282460D01*
X26222770Y-76344102D01*
X26267099Y-76399559D01*
X26276500Y-76447315D01*
X26276500Y-78880933D01*
X26275973Y-78892116D01*
X26274298Y-78899609D01*
X26274547Y-78907535D01*
X26274547Y-78907536D01*
X26276438Y-78967686D01*
X26276500Y-78971645D01*
X26276500Y-78999556D01*
X26276997Y-79003490D01*
X26276997Y-79003491D01*
X26277005Y-79003556D01*
X26277938Y-79015393D01*
X26279327Y-79059589D01*
X26284978Y-79079039D01*
X26288987Y-79098400D01*
X26291526Y-79118497D01*
X26294445Y-79125868D01*
X26294445Y-79125870D01*
X26307804Y-79159612D01*
X26311648Y-79170838D01*
X26321512Y-79204791D01*
X26321310Y-79275784D01*
X26282756Y-79335401D01*
X26253765Y-79354137D01*
X26218489Y-79370586D01*
X26208994Y-79376069D01*
X26156952Y-79412509D01*
X26148576Y-79422988D01*
X26155644Y-79436434D01*
X27140115Y-80420905D01*
X27174141Y-80483217D01*
X27169076Y-80554032D01*
X27140115Y-80599095D01*
X26154923Y-81584287D01*
X26148493Y-81596062D01*
X26157789Y-81608077D01*
X26208994Y-81643931D01*
X26218489Y-81649414D01*
X26415947Y-81741490D01*
X26426239Y-81745236D01*
X26636688Y-81801625D01*
X26647481Y-81803528D01*
X26864525Y-81822517D01*
X26875475Y-81822517D01*
X27092519Y-81803528D01*
X27103312Y-81801625D01*
X27202400Y-81775075D01*
X27273376Y-81776765D01*
X27332172Y-81816559D01*
X27360120Y-81881824D01*
X27361011Y-81896782D01*
X27361011Y-84190894D01*
X27341009Y-84259015D01*
X27324106Y-84279989D01*
X27241538Y-84362557D01*
X27179226Y-84396583D01*
X27130561Y-84397547D01*
X27125961Y-84396736D01*
X27120655Y-84395314D01*
X27115188Y-84394836D01*
X27115184Y-84394835D01*
X26915475Y-84377363D01*
X26910000Y-84376884D01*
X26699345Y-84395314D01*
X26694032Y-84396738D01*
X26694030Y-84396738D01*
X26500400Y-84448621D01*
X26500398Y-84448622D01*
X26495090Y-84450044D01*
X26490109Y-84452366D01*
X26490108Y-84452367D01*
X26308423Y-84537088D01*
X26308420Y-84537090D01*
X26303442Y-84539411D01*
X26130224Y-84660699D01*
X25980699Y-84810224D01*
X25859411Y-84983442D01*
X25857090Y-84988420D01*
X25857088Y-84988423D01*
X25847425Y-85009146D01*
X25770044Y-85175090D01*
X25768622Y-85180398D01*
X25768621Y-85180400D01*
X25733937Y-85309842D01*
X25715314Y-85379345D01*
X25696884Y-85590000D01*
X20503116Y-85590000D01*
X20502637Y-85584525D01*
X20485165Y-85384816D01*
X20485164Y-85384812D01*
X20484686Y-85379345D01*
X20483264Y-85374039D01*
X20482453Y-85369439D01*
X20490321Y-85298879D01*
X20517443Y-85258462D01*
X23956752Y-81819152D01*
X24019064Y-81785126D01*
X24078459Y-81786541D01*
X24136591Y-81802118D01*
X24136602Y-81802120D01*
X24141913Y-81803543D01*
X24370000Y-81823498D01*
X24598087Y-81803543D01*
X24603400Y-81802119D01*
X24603402Y-81802119D01*
X24813933Y-81745707D01*
X24813935Y-81745706D01*
X24819243Y-81744284D01*
X24825235Y-81741490D01*
X25021762Y-81649849D01*
X25021767Y-81649846D01*
X25026749Y-81647523D01*
X25131611Y-81574098D01*
X25209789Y-81519357D01*
X25209792Y-81519355D01*
X25214300Y-81516198D01*
X25376198Y-81354300D01*
X25507523Y-81166749D01*
X25509847Y-81161765D01*
X25511171Y-81159472D01*
X25562553Y-81110479D01*
X25632267Y-81097043D01*
X25698178Y-81123429D01*
X25729409Y-81159472D01*
X25736066Y-81171002D01*
X25772509Y-81223048D01*
X25782988Y-81231424D01*
X25796434Y-81224356D01*
X26497978Y-80522812D01*
X26505592Y-80508868D01*
X26505461Y-80507035D01*
X26501210Y-80500420D01*
X25795713Y-79794923D01*
X25783938Y-79788493D01*
X25771923Y-79797789D01*
X25736066Y-79848998D01*
X25729409Y-79860528D01*
X25678027Y-79909521D01*
X25608313Y-79922958D01*
X25542402Y-79896571D01*
X25511171Y-79860528D01*
X25509847Y-79858235D01*
X25507523Y-79853251D01*
X25376198Y-79665700D01*
X25214300Y-79503802D01*
X25209792Y-79500645D01*
X25209789Y-79500643D01*
X25057229Y-79393819D01*
X25012901Y-79338362D01*
X25003500Y-79290606D01*
X25003500Y-74474594D01*
X25023502Y-74406473D01*
X25040405Y-74385499D01*
X26435904Y-72990000D01*
X29006835Y-72990000D01*
X29025465Y-73226711D01*
X29080895Y-73457594D01*
X29082788Y-73462165D01*
X29082789Y-73462167D01*
X29169772Y-73672163D01*
X29171760Y-73676963D01*
X29174346Y-73681183D01*
X29293241Y-73875202D01*
X29293245Y-73875208D01*
X29295824Y-73879416D01*
X29450031Y-74059969D01*
X29630584Y-74214176D01*
X29634792Y-74216755D01*
X29634798Y-74216759D01*
X29828084Y-74335205D01*
X29833037Y-74338240D01*
X29837607Y-74340133D01*
X29837611Y-74340135D01*
X30047833Y-74427211D01*
X30052406Y-74429105D01*
X30132609Y-74448360D01*
X30278476Y-74483380D01*
X30278482Y-74483381D01*
X30283289Y-74484535D01*
X30520000Y-74503165D01*
X30756711Y-74484535D01*
X30761518Y-74483381D01*
X30761524Y-74483380D01*
X30907391Y-74448360D01*
X30987594Y-74429105D01*
X30992167Y-74427211D01*
X31202389Y-74340135D01*
X31202393Y-74340133D01*
X31206963Y-74338240D01*
X31211916Y-74335205D01*
X31395556Y-74222670D01*
X44152160Y-74222670D01*
X44157887Y-74230320D01*
X44329042Y-74335205D01*
X44337837Y-74339687D01*
X44547988Y-74426734D01*
X44557373Y-74429783D01*
X44778554Y-74482885D01*
X44788301Y-74484428D01*
X45015070Y-74502275D01*
X45024930Y-74502275D01*
X45251699Y-74484428D01*
X45261446Y-74482885D01*
X45482627Y-74429783D01*
X45492012Y-74426734D01*
X45702163Y-74339687D01*
X45710958Y-74335205D01*
X45878445Y-74232568D01*
X45887907Y-74222110D01*
X45884124Y-74213334D01*
X45032812Y-73362022D01*
X45018868Y-73354408D01*
X45017035Y-73354539D01*
X45010420Y-73358790D01*
X44158920Y-74210290D01*
X44152160Y-74222670D01*
X31395556Y-74222670D01*
X31405202Y-74216759D01*
X31405208Y-74216755D01*
X31409416Y-74214176D01*
X31589969Y-74059969D01*
X31744176Y-73879416D01*
X31746755Y-73875208D01*
X31746759Y-73875202D01*
X31865654Y-73681183D01*
X31868240Y-73676963D01*
X31870229Y-73672163D01*
X31957211Y-73462167D01*
X31957212Y-73462165D01*
X31959105Y-73457594D01*
X32014535Y-73226711D01*
X32032777Y-72994930D01*
X43507725Y-72994930D01*
X43525572Y-73221699D01*
X43527115Y-73231446D01*
X43580217Y-73452627D01*
X43583266Y-73462012D01*
X43670313Y-73672163D01*
X43674795Y-73680958D01*
X43777432Y-73848445D01*
X43787890Y-73857907D01*
X43796666Y-73854124D01*
X44647978Y-73002812D01*
X44654356Y-72991132D01*
X45384408Y-72991132D01*
X45384539Y-72992965D01*
X45388790Y-72999580D01*
X46240290Y-73851080D01*
X46252670Y-73857840D01*
X46260320Y-73852113D01*
X46365205Y-73680958D01*
X46369687Y-73672163D01*
X46456734Y-73462012D01*
X46459783Y-73452627D01*
X46512885Y-73231446D01*
X46514428Y-73221699D01*
X46532275Y-72994930D01*
X46532275Y-72985070D01*
X46514428Y-72758301D01*
X46512885Y-72748554D01*
X46459783Y-72527373D01*
X46456734Y-72517988D01*
X46369687Y-72307837D01*
X46365205Y-72299042D01*
X46262568Y-72131555D01*
X46252110Y-72122093D01*
X46243334Y-72125876D01*
X45392022Y-72977188D01*
X45384408Y-72991132D01*
X44654356Y-72991132D01*
X44655592Y-72988868D01*
X44655461Y-72987035D01*
X44651210Y-72980420D01*
X43799710Y-72128920D01*
X43787330Y-72122160D01*
X43779680Y-72127887D01*
X43674795Y-72299042D01*
X43670313Y-72307837D01*
X43583266Y-72517988D01*
X43580217Y-72527373D01*
X43527115Y-72748554D01*
X43525572Y-72758301D01*
X43507725Y-72985070D01*
X43507725Y-72994930D01*
X32032777Y-72994930D01*
X32033165Y-72990000D01*
X32014535Y-72753289D01*
X31995588Y-72674366D01*
X31960260Y-72527218D01*
X31959105Y-72522406D01*
X31935037Y-72464300D01*
X31870135Y-72307611D01*
X31870133Y-72307607D01*
X31868240Y-72303037D01*
X31842790Y-72261507D01*
X31746759Y-72104798D01*
X31746755Y-72104792D01*
X31744176Y-72100584D01*
X31589969Y-71920031D01*
X31576808Y-71908790D01*
X31427474Y-71781247D01*
X31410248Y-71757890D01*
X44152093Y-71757890D01*
X44155876Y-71766666D01*
X45007188Y-72617978D01*
X45021132Y-72625592D01*
X45022965Y-72625461D01*
X45029580Y-72621210D01*
X45881080Y-71769710D01*
X45887840Y-71757330D01*
X45882113Y-71749680D01*
X45710958Y-71644795D01*
X45702163Y-71640313D01*
X45492012Y-71553266D01*
X45482627Y-71550217D01*
X45261446Y-71497115D01*
X45251699Y-71495572D01*
X45024930Y-71477725D01*
X45015070Y-71477725D01*
X44788301Y-71495572D01*
X44778554Y-71497115D01*
X44557373Y-71550217D01*
X44547988Y-71553266D01*
X44337837Y-71640313D01*
X44329042Y-71644795D01*
X44161555Y-71747432D01*
X44152093Y-71757890D01*
X31410248Y-71757890D01*
X31393598Y-71735314D01*
X31384122Y-71713332D01*
X30532812Y-70862022D01*
X30518868Y-70854408D01*
X30517035Y-70854539D01*
X30510420Y-70858790D01*
X29658920Y-71710290D01*
X29637974Y-71748648D01*
X29609218Y-71784072D01*
X29459408Y-71912022D01*
X29450031Y-71920031D01*
X29295824Y-72100584D01*
X29293245Y-72104792D01*
X29293241Y-72104798D01*
X29197210Y-72261507D01*
X29171760Y-72303037D01*
X29169867Y-72307607D01*
X29169865Y-72307611D01*
X29104963Y-72464300D01*
X29080895Y-72522406D01*
X29079740Y-72527218D01*
X29044413Y-72674366D01*
X29025465Y-72753289D01*
X29006835Y-72990000D01*
X26435904Y-72990000D01*
X28445247Y-70980657D01*
X28453537Y-70973113D01*
X28460018Y-70969000D01*
X28506659Y-70919332D01*
X28509413Y-70916491D01*
X28529135Y-70896769D01*
X28531612Y-70893576D01*
X28539317Y-70884555D01*
X28569586Y-70852321D01*
X28573407Y-70845371D01*
X28579346Y-70834568D01*
X28590202Y-70818041D01*
X28597757Y-70808302D01*
X28597758Y-70808300D01*
X28602614Y-70802040D01*
X28620174Y-70761460D01*
X28625391Y-70750812D01*
X28642875Y-70719009D01*
X28642876Y-70719007D01*
X28646695Y-70712060D01*
X28649738Y-70700211D01*
X28651733Y-70692438D01*
X28658137Y-70673734D01*
X28663033Y-70662420D01*
X28663033Y-70662419D01*
X28666181Y-70655145D01*
X28667420Y-70647322D01*
X28667423Y-70647312D01*
X28673099Y-70611476D01*
X28675505Y-70599856D01*
X28684528Y-70564711D01*
X28684528Y-70564710D01*
X28686500Y-70557030D01*
X28686500Y-70536776D01*
X28688051Y-70517065D01*
X28689980Y-70504886D01*
X28691220Y-70497057D01*
X28691019Y-70494930D01*
X29007725Y-70494930D01*
X29025572Y-70721699D01*
X29027115Y-70731446D01*
X29080217Y-70952627D01*
X29083266Y-70962012D01*
X29170313Y-71172163D01*
X29174795Y-71180958D01*
X29277432Y-71348445D01*
X29287890Y-71357907D01*
X29296666Y-71354124D01*
X30430905Y-70219885D01*
X30493217Y-70185859D01*
X30564032Y-70190924D01*
X30609095Y-70219885D01*
X31740290Y-71351080D01*
X31752670Y-71357840D01*
X31760320Y-71352113D01*
X31865205Y-71180958D01*
X31869687Y-71172163D01*
X31956734Y-70962012D01*
X31959783Y-70952627D01*
X32012885Y-70731446D01*
X32014428Y-70721699D01*
X32032275Y-70494930D01*
X32032275Y-70485070D01*
X32014428Y-70258301D01*
X32012885Y-70248554D01*
X31959783Y-70027373D01*
X31956734Y-70017988D01*
X31869687Y-69807837D01*
X31865205Y-69799042D01*
X31743770Y-69600879D01*
X31745851Y-69599604D01*
X31725280Y-69542261D01*
X31741242Y-69473082D01*
X31775497Y-69434026D01*
X31876080Y-69358643D01*
X31876081Y-69358642D01*
X31883261Y-69353261D01*
X31970615Y-69236705D01*
X32021745Y-69100316D01*
X32028500Y-69038134D01*
X32028500Y-67990000D01*
X43506835Y-67990000D01*
X43525465Y-68226711D01*
X43526619Y-68231518D01*
X43526620Y-68231524D01*
X43550641Y-68331577D01*
X43580895Y-68457594D01*
X43582788Y-68462165D01*
X43582789Y-68462167D01*
X43665753Y-68662460D01*
X43671760Y-68676963D01*
X43674346Y-68681183D01*
X43793241Y-68875202D01*
X43793245Y-68875208D01*
X43795824Y-68879416D01*
X43950031Y-69059969D01*
X44130584Y-69214176D01*
X44134792Y-69216755D01*
X44134798Y-69216759D01*
X44328817Y-69335654D01*
X44333037Y-69338240D01*
X44337607Y-69340133D01*
X44337611Y-69340135D01*
X44547833Y-69427211D01*
X44552406Y-69429105D01*
X44600349Y-69440615D01*
X44778476Y-69483380D01*
X44778482Y-69483381D01*
X44783289Y-69484535D01*
X45020000Y-69503165D01*
X45256711Y-69484535D01*
X45261518Y-69483381D01*
X45261524Y-69483380D01*
X45439651Y-69440615D01*
X45487594Y-69429105D01*
X45492167Y-69427211D01*
X45702389Y-69340135D01*
X45702393Y-69340133D01*
X45706963Y-69338240D01*
X45711183Y-69335654D01*
X45905202Y-69216759D01*
X45905208Y-69216755D01*
X45909416Y-69214176D01*
X46089969Y-69059969D01*
X46244176Y-68879416D01*
X46246755Y-68875208D01*
X46246759Y-68875202D01*
X46365654Y-68681183D01*
X46368240Y-68676963D01*
X46374248Y-68662460D01*
X46457211Y-68462167D01*
X46457212Y-68462165D01*
X46459105Y-68457594D01*
X46489359Y-68331577D01*
X46513380Y-68231524D01*
X46513381Y-68231518D01*
X46514535Y-68226711D01*
X46533165Y-67990000D01*
X46514535Y-67753289D01*
X46510933Y-67738282D01*
X46469492Y-67565672D01*
X46459105Y-67522406D01*
X46429048Y-67449841D01*
X46370135Y-67307611D01*
X46370133Y-67307607D01*
X46368240Y-67303037D01*
X46261236Y-67128423D01*
X46246759Y-67104798D01*
X46246755Y-67104792D01*
X46244176Y-67100584D01*
X46089969Y-66920031D01*
X45909416Y-66765824D01*
X45905208Y-66763245D01*
X45905202Y-66763241D01*
X45711183Y-66644346D01*
X45706963Y-66641760D01*
X45702393Y-66639867D01*
X45702389Y-66639865D01*
X45492167Y-66552789D01*
X45492165Y-66552788D01*
X45487594Y-66550895D01*
X45407391Y-66531640D01*
X45261524Y-66496620D01*
X45261518Y-66496619D01*
X45256711Y-66495465D01*
X45020000Y-66476835D01*
X44783289Y-66495465D01*
X44778482Y-66496619D01*
X44778476Y-66496620D01*
X44632609Y-66531640D01*
X44552406Y-66550895D01*
X44547835Y-66552788D01*
X44547833Y-66552789D01*
X44337611Y-66639865D01*
X44337607Y-66639867D01*
X44333037Y-66641760D01*
X44328817Y-66644346D01*
X44134798Y-66763241D01*
X44134792Y-66763245D01*
X44130584Y-66765824D01*
X43950031Y-66920031D01*
X43795824Y-67100584D01*
X43793245Y-67104792D01*
X43793241Y-67104798D01*
X43778764Y-67128423D01*
X43671760Y-67303037D01*
X43669867Y-67307607D01*
X43669865Y-67307611D01*
X43610952Y-67449841D01*
X43580895Y-67522406D01*
X43570508Y-67565672D01*
X43529068Y-67738282D01*
X43525465Y-67753289D01*
X43506835Y-67990000D01*
X32028500Y-67990000D01*
X32028500Y-66941866D01*
X32021745Y-66879684D01*
X31970615Y-66743295D01*
X31883261Y-66626739D01*
X31766705Y-66539385D01*
X31630316Y-66488255D01*
X31568134Y-66481500D01*
X29471866Y-66481500D01*
X29409684Y-66488255D01*
X29273295Y-66539385D01*
X29156739Y-66626739D01*
X29069385Y-66743295D01*
X29018255Y-66879684D01*
X29011500Y-66941866D01*
X29011500Y-69038134D01*
X29018255Y-69100316D01*
X29069385Y-69236705D01*
X29156739Y-69353261D01*
X29163919Y-69358642D01*
X29163920Y-69358643D01*
X29264503Y-69434026D01*
X29307018Y-69490885D01*
X29312044Y-69561704D01*
X29294824Y-69600017D01*
X29296230Y-69600879D01*
X29174795Y-69799042D01*
X29170313Y-69807837D01*
X29083266Y-70017988D01*
X29080217Y-70027373D01*
X29027115Y-70248554D01*
X29025572Y-70258301D01*
X29007725Y-70485070D01*
X29007725Y-70494930D01*
X28691019Y-70494930D01*
X28687059Y-70453038D01*
X28686500Y-70441181D01*
X28686500Y-66088134D01*
X36011500Y-66088134D01*
X36018255Y-66150316D01*
X36069385Y-66286705D01*
X36156739Y-66403261D01*
X36273295Y-66490615D01*
X36409684Y-66541745D01*
X36471866Y-66548500D01*
X39568134Y-66548500D01*
X39630316Y-66541745D01*
X39766705Y-66490615D01*
X39883261Y-66403261D01*
X39970615Y-66286705D01*
X40021745Y-66150316D01*
X40028500Y-66088134D01*
X40028500Y-63491866D01*
X40021745Y-63429684D01*
X39970615Y-63293295D01*
X39883261Y-63176739D01*
X39766705Y-63089385D01*
X39630316Y-63038255D01*
X39568134Y-63031500D01*
X36471866Y-63031500D01*
X36409684Y-63038255D01*
X36273295Y-63089385D01*
X36156739Y-63176739D01*
X36069385Y-63293295D01*
X36018255Y-63429684D01*
X36011500Y-63491866D01*
X36011500Y-66088134D01*
X28686500Y-66088134D01*
X28686500Y-58705748D01*
X28706502Y-58637627D01*
X28729467Y-58611453D01*
X28729860Y-58611173D01*
X28888096Y-58453489D01*
X28947594Y-58370689D01*
X29018453Y-58272077D01*
X29019776Y-58273028D01*
X29066645Y-58229857D01*
X29136580Y-58217625D01*
X29202026Y-58245144D01*
X29229875Y-58276994D01*
X29244596Y-58301016D01*
X29289987Y-58375088D01*
X29436250Y-58543938D01*
X29608126Y-58686632D01*
X29801000Y-58799338D01*
X30009692Y-58879030D01*
X30014760Y-58880061D01*
X30014763Y-58880062D01*
X30122017Y-58901883D01*
X30228597Y-58923567D01*
X30233772Y-58923757D01*
X30233774Y-58923757D01*
X30446673Y-58931564D01*
X30446677Y-58931564D01*
X30451837Y-58931753D01*
X30456957Y-58931097D01*
X30456959Y-58931097D01*
X30668288Y-58904025D01*
X30668289Y-58904025D01*
X30673416Y-58903368D01*
X30678366Y-58901883D01*
X30882429Y-58840661D01*
X30882434Y-58840659D01*
X30887384Y-58839174D01*
X31087994Y-58740896D01*
X31269860Y-58611173D01*
X31428096Y-58453489D01*
X31487594Y-58370689D01*
X31555435Y-58276277D01*
X31558453Y-58272077D01*
X31579320Y-58229857D01*
X31655136Y-58076453D01*
X31655137Y-58076451D01*
X31657430Y-58071811D01*
X31722370Y-57858069D01*
X31751529Y-57636590D01*
X31753156Y-57570000D01*
X31734852Y-57347361D01*
X31680431Y-57130702D01*
X31591354Y-56925840D01*
X31470014Y-56738277D01*
X31319670Y-56573051D01*
X31315616Y-56569849D01*
X31315615Y-56569848D01*
X31148414Y-56437800D01*
X31148410Y-56437798D01*
X31144359Y-56434598D01*
X31103053Y-56411796D01*
X31053084Y-56361364D01*
X31038312Y-56291921D01*
X31063428Y-56225516D01*
X31090780Y-56198909D01*
X31138889Y-56164593D01*
X31269860Y-56071173D01*
X31428096Y-55913489D01*
X31447084Y-55887065D01*
X31555435Y-55736277D01*
X31558453Y-55732077D01*
X31657430Y-55531811D01*
X31722370Y-55318069D01*
X31751529Y-55096590D01*
X31753156Y-55030000D01*
X31734852Y-54807361D01*
X31680431Y-54590702D01*
X31593920Y-54391741D01*
X31585100Y-54321296D01*
X31615767Y-54257264D01*
X31676183Y-54219976D01*
X31709470Y-54215500D01*
X36620600Y-54215500D01*
X36688721Y-54235502D01*
X36709695Y-54252405D01*
X45501833Y-63044542D01*
X45514674Y-63059577D01*
X45518675Y-63065084D01*
X45518680Y-63065090D01*
X45522563Y-63070434D01*
X45527473Y-63074855D01*
X45527474Y-63074856D01*
X45571942Y-63114895D01*
X45576727Y-63119436D01*
X45590763Y-63133472D01*
X45593323Y-63135545D01*
X45593324Y-63135546D01*
X45606191Y-63145966D01*
X45611201Y-63150246D01*
X45655669Y-63190284D01*
X45655674Y-63190288D01*
X45660579Y-63194704D01*
X45666291Y-63198002D01*
X45666294Y-63198004D01*
X45672194Y-63201410D01*
X45688490Y-63212610D01*
X45698909Y-63221047D01*
X45758111Y-63251213D01*
X45763881Y-63254346D01*
X45815693Y-63284260D01*
X45815698Y-63284262D01*
X45821417Y-63287564D01*
X45827697Y-63289605D01*
X45827705Y-63289608D01*
X45834169Y-63291708D01*
X45852431Y-63299272D01*
X45858497Y-63302363D01*
X45858506Y-63302366D01*
X45864385Y-63305362D01*
X45870763Y-63307071D01*
X45928552Y-63322556D01*
X45934854Y-63324422D01*
X45998046Y-63344954D01*
X46010953Y-63346311D01*
X46011376Y-63346355D01*
X46030819Y-63349958D01*
X46043777Y-63353430D01*
X46050367Y-63353775D01*
X46050371Y-63353776D01*
X46094321Y-63356079D01*
X46110120Y-63356907D01*
X46116679Y-63357423D01*
X46136442Y-63359500D01*
X46156303Y-63359500D01*
X46162898Y-63359673D01*
X46222650Y-63362805D01*
X46222654Y-63362805D01*
X46229241Y-63363150D01*
X46242495Y-63361051D01*
X46262204Y-63359500D01*
X49807458Y-63359500D01*
X49875579Y-63379502D01*
X49922072Y-63433158D01*
X49932176Y-63503432D01*
X49921652Y-63538751D01*
X49900044Y-63585090D01*
X49898622Y-63590398D01*
X49898621Y-63590400D01*
X49846738Y-63784030D01*
X49845314Y-63789345D01*
X49826884Y-64000000D01*
X49845314Y-64210655D01*
X49900044Y-64414910D01*
X49902366Y-64419891D01*
X49902367Y-64419892D01*
X49949784Y-64521577D01*
X49989411Y-64606558D01*
X50110699Y-64779776D01*
X50260224Y-64929301D01*
X50352770Y-64994102D01*
X50397099Y-65049559D01*
X50406500Y-65097315D01*
X50406500Y-66712685D01*
X50386498Y-66780806D01*
X50352770Y-66815898D01*
X50260224Y-66880699D01*
X50110699Y-67030224D01*
X49989411Y-67203442D01*
X49987090Y-67208420D01*
X49987088Y-67208423D01*
X49902367Y-67390108D01*
X49900044Y-67395090D01*
X49898622Y-67400398D01*
X49898621Y-67400400D01*
X49849574Y-67583446D01*
X49845314Y-67599345D01*
X49826884Y-67810000D01*
X49845314Y-68020655D01*
X49846738Y-68025968D01*
X49846738Y-68025970D01*
X49896855Y-68213007D01*
X49900044Y-68224910D01*
X49902366Y-68229891D01*
X49902367Y-68229892D01*
X49949784Y-68331577D01*
X49989411Y-68416558D01*
X50110699Y-68589776D01*
X50260224Y-68739301D01*
X50433442Y-68860589D01*
X50438420Y-68862910D01*
X50438423Y-68862912D01*
X50620108Y-68947633D01*
X50625090Y-68949956D01*
X50630398Y-68951378D01*
X50630400Y-68951379D01*
X50824030Y-69003262D01*
X50824032Y-69003262D01*
X50829345Y-69004686D01*
X51040000Y-69023116D01*
X51250655Y-69004686D01*
X51255968Y-69003262D01*
X51255970Y-69003262D01*
X51449600Y-68951379D01*
X51449602Y-68951378D01*
X51454910Y-68949956D01*
X51459892Y-68947633D01*
X51641577Y-68862912D01*
X51641580Y-68862910D01*
X51646558Y-68860589D01*
X51819776Y-68739301D01*
X51969301Y-68589776D01*
X52090589Y-68416558D01*
X52130217Y-68331577D01*
X52177633Y-68229892D01*
X52177634Y-68229891D01*
X52179956Y-68224910D01*
X52183146Y-68213007D01*
X52233262Y-68025970D01*
X52233262Y-68025968D01*
X52234686Y-68020655D01*
X52253116Y-67810000D01*
X52234686Y-67599345D01*
X52230426Y-67583446D01*
X52181379Y-67400400D01*
X52181378Y-67400398D01*
X52179956Y-67395090D01*
X52177633Y-67390108D01*
X52092912Y-67208423D01*
X52092910Y-67208420D01*
X52090589Y-67203442D01*
X51969301Y-67030224D01*
X51819776Y-66880699D01*
X51727230Y-66815898D01*
X51682901Y-66760441D01*
X51673500Y-66712685D01*
X51673500Y-65097315D01*
X51693502Y-65029194D01*
X51727230Y-64994102D01*
X51819776Y-64929301D01*
X51969301Y-64779776D01*
X52090589Y-64606558D01*
X52130217Y-64521577D01*
X52177633Y-64419892D01*
X52177634Y-64419891D01*
X52179956Y-64414910D01*
X52234686Y-64210655D01*
X52253116Y-64000000D01*
X52234686Y-63789345D01*
X52233262Y-63784030D01*
X52181379Y-63590400D01*
X52181378Y-63590398D01*
X52179956Y-63585090D01*
X52158348Y-63538751D01*
X52147686Y-63468559D01*
X52176666Y-63403746D01*
X52236085Y-63364890D01*
X52272542Y-63359500D01*
X56717852Y-63359500D01*
X56785973Y-63379502D01*
X56806947Y-63396405D01*
X57321447Y-63910905D01*
X57355473Y-63973217D01*
X57350408Y-64044032D01*
X57321447Y-64089095D01*
X53931454Y-67479088D01*
X53916426Y-67491925D01*
X53905566Y-67499815D01*
X53901145Y-67504725D01*
X53901144Y-67504726D01*
X53861114Y-67549184D01*
X53856573Y-67553969D01*
X53842528Y-67568014D01*
X53840444Y-67570588D01*
X53840441Y-67570591D01*
X53830031Y-67583446D01*
X53825747Y-67588462D01*
X53785717Y-67632920D01*
X53785713Y-67632925D01*
X53781296Y-67637831D01*
X53774791Y-67649097D01*
X53774589Y-67649448D01*
X53763391Y-67665741D01*
X53754953Y-67676161D01*
X53724787Y-67735363D01*
X53721654Y-67741133D01*
X53691740Y-67792945D01*
X53691738Y-67792950D01*
X53688436Y-67798669D01*
X53686395Y-67804949D01*
X53686392Y-67804957D01*
X53684292Y-67811421D01*
X53676728Y-67829683D01*
X53673637Y-67835749D01*
X53673634Y-67835758D01*
X53670638Y-67841637D01*
X53668929Y-67848015D01*
X53653444Y-67905804D01*
X53651578Y-67912106D01*
X53631046Y-67975298D01*
X53630356Y-67981866D01*
X53629645Y-67988628D01*
X53626042Y-68008071D01*
X53622570Y-68021029D01*
X53622225Y-68027619D01*
X53622224Y-68027623D01*
X53619093Y-68087367D01*
X53618577Y-68093931D01*
X53616500Y-68113694D01*
X53616500Y-68133555D01*
X53616327Y-68140150D01*
X53616078Y-68144910D01*
X53612850Y-68206493D01*
X53613882Y-68213007D01*
X53614949Y-68219744D01*
X53616500Y-68239456D01*
X53616500Y-90240543D01*
X53614949Y-90260255D01*
X53612850Y-90273507D01*
X53613195Y-90280094D01*
X53613195Y-90280098D01*
X53616327Y-90339850D01*
X53616500Y-90346445D01*
X53616500Y-90366306D01*
X53616844Y-90369577D01*
X53618576Y-90386059D01*
X53619093Y-90392628D01*
X53622570Y-90458971D01*
X53626042Y-90471929D01*
X53629645Y-90491372D01*
X53631046Y-90504702D01*
X53651578Y-90567894D01*
X53653444Y-90574196D01*
X53670638Y-90638363D01*
X53673634Y-90644242D01*
X53673637Y-90644251D01*
X53676728Y-90650317D01*
X53684292Y-90668579D01*
X53686392Y-90675043D01*
X53686395Y-90675051D01*
X53688436Y-90681331D01*
X53691738Y-90687050D01*
X53691740Y-90687055D01*
X53721654Y-90738867D01*
X53724787Y-90744637D01*
X53754953Y-90803839D01*
X53759109Y-90808971D01*
X53763391Y-90814259D01*
X53774589Y-90830552D01*
X53781296Y-90842169D01*
X53785713Y-90847075D01*
X53785717Y-90847080D01*
X53825747Y-90891538D01*
X53830031Y-90896554D01*
X53840441Y-90909409D01*
X53842528Y-90911986D01*
X53856573Y-90926031D01*
X53861114Y-90930816D01*
X53905566Y-90980185D01*
X53916426Y-90988075D01*
X53931454Y-91000912D01*
X56147939Y-93217397D01*
X56181965Y-93279709D01*
X56184365Y-93295509D01*
X56195314Y-93420655D01*
X56250044Y-93624910D01*
X56339411Y-93816558D01*
X56460699Y-93989776D01*
X56610224Y-94139301D01*
X56783442Y-94260589D01*
X56788420Y-94262910D01*
X56788423Y-94262912D01*
X56883646Y-94307315D01*
X56975090Y-94349956D01*
X56980398Y-94351378D01*
X56980400Y-94351379D01*
X57174030Y-94403262D01*
X57174032Y-94403262D01*
X57179345Y-94404686D01*
X57390000Y-94423116D01*
X57600655Y-94404686D01*
X57605968Y-94403262D01*
X57605970Y-94403262D01*
X57799600Y-94351379D01*
X57799602Y-94351378D01*
X57804910Y-94349956D01*
X57896354Y-94307315D01*
X57991577Y-94262912D01*
X57991580Y-94262910D01*
X57996558Y-94260589D01*
X58169776Y-94139301D01*
X58319301Y-93989776D01*
X58440589Y-93816558D01*
X58529956Y-93624910D01*
X58584686Y-93420655D01*
X58603116Y-93210000D01*
X58584686Y-92999345D01*
X58529956Y-92795090D01*
X58440589Y-92603442D01*
X58319301Y-92430224D01*
X58169776Y-92280699D01*
X57996558Y-92159411D01*
X57991580Y-92157090D01*
X57991577Y-92157088D01*
X57809892Y-92072367D01*
X57809891Y-92072366D01*
X57804910Y-92070044D01*
X57799602Y-92068622D01*
X57799600Y-92068621D01*
X57605970Y-92016738D01*
X57605968Y-92016738D01*
X57600655Y-92015314D01*
X57475510Y-92004365D01*
X57409392Y-91978501D01*
X57397397Y-91967939D01*
X55420405Y-89990947D01*
X55386379Y-89928635D01*
X55383500Y-89901852D01*
X55383500Y-72898911D01*
X55403502Y-72830790D01*
X55457158Y-72784297D01*
X55527432Y-72774193D01*
X55562750Y-72784716D01*
X55705947Y-72851490D01*
X55716239Y-72855236D01*
X55926688Y-72911625D01*
X55937481Y-72913528D01*
X56154525Y-72932517D01*
X56165475Y-72932517D01*
X56382519Y-72913528D01*
X56393312Y-72911625D01*
X56603761Y-72855236D01*
X56614053Y-72851490D01*
X56811511Y-72759414D01*
X56821006Y-72753931D01*
X56873048Y-72717491D01*
X56881424Y-72707012D01*
X56874356Y-72693566D01*
X55889885Y-71709095D01*
X55855859Y-71646783D01*
X55857694Y-71621132D01*
X56524408Y-71621132D01*
X56524539Y-71622965D01*
X56528790Y-71629580D01*
X57234287Y-72335077D01*
X57246062Y-72341507D01*
X57258077Y-72332211D01*
X57293934Y-72281002D01*
X57300591Y-72269472D01*
X57351973Y-72220479D01*
X57421687Y-72207042D01*
X57487598Y-72233429D01*
X57518829Y-72269472D01*
X57520153Y-72271765D01*
X57522477Y-72276749D01*
X57653802Y-72464300D01*
X57815700Y-72626198D01*
X57820208Y-72629355D01*
X57820211Y-72629357D01*
X57884491Y-72674366D01*
X58003251Y-72757523D01*
X58008233Y-72759846D01*
X58008238Y-72759849D01*
X58204765Y-72851490D01*
X58210757Y-72854284D01*
X58216065Y-72855706D01*
X58216067Y-72855707D01*
X58426598Y-72912119D01*
X58426600Y-72912119D01*
X58431913Y-72913543D01*
X58660000Y-72933498D01*
X58888087Y-72913543D01*
X58893400Y-72912119D01*
X58893402Y-72912119D01*
X59103933Y-72855707D01*
X59103935Y-72855706D01*
X59109243Y-72854284D01*
X59115235Y-72851490D01*
X59311762Y-72759849D01*
X59311767Y-72759846D01*
X59316749Y-72757523D01*
X59435509Y-72674366D01*
X59499789Y-72629357D01*
X59499792Y-72629355D01*
X59504300Y-72626198D01*
X59666198Y-72464300D01*
X59797523Y-72276749D01*
X59799846Y-72271767D01*
X59799849Y-72271762D01*
X59891961Y-72074225D01*
X59891961Y-72074224D01*
X59894284Y-72069243D01*
X59953543Y-71848087D01*
X59973498Y-71620000D01*
X59953543Y-71391913D01*
X59944413Y-71357840D01*
X59895707Y-71176067D01*
X59895706Y-71176065D01*
X59894284Y-71170757D01*
X59854657Y-71085775D01*
X59799849Y-70968238D01*
X59799846Y-70968233D01*
X59797523Y-70963251D01*
X59701169Y-70825644D01*
X59669357Y-70780211D01*
X59669355Y-70780208D01*
X59666198Y-70775700D01*
X59504300Y-70613802D01*
X59499792Y-70610645D01*
X59499789Y-70610643D01*
X59347229Y-70503819D01*
X59302901Y-70448362D01*
X59293500Y-70400606D01*
X59293500Y-68907315D01*
X59313502Y-68839194D01*
X59347230Y-68804102D01*
X59439776Y-68739301D01*
X59589301Y-68589776D01*
X59710589Y-68416558D01*
X59750217Y-68331577D01*
X59797633Y-68229892D01*
X59797634Y-68229891D01*
X59799956Y-68224910D01*
X59803146Y-68213007D01*
X59853262Y-68025970D01*
X59853262Y-68025968D01*
X59854686Y-68020655D01*
X59873116Y-67810000D01*
X59854686Y-67599345D01*
X59850426Y-67583446D01*
X59801379Y-67400400D01*
X59801378Y-67400398D01*
X59799956Y-67395090D01*
X59797633Y-67390108D01*
X59712912Y-67208423D01*
X59712910Y-67208420D01*
X59710589Y-67203442D01*
X59589301Y-67030224D01*
X59439776Y-66880699D01*
X59266558Y-66759411D01*
X59261580Y-66757090D01*
X59261577Y-66757088D01*
X59079892Y-66672367D01*
X59079891Y-66672366D01*
X59074910Y-66670044D01*
X59069602Y-66668622D01*
X59069600Y-66668621D01*
X58875970Y-66616738D01*
X58875968Y-66616738D01*
X58870655Y-66615314D01*
X58660000Y-66596884D01*
X58449345Y-66615314D01*
X58444032Y-66616738D01*
X58444030Y-66616738D01*
X58250400Y-66668621D01*
X58250398Y-66668622D01*
X58245090Y-66670044D01*
X58240109Y-66672366D01*
X58240108Y-66672367D01*
X58058423Y-66757088D01*
X58058420Y-66757090D01*
X58053442Y-66759411D01*
X57880224Y-66880699D01*
X57730699Y-67030224D01*
X57609411Y-67203442D01*
X57607090Y-67208420D01*
X57607088Y-67208423D01*
X57522367Y-67390108D01*
X57520044Y-67395090D01*
X57518622Y-67400398D01*
X57518621Y-67400400D01*
X57469574Y-67583446D01*
X57465314Y-67599345D01*
X57446884Y-67810000D01*
X57465314Y-68020655D01*
X57466738Y-68025968D01*
X57466738Y-68025970D01*
X57516855Y-68213007D01*
X57520044Y-68224910D01*
X57522366Y-68229891D01*
X57522367Y-68229892D01*
X57569784Y-68331577D01*
X57609411Y-68416558D01*
X57730699Y-68589776D01*
X57880224Y-68739301D01*
X57972770Y-68804102D01*
X58017099Y-68859559D01*
X58026500Y-68907315D01*
X58026500Y-70400606D01*
X58006498Y-70468727D01*
X57972771Y-70503819D01*
X57820211Y-70610643D01*
X57820208Y-70610645D01*
X57815700Y-70613802D01*
X57653802Y-70775700D01*
X57650645Y-70780208D01*
X57650643Y-70780211D01*
X57581475Y-70878994D01*
X57522477Y-70963251D01*
X57520153Y-70968235D01*
X57518829Y-70970528D01*
X57467447Y-71019521D01*
X57397733Y-71032957D01*
X57331822Y-71006571D01*
X57300591Y-70970528D01*
X57293934Y-70958998D01*
X57257491Y-70906952D01*
X57247012Y-70898576D01*
X57233566Y-70905644D01*
X56532022Y-71607188D01*
X56524408Y-71621132D01*
X55857694Y-71621132D01*
X55860924Y-71575968D01*
X55889885Y-71530905D01*
X56875077Y-70545713D01*
X56881507Y-70533938D01*
X56872211Y-70521923D01*
X56821006Y-70486069D01*
X56811511Y-70480586D01*
X56614053Y-70388510D01*
X56603761Y-70384764D01*
X56393312Y-70328375D01*
X56382519Y-70326472D01*
X56165475Y-70307483D01*
X56154525Y-70307483D01*
X55937481Y-70326472D01*
X55926688Y-70328375D01*
X55716239Y-70384764D01*
X55705947Y-70388510D01*
X55562750Y-70455284D01*
X55492558Y-70465945D01*
X55427746Y-70436965D01*
X55388889Y-70377545D01*
X55383500Y-70341089D01*
X55383500Y-68578148D01*
X55403502Y-68510027D01*
X55420405Y-68489053D01*
X58667397Y-65242061D01*
X58729709Y-65208035D01*
X58745509Y-65205635D01*
X58870655Y-65194686D01*
X58875968Y-65193262D01*
X58875970Y-65193262D01*
X59069600Y-65141379D01*
X59069602Y-65141378D01*
X59074910Y-65139956D01*
X59079892Y-65137633D01*
X59261577Y-65052912D01*
X59261580Y-65052910D01*
X59266558Y-65050589D01*
X59439776Y-64929301D01*
X59589301Y-64779776D01*
X59710589Y-64606558D01*
X59750217Y-64521577D01*
X59797633Y-64419892D01*
X59797634Y-64419891D01*
X59799956Y-64414910D01*
X59854686Y-64210655D01*
X59873116Y-64000000D01*
X59854686Y-63789345D01*
X59853262Y-63784030D01*
X59801379Y-63590400D01*
X59801378Y-63590398D01*
X59799956Y-63585090D01*
X59778348Y-63538751D01*
X59712912Y-63398423D01*
X59712910Y-63398420D01*
X59710589Y-63393442D01*
X59589301Y-63220224D01*
X59439776Y-63070699D01*
X59266558Y-62949411D01*
X59261580Y-62947090D01*
X59261577Y-62947088D01*
X59079892Y-62862367D01*
X59079891Y-62862366D01*
X59074910Y-62860044D01*
X59069602Y-62858622D01*
X59069600Y-62858621D01*
X58875970Y-62806738D01*
X58875968Y-62806738D01*
X58870655Y-62805314D01*
X58745510Y-62794365D01*
X58679392Y-62768501D01*
X58667397Y-62757939D01*
X57872357Y-61962899D01*
X57864896Y-61954164D01*
X57864704Y-61953831D01*
X57862910Y-61951839D01*
X57862901Y-61951828D01*
X57837971Y-61924141D01*
X57829671Y-61913892D01*
X57810064Y-61886905D01*
X57806185Y-61881566D01*
X57801281Y-61877150D01*
X57776492Y-61854829D01*
X57767171Y-61845508D01*
X57744850Y-61820719D01*
X57744848Y-61820718D01*
X57740434Y-61815815D01*
X57708107Y-61792328D01*
X57697858Y-61784028D01*
X57673077Y-61761715D01*
X57673076Y-61761714D01*
X57668169Y-61757296D01*
X57633567Y-61737318D01*
X57622507Y-61730136D01*
X57595526Y-61710533D01*
X57595525Y-61710532D01*
X57590184Y-61706652D01*
X57584158Y-61703969D01*
X57584151Y-61703965D01*
X57553682Y-61690400D01*
X57541940Y-61684418D01*
X57507331Y-61664436D01*
X57469320Y-61652086D01*
X57457024Y-61647365D01*
X57444671Y-61641865D01*
X57426550Y-61633797D01*
X57426547Y-61633796D01*
X57420521Y-61631113D01*
X57381444Y-61622807D01*
X57368704Y-61619394D01*
X57330702Y-61607046D01*
X57324143Y-61606357D01*
X57324140Y-61606356D01*
X57290963Y-61602869D01*
X57277938Y-61600806D01*
X57269160Y-61598940D01*
X57238860Y-61592500D01*
X46600895Y-61592500D01*
X46532774Y-61572498D01*
X46511800Y-61555595D01*
X44088909Y-59132703D01*
X46890743Y-59132703D01*
X46928268Y-59417734D01*
X47004129Y-59695036D01*
X47116923Y-59959476D01*
X47264561Y-60206161D01*
X47444313Y-60430528D01*
X47652851Y-60628423D01*
X47838159Y-60761581D01*
X47872010Y-60785905D01*
X47886317Y-60796186D01*
X47890112Y-60798195D01*
X47890113Y-60798196D01*
X47911869Y-60809715D01*
X48140392Y-60930712D01*
X48410373Y-61029511D01*
X48691264Y-61090755D01*
X48719841Y-61093004D01*
X48914282Y-61108307D01*
X48914291Y-61108307D01*
X48916739Y-61108500D01*
X49072271Y-61108500D01*
X49074407Y-61108354D01*
X49074418Y-61108354D01*
X49282548Y-61094165D01*
X49282554Y-61094164D01*
X49286825Y-61093873D01*
X49291020Y-61093004D01*
X49291022Y-61093004D01*
X49427584Y-61064723D01*
X49568342Y-61035574D01*
X49839343Y-60939607D01*
X50094812Y-60807750D01*
X50098313Y-60805289D01*
X50098317Y-60805287D01*
X50221573Y-60718661D01*
X50330023Y-60642441D01*
X50458401Y-60523145D01*
X50537479Y-60449661D01*
X50537481Y-60449658D01*
X50540622Y-60446740D01*
X50722713Y-60224268D01*
X50872927Y-59979142D01*
X50988483Y-59715898D01*
X51067244Y-59439406D01*
X51107751Y-59154784D01*
X51107845Y-59136951D01*
X51109235Y-58871583D01*
X51109235Y-58871576D01*
X51109257Y-58867297D01*
X51108279Y-58859863D01*
X51075932Y-58614171D01*
X51071732Y-58582266D01*
X50995871Y-58304964D01*
X50883077Y-58040524D01*
X50735439Y-57793839D01*
X50555687Y-57569472D01*
X50347149Y-57371577D01*
X50113683Y-57203814D01*
X50091843Y-57192250D01*
X50012392Y-57150183D01*
X49859608Y-57069288D01*
X49589627Y-56970489D01*
X49308736Y-56909245D01*
X49277685Y-56906801D01*
X49085718Y-56891693D01*
X49085709Y-56891693D01*
X49083261Y-56891500D01*
X48927729Y-56891500D01*
X48925593Y-56891646D01*
X48925582Y-56891646D01*
X48717452Y-56905835D01*
X48717446Y-56905836D01*
X48713175Y-56906127D01*
X48708980Y-56906996D01*
X48708978Y-56906996D01*
X48632702Y-56922792D01*
X48431658Y-56964426D01*
X48160657Y-57060393D01*
X48146281Y-57067813D01*
X47909941Y-57189797D01*
X47905188Y-57192250D01*
X47901687Y-57194711D01*
X47901683Y-57194713D01*
X47891594Y-57201804D01*
X47669977Y-57357559D01*
X47654892Y-57371577D01*
X47471656Y-57541851D01*
X47459378Y-57553260D01*
X47277287Y-57775732D01*
X47127073Y-58020858D01*
X47125347Y-58024791D01*
X47125346Y-58024792D01*
X47057290Y-58179829D01*
X47011517Y-58284102D01*
X46932756Y-58560594D01*
X46892249Y-58845216D01*
X46892227Y-58849505D01*
X46892226Y-58849512D01*
X46890765Y-59128417D01*
X46890743Y-59132703D01*
X44088909Y-59132703D01*
X42129433Y-57173227D01*
X37719660Y-52763454D01*
X37706820Y-52748422D01*
X37698933Y-52737566D01*
X37689550Y-52729117D01*
X37649564Y-52693114D01*
X37644779Y-52688573D01*
X37630734Y-52674528D01*
X37628157Y-52672441D01*
X37615302Y-52662031D01*
X37610286Y-52657747D01*
X37565828Y-52617717D01*
X37565823Y-52617713D01*
X37560917Y-52613296D01*
X37549300Y-52606589D01*
X37533007Y-52595391D01*
X37527719Y-52591109D01*
X37522587Y-52586953D01*
X37463385Y-52556787D01*
X37457615Y-52553654D01*
X37405803Y-52523740D01*
X37405798Y-52523738D01*
X37400079Y-52520436D01*
X37393799Y-52518395D01*
X37393791Y-52518392D01*
X37387327Y-52516292D01*
X37369065Y-52508728D01*
X37362999Y-52505637D01*
X37362990Y-52505634D01*
X37357111Y-52502638D01*
X37346420Y-52499773D01*
X37292944Y-52485444D01*
X37286642Y-52483578D01*
X37223450Y-52463046D01*
X37210120Y-52461645D01*
X37190677Y-52458042D01*
X37177719Y-52454570D01*
X37171129Y-52454225D01*
X37171125Y-52454224D01*
X37127175Y-52451921D01*
X37111376Y-52451093D01*
X37104817Y-52450577D01*
X37085054Y-52448500D01*
X37065193Y-52448500D01*
X37058598Y-52448327D01*
X36998846Y-52445195D01*
X36998842Y-52445195D01*
X36992255Y-52444850D01*
X36979001Y-52446949D01*
X36959292Y-52448500D01*
X27087457Y-52448500D01*
X27067745Y-52446949D01*
X27061008Y-52445882D01*
X27061009Y-52445882D01*
X27054493Y-52444850D01*
X27047906Y-52445195D01*
X27047902Y-52445195D01*
X26988150Y-52448327D01*
X26981555Y-52448500D01*
X26961694Y-52448500D01*
X26941931Y-52450577D01*
X26935372Y-52451093D01*
X26919573Y-52451921D01*
X26875623Y-52454224D01*
X26875619Y-52454225D01*
X26869029Y-52454570D01*
X26856071Y-52458042D01*
X26836628Y-52461645D01*
X26823298Y-52463046D01*
X26760106Y-52483578D01*
X26753804Y-52485444D01*
X26700328Y-52499773D01*
X26689637Y-52502638D01*
X26683758Y-52505634D01*
X26683749Y-52505637D01*
X26677683Y-52508728D01*
X26659421Y-52516292D01*
X26652958Y-52518392D01*
X26652953Y-52518394D01*
X26646669Y-52520436D01*
X26589119Y-52553663D01*
X26583366Y-52556786D01*
X26524161Y-52586952D01*
X26519027Y-52591109D01*
X26519026Y-52591110D01*
X26513737Y-52595393D01*
X26497449Y-52606588D01*
X26485831Y-52613296D01*
X26480925Y-52617713D01*
X26480920Y-52617717D01*
X26436462Y-52657747D01*
X26431447Y-52662031D01*
X26423669Y-52668330D01*
X26416015Y-52674528D01*
X26401979Y-52688564D01*
X26397194Y-52693105D01*
X26357199Y-52729117D01*
X26347815Y-52737566D01*
X26343935Y-52742906D01*
X26343928Y-52742914D01*
X26339927Y-52748422D01*
X26327086Y-52763457D01*
X25455443Y-53635100D01*
X25393131Y-53669126D01*
X25364810Y-53671996D01*
X25313138Y-53671365D01*
X25250720Y-53670603D01*
X25182850Y-53649770D01*
X25163165Y-53633707D01*
X24516392Y-52986934D01*
X24503555Y-52971906D01*
X24495665Y-52961046D01*
X24446296Y-52916594D01*
X24441511Y-52912053D01*
X24427466Y-52898008D01*
X24424889Y-52895921D01*
X24412034Y-52885511D01*
X24407018Y-52881227D01*
X24362560Y-52841197D01*
X24362555Y-52841193D01*
X24357649Y-52836776D01*
X24346032Y-52830069D01*
X24329739Y-52818871D01*
X24324451Y-52814589D01*
X24319319Y-52810433D01*
X24260117Y-52780267D01*
X24254347Y-52777134D01*
X24202535Y-52747220D01*
X24202530Y-52747218D01*
X24196811Y-52743916D01*
X24190531Y-52741875D01*
X24190523Y-52741872D01*
X24184059Y-52739772D01*
X24165797Y-52732208D01*
X24159731Y-52729117D01*
X24159722Y-52729114D01*
X24153843Y-52726118D01*
X24143152Y-52723253D01*
X24089676Y-52708924D01*
X24083374Y-52707058D01*
X24020182Y-52686526D01*
X24006852Y-52685125D01*
X23987409Y-52681522D01*
X23974451Y-52678050D01*
X23967861Y-52677705D01*
X23967857Y-52677704D01*
X23923907Y-52675401D01*
X23908108Y-52674573D01*
X23901549Y-52674057D01*
X23881786Y-52671980D01*
X23861925Y-52671980D01*
X23855330Y-52671807D01*
X23795578Y-52668675D01*
X23795574Y-52668675D01*
X23788987Y-52668330D01*
X23775733Y-52670429D01*
X23756024Y-52671980D01*
X21887212Y-52671980D01*
X21867501Y-52670429D01*
X21860771Y-52669363D01*
X21854255Y-52668331D01*
X21847667Y-52668676D01*
X21847663Y-52668676D01*
X21787924Y-52671807D01*
X21781330Y-52671980D01*
X21761456Y-52671980D01*
X21758183Y-52672324D01*
X21741691Y-52674057D01*
X21735116Y-52674574D01*
X21675386Y-52677704D01*
X21675382Y-52677705D01*
X21668791Y-52678050D01*
X21655833Y-52681522D01*
X21636390Y-52685125D01*
X21623060Y-52686526D01*
X21559868Y-52707058D01*
X21553566Y-52708924D01*
X21500090Y-52723253D01*
X21489399Y-52726118D01*
X21483520Y-52729114D01*
X21483511Y-52729117D01*
X21477445Y-52732208D01*
X21459183Y-52739772D01*
X21452719Y-52741872D01*
X21452711Y-52741875D01*
X21446431Y-52743916D01*
X21440712Y-52747218D01*
X21440707Y-52747220D01*
X21388895Y-52777134D01*
X21383125Y-52780267D01*
X21323923Y-52810433D01*
X21318791Y-52814589D01*
X21313503Y-52818871D01*
X21297210Y-52830069D01*
X21285593Y-52836776D01*
X21280687Y-52841193D01*
X21280682Y-52841197D01*
X21236224Y-52881227D01*
X21231208Y-52885511D01*
X21218353Y-52895921D01*
X21215776Y-52898008D01*
X21201731Y-52912053D01*
X21196946Y-52916594D01*
X21147577Y-52961046D01*
X21139687Y-52971906D01*
X21126850Y-52986934D01*
X17578454Y-56535330D01*
X17563426Y-56548167D01*
X17552566Y-56556057D01*
X17548145Y-56560967D01*
X17548144Y-56560968D01*
X17508114Y-56605426D01*
X17503573Y-56610211D01*
X17489528Y-56624256D01*
X17487444Y-56626830D01*
X17487441Y-56626833D01*
X17477031Y-56639688D01*
X17472747Y-56644704D01*
X17432717Y-56689162D01*
X17432713Y-56689167D01*
X17428296Y-56694073D01*
X17421791Y-56705339D01*
X17421589Y-56705690D01*
X17410391Y-56721983D01*
X17401953Y-56732403D01*
X17371787Y-56791605D01*
X17368654Y-56797375D01*
X17338740Y-56849187D01*
X17338738Y-56849192D01*
X17335436Y-56854911D01*
X17333395Y-56861191D01*
X17333392Y-56861199D01*
X17331292Y-56867663D01*
X17323728Y-56885925D01*
X17320637Y-56891991D01*
X17320634Y-56892000D01*
X17317638Y-56897879D01*
X17315929Y-56904257D01*
X17300444Y-56962046D01*
X17298578Y-56968348D01*
X17278046Y-57031540D01*
X17277356Y-57038108D01*
X17276645Y-57044870D01*
X17273042Y-57064313D01*
X17269570Y-57077271D01*
X17269225Y-57083861D01*
X17269224Y-57083865D01*
X17266093Y-57143609D01*
X17265577Y-57150173D01*
X17263500Y-57169936D01*
X17263500Y-57189797D01*
X17263327Y-57196392D01*
X17259850Y-57262735D01*
X17260882Y-57269249D01*
X17261949Y-57275986D01*
X17263500Y-57295698D01*
X17263500Y-62697543D01*
X17261949Y-62717255D01*
X17259850Y-62730507D01*
X15508500Y-62730507D01*
X15508500Y-18578134D01*
X32841500Y-18578134D01*
X32848255Y-18640316D01*
X32899385Y-18776705D01*
X32986739Y-18893261D01*
X33103295Y-18980615D01*
X33239684Y-19031745D01*
X33301866Y-19038500D01*
X35098134Y-19038500D01*
X35160316Y-19031745D01*
X35296705Y-18980615D01*
X35413261Y-18893261D01*
X35500615Y-18776705D01*
X35522799Y-18717529D01*
X35544598Y-18659382D01*
X35587240Y-18602618D01*
X35653802Y-18577918D01*
X35723150Y-18593126D01*
X35757817Y-18621114D01*
X35786250Y-18653938D01*
X35958126Y-18796632D01*
X36151000Y-18909338D01*
X36359692Y-18989030D01*
X36364760Y-18990061D01*
X36364763Y-18990062D01*
X36472017Y-19011883D01*
X36578597Y-19033567D01*
X36583772Y-19033757D01*
X36583774Y-19033757D01*
X36796673Y-19041564D01*
X36796677Y-19041564D01*
X36801837Y-19041753D01*
X36806957Y-19041097D01*
X36806959Y-19041097D01*
X37018288Y-19014025D01*
X37018289Y-19014025D01*
X37023416Y-19013368D01*
X37028366Y-19011883D01*
X37232429Y-18950661D01*
X37232434Y-18950659D01*
X37237384Y-18949174D01*
X37437994Y-18850896D01*
X37619860Y-18721173D01*
X37778096Y-18563489D01*
X37908453Y-18382077D01*
X37909776Y-18383028D01*
X37956645Y-18339857D01*
X38026580Y-18327625D01*
X38092026Y-18355144D01*
X38119875Y-18386994D01*
X38179987Y-18485088D01*
X38326250Y-18653938D01*
X38498126Y-18796632D01*
X38691000Y-18909338D01*
X38899692Y-18989030D01*
X38904760Y-18990061D01*
X38904763Y-18990062D01*
X39012017Y-19011883D01*
X39118597Y-19033567D01*
X39123772Y-19033757D01*
X39123774Y-19033757D01*
X39336673Y-19041564D01*
X39336677Y-19041564D01*
X39341837Y-19041753D01*
X39346957Y-19041097D01*
X39346959Y-19041097D01*
X39558288Y-19014025D01*
X39558289Y-19014025D01*
X39563416Y-19013368D01*
X39568366Y-19011883D01*
X39772429Y-18950661D01*
X39772434Y-18950659D01*
X39777384Y-18949174D01*
X39977994Y-18850896D01*
X40159860Y-18721173D01*
X40318096Y-18563489D01*
X40448453Y-18382077D01*
X40449776Y-18383028D01*
X40496645Y-18339857D01*
X40566580Y-18327625D01*
X40632026Y-18355144D01*
X40659875Y-18386994D01*
X40719987Y-18485088D01*
X40866250Y-18653938D01*
X41038126Y-18796632D01*
X41231000Y-18909338D01*
X41439692Y-18989030D01*
X41444760Y-18990061D01*
X41444763Y-18990062D01*
X41552017Y-19011883D01*
X41658597Y-19033567D01*
X41663772Y-19033757D01*
X41663774Y-19033757D01*
X41876673Y-19041564D01*
X41876677Y-19041564D01*
X41881837Y-19041753D01*
X41886957Y-19041097D01*
X41886959Y-19041097D01*
X42098288Y-19014025D01*
X42098289Y-19014025D01*
X42103416Y-19013368D01*
X42108366Y-19011883D01*
X42312429Y-18950661D01*
X42312434Y-18950659D01*
X42317384Y-18949174D01*
X42517994Y-18850896D01*
X42699860Y-18721173D01*
X42858096Y-18563489D01*
X42988453Y-18382077D01*
X43009320Y-18339857D01*
X43085136Y-18186453D01*
X43085137Y-18186451D01*
X43087430Y-18181811D01*
X43152370Y-17968069D01*
X43181529Y-17746590D01*
X43183156Y-17680000D01*
X43164852Y-17457361D01*
X43110431Y-17240702D01*
X43021354Y-17035840D01*
X42900014Y-16848277D01*
X42749670Y-16683051D01*
X42745619Y-16679852D01*
X42745615Y-16679848D01*
X42578414Y-16547800D01*
X42578410Y-16547798D01*
X42574359Y-16544598D01*
X42378789Y-16436638D01*
X42373920Y-16434914D01*
X42373916Y-16434912D01*
X42173087Y-16363795D01*
X42173083Y-16363794D01*
X42168212Y-16362069D01*
X42163119Y-16361162D01*
X42163116Y-16361161D01*
X41953373Y-16323800D01*
X41953367Y-16323799D01*
X41948284Y-16322894D01*
X41874452Y-16321992D01*
X41730081Y-16320228D01*
X41730079Y-16320228D01*
X41724911Y-16320165D01*
X41504091Y-16353955D01*
X41291756Y-16423357D01*
X41093607Y-16526507D01*
X41089474Y-16529610D01*
X41089471Y-16529612D01*
X40919100Y-16657530D01*
X40914965Y-16660635D01*
X40911393Y-16664373D01*
X40803729Y-16777037D01*
X40760629Y-16822138D01*
X40653201Y-16979621D01*
X40598293Y-17024621D01*
X40527768Y-17032792D01*
X40464021Y-17001538D01*
X40443324Y-16977054D01*
X40362822Y-16852617D01*
X40362820Y-16852614D01*
X40360014Y-16848277D01*
X40209670Y-16683051D01*
X40205619Y-16679852D01*
X40205615Y-16679848D01*
X40038414Y-16547800D01*
X40038410Y-16547798D01*
X40034359Y-16544598D01*
X39838789Y-16436638D01*
X39833920Y-16434914D01*
X39833916Y-16434912D01*
X39633087Y-16363795D01*
X39633083Y-16363794D01*
X39628212Y-16362069D01*
X39623119Y-16361162D01*
X39623116Y-16361161D01*
X39413373Y-16323800D01*
X39413367Y-16323799D01*
X39408284Y-16322894D01*
X39334452Y-16321992D01*
X39190081Y-16320228D01*
X39190079Y-16320228D01*
X39184911Y-16320165D01*
X38964091Y-16353955D01*
X38751756Y-16423357D01*
X38553607Y-16526507D01*
X38549474Y-16529610D01*
X38549471Y-16529612D01*
X38379100Y-16657530D01*
X38374965Y-16660635D01*
X38371393Y-16664373D01*
X38263729Y-16777037D01*
X38220629Y-16822138D01*
X38113201Y-16979621D01*
X38058293Y-17024621D01*
X37987768Y-17032792D01*
X37924021Y-17001538D01*
X37903324Y-16977054D01*
X37822822Y-16852617D01*
X37822820Y-16852614D01*
X37820014Y-16848277D01*
X37669670Y-16683051D01*
X37665619Y-16679852D01*
X37665615Y-16679848D01*
X37498414Y-16547800D01*
X37498410Y-16547798D01*
X37494359Y-16544598D01*
X37298789Y-16436638D01*
X37293920Y-16434914D01*
X37293916Y-16434912D01*
X37093087Y-16363795D01*
X37093083Y-16363794D01*
X37088212Y-16362069D01*
X37083119Y-16361162D01*
X37083116Y-16361161D01*
X36873373Y-16323800D01*
X36873367Y-16323799D01*
X36868284Y-16322894D01*
X36794452Y-16321992D01*
X36650081Y-16320228D01*
X36650079Y-16320228D01*
X36644911Y-16320165D01*
X36424091Y-16353955D01*
X36211756Y-16423357D01*
X36013607Y-16526507D01*
X36009474Y-16529610D01*
X36009471Y-16529612D01*
X35839100Y-16657530D01*
X35834965Y-16660635D01*
X35778537Y-16719684D01*
X35754283Y-16745064D01*
X35692759Y-16780494D01*
X35621846Y-16777037D01*
X35564060Y-16735791D01*
X35545207Y-16702243D01*
X35503767Y-16591703D01*
X35500615Y-16583295D01*
X35413261Y-16466739D01*
X35296705Y-16379385D01*
X35160316Y-16328255D01*
X35098134Y-16321500D01*
X33301866Y-16321500D01*
X33239684Y-16328255D01*
X33103295Y-16379385D01*
X32986739Y-16466739D01*
X32899385Y-16583295D01*
X32848255Y-16719684D01*
X32841500Y-16781866D01*
X32841500Y-18578134D01*
X15508500Y-18578134D01*
X15508500Y-15634500D01*
X15528502Y-15566379D01*
X15582158Y-15519886D01*
X15634500Y-15508500D01*
X60365500Y-15508500D01*
X60433621Y-15528502D01*
G37*
G04 #@! TD.AperFunction*
G04 #@! TD*
M02*
