G04 #@! TF.GenerationSoftware,KiCad,Pcbnew,6.0.7-f9a2dced07~116~ubuntu22.04.1*
G04 #@! TF.CreationDate,2022-09-03T08:45:22-04:00*
G04 #@! TF.ProjectId,clock_b2,636c6f63-6b5f-4623-922e-6b696361645f,rev?*
G04 #@! TF.SameCoordinates,Original*
G04 #@! TF.FileFunction,Legend,Top*
G04 #@! TF.FilePolarity,Positive*
%FSLAX46Y46*%
G04 Gerber Fmt 4.6, Leading zero omitted, Abs format (unit mm)*
G04 Created by KiCad (PCBNEW 6.0.7-f9a2dced07~116~ubuntu22.04.1) date 2022-09-03 08:45:22*
%MOMM*%
%LPD*%
G01*
G04 APERTURE LIST*
%ADD10C,0.150000*%
%ADD11C,0.152400*%
%ADD12C,0.050800*%
%ADD13C,0.120000*%
G04 APERTURE END LIST*
D10*
G04 #@! TO.C,SW1*
X33160357Y-93443571D02*
X33267500Y-93479285D01*
X33446071Y-93479285D01*
X33517500Y-93443571D01*
X33553214Y-93407857D01*
X33588928Y-93336428D01*
X33588928Y-93265000D01*
X33553214Y-93193571D01*
X33517500Y-93157857D01*
X33446071Y-93122142D01*
X33303214Y-93086428D01*
X33231785Y-93050714D01*
X33196071Y-93015000D01*
X33160357Y-92943571D01*
X33160357Y-92872142D01*
X33196071Y-92800714D01*
X33231785Y-92765000D01*
X33303214Y-92729285D01*
X33481785Y-92729285D01*
X33588928Y-92765000D01*
X33838928Y-92729285D02*
X34017500Y-93479285D01*
X34160357Y-92943571D01*
X34303214Y-93479285D01*
X34481785Y-92729285D01*
X35160357Y-93479285D02*
X34731785Y-93479285D01*
X34946071Y-93479285D02*
X34946071Y-92729285D01*
X34874642Y-92836428D01*
X34803214Y-92907857D01*
X34731785Y-92943571D01*
X35546285Y-105451571D02*
X35653428Y-105487285D01*
X35832000Y-105487285D01*
X35903428Y-105451571D01*
X35939142Y-105415857D01*
X35974857Y-105344428D01*
X35974857Y-105273000D01*
X35939142Y-105201571D01*
X35903428Y-105165857D01*
X35832000Y-105130142D01*
X35689142Y-105094428D01*
X35617714Y-105058714D01*
X35582000Y-105023000D01*
X35546285Y-104951571D01*
X35546285Y-104880142D01*
X35582000Y-104808714D01*
X35617714Y-104773000D01*
X35689142Y-104737285D01*
X35867714Y-104737285D01*
X35974857Y-104773000D01*
X36224857Y-104737285D02*
X36403428Y-105487285D01*
X36546285Y-104951571D01*
X36689142Y-105487285D01*
X36867714Y-104737285D01*
X36974857Y-105558714D02*
X37546285Y-105558714D01*
X37724857Y-105487285D02*
X37724857Y-104737285D01*
X38010571Y-104737285D01*
X38082000Y-104773000D01*
X38117714Y-104808714D01*
X38153428Y-104880142D01*
X38153428Y-104987285D01*
X38117714Y-105058714D01*
X38082000Y-105094428D01*
X38010571Y-105130142D01*
X37724857Y-105130142D01*
X38796285Y-104987285D02*
X38796285Y-105487285D01*
X38474857Y-104987285D02*
X38474857Y-105380142D01*
X38510571Y-105451571D01*
X38582000Y-105487285D01*
X38689142Y-105487285D01*
X38760571Y-105451571D01*
X38796285Y-105415857D01*
X39117714Y-105451571D02*
X39189142Y-105487285D01*
X39332000Y-105487285D01*
X39403428Y-105451571D01*
X39439142Y-105380142D01*
X39439142Y-105344428D01*
X39403428Y-105273000D01*
X39332000Y-105237285D01*
X39224857Y-105237285D01*
X39153428Y-105201571D01*
X39117714Y-105130142D01*
X39117714Y-105094428D01*
X39153428Y-105023000D01*
X39224857Y-104987285D01*
X39332000Y-104987285D01*
X39403428Y-105023000D01*
X39760571Y-105487285D02*
X39760571Y-104737285D01*
X40082000Y-105487285D02*
X40082000Y-105094428D01*
X40046285Y-105023000D01*
X39974857Y-104987285D01*
X39867714Y-104987285D01*
X39796285Y-105023000D01*
X39760571Y-105058714D01*
G04 #@! TO.C,SW2*
X32320000Y-63593571D02*
X32427142Y-63629285D01*
X32605714Y-63629285D01*
X32677142Y-63593571D01*
X32712857Y-63557857D01*
X32748571Y-63486428D01*
X32748571Y-63415000D01*
X32712857Y-63343571D01*
X32677142Y-63307857D01*
X32605714Y-63272142D01*
X32462857Y-63236428D01*
X32391428Y-63200714D01*
X32355714Y-63165000D01*
X32320000Y-63093571D01*
X32320000Y-63022142D01*
X32355714Y-62950714D01*
X32391428Y-62915000D01*
X32462857Y-62879285D01*
X32641428Y-62879285D01*
X32748571Y-62915000D01*
X32998571Y-62879285D02*
X33177142Y-63629285D01*
X33320000Y-63093571D01*
X33462857Y-63629285D01*
X33641428Y-62879285D01*
X33891428Y-62950714D02*
X33927142Y-62915000D01*
X33998571Y-62879285D01*
X34177142Y-62879285D01*
X34248571Y-62915000D01*
X34284285Y-62950714D01*
X34320000Y-63022142D01*
X34320000Y-63093571D01*
X34284285Y-63200714D01*
X33855714Y-63629285D01*
X34320000Y-63629285D01*
X34709285Y-79029285D02*
X34459285Y-78672142D01*
X34280714Y-79029285D02*
X34280714Y-78279285D01*
X34566428Y-78279285D01*
X34637857Y-78315000D01*
X34673571Y-78350714D01*
X34709285Y-78422142D01*
X34709285Y-78529285D01*
X34673571Y-78600714D01*
X34637857Y-78636428D01*
X34566428Y-78672142D01*
X34280714Y-78672142D01*
X35137857Y-79029285D02*
X35066428Y-78993571D01*
X35030714Y-78957857D01*
X34995000Y-78886428D01*
X34995000Y-78672142D01*
X35030714Y-78600714D01*
X35066428Y-78565000D01*
X35137857Y-78529285D01*
X35245000Y-78529285D01*
X35316428Y-78565000D01*
X35352142Y-78600714D01*
X35387857Y-78672142D01*
X35387857Y-78886428D01*
X35352142Y-78957857D01*
X35316428Y-78993571D01*
X35245000Y-79029285D01*
X35137857Y-79029285D01*
X35602142Y-78529285D02*
X35887857Y-78529285D01*
X35709285Y-78279285D02*
X35709285Y-78922142D01*
X35745000Y-78993571D01*
X35816428Y-79029285D01*
X35887857Y-79029285D01*
X36459285Y-79029285D02*
X36459285Y-78636428D01*
X36423571Y-78565000D01*
X36352142Y-78529285D01*
X36209285Y-78529285D01*
X36137857Y-78565000D01*
X36459285Y-78993571D02*
X36387857Y-79029285D01*
X36209285Y-79029285D01*
X36137857Y-78993571D01*
X36102142Y-78922142D01*
X36102142Y-78850714D01*
X36137857Y-78779285D01*
X36209285Y-78743571D01*
X36387857Y-78743571D01*
X36459285Y-78707857D01*
X36816428Y-79029285D02*
X36816428Y-78529285D01*
X36816428Y-78672142D02*
X36852142Y-78600714D01*
X36887857Y-78565000D01*
X36959285Y-78529285D01*
X37030714Y-78529285D01*
X37209285Y-78529285D02*
X37387857Y-79029285D01*
X37566428Y-78529285D02*
X37387857Y-79029285D01*
X37316428Y-79207857D01*
X37280714Y-79243571D01*
X37209285Y-79279285D01*
X37852142Y-78636428D02*
X38102142Y-78636428D01*
X38209285Y-79029285D02*
X37852142Y-79029285D01*
X37852142Y-78279285D01*
X38209285Y-78279285D01*
X38530714Y-78529285D02*
X38530714Y-79029285D01*
X38530714Y-78600714D02*
X38566428Y-78565000D01*
X38637857Y-78529285D01*
X38745000Y-78529285D01*
X38816428Y-78565000D01*
X38852142Y-78636428D01*
X38852142Y-79029285D01*
X39530714Y-78993571D02*
X39459285Y-79029285D01*
X39316428Y-79029285D01*
X39245000Y-78993571D01*
X39209285Y-78957857D01*
X39173571Y-78886428D01*
X39173571Y-78672142D01*
X39209285Y-78600714D01*
X39245000Y-78565000D01*
X39316428Y-78529285D01*
X39459285Y-78529285D01*
X39530714Y-78565000D01*
X39959285Y-79029285D02*
X39887857Y-78993571D01*
X39852142Y-78957857D01*
X39816428Y-78886428D01*
X39816428Y-78672142D01*
X39852142Y-78600714D01*
X39887857Y-78565000D01*
X39959285Y-78529285D01*
X40066428Y-78529285D01*
X40137857Y-78565000D01*
X40173571Y-78600714D01*
X40209285Y-78672142D01*
X40209285Y-78886428D01*
X40173571Y-78957857D01*
X40137857Y-78993571D01*
X40066428Y-79029285D01*
X39959285Y-79029285D01*
X40852142Y-79029285D02*
X40852142Y-78279285D01*
X40852142Y-78993571D02*
X40780714Y-79029285D01*
X40637857Y-79029285D01*
X40566428Y-78993571D01*
X40530714Y-78957857D01*
X40495000Y-78886428D01*
X40495000Y-78672142D01*
X40530714Y-78600714D01*
X40566428Y-78565000D01*
X40637857Y-78529285D01*
X40780714Y-78529285D01*
X40852142Y-78565000D01*
X41495000Y-78993571D02*
X41423571Y-79029285D01*
X41280714Y-79029285D01*
X41209285Y-78993571D01*
X41173571Y-78922142D01*
X41173571Y-78636428D01*
X41209285Y-78565000D01*
X41280714Y-78529285D01*
X41423571Y-78529285D01*
X41495000Y-78565000D01*
X41530714Y-78636428D01*
X41530714Y-78707857D01*
X41173571Y-78779285D01*
X41852142Y-79029285D02*
X41852142Y-78529285D01*
X41852142Y-78672142D02*
X41887857Y-78600714D01*
X41923571Y-78565000D01*
X41995000Y-78529285D01*
X42066428Y-78529285D01*
G04 #@! TO.C,OLED1*
X52387571Y-50127285D02*
X52530428Y-50127285D01*
X52601857Y-50163000D01*
X52673285Y-50234428D01*
X52709000Y-50377285D01*
X52709000Y-50627285D01*
X52673285Y-50770142D01*
X52601857Y-50841571D01*
X52530428Y-50877285D01*
X52387571Y-50877285D01*
X52316142Y-50841571D01*
X52244714Y-50770142D01*
X52209000Y-50627285D01*
X52209000Y-50377285D01*
X52244714Y-50234428D01*
X52316142Y-50163000D01*
X52387571Y-50127285D01*
X53387571Y-50877285D02*
X53030428Y-50877285D01*
X53030428Y-50127285D01*
X53637571Y-50484428D02*
X53887571Y-50484428D01*
X53994714Y-50877285D02*
X53637571Y-50877285D01*
X53637571Y-50127285D01*
X53994714Y-50127285D01*
X54316142Y-50877285D02*
X54316142Y-50127285D01*
X54494714Y-50127285D01*
X54601857Y-50163000D01*
X54673285Y-50234428D01*
X54709000Y-50305857D01*
X54744714Y-50448714D01*
X54744714Y-50555857D01*
X54709000Y-50698714D01*
X54673285Y-50770142D01*
X54601857Y-50841571D01*
X54494714Y-50877285D01*
X54316142Y-50877285D01*
X55459000Y-50877285D02*
X55030428Y-50877285D01*
X55244714Y-50877285D02*
X55244714Y-50127285D01*
X55173285Y-50234428D01*
X55101857Y-50305857D01*
X55030428Y-50341571D01*
X34082142Y-50169285D02*
X34225000Y-50169285D01*
X34296428Y-50205000D01*
X34367857Y-50276428D01*
X34403571Y-50419285D01*
X34403571Y-50669285D01*
X34367857Y-50812142D01*
X34296428Y-50883571D01*
X34225000Y-50919285D01*
X34082142Y-50919285D01*
X34010714Y-50883571D01*
X33939285Y-50812142D01*
X33903571Y-50669285D01*
X33903571Y-50419285D01*
X33939285Y-50276428D01*
X34010714Y-50205000D01*
X34082142Y-50169285D01*
X35082142Y-50919285D02*
X34725000Y-50919285D01*
X34725000Y-50169285D01*
X35332142Y-50526428D02*
X35582142Y-50526428D01*
X35689285Y-50919285D02*
X35332142Y-50919285D01*
X35332142Y-50169285D01*
X35689285Y-50169285D01*
X36010714Y-50919285D02*
X36010714Y-50169285D01*
X36189285Y-50169285D01*
X36296428Y-50205000D01*
X36367857Y-50276428D01*
X36403571Y-50347857D01*
X36439285Y-50490714D01*
X36439285Y-50597857D01*
X36403571Y-50740714D01*
X36367857Y-50812142D01*
X36296428Y-50883571D01*
X36189285Y-50919285D01*
X36010714Y-50919285D01*
X36582142Y-50990714D02*
X37153571Y-50990714D01*
X37725000Y-50919285D02*
X37296428Y-50919285D01*
X37510714Y-50919285D02*
X37510714Y-50169285D01*
X37439285Y-50276428D01*
X37367857Y-50347857D01*
X37296428Y-50383571D01*
X38010714Y-50240714D02*
X38046428Y-50205000D01*
X38117857Y-50169285D01*
X38296428Y-50169285D01*
X38367857Y-50205000D01*
X38403571Y-50240714D01*
X38439285Y-50312142D01*
X38439285Y-50383571D01*
X38403571Y-50490714D01*
X37975000Y-50919285D01*
X38439285Y-50919285D01*
X38867857Y-50490714D02*
X38796428Y-50455000D01*
X38760714Y-50419285D01*
X38725000Y-50347857D01*
X38725000Y-50312142D01*
X38760714Y-50240714D01*
X38796428Y-50205000D01*
X38867857Y-50169285D01*
X39010714Y-50169285D01*
X39082142Y-50205000D01*
X39117857Y-50240714D01*
X39153571Y-50312142D01*
X39153571Y-50347857D01*
X39117857Y-50419285D01*
X39082142Y-50455000D01*
X39010714Y-50490714D01*
X38867857Y-50490714D01*
X38796428Y-50526428D01*
X38760714Y-50562142D01*
X38725000Y-50633571D01*
X38725000Y-50776428D01*
X38760714Y-50847857D01*
X38796428Y-50883571D01*
X38867857Y-50919285D01*
X39010714Y-50919285D01*
X39082142Y-50883571D01*
X39117857Y-50847857D01*
X39153571Y-50776428D01*
X39153571Y-50633571D01*
X39117857Y-50562142D01*
X39082142Y-50526428D01*
X39010714Y-50490714D01*
X39403571Y-50169285D02*
X39903571Y-50919285D01*
X39903571Y-50169285D02*
X39403571Y-50919285D01*
X40510714Y-50169285D02*
X40367857Y-50169285D01*
X40296428Y-50205000D01*
X40260714Y-50240714D01*
X40189285Y-50347857D01*
X40153571Y-50490714D01*
X40153571Y-50776428D01*
X40189285Y-50847857D01*
X40225000Y-50883571D01*
X40296428Y-50919285D01*
X40439285Y-50919285D01*
X40510714Y-50883571D01*
X40546428Y-50847857D01*
X40582142Y-50776428D01*
X40582142Y-50597857D01*
X40546428Y-50526428D01*
X40510714Y-50490714D01*
X40439285Y-50455000D01*
X40296428Y-50455000D01*
X40225000Y-50490714D01*
X40189285Y-50526428D01*
X40153571Y-50597857D01*
X41225000Y-50419285D02*
X41225000Y-50919285D01*
X41046428Y-50133571D02*
X40867857Y-50669285D01*
X41332142Y-50669285D01*
D11*
G04 #@! TO.C,SW1*
X39905000Y-102405000D02*
X39905000Y-98595000D01*
X36222000Y-106596000D02*
X36984000Y-106596000D01*
X36222000Y-106596000D02*
X36222000Y-106850000D01*
X44096000Y-99357000D02*
X44096000Y-101643000D01*
X43080000Y-106596000D02*
X42826000Y-106850000D01*
X36984000Y-94023000D02*
X39016000Y-94023000D01*
X43080000Y-106596000D02*
X44096000Y-105580000D01*
D12*
X36349000Y-98849000D02*
X36349000Y-102151000D01*
D11*
X39778000Y-106596000D02*
X43080000Y-106596000D01*
X36095000Y-98595000D02*
X36095000Y-102405000D01*
D12*
X39651000Y-102151000D02*
X39651000Y-98849000D01*
D11*
X36984000Y-106977000D02*
X36984000Y-106596000D01*
D12*
X39651000Y-102151000D02*
X36349000Y-102151000D01*
D11*
X32920000Y-94404000D02*
X36222000Y-94404000D01*
X36222000Y-94404000D02*
X36984000Y-94404000D01*
X44096000Y-95420000D02*
X43080000Y-94404000D01*
X31904000Y-99357000D02*
X31904000Y-101643000D01*
X36984000Y-94404000D02*
X39016000Y-94404000D01*
X33174000Y-106850000D02*
X32920000Y-106596000D01*
X42826000Y-94150000D02*
X39778000Y-94150000D01*
X36222000Y-94150000D02*
X36222000Y-94404000D01*
X43080000Y-94404000D02*
X42826000Y-94150000D01*
X44096000Y-105580000D02*
X44096000Y-104310000D01*
X31904000Y-95420000D02*
X31904000Y-96690000D01*
X36222000Y-94150000D02*
X33174000Y-94150000D01*
X39778000Y-106596000D02*
X39778000Y-106850000D01*
X36095000Y-98595000D02*
X39905000Y-98595000D01*
X36984000Y-106596000D02*
X39016000Y-106596000D01*
X32920000Y-94404000D02*
X33174000Y-94150000D01*
X39016000Y-106596000D02*
X39778000Y-106596000D01*
X39778000Y-94150000D02*
X39778000Y-94404000D01*
X31904000Y-105580000D02*
X32920000Y-106596000D01*
X36222000Y-106850000D02*
X33174000Y-106850000D01*
X39905000Y-102405000D02*
X36095000Y-102405000D01*
X36984000Y-94404000D02*
X36984000Y-94023000D01*
X32920000Y-94404000D02*
X31904000Y-95420000D01*
X39016000Y-94023000D02*
X39016000Y-94404000D01*
X32920000Y-106596000D02*
X36222000Y-106596000D01*
D12*
X36349000Y-98849000D02*
X39651000Y-98849000D01*
D11*
X42826000Y-106850000D02*
X39778000Y-106850000D01*
X39778000Y-94404000D02*
X39016000Y-94404000D01*
X36984000Y-106977000D02*
X39016000Y-106977000D01*
X39016000Y-106596000D02*
X39016000Y-106977000D01*
X31904000Y-104310000D02*
X31904000Y-105580000D01*
X44096000Y-95420000D02*
X44096000Y-96690000D01*
X43080000Y-94404000D02*
X39778000Y-94404000D01*
D12*
X39016000Y-100500000D02*
G75*
G03*
X39016000Y-100500000I-1016000J0D01*
G01*
D11*
X41556000Y-100500000D02*
G75*
G03*
X41556000Y-100500000I-3556000J0D01*
G01*
D12*
X38762000Y-100500000D02*
G75*
G03*
X38762000Y-100500000I-762000J0D01*
G01*
G36*
X35714000Y-106850000D02*
G01*
X33555000Y-106850000D01*
X33555000Y-106342000D01*
X35714000Y-106342000D01*
X35714000Y-106850000D01*
G37*
G36*
X35714000Y-94658000D02*
G01*
X33555000Y-94658000D01*
X33555000Y-94150000D01*
X35714000Y-94150000D01*
X35714000Y-94658000D01*
G37*
G36*
X42445000Y-106850000D02*
G01*
X40286000Y-106850000D01*
X40286000Y-106342000D01*
X42445000Y-106342000D01*
X42445000Y-106850000D01*
G37*
G36*
X42445000Y-94658000D02*
G01*
X40286000Y-94658000D01*
X40286000Y-94150000D01*
X42445000Y-94150000D01*
X42445000Y-94658000D01*
G37*
D13*
G04 #@! TO.C,SW2*
X36220000Y-76790000D02*
X31320000Y-76790000D01*
X31320000Y-76790000D02*
X31320000Y-73990000D01*
X44720000Y-64190000D02*
X44720000Y-66790000D01*
X44720000Y-69190000D02*
X44720000Y-71790000D01*
X30220000Y-66390000D02*
X30820000Y-66390000D01*
X30520000Y-66690000D02*
X30220000Y-66390000D01*
X38020000Y-69990000D02*
X38020000Y-70990000D01*
X31320000Y-64190000D02*
X31320000Y-66690000D01*
X36120000Y-64190000D02*
X31320000Y-64190000D01*
X30820000Y-66390000D02*
X30520000Y-66690000D01*
X44720000Y-74190000D02*
X44720000Y-76790000D01*
X39820000Y-64190000D02*
X44720000Y-64190000D01*
X44720000Y-76790000D02*
X39820000Y-76790000D01*
X37520000Y-70490000D02*
X38520000Y-70490000D01*
X41020000Y-70490000D02*
G75*
G03*
X41020000Y-70490000I-3000000J0D01*
G01*
G04 #@! TO.C,OLED1*
G36*
X20532570Y-46295470D02*
G01*
X20579563Y-46087375D01*
X20653614Y-45862973D01*
X20747199Y-45643167D01*
X20813549Y-45515123D01*
X20911223Y-45367477D01*
X21041878Y-45207040D01*
X21193927Y-45045399D01*
X21355782Y-44894141D01*
X21515857Y-44764853D01*
X21655757Y-44672915D01*
X21955076Y-44528344D01*
X22258206Y-44431204D01*
X22573366Y-44379585D01*
X22908773Y-44371572D01*
X22944104Y-44373114D01*
X23282238Y-44414169D01*
X23603049Y-44501371D01*
X23903185Y-44632027D01*
X24179296Y-44803444D01*
X24428032Y-45012927D01*
X24646041Y-45257784D01*
X24829974Y-45535321D01*
X24976480Y-45842845D01*
X25053264Y-46068578D01*
X25091936Y-46248020D01*
X25116230Y-46457971D01*
X25125467Y-46680025D01*
X25118972Y-46895775D01*
X25096065Y-47086813D01*
X25091592Y-47110134D01*
X25001476Y-47440516D01*
X24869506Y-47743426D01*
X24693366Y-48023291D01*
X24483917Y-48270904D01*
X24228873Y-48503803D01*
X23954876Y-48690069D01*
X23659281Y-48831183D01*
X23339441Y-48928623D01*
X23287454Y-48939927D01*
X23020901Y-48976564D01*
X22736784Y-48983338D01*
X22458598Y-48960299D01*
X22329923Y-48937797D01*
X22016569Y-48846290D01*
X21719228Y-48709452D01*
X21442990Y-48531565D01*
X21192939Y-48316908D01*
X20974165Y-48069763D01*
X20791753Y-47794410D01*
X20668390Y-47539660D01*
X20586205Y-47286287D01*
X20532135Y-47006210D01*
X20508010Y-46716196D01*
X20509426Y-46663770D01*
X20650347Y-46663770D01*
X20651910Y-46827515D01*
X20657955Y-46955010D01*
X20669907Y-47060709D01*
X20689190Y-47159069D01*
X20705414Y-47222570D01*
X20817966Y-47543213D01*
X20971484Y-47835471D01*
X21163185Y-48096779D01*
X21390285Y-48324574D01*
X21650001Y-48516293D01*
X21939553Y-48669371D01*
X22256155Y-48781244D01*
X22444779Y-48825045D01*
X22617856Y-48845745D01*
X22819774Y-48850160D01*
X23031536Y-48839092D01*
X23234143Y-48813343D01*
X23363204Y-48786287D01*
X23669733Y-48683287D01*
X23949444Y-48540323D01*
X24200385Y-48361730D01*
X24420601Y-48151843D01*
X24608138Y-47914998D01*
X24761043Y-47655528D01*
X24877362Y-47377771D01*
X24955141Y-47086060D01*
X24992427Y-46784731D01*
X24987266Y-46478119D01*
X24937704Y-46170559D01*
X24841788Y-45866387D01*
X24760447Y-45685870D01*
X24590140Y-45403357D01*
X24382375Y-45154630D01*
X24138773Y-44941021D01*
X23860958Y-44763860D01*
X23550550Y-44624478D01*
X23408837Y-44576910D01*
X23312109Y-44549129D01*
X23227281Y-44530048D01*
X23140562Y-44518082D01*
X23038162Y-44511645D01*
X22906288Y-44509152D01*
X22817104Y-44508887D01*
X22663705Y-44509879D01*
X22547224Y-44513928D01*
X22453801Y-44522643D01*
X22369575Y-44537633D01*
X22280683Y-44560508D01*
X22221457Y-44578044D01*
X21900352Y-44700841D01*
X21609559Y-44863653D01*
X21351239Y-45064318D01*
X21127555Y-45300671D01*
X20940670Y-45570551D01*
X20792745Y-45871792D01*
X20719284Y-46080823D01*
X20690639Y-46181803D01*
X20671163Y-46270235D01*
X20659134Y-46360687D01*
X20652829Y-46467725D01*
X20650526Y-46605918D01*
X20650347Y-46663770D01*
X20509426Y-46663770D01*
X20515660Y-46433010D01*
X20532570Y-46295470D01*
G37*
G36*
X50953329Y-46219255D02*
G01*
X51037075Y-45904452D01*
X51148213Y-45640446D01*
X51322358Y-45350516D01*
X51535626Y-45090614D01*
X51783890Y-44864118D01*
X52063026Y-44674405D01*
X52368907Y-44524854D01*
X52613012Y-44441185D01*
X52773131Y-44406818D01*
X52964849Y-44382921D01*
X53169853Y-44370497D01*
X53369832Y-44370551D01*
X53546475Y-44384086D01*
X53576504Y-44388360D01*
X53904839Y-44464808D01*
X54215670Y-44588587D01*
X54506721Y-44758565D01*
X54775714Y-44973609D01*
X54801487Y-44997715D01*
X55036095Y-45250453D01*
X55223736Y-45520195D01*
X55366441Y-45810535D01*
X55466243Y-46125068D01*
X55484361Y-46206119D01*
X55523941Y-46503508D01*
X55525101Y-46812624D01*
X55489060Y-47119314D01*
X55417034Y-47409423D01*
X55369617Y-47539660D01*
X55225374Y-47829071D01*
X55039212Y-48098943D01*
X54817466Y-48342862D01*
X54566472Y-48554413D01*
X54292564Y-48727183D01*
X54112431Y-48812669D01*
X53821712Y-48908718D01*
X53509753Y-48966613D01*
X53190227Y-48985101D01*
X52876809Y-48962926D01*
X52738304Y-48938695D01*
X52420950Y-48846246D01*
X52121146Y-48708718D01*
X51843698Y-48530207D01*
X51593409Y-48314809D01*
X51375084Y-48066619D01*
X51193526Y-47789734D01*
X51061542Y-47509182D01*
X50967251Y-47198439D01*
X50918038Y-46874421D01*
X50913878Y-46571180D01*
X51040836Y-46571180D01*
X51047054Y-46870187D01*
X51093976Y-47163022D01*
X51179972Y-47445668D01*
X51303410Y-47714108D01*
X51462660Y-47964326D01*
X51656092Y-48192303D01*
X51882074Y-48394024D01*
X52138976Y-48565472D01*
X52425168Y-48702628D01*
X52739017Y-48801478D01*
X52848579Y-48825045D01*
X53021952Y-48845776D01*
X53224120Y-48850169D01*
X53436057Y-48839027D01*
X53638739Y-48813157D01*
X53767004Y-48786184D01*
X54075283Y-48681741D01*
X54360773Y-48533887D01*
X54619824Y-48346268D01*
X54848786Y-48122528D01*
X55044010Y-47866312D01*
X55201847Y-47581266D01*
X55318647Y-47271036D01*
X55332398Y-47222570D01*
X55368115Y-47040042D01*
X55387440Y-46827347D01*
X55390357Y-46602404D01*
X55376855Y-46383134D01*
X55346918Y-46187456D01*
X55333231Y-46130370D01*
X55223262Y-45814655D01*
X55070782Y-45524635D01*
X54878738Y-45263325D01*
X54650072Y-45033738D01*
X54387732Y-44838890D01*
X54094663Y-44681794D01*
X53816550Y-44578044D01*
X53718589Y-44549852D01*
X53633342Y-44530479D01*
X53546946Y-44518317D01*
X53445541Y-44511754D01*
X53315266Y-44509183D01*
X53220904Y-44508887D01*
X53067166Y-44509899D01*
X52950416Y-44513990D01*
X52856863Y-44522747D01*
X52772714Y-44537755D01*
X52684181Y-44560599D01*
X52629170Y-44576910D01*
X52307055Y-44698919D01*
X52016429Y-44858648D01*
X51759520Y-45054545D01*
X51538554Y-45285061D01*
X51455620Y-45393770D01*
X51282714Y-45677295D01*
X51157035Y-45970717D01*
X51076953Y-46270017D01*
X51040836Y-46571180D01*
X50913878Y-46571180D01*
X50913523Y-46545302D01*
X50953329Y-46219255D01*
G37*
G36*
X21290152Y-46357303D02*
G01*
X21365095Y-46100961D01*
X21481647Y-45864692D01*
X21498312Y-45838243D01*
X21668898Y-45617631D01*
X21866926Y-45436050D01*
X22087023Y-45294089D01*
X22323818Y-45192336D01*
X22571938Y-45131380D01*
X22826013Y-45111809D01*
X23080670Y-45134211D01*
X23330538Y-45199176D01*
X23570245Y-45307290D01*
X23794419Y-45459143D01*
X23920657Y-45572916D01*
X24099350Y-45785040D01*
X24233947Y-46015958D01*
X24325037Y-46260298D01*
X24373207Y-46512688D01*
X24379048Y-46767757D01*
X24343145Y-47020133D01*
X24266090Y-47264444D01*
X24148468Y-47495319D01*
X23990870Y-47707385D01*
X23793883Y-47895271D01*
X23655330Y-47995261D01*
X23455042Y-48100381D01*
X23228072Y-48178531D01*
X22990055Y-48226285D01*
X22756624Y-48240213D01*
X22598188Y-48227065D01*
X22325748Y-48159971D01*
X22073607Y-48048820D01*
X21846457Y-47897594D01*
X21648990Y-47710278D01*
X21485897Y-47490855D01*
X21361870Y-47243309D01*
X21327779Y-47148361D01*
X21270213Y-46890844D01*
X21260650Y-46680136D01*
X21395005Y-46680136D01*
X21417132Y-46947539D01*
X21483717Y-47191418D01*
X21596260Y-47415369D01*
X21756264Y-47622986D01*
X21813552Y-47682434D01*
X22025356Y-47859813D01*
X22255119Y-47989948D01*
X22451548Y-48060210D01*
X22580086Y-48083489D01*
X22738400Y-48094517D01*
X22906977Y-48093335D01*
X23066304Y-48079987D01*
X23181737Y-48058631D01*
X23408962Y-47977624D01*
X23617830Y-47854850D01*
X23815791Y-47685906D01*
X23821176Y-47680542D01*
X23994693Y-47478271D01*
X24120152Y-47264299D01*
X24199946Y-47032853D01*
X24236470Y-46778159D01*
X24239504Y-46671790D01*
X24219363Y-46410843D01*
X24157244Y-46174712D01*
X24050605Y-45957323D01*
X23896902Y-45752600D01*
X23821176Y-45672397D01*
X23618143Y-45498440D01*
X23403074Y-45372639D01*
X23170715Y-45292806D01*
X22915816Y-45256753D01*
X22817103Y-45254070D01*
X22552762Y-45274834D01*
X22312862Y-45338588D01*
X22092149Y-45447519D01*
X21885371Y-45603815D01*
X21813031Y-45672397D01*
X21639371Y-45874903D01*
X21513825Y-46089154D01*
X21434087Y-46320714D01*
X21397848Y-46575143D01*
X21395005Y-46680136D01*
X21260650Y-46680136D01*
X21258097Y-46623878D01*
X21290152Y-46357303D01*
G37*
G36*
X50958179Y-17695214D02*
G01*
X51049311Y-17376351D01*
X51187763Y-17065108D01*
X51232871Y-16983870D01*
X51317699Y-16859783D01*
X51434647Y-16719309D01*
X51572835Y-16573107D01*
X51721381Y-16431835D01*
X51869404Y-16306152D01*
X52006022Y-16206715D01*
X52059557Y-16174115D01*
X52370094Y-16027193D01*
X52692136Y-15927572D01*
X53020823Y-15875109D01*
X53351296Y-15869663D01*
X53678696Y-15911089D01*
X53998164Y-15999246D01*
X54304840Y-16133990D01*
X54493648Y-16245589D01*
X54641262Y-16355987D01*
X54797389Y-16495731D01*
X54949204Y-16651565D01*
X55083886Y-16810232D01*
X55188610Y-16958476D01*
X55197565Y-16973266D01*
X55351372Y-17279764D01*
X55458121Y-17598900D01*
X55517900Y-17925797D01*
X55530799Y-18255579D01*
X55496909Y-18583368D01*
X55416319Y-18904290D01*
X55289119Y-19213466D01*
X55151877Y-19452101D01*
X55036843Y-19605154D01*
X54890984Y-19765954D01*
X54727642Y-19921893D01*
X54560157Y-20060359D01*
X54401872Y-20168742D01*
X54380519Y-20181188D01*
X54175500Y-20283428D01*
X53951467Y-20371006D01*
X53729745Y-20436227D01*
X53601904Y-20462203D01*
X53467649Y-20476738D01*
X53304005Y-20484091D01*
X53130625Y-20484265D01*
X52967160Y-20477261D01*
X52833264Y-20463083D01*
X52827204Y-20462104D01*
X52637971Y-20418556D01*
X52431179Y-20350442D01*
X52228354Y-20265642D01*
X52077481Y-20187676D01*
X51794524Y-19996655D01*
X51548529Y-19773969D01*
X51340647Y-19523983D01*
X51172030Y-19251062D01*
X51043827Y-18959572D01*
X50957190Y-18653877D01*
X50913269Y-18338342D01*
X50913240Y-18163332D01*
X51037978Y-18163332D01*
X51058937Y-18473373D01*
X51125988Y-18784047D01*
X51240941Y-19091247D01*
X51271651Y-19155570D01*
X51438553Y-19436032D01*
X51643777Y-19685118D01*
X51883781Y-19900230D01*
X52155026Y-20078769D01*
X52453969Y-20218138D01*
X52777072Y-20315739D01*
X52882061Y-20337194D01*
X53030773Y-20352952D01*
X53210756Y-20354662D01*
X53404816Y-20343494D01*
X53595756Y-20320617D01*
X53766380Y-20287198D01*
X53816550Y-20273688D01*
X54129959Y-20156131D01*
X54417030Y-19996838D01*
X54674447Y-19799199D01*
X54898894Y-19566602D01*
X55087055Y-19302436D01*
X55235614Y-19010088D01*
X55333231Y-18723770D01*
X55368429Y-18541028D01*
X55387420Y-18328152D01*
X55390200Y-18103156D01*
X55376765Y-17884050D01*
X55347111Y-17688849D01*
X55333452Y-17631570D01*
X55226065Y-17324441D01*
X55075046Y-17037473D01*
X54884670Y-16775947D01*
X54659212Y-16545144D01*
X54402946Y-16350346D01*
X54204199Y-16236569D01*
X54009038Y-16146351D01*
X53830009Y-16082292D01*
X53651026Y-16040739D01*
X53456003Y-16018042D01*
X53228853Y-16010550D01*
X53208204Y-16010498D01*
X53056657Y-16011500D01*
X52941413Y-16015878D01*
X52848003Y-16025339D01*
X52761956Y-16041593D01*
X52668802Y-16066347D01*
X52625257Y-16079332D01*
X52312726Y-16198801D01*
X52030019Y-16355877D01*
X51778943Y-16546453D01*
X51561307Y-16766420D01*
X51378917Y-17011669D01*
X51233581Y-17278094D01*
X51127108Y-17561584D01*
X51061304Y-17858033D01*
X51037978Y-18163332D01*
X50913240Y-18163332D01*
X50913215Y-18017333D01*
X50958179Y-17695214D01*
G37*
G36*
X51694862Y-17834006D02*
G01*
X51771917Y-17589695D01*
X51889539Y-17358820D01*
X52047137Y-17146754D01*
X52244124Y-16958868D01*
X52382677Y-16858878D01*
X52617701Y-16736238D01*
X52870950Y-16656944D01*
X53134514Y-16621007D01*
X53400485Y-16628436D01*
X53660954Y-16679242D01*
X53908010Y-16773433D01*
X54055846Y-16856755D01*
X54279616Y-17030802D01*
X54467378Y-17238814D01*
X54615455Y-17476023D01*
X54710228Y-17705778D01*
X54767414Y-17961300D01*
X54779884Y-18226658D01*
X54748940Y-18491716D01*
X54675885Y-18746339D01*
X54562022Y-18980389D01*
X54542320Y-19011835D01*
X54368776Y-19235972D01*
X54163457Y-19422737D01*
X53930632Y-19568829D01*
X53699920Y-19663182D01*
X53511305Y-19709334D01*
X53310310Y-19735581D01*
X53116836Y-19740207D01*
X52973186Y-19725861D01*
X52695603Y-19651876D01*
X52442290Y-19533268D01*
X52213302Y-19370064D01*
X52117350Y-19281223D01*
X51938657Y-19069099D01*
X51804060Y-18838181D01*
X51712970Y-18593841D01*
X51664800Y-18341451D01*
X51661049Y-18177669D01*
X51798504Y-18177669D01*
X51818272Y-18439681D01*
X51879391Y-18675764D01*
X51984579Y-18892442D01*
X52136557Y-19096242D01*
X52216831Y-19181404D01*
X52414503Y-19352504D01*
X52620004Y-19476061D01*
X52841051Y-19555332D01*
X53085361Y-19593573D01*
X53204537Y-19598260D01*
X53342848Y-19593728D01*
X53479575Y-19579717D01*
X53585537Y-19559831D01*
X53813145Y-19478528D01*
X54023348Y-19354912D01*
X54223199Y-19184822D01*
X54226309Y-19181742D01*
X54400008Y-18978645D01*
X54525966Y-18760137D01*
X54605692Y-18522580D01*
X54640695Y-18262336D01*
X54642701Y-18177670D01*
X54621040Y-17909784D01*
X54555002Y-17665449D01*
X54443002Y-17440837D01*
X54283456Y-17232124D01*
X54226309Y-17172264D01*
X54021112Y-16997944D01*
X53800837Y-16871641D01*
X53562037Y-16791922D01*
X53301269Y-16757353D01*
X53224570Y-16755571D01*
X52959876Y-16775712D01*
X52720189Y-16838467D01*
X52499948Y-16946144D01*
X52293588Y-17101048D01*
X52216831Y-17173597D01*
X52043952Y-17374123D01*
X51919030Y-17584536D01*
X51839331Y-17811397D01*
X51802121Y-18061270D01*
X51798504Y-18177669D01*
X51661049Y-18177669D01*
X51658959Y-18086382D01*
X51694862Y-17834006D01*
G37*
G36*
X20530724Y-17834457D02*
G01*
X20603206Y-17506681D01*
X20722948Y-17196361D01*
X20889084Y-16905515D01*
X21100747Y-16636161D01*
X21222669Y-16510856D01*
X21487751Y-16288276D01*
X21769912Y-16113435D01*
X22069949Y-15986034D01*
X22388663Y-15905775D01*
X22726852Y-15872361D01*
X22931404Y-15874289D01*
X23268560Y-15911155D01*
X23580085Y-15990256D01*
X23869844Y-16113377D01*
X24141701Y-16282297D01*
X24399522Y-16498800D01*
X24496417Y-16595800D01*
X24713646Y-16857825D01*
X24885955Y-17142625D01*
X25014483Y-17452399D01*
X25091592Y-17744005D01*
X25116960Y-17931643D01*
X25125571Y-18146555D01*
X25118116Y-18370211D01*
X25095282Y-18584082D01*
X25057757Y-18769639D01*
X25052835Y-18787270D01*
X24933053Y-19114087D01*
X24771344Y-19414208D01*
X24570715Y-19684631D01*
X24334175Y-19922355D01*
X24064732Y-20124379D01*
X23765394Y-20287700D01*
X23439168Y-20409317D01*
X23422293Y-20414224D01*
X23299574Y-20440279D01*
X23141656Y-20460558D01*
X22963888Y-20474338D01*
X22781618Y-20480897D01*
X22610196Y-20479509D01*
X22464971Y-20469453D01*
X22411901Y-20461844D01*
X22102100Y-20381650D01*
X21801276Y-20254611D01*
X21517073Y-20084662D01*
X21257131Y-19875740D01*
X21236520Y-19856424D01*
X20999289Y-19598726D01*
X20807744Y-19319561D01*
X20662531Y-19020411D01*
X20564295Y-18702758D01*
X20513678Y-18368084D01*
X20509225Y-18252052D01*
X20647685Y-18252052D01*
X20661207Y-18471311D01*
X20691133Y-18666872D01*
X20704776Y-18723770D01*
X20814120Y-19037132D01*
X20965830Y-19325436D01*
X21156437Y-19585526D01*
X21382472Y-19814245D01*
X21640463Y-20008437D01*
X21926942Y-20164944D01*
X22238439Y-20280610D01*
X22478261Y-20337194D01*
X22626973Y-20352952D01*
X22806956Y-20354662D01*
X23001016Y-20343494D01*
X23191956Y-20320617D01*
X23362580Y-20287198D01*
X23412750Y-20273688D01*
X23730030Y-20155262D01*
X24018390Y-19995864D01*
X24275535Y-19797786D01*
X24499167Y-19563323D01*
X24686988Y-19294767D01*
X24836704Y-18994412D01*
X24915529Y-18773316D01*
X24943721Y-18675355D01*
X24963094Y-18590108D01*
X24975256Y-18503712D01*
X24981819Y-18402307D01*
X24984390Y-18272032D01*
X24984686Y-18177670D01*
X24983694Y-18024271D01*
X24979645Y-17907790D01*
X24970930Y-17814367D01*
X24955940Y-17730141D01*
X24933065Y-17641249D01*
X24915529Y-17582023D01*
X24792617Y-17260192D01*
X24629978Y-16969192D01*
X24429602Y-16711011D01*
X24193479Y-16487640D01*
X23923599Y-16301066D01*
X23621951Y-16153279D01*
X23412750Y-16079850D01*
X23311770Y-16051205D01*
X23223338Y-16031729D01*
X23132886Y-16019700D01*
X23025848Y-16013395D01*
X22887655Y-16011092D01*
X22829804Y-16010913D01*
X22665686Y-16012494D01*
X22537806Y-16018591D01*
X22431698Y-16030625D01*
X22332893Y-16050018D01*
X22271004Y-16065802D01*
X21952045Y-16177840D01*
X21659998Y-16331656D01*
X21397842Y-16524272D01*
X21168558Y-16752705D01*
X20975127Y-17013974D01*
X20820529Y-17305099D01*
X20707744Y-17623100D01*
X20705432Y-17631570D01*
X20669808Y-17814234D01*
X20650555Y-18027044D01*
X20647685Y-18252052D01*
X20509225Y-18252052D01*
X20506371Y-18177670D01*
X20530724Y-17834457D01*
G37*
G36*
X20276121Y-48983699D02*
G01*
X20274235Y-48813747D01*
X20272417Y-48599462D01*
X20270666Y-48342461D01*
X20268983Y-48044360D01*
X20267367Y-47706777D01*
X20265819Y-47331328D01*
X20264339Y-46919631D01*
X20262926Y-46473300D01*
X20261580Y-45993955D01*
X20260302Y-45483210D01*
X20259092Y-44942684D01*
X20257949Y-44373992D01*
X20256874Y-43778752D01*
X20255866Y-43158580D01*
X20254926Y-42515093D01*
X20254053Y-41849908D01*
X20253248Y-41164641D01*
X20252510Y-40460910D01*
X20251840Y-39740331D01*
X20251239Y-39004521D01*
X20250704Y-38255096D01*
X20250236Y-37493674D01*
X20249836Y-36721871D01*
X20249504Y-35941304D01*
X20249239Y-35153590D01*
X20249042Y-34360345D01*
X20248912Y-33563186D01*
X20248850Y-32763730D01*
X20248855Y-31963594D01*
X20248928Y-31164395D01*
X20249069Y-30367749D01*
X20249277Y-29575273D01*
X20249552Y-28788584D01*
X20249895Y-28009298D01*
X20250306Y-27239033D01*
X20250784Y-26479405D01*
X20251330Y-25732030D01*
X20251942Y-24998527D01*
X20252623Y-24280511D01*
X20253371Y-23579599D01*
X20254187Y-22897407D01*
X20255070Y-22235554D01*
X20256021Y-21595655D01*
X20257039Y-20979327D01*
X20258126Y-20388188D01*
X20259279Y-19823853D01*
X20260500Y-19287939D01*
X20261789Y-18782064D01*
X20263145Y-18307844D01*
X20264569Y-17866896D01*
X20266060Y-17460836D01*
X20267619Y-17091282D01*
X20269245Y-16759850D01*
X20270939Y-16468157D01*
X20272700Y-16217819D01*
X20274529Y-16010454D01*
X20276426Y-15847678D01*
X20278390Y-15731108D01*
X20280422Y-15662360D01*
X20282183Y-15642750D01*
X20309386Y-15640717D01*
X20385815Y-15638749D01*
X20509900Y-15636844D01*
X20680066Y-15635003D01*
X20894742Y-15633227D01*
X21152356Y-15631514D01*
X21451333Y-15629865D01*
X21790103Y-15628280D01*
X22167092Y-15626759D01*
X22580727Y-15625301D01*
X23029437Y-15623908D01*
X23511648Y-15622579D01*
X24025788Y-15621313D01*
X24570284Y-15620112D01*
X25143564Y-15618974D01*
X25744055Y-15617900D01*
X26370185Y-15616890D01*
X27020381Y-15615944D01*
X27693070Y-15615062D01*
X28386680Y-15614244D01*
X29099638Y-15613490D01*
X29830372Y-15612799D01*
X30577309Y-15612174D01*
X31338877Y-15611611D01*
X32113502Y-15611112D01*
X32899613Y-15610678D01*
X33695636Y-15610307D01*
X34500000Y-15610000D01*
X35311131Y-15609757D01*
X36127457Y-15609578D01*
X36947405Y-15609462D01*
X37769403Y-15609411D01*
X38591879Y-15609424D01*
X39413259Y-15609500D01*
X40231971Y-15609640D01*
X41046442Y-15609845D01*
X41855100Y-15610113D01*
X42656373Y-15610445D01*
X43448687Y-15610841D01*
X44230470Y-15611301D01*
X45000150Y-15611825D01*
X45756154Y-15612411D01*
X46496909Y-15613063D01*
X47220843Y-15613778D01*
X47926383Y-15614558D01*
X48611956Y-15615401D01*
X49275991Y-15616308D01*
X49916914Y-15617280D01*
X50533153Y-15618315D01*
X51123135Y-15619413D01*
X51685287Y-15620576D01*
X52218038Y-15621803D01*
X52719814Y-15623094D01*
X53189043Y-15624448D01*
X53624153Y-15625867D01*
X54023570Y-15627349D01*
X54385722Y-15628895D01*
X54709037Y-15630505D01*
X54991942Y-15632180D01*
X55232864Y-15633918D01*
X55430230Y-15635719D01*
X55582470Y-15637585D01*
X55688008Y-15639515D01*
X55745274Y-15641508D01*
X55755823Y-15642750D01*
X55757912Y-15670002D01*
X55759933Y-15746438D01*
X55761886Y-15870440D01*
X55763772Y-16040392D01*
X55765590Y-16254677D01*
X55767341Y-16511678D01*
X55769024Y-16809779D01*
X55770640Y-17147362D01*
X55772188Y-17522811D01*
X55773668Y-17934508D01*
X55775081Y-18380839D01*
X55776427Y-18860184D01*
X55777705Y-19370929D01*
X55778915Y-19911455D01*
X55780058Y-20480147D01*
X55781133Y-21075387D01*
X55782141Y-21695559D01*
X55783081Y-22339046D01*
X55783954Y-23004231D01*
X55784759Y-23689498D01*
X55785497Y-24393229D01*
X55786167Y-25113808D01*
X55786769Y-25849618D01*
X55787304Y-26599043D01*
X55787772Y-27360465D01*
X55788172Y-28132268D01*
X55788504Y-28912835D01*
X55788769Y-29700549D01*
X55788966Y-30493794D01*
X55789096Y-31290953D01*
X55789158Y-32090409D01*
X55789153Y-32890545D01*
X55789080Y-33689744D01*
X55788939Y-34486390D01*
X55788731Y-35278866D01*
X55788456Y-36065555D01*
X55788113Y-36844841D01*
X55787702Y-37615106D01*
X55787224Y-38374734D01*
X55786678Y-39122109D01*
X55786065Y-39855612D01*
X55785384Y-40573628D01*
X55784636Y-41274540D01*
X55783820Y-41956732D01*
X55782937Y-42618585D01*
X55781986Y-43258484D01*
X55780968Y-43874812D01*
X55779881Y-44465951D01*
X55778728Y-45030286D01*
X55777507Y-45566200D01*
X55776218Y-46072075D01*
X55774862Y-46546295D01*
X55773438Y-46987243D01*
X55771947Y-47393303D01*
X55770388Y-47762857D01*
X55768762Y-48094289D01*
X55767068Y-48385982D01*
X55765307Y-48636320D01*
X55763478Y-48843685D01*
X55761581Y-49006461D01*
X55759617Y-49123031D01*
X55757585Y-49191779D01*
X55755823Y-49211390D01*
X55741170Y-49215059D01*
X55703766Y-49218447D01*
X55642008Y-49221564D01*
X55554296Y-49224418D01*
X55439024Y-49227018D01*
X55294591Y-49229373D01*
X55119393Y-49231492D01*
X54911828Y-49233385D01*
X54670294Y-49235061D01*
X54393186Y-49236528D01*
X54078903Y-49237796D01*
X53725841Y-49238874D01*
X53332398Y-49239771D01*
X52896971Y-49240495D01*
X52417957Y-49241057D01*
X51893753Y-49241464D01*
X51322756Y-49241727D01*
X50703364Y-49241854D01*
X50374960Y-49241870D01*
X49760929Y-49241858D01*
X49195664Y-49241811D01*
X48677134Y-49241711D01*
X48203306Y-49241541D01*
X47772146Y-49241283D01*
X47381622Y-49240920D01*
X47029701Y-49240433D01*
X46714350Y-49239807D01*
X46433536Y-49239023D01*
X46185227Y-49238063D01*
X45967389Y-49236911D01*
X45777990Y-49235548D01*
X45614997Y-49233957D01*
X45476377Y-49232121D01*
X45360098Y-49230022D01*
X45264126Y-49227643D01*
X45186428Y-49224966D01*
X45124972Y-49221973D01*
X45077725Y-49218647D01*
X45042654Y-49214971D01*
X45017726Y-49210927D01*
X45000908Y-49206497D01*
X44990168Y-49201665D01*
X44983473Y-49196412D01*
X44982540Y-49195419D01*
X44973560Y-49181906D01*
X44965945Y-49160168D01*
X44959585Y-49126256D01*
X44954368Y-49076220D01*
X44950184Y-49006110D01*
X44946922Y-48911976D01*
X44944471Y-48789869D01*
X44942721Y-48635837D01*
X44941560Y-48445932D01*
X44940878Y-48216204D01*
X44940564Y-47942703D01*
X44940504Y-47696819D01*
X44940504Y-46244670D01*
X31097504Y-46244670D01*
X31097504Y-47701233D01*
X31097434Y-48010465D01*
X31097145Y-48272873D01*
X31096513Y-48492429D01*
X31095414Y-48673109D01*
X31093725Y-48818888D01*
X31091324Y-48933740D01*
X31088086Y-49021639D01*
X31083889Y-49086560D01*
X31078609Y-49132478D01*
X31072124Y-49163368D01*
X31064310Y-49183203D01*
X31055044Y-49195959D01*
X31051053Y-49199833D01*
X31043088Y-49204673D01*
X31028978Y-49209130D01*
X31006705Y-49213218D01*
X30974253Y-49216954D01*
X30929601Y-49220353D01*
X30870733Y-49223430D01*
X30795630Y-49226203D01*
X30702273Y-49228685D01*
X30588644Y-49230894D01*
X30452726Y-49232845D01*
X30292499Y-49234553D01*
X30105946Y-49236035D01*
X29891049Y-49237305D01*
X29645788Y-49238381D01*
X29368147Y-49239277D01*
X29056106Y-49240009D01*
X28707648Y-49240593D01*
X28320754Y-49241044D01*
X27893406Y-49241380D01*
X27423586Y-49241614D01*
X26909275Y-49241763D01*
X26348455Y-49241843D01*
X25739109Y-49241869D01*
X25658633Y-49241870D01*
X25014712Y-49241807D01*
X24419986Y-49241613D01*
X23872853Y-49241279D01*
X23371710Y-49240795D01*
X22914953Y-49240152D01*
X22500979Y-49239342D01*
X22128183Y-49238355D01*
X21794963Y-49237182D01*
X21499715Y-49235815D01*
X21240836Y-49234243D01*
X21016721Y-49232458D01*
X20825769Y-49230451D01*
X20666375Y-49228212D01*
X20536935Y-49225734D01*
X20435847Y-49223005D01*
X20361507Y-49220018D01*
X20312311Y-49216764D01*
X20286655Y-49213232D01*
X20282184Y-49211390D01*
X20280095Y-49184137D01*
X20278264Y-49114870D01*
X20378704Y-49114870D01*
X30945104Y-49114870D01*
X30945104Y-47646749D01*
X30945370Y-47316220D01*
X30946208Y-47033585D01*
X30947677Y-46795939D01*
X30949837Y-46600378D01*
X30952746Y-46444000D01*
X30956463Y-46323900D01*
X30961047Y-46237174D01*
X30966557Y-46180918D01*
X30973053Y-46152228D01*
X30975584Y-46148149D01*
X31003847Y-46144950D01*
X31080407Y-46141911D01*
X31202762Y-46139035D01*
X31368409Y-46136320D01*
X31574845Y-46133766D01*
X31819567Y-46131375D01*
X32100073Y-46129145D01*
X32413860Y-46127076D01*
X32758425Y-46125169D01*
X33131267Y-46123424D01*
X33529881Y-46121840D01*
X33951766Y-46120418D01*
X34394418Y-46119158D01*
X34855336Y-46118059D01*
X35332016Y-46117122D01*
X35821956Y-46116347D01*
X36322653Y-46115733D01*
X36831604Y-46115280D01*
X37346307Y-46114990D01*
X37864259Y-46114861D01*
X38382958Y-46114893D01*
X38899901Y-46115088D01*
X39412584Y-46115443D01*
X39918507Y-46115961D01*
X40415164Y-46116640D01*
X40900055Y-46117481D01*
X41370677Y-46118483D01*
X41824526Y-46119647D01*
X42259101Y-46120973D01*
X42671898Y-46122460D01*
X43060414Y-46124109D01*
X43422148Y-46125919D01*
X43754597Y-46127891D01*
X44055257Y-46130025D01*
X44321626Y-46132320D01*
X44551202Y-46134777D01*
X44741482Y-46137396D01*
X44889962Y-46140176D01*
X44994142Y-46143118D01*
X45051517Y-46146221D01*
X45062424Y-46148150D01*
X45069280Y-46167834D01*
X45075131Y-46214063D01*
X45080034Y-46289740D01*
X45084049Y-46397771D01*
X45087235Y-46541059D01*
X45089652Y-46722507D01*
X45091357Y-46945019D01*
X45092411Y-47211499D01*
X45092871Y-47524852D01*
X45092904Y-47646750D01*
X45092904Y-49114870D01*
X55659304Y-49114870D01*
X55659304Y-15739270D01*
X20378704Y-15739270D01*
X20378704Y-49114870D01*
X20278264Y-49114870D01*
X20278074Y-49107701D01*
X20276121Y-48983699D01*
G37*
G36*
X51679226Y-46411481D02*
G01*
X51744403Y-46161594D01*
X51852656Y-45921956D01*
X52004570Y-45697972D01*
X52117350Y-45572916D01*
X52329474Y-45394223D01*
X52560392Y-45259626D01*
X52804732Y-45168536D01*
X53057122Y-45120366D01*
X53312191Y-45114525D01*
X53564567Y-45150428D01*
X53808878Y-45227483D01*
X54039753Y-45345105D01*
X54251819Y-45502703D01*
X54439705Y-45699690D01*
X54539695Y-45838243D01*
X54661136Y-46070944D01*
X54740204Y-46322291D01*
X54776866Y-46584113D01*
X54771088Y-46848242D01*
X54722837Y-47106508D01*
X54632079Y-47350741D01*
X54546503Y-47503961D01*
X54376688Y-47723611D01*
X54175553Y-47909673D01*
X53949954Y-48056802D01*
X53706745Y-48159648D01*
X53705495Y-48160043D01*
X53516343Y-48206396D01*
X53315386Y-48233034D01*
X53123218Y-48237996D01*
X53001988Y-48227065D01*
X52783832Y-48175943D01*
X52567190Y-48094252D01*
X52379831Y-47993422D01*
X52159902Y-47823203D01*
X51978942Y-47625381D01*
X51837540Y-47405363D01*
X51736280Y-47168557D01*
X51675751Y-46920370D01*
X51657313Y-46676470D01*
X51798504Y-46676470D01*
X51818272Y-46938481D01*
X51879391Y-47174564D01*
X51984579Y-47391242D01*
X52136557Y-47595042D01*
X52216831Y-47680204D01*
X52413719Y-47850849D01*
X52618032Y-47974071D01*
X52837798Y-48053243D01*
X53081046Y-48091740D01*
X53208204Y-48096758D01*
X53331953Y-48093116D01*
X53455633Y-48082105D01*
X53556669Y-48065899D01*
X53575352Y-48061396D01*
X53823679Y-47969779D01*
X54049106Y-47835714D01*
X54246485Y-47664351D01*
X54410665Y-47460838D01*
X54536497Y-47230325D01*
X54605830Y-47030918D01*
X54629850Y-46894825D01*
X54640650Y-46730853D01*
X54638230Y-46560170D01*
X54622591Y-46403946D01*
X54605830Y-46322021D01*
X54517639Y-46078190D01*
X54388048Y-45859640D01*
X54226309Y-45672397D01*
X54022174Y-45498441D01*
X53806750Y-45372690D01*
X53574624Y-45292894D01*
X53320383Y-45256800D01*
X53220904Y-45254070D01*
X52956562Y-45274834D01*
X52716662Y-45338588D01*
X52495949Y-45447519D01*
X52289171Y-45603815D01*
X52216831Y-45672397D01*
X52043952Y-45872923D01*
X51919030Y-46083336D01*
X51839331Y-46310197D01*
X51802121Y-46560070D01*
X51798504Y-46676470D01*
X51657313Y-46676470D01*
X51656537Y-46666209D01*
X51679226Y-46411481D01*
G37*
G36*
X21283716Y-17881299D02*
G01*
X21327779Y-17705778D01*
X21437029Y-17448360D01*
X21587731Y-17217067D01*
X21775358Y-17016428D01*
X21995381Y-16850970D01*
X22243275Y-16725221D01*
X22345212Y-16688345D01*
X22592800Y-16632713D01*
X22854280Y-16618025D01*
X23113474Y-16644282D01*
X23288995Y-16688345D01*
X23545892Y-16796389D01*
X23772655Y-16941677D01*
X23967043Y-17119170D01*
X24126812Y-17323824D01*
X24249721Y-17550598D01*
X24333527Y-17794450D01*
X24375987Y-18050339D01*
X24374860Y-18313223D01*
X24327902Y-18578059D01*
X24239479Y-18825370D01*
X24107929Y-19057096D01*
X23936670Y-19264538D01*
X23732960Y-19441648D01*
X23504059Y-19582376D01*
X23257224Y-19680672D01*
X23192003Y-19698290D01*
X23058878Y-19722214D01*
X22905319Y-19736698D01*
X22752089Y-19740738D01*
X22619949Y-19733328D01*
X22582337Y-19727809D01*
X22302642Y-19652944D01*
X22047747Y-19536081D01*
X21821300Y-19380356D01*
X21626950Y-19188905D01*
X21468345Y-18964864D01*
X21349134Y-18711368D01*
X21327779Y-18649561D01*
X21272147Y-18401973D01*
X21259547Y-18177670D01*
X21395306Y-18177670D01*
X21416926Y-18445582D01*
X21482779Y-18689633D01*
X21594354Y-18913412D01*
X21753141Y-19120511D01*
X21811698Y-19181404D01*
X22010047Y-19352243D01*
X22215336Y-19475624D01*
X22435472Y-19554879D01*
X22678363Y-19593341D01*
X22800737Y-19598260D01*
X22939048Y-19593728D01*
X23075775Y-19579717D01*
X23181737Y-19559831D01*
X23408962Y-19478824D01*
X23617830Y-19356050D01*
X23815791Y-19187106D01*
X23821176Y-19181742D01*
X23994540Y-18980401D01*
X24119817Y-18768841D01*
X24199550Y-18540985D01*
X24236281Y-18290757D01*
X24239504Y-18182349D01*
X24219131Y-17917076D01*
X24156418Y-17677291D01*
X24048970Y-17457222D01*
X23894392Y-17251094D01*
X23821176Y-17173597D01*
X23618670Y-16999937D01*
X23404419Y-16874391D01*
X23172859Y-16794653D01*
X22918430Y-16758414D01*
X22813437Y-16755571D01*
X22545963Y-16777868D01*
X22301415Y-16844917D01*
X22076345Y-16958153D01*
X21867311Y-17119009D01*
X21811698Y-17172264D01*
X21637635Y-17376968D01*
X21511591Y-17596427D01*
X21431982Y-17834467D01*
X21397225Y-18094913D01*
X21395306Y-18177670D01*
X21259547Y-18177670D01*
X21257459Y-18140493D01*
X21283716Y-17881299D01*
G37*
G36*
X23270410Y-37528786D02*
G01*
X23267731Y-37362934D01*
X23265208Y-37156124D01*
X23262842Y-36910817D01*
X23260632Y-36629473D01*
X23258578Y-36314553D01*
X23256680Y-35968517D01*
X23254939Y-35593825D01*
X23253354Y-35192939D01*
X23251925Y-34768317D01*
X23250652Y-34322422D01*
X23249536Y-33857714D01*
X23248575Y-33376652D01*
X23247771Y-32881698D01*
X23247124Y-32375311D01*
X23246632Y-31859953D01*
X23246297Y-31338084D01*
X23246118Y-30812164D01*
X23246095Y-30284654D01*
X23246228Y-29758015D01*
X23246518Y-29234706D01*
X23246964Y-28717188D01*
X23247566Y-28207922D01*
X23248324Y-27709369D01*
X23249239Y-27223988D01*
X23250309Y-26754240D01*
X23251536Y-26302586D01*
X23252920Y-25871486D01*
X23254459Y-25463401D01*
X23256155Y-25080791D01*
X23258007Y-24726116D01*
X23260015Y-24401837D01*
X23262179Y-24110415D01*
X23264500Y-23854310D01*
X23266977Y-23635983D01*
X23269610Y-23457893D01*
X23272399Y-23322502D01*
X23275345Y-23232270D01*
X23278446Y-23189657D01*
X23279383Y-23186550D01*
X23292156Y-23184302D01*
X23326523Y-23182158D01*
X23383466Y-23180116D01*
X23463963Y-23178174D01*
X23568993Y-23176329D01*
X23699537Y-23174581D01*
X23856572Y-23172927D01*
X24041080Y-23171364D01*
X24254038Y-23169891D01*
X24496427Y-23168506D01*
X24769225Y-23167207D01*
X25073412Y-23165991D01*
X25409968Y-23164857D01*
X25779871Y-23163802D01*
X26184101Y-23162825D01*
X26623637Y-23161923D01*
X27099460Y-23161095D01*
X27612547Y-23160338D01*
X28163878Y-23159651D01*
X28754434Y-23159031D01*
X29385192Y-23158476D01*
X30057132Y-23157984D01*
X30771235Y-23157554D01*
X31528478Y-23157183D01*
X32329842Y-23156869D01*
X33176305Y-23156610D01*
X34068847Y-23156404D01*
X35008448Y-23156249D01*
X35996086Y-23156143D01*
X37032742Y-23156084D01*
X37920669Y-23156070D01*
X38956408Y-23156078D01*
X39942551Y-23156106D01*
X40880303Y-23156156D01*
X41770867Y-23156232D01*
X42615449Y-23156337D01*
X43415252Y-23156474D01*
X44171480Y-23156647D01*
X44885339Y-23156859D01*
X45558031Y-23157112D01*
X46190762Y-23157412D01*
X46784736Y-23157760D01*
X47341157Y-23158160D01*
X47861228Y-23158615D01*
X48346156Y-23159129D01*
X48797143Y-23159705D01*
X49215394Y-23160345D01*
X49602113Y-23161055D01*
X49958505Y-23161836D01*
X50285774Y-23162691D01*
X50585124Y-23163626D01*
X50857759Y-23164641D01*
X51104884Y-23165742D01*
X51327703Y-23166930D01*
X51527420Y-23168210D01*
X51705240Y-23169585D01*
X51862366Y-23171057D01*
X52000003Y-23172631D01*
X52119355Y-23174309D01*
X52221627Y-23176095D01*
X52308023Y-23177992D01*
X52379747Y-23180003D01*
X52438003Y-23182132D01*
X52483995Y-23184382D01*
X52518929Y-23186756D01*
X52544008Y-23189258D01*
X52560436Y-23191890D01*
X52569417Y-23194656D01*
X52571389Y-23195984D01*
X52575369Y-23203251D01*
X52579077Y-23217959D01*
X52582525Y-23241822D01*
X52585720Y-23276553D01*
X52588673Y-23323867D01*
X52591393Y-23385478D01*
X52593890Y-23463098D01*
X52596172Y-23558443D01*
X52598249Y-23673225D01*
X52600130Y-23809159D01*
X52601825Y-23967959D01*
X52603344Y-24151338D01*
X52604695Y-24361010D01*
X52605888Y-24598689D01*
X52606933Y-24866089D01*
X52607838Y-25164924D01*
X52608614Y-25496907D01*
X52609269Y-25863753D01*
X52609813Y-26267175D01*
X52610256Y-26708887D01*
X52610606Y-27190603D01*
X52610873Y-27714037D01*
X52611067Y-28280902D01*
X52611197Y-28892913D01*
X52611272Y-29551782D01*
X52611302Y-30259226D01*
X52611304Y-30480704D01*
X52611258Y-31233445D01*
X52611118Y-31936768D01*
X52610877Y-32592058D01*
X52610530Y-33200698D01*
X52610071Y-33764070D01*
X52609494Y-34283557D01*
X52608793Y-34760543D01*
X52607963Y-35196410D01*
X52606998Y-35592542D01*
X52605891Y-35950321D01*
X52604637Y-36271132D01*
X52603231Y-36556356D01*
X52601667Y-36807378D01*
X52599938Y-37025579D01*
X52598039Y-37212344D01*
X52595964Y-37369054D01*
X52593707Y-37497094D01*
X52591264Y-37597846D01*
X52588626Y-37672694D01*
X52585790Y-37723020D01*
X52582749Y-37750208D01*
X52580824Y-37755989D01*
X52553440Y-37758223D01*
X52476988Y-37760378D01*
X52353198Y-37762457D01*
X52183801Y-37764458D01*
X51970527Y-37766381D01*
X51715109Y-37768227D01*
X51419277Y-37769996D01*
X51084762Y-37771687D01*
X50713295Y-37773301D01*
X50306607Y-37774837D01*
X49866429Y-37776296D01*
X49394492Y-37777678D01*
X48892526Y-37778982D01*
X48362264Y-37780209D01*
X47805436Y-37781358D01*
X47223773Y-37782430D01*
X46619005Y-37783425D01*
X45992865Y-37784342D01*
X45347082Y-37785181D01*
X44683389Y-37785944D01*
X44003515Y-37786629D01*
X43309192Y-37787236D01*
X42602151Y-37787766D01*
X41884123Y-37788219D01*
X41156839Y-37788594D01*
X40422030Y-37788892D01*
X39681426Y-37789112D01*
X38936759Y-37789255D01*
X38189761Y-37789321D01*
X37442161Y-37789309D01*
X36695691Y-37789220D01*
X35952081Y-37789053D01*
X35213064Y-37788809D01*
X34480369Y-37788488D01*
X33755728Y-37788089D01*
X33040872Y-37787612D01*
X32337532Y-37787059D01*
X31647439Y-37786428D01*
X30972323Y-37785719D01*
X30313916Y-37784933D01*
X29673949Y-37784070D01*
X29054152Y-37783129D01*
X28456257Y-37782111D01*
X27881995Y-37781015D01*
X27333097Y-37779842D01*
X26811293Y-37778592D01*
X26318315Y-37777264D01*
X25855894Y-37775859D01*
X25425761Y-37774376D01*
X25029646Y-37772816D01*
X24669281Y-37771179D01*
X24346396Y-37769464D01*
X24062724Y-37767671D01*
X23819993Y-37765802D01*
X23619937Y-37763855D01*
X23464285Y-37761830D01*
X23354769Y-37759728D01*
X23293119Y-37757549D01*
X23279384Y-37755990D01*
X23276236Y-37727774D01*
X23273567Y-37659470D01*
X23375815Y-37659470D01*
X52484392Y-37659470D01*
X52471604Y-23295770D01*
X23388604Y-23295770D01*
X23382209Y-30477620D01*
X23375815Y-37659470D01*
X23273567Y-37659470D01*
X23273245Y-37651219D01*
X23270410Y-37528786D01*
G37*
G04 #@! TD*
M02*
