G04 #@! TF.GenerationSoftware,KiCad,Pcbnew,6.0.7-f9a2dced07~116~ubuntu22.04.1*
G04 #@! TF.CreationDate,2022-09-03T08:45:22-04:00*
G04 #@! TF.ProjectId,clock_b2,636c6f63-6b5f-4623-922e-6b696361645f,rev?*
G04 #@! TF.SameCoordinates,Original*
G04 #@! TF.FileFunction,Soldermask,Bot*
G04 #@! TF.FilePolarity,Negative*
%FSLAX46Y46*%
G04 Gerber Fmt 4.6, Leading zero omitted, Abs format (unit mm)*
G04 Created by KiCad (PCBNEW 6.0.7-f9a2dced07~116~ubuntu22.04.1) date 2022-09-03 08:45:22*
%MOMM*%
%LPD*%
G01*
G04 APERTURE LIST*
G04 Aperture macros list*
%AMRoundRect*
0 Rectangle with rounded corners*
0 $1 Rounding radius*
0 $2 $3 $4 $5 $6 $7 $8 $9 X,Y pos of 4 corners*
0 Add a 4 corners polygon primitive as box body*
4,1,4,$2,$3,$4,$5,$6,$7,$8,$9,$2,$3,0*
0 Add four circle primitives for the rounded corners*
1,1,$1+$1,$2,$3*
1,1,$1+$1,$4,$5*
1,1,$1+$1,$6,$7*
1,1,$1+$1,$8,$9*
0 Add four rect primitives between the rounded corners*
20,1,$1+$1,$2,$3,$4,$5,0*
20,1,$1+$1,$4,$5,$6,$7,0*
20,1,$1+$1,$6,$7,$8,$9,0*
20,1,$1+$1,$8,$9,$2,$3,0*%
%AMFreePoly0*
4,1,22,0.550000,-0.750000,0.000000,-0.750000,0.000000,-0.745033,-0.079941,-0.743568,-0.215256,-0.701293,-0.333266,-0.622738,-0.424486,-0.514219,-0.481581,-0.384460,-0.499164,-0.250000,-0.500000,-0.250000,-0.500000,0.250000,-0.499164,0.250000,-0.499963,0.256109,-0.478152,0.396186,-0.417904,0.524511,-0.324060,0.630769,-0.204165,0.706417,-0.067858,0.745374,0.000000,0.744959,0.000000,0.750000,
0.550000,0.750000,0.550000,-0.750000,0.550000,-0.750000,$1*%
%AMFreePoly1*
4,1,20,0.000000,0.744959,0.073905,0.744508,0.209726,0.703889,0.328688,0.626782,0.421226,0.519385,0.479903,0.390333,0.500000,0.250000,0.500000,-0.250000,0.499851,-0.262216,0.476331,-0.402017,0.414519,-0.529596,0.319384,-0.634700,0.198574,-0.708877,0.061801,-0.746166,0.000000,-0.745033,0.000000,-0.750000,-0.550000,-0.750000,-0.550000,0.750000,0.000000,0.750000,0.000000,0.744959,
0.000000,0.744959,$1*%
G04 Aperture macros list end*
%ADD10O,3.810000X2.006600*%
%ADD11C,3.200000*%
%ADD12R,2.000000X2.000000*%
%ADD13C,2.000000*%
%ADD14R,3.000000X2.500000*%
%ADD15R,1.700000X1.700000*%
%ADD16O,1.700000X1.700000*%
%ADD17RoundRect,0.250000X-0.600000X0.600000X-0.600000X-0.600000X0.600000X-0.600000X0.600000X0.600000X0*%
%ADD18C,1.700000*%
%ADD19C,1.400000*%
%ADD20O,1.400000X1.400000*%
%ADD21C,1.600000*%
%ADD22FreePoly0,180.000000*%
%ADD23R,1.000000X1.500000*%
%ADD24FreePoly1,180.000000*%
%ADD25FreePoly0,0.000000*%
%ADD26FreePoly1,0.000000*%
G04 APERTURE END LIST*
D10*
G04 #@! TO.C,SW1*
X31751600Y-98010800D03*
X44248400Y-98010800D03*
X31751600Y-102989200D03*
X44248400Y-102989200D03*
G04 #@! TD*
D11*
G04 #@! TO.C,H1*
X49000000Y-59000000D03*
G04 #@! TD*
D12*
G04 #@! TO.C,SW2*
X30520000Y-67990000D03*
D13*
X30520000Y-72990000D03*
X30520000Y-70490000D03*
D14*
X38020000Y-64790000D03*
X38020000Y-76190000D03*
D13*
X45020000Y-67990000D03*
X45020000Y-72990000D03*
G04 #@! TD*
D15*
G04 #@! TO.C,OLED1*
X34200000Y-17680000D03*
D16*
X36740000Y-17680000D03*
X39280000Y-17680000D03*
X41820000Y-17680000D03*
G04 #@! TD*
D11*
G04 #@! TO.C,H2*
X18000000Y-80500000D03*
G04 #@! TD*
D17*
G04 #@! TO.C,J1*
X22770000Y-55030000D03*
D18*
X22770000Y-57570000D03*
X25310000Y-55030000D03*
X25310000Y-57570000D03*
X27850000Y-55030000D03*
X27850000Y-57570000D03*
X30390000Y-55030000D03*
X30390000Y-57570000D03*
G04 #@! TD*
D19*
G04 #@! TO.C,R6*
X26910000Y-67730000D03*
D20*
X19290000Y-67730000D03*
G04 #@! TD*
D21*
G04 #@! TO.C,C1*
X52270000Y-100830000D03*
X49770000Y-100830000D03*
G04 #@! TD*
D22*
G04 #@! TO.C,JP2*
X37715000Y-22090000D03*
D23*
X36415000Y-22090000D03*
D24*
X35115000Y-22090000D03*
G04 #@! TD*
D25*
G04 #@! TO.C,JP1*
X30035000Y-22090000D03*
D23*
X31335000Y-22090000D03*
D26*
X32635000Y-22090000D03*
G04 #@! TD*
D19*
G04 #@! TO.C,R8*
X51040000Y-67810000D03*
D20*
X58660000Y-67810000D03*
G04 #@! TD*
D19*
G04 #@! TO.C,R7*
X26910000Y-85590000D03*
D20*
X19290000Y-85590000D03*
G04 #@! TD*
D19*
G04 #@! TO.C,R2*
X49770000Y-97020000D03*
D20*
X57390000Y-97020000D03*
G04 #@! TD*
D19*
G04 #@! TO.C,R1*
X57390000Y-93210000D03*
D20*
X49770000Y-93210000D03*
G04 #@! TD*
D19*
G04 #@! TO.C,R5*
X58660000Y-64000000D03*
D20*
X51040000Y-64000000D03*
G04 #@! TD*
D21*
G04 #@! TO.C,C2*
X19290000Y-71540000D03*
X21790000Y-71540000D03*
G04 #@! TD*
G04 #@! TO.C,C4*
X58660000Y-71620000D03*
X56160000Y-71620000D03*
G04 #@! TD*
G04 #@! TO.C,C3*
X24370000Y-80510000D03*
X26870000Y-80510000D03*
G04 #@! TD*
D19*
G04 #@! TO.C,R3*
X19290000Y-63920000D03*
D20*
X26910000Y-63920000D03*
G04 #@! TD*
D19*
G04 #@! TO.C,R4*
X19290000Y-75350000D03*
D20*
X26910000Y-75350000D03*
G04 #@! TD*
M02*
