M48
; DRILL file {KiCad 6.0.9-8da3e8f707~116~ubuntu22.04.1} date Tue Nov  8 11:41:05 2022
; FORMAT={-:-/ absolute / metric / decimal}
; #@! TF.CreationDate,2022-11-08T11:41:05-05:00
; #@! TF.GenerationSoftware,Kicad,Pcbnew,6.0.9-8da3e8f707~116~ubuntu22.04.1
; #@! TF.FileFunction,MixedPlating,1,2
FMAT,2
METRIC
; #@! TA.AperFunction,Plated,PTH,ComponentDrill
T1C0.700
; #@! TA.AperFunction,Plated,PTH,ComponentDrill
T2C0.800
; #@! TA.AperFunction,Plated,PTH,ComponentDrill
T3C0.900
; #@! TA.AperFunction,Plated,PTH,ComponentDrill
T4C1.000
; #@! TA.AperFunction,Plated,PTH,ComponentDrill
T5C1.016
; #@! TA.AperFunction,Plated,PTH,ComponentDrill
T6C1.100
; #@! TA.AperFunction,NonPlated,NPTH,ComponentDrill
T7C3.200
%
G90
G05
T1
X16.42Y-61.4
X16.42Y-67.75
X16.42Y-74.1
X17.69Y-86.8
X17.69Y-112.2
X17.69Y-136.965
X25.31Y-86.8
X25.31Y-112.2
X25.31Y-136.965
X28.485Y-86.8
X28.485Y-112.2
X28.485Y-136.965
X36.105Y-86.8
X36.105Y-112.2
X36.105Y-136.965
X39.915Y-86.8
X39.915Y-112.2
X39.915Y-136.965
X47.535Y-86.8
X47.535Y-112.2
X47.535Y-136.965
X50.71Y-86.8
X50.71Y-112.2
X50.71Y-136.965
X58.33Y-86.8
X58.33Y-112.2
X58.33Y-136.965
T2
X24.05Y-56.32
X24.05Y-58.86
X24.05Y-61.4
X24.05Y-63.94
X24.05Y-66.48
X24.05Y-69.02
X24.05Y-71.56
X29.16Y-75.37
X31.66Y-75.37
X31.67Y-56.32
X31.67Y-58.86
X31.67Y-61.4
X31.67Y-63.94
X31.67Y-66.48
X31.67Y-69.02
X31.67Y-71.56
X40.59Y-66.48
X41.195Y-22.03
X41.195Y-24.57
X41.195Y-27.11
X41.195Y-29.65
X41.195Y-32.19
X41.195Y-34.73
X41.195Y-37.27
X41.195Y-39.81
X41.195Y-42.35
X41.195Y-44.89
X41.195Y-47.43
X41.195Y-49.97
X41.195Y-52.51
X41.195Y-55.05
X41.195Y-57.59
X43.09Y-66.48
X56.435Y-22.03
X56.435Y-24.57
X56.435Y-27.11
X56.435Y-29.65
X56.435Y-32.19
X56.435Y-34.73
X56.435Y-37.27
X56.435Y-39.81
X56.435Y-42.35
X56.435Y-44.89
X56.435Y-47.43
X56.435Y-49.97
X56.435Y-52.51
X56.435Y-55.05
X56.435Y-57.59
T3
X36.725Y-92.5
X36.725Y-102.5
X36.725Y-117.5
X36.725Y-127.5
X36.725Y-142.5
X36.725Y-152.5
X39.265Y-92.5
X39.265Y-102.5
X39.265Y-117.5
X39.265Y-127.5
X39.265Y-142.5
X39.265Y-152.5
T4
X22.77Y-42.35
X22.77Y-44.89
X25.31Y-42.35
X25.31Y-44.89
X27.85Y-42.35
X27.85Y-44.89
X30.39Y-42.35
X30.39Y-44.89
T5
X41.82Y-74.1
X41.82Y-76.64
X44.36Y-74.1
X44.36Y-76.64
X46.9Y-74.1
X46.9Y-76.64
X49.44Y-74.1
X49.44Y-76.64
X51.98Y-74.1
X51.98Y-76.64
T6
X17.69Y-83.625
X17.69Y-108.39
X17.69Y-133.79
X27.85Y-83.625
X27.85Y-108.39
X27.85Y-133.79
X48.17Y-66.48
X48.17Y-83.625
X48.17Y-108.39
X48.17Y-133.79
X58.33Y-66.48
X58.33Y-83.625
X58.33Y-108.39
X58.33Y-133.79
T7
X18.0Y-52.5
X49.0Y-31.0
T4
X19.1Y-94.15G85X19.1Y-95.85
G05
X19.1Y-119.15G85X19.1Y-120.85
G05
X19.1Y-144.15G85X19.1Y-145.85
G05
X20.159Y-101.639G85X21.361Y-102.841
G05
X20.159Y-126.639G85X21.361Y-127.841
G05
X20.159Y-151.639G85X21.361Y-152.841
G05
X25.85Y-91.1G85X24.15Y-91.1
G05
X25.85Y-116.1G85X24.15Y-116.1
G05
X25.85Y-141.1G85X24.15Y-141.1
G05
X28.85Y-103.9G85X27.15Y-103.9
G05
X28.85Y-128.9G85X27.15Y-128.9
G05
X28.85Y-153.9G85X27.15Y-153.9
G05
X31.9Y-97.15G85X31.9Y-98.85
G05
X31.9Y-122.15G85X31.9Y-123.85
G05
X31.9Y-147.15G85X31.9Y-148.85
G05
X44.1Y-94.15G85X44.1Y-95.85
G05
X44.1Y-119.15G85X44.1Y-120.85
G05
X44.1Y-144.15G85X44.1Y-145.85
G05
X45.159Y-101.639G85X46.361Y-102.841
G05
X45.159Y-126.639G85X46.361Y-127.841
G05
X45.159Y-151.639G85X46.361Y-152.841
G05
X50.85Y-91.1G85X49.15Y-91.1
G05
X50.85Y-116.1G85X49.15Y-116.1
G05
X50.85Y-141.1G85X49.15Y-141.1
G05
X53.85Y-103.9G85X52.15Y-103.9
G05
X53.85Y-128.9G85X52.15Y-128.9
G05
X53.85Y-153.9G85X52.15Y-153.9
G05
X56.9Y-97.15G85X56.9Y-98.85
G05
X56.9Y-122.15G85X56.9Y-123.85
G05
X56.9Y-147.15G85X56.9Y-148.85
G05
T0
M30
