G04 #@! TF.GenerationSoftware,KiCad,Pcbnew,6.0.7-f9a2dced07~116~ubuntu22.04.1*
G04 #@! TF.CreationDate,2022-09-03T08:45:20-04:00*
G04 #@! TF.ProjectId,clock_b1,636c6f63-6b5f-4623-912e-6b696361645f,rev?*
G04 #@! TF.SameCoordinates,Original*
G04 #@! TF.FileFunction,Soldermask,Bot*
G04 #@! TF.FilePolarity,Negative*
%FSLAX46Y46*%
G04 Gerber Fmt 4.6, Leading zero omitted, Abs format (unit mm)*
G04 Created by KiCad (PCBNEW 6.0.7-f9a2dced07~116~ubuntu22.04.1) date 2022-09-03 08:45:20*
%MOMM*%
%LPD*%
G01*
G04 APERTURE LIST*
G04 Aperture macros list*
%AMRoundRect*
0 Rectangle with rounded corners*
0 $1 Rounding radius*
0 $2 $3 $4 $5 $6 $7 $8 $9 X,Y pos of 4 corners*
0 Add a 4 corners polygon primitive as box body*
4,1,4,$2,$3,$4,$5,$6,$7,$8,$9,$2,$3,0*
0 Add four circle primitives for the rounded corners*
1,1,$1+$1,$2,$3*
1,1,$1+$1,$4,$5*
1,1,$1+$1,$6,$7*
1,1,$1+$1,$8,$9*
0 Add four rect primitives between the rounded corners*
20,1,$1+$1,$2,$3,$4,$5,0*
20,1,$1+$1,$4,$5,$6,$7,0*
20,1,$1+$1,$6,$7,$8,$9,0*
20,1,$1+$1,$8,$9,$2,$3,0*%
%AMRotRect*
0 Rectangle, with rotation*
0 The origin of the aperture is its center*
0 $1 length*
0 $2 width*
0 $3 Rotation angle, in degrees counterclockwise*
0 Add horizontal line*
21,1,$1,$2,0,0,$3*%
G04 Aperture macros list end*
%ADD10R,1.800000X1.800000*%
%ADD11C,1.800000*%
%ADD12O,2.500000X4.500001*%
%ADD13O,4.500001X2.500001*%
%ADD14RotRect,4.500001X2.500001X315.000000*%
%ADD15O,4.500000X2.500000*%
%ADD16O,2.500000X4.500000*%
%ADD17C,3.200000*%
%ADD18R,2.200000X2.200000*%
%ADD19O,2.200000X2.200000*%
%ADD20C,1.500000*%
%ADD21C,1.400000*%
%ADD22O,1.400000X1.400000*%
%ADD23R,1.600000X1.600000*%
%ADD24O,1.600000X1.600000*%
%ADD25R,2.400000X1.600000*%
%ADD26O,2.400000X1.600000*%
%ADD27R,1.727200X1.727200*%
%ADD28O,1.727200X1.727200*%
%ADD29C,1.600000*%
%ADD30RoundRect,0.250000X-0.600000X0.600000X-0.600000X-0.600000X0.600000X-0.600000X0.600000X0.600000X0*%
%ADD31C,1.700000*%
G04 APERTURE END LIST*
D10*
G04 #@! TO.C,D9*
X36725000Y-102500000D03*
D11*
X39265000Y-102500000D03*
G04 #@! TD*
D12*
G04 #@! TO.C,J7*
X56900000Y-123000000D03*
D13*
X53000000Y-128900000D03*
D14*
X45760000Y-127240000D03*
D15*
X50000000Y-116100000D03*
D16*
X44100000Y-120000000D03*
G04 #@! TD*
D12*
G04 #@! TO.C,J9*
X56900000Y-148000000D03*
D13*
X53000000Y-153900000D03*
D14*
X45760000Y-152240000D03*
D15*
X50000000Y-141100000D03*
D16*
X44100000Y-145000000D03*
G04 #@! TD*
D12*
G04 #@! TO.C,J4*
X31900000Y-98000000D03*
D13*
X28000000Y-103900000D03*
D14*
X20760000Y-102240000D03*
D15*
X25000000Y-91100000D03*
D16*
X19100000Y-95000000D03*
G04 #@! TD*
D12*
G04 #@! TO.C,J8*
X31900000Y-148000000D03*
D13*
X28000000Y-153900000D03*
D14*
X20760000Y-152240000D03*
D15*
X25000000Y-141100000D03*
D16*
X19100000Y-145000000D03*
G04 #@! TD*
D10*
G04 #@! TO.C,D12*
X36725000Y-142500000D03*
D11*
X39265000Y-142500000D03*
G04 #@! TD*
D10*
G04 #@! TO.C,D11*
X36725000Y-127500000D03*
D11*
X39265000Y-127500000D03*
G04 #@! TD*
D10*
G04 #@! TO.C,D13*
X36725000Y-152500000D03*
D11*
X39265000Y-152500000D03*
G04 #@! TD*
D12*
G04 #@! TO.C,J5*
X56900000Y-98000000D03*
D13*
X53000000Y-103900000D03*
D14*
X45760000Y-102240000D03*
D15*
X50000000Y-91100000D03*
D16*
X44100000Y-95000000D03*
G04 #@! TD*
D12*
G04 #@! TO.C,J6*
X31900000Y-123000000D03*
D13*
X28000000Y-128900000D03*
D14*
X20760000Y-127240000D03*
D15*
X25000000Y-116100000D03*
D16*
X19100000Y-120000000D03*
G04 #@! TD*
D10*
G04 #@! TO.C,D8*
X36725000Y-92500000D03*
D11*
X39265000Y-92500000D03*
G04 #@! TD*
D10*
G04 #@! TO.C,D10*
X36725000Y-117500000D03*
D11*
X39265000Y-117500000D03*
G04 #@! TD*
D17*
G04 #@! TO.C,H4*
X18000000Y-52500000D03*
G04 #@! TD*
D18*
G04 #@! TO.C,D6*
X27850000Y-133790000D03*
D19*
X17690000Y-133790000D03*
G04 #@! TD*
D18*
G04 #@! TO.C,D7*
X48170000Y-133790000D03*
D19*
X58330000Y-133790000D03*
G04 #@! TD*
D20*
G04 #@! TO.C,TP1*
X16420000Y-74100000D03*
G04 #@! TD*
D18*
G04 #@! TO.C,D2*
X27850000Y-83625000D03*
D19*
X17690000Y-83625000D03*
G04 #@! TD*
D21*
G04 #@! TO.C,R11*
X36105000Y-112200000D03*
D22*
X28485000Y-112200000D03*
G04 #@! TD*
D21*
G04 #@! TO.C,R17*
X25310000Y-112200000D03*
D22*
X17690000Y-112200000D03*
G04 #@! TD*
D21*
G04 #@! TO.C,R19*
X25310000Y-136965000D03*
D22*
X17690000Y-136965000D03*
G04 #@! TD*
D20*
G04 #@! TO.C,TP3*
X16420000Y-61400000D03*
G04 #@! TD*
D18*
G04 #@! TO.C,D1*
X48170000Y-66480000D03*
D19*
X58330000Y-66480000D03*
G04 #@! TD*
D21*
G04 #@! TO.C,R10*
X39915000Y-86800000D03*
D22*
X47535000Y-86800000D03*
G04 #@! TD*
D21*
G04 #@! TO.C,R15*
X25310000Y-86800000D03*
D22*
X17690000Y-86800000D03*
G04 #@! TD*
D23*
G04 #@! TO.C,A1*
X41195000Y-57590000D03*
D24*
X41195000Y-55050000D03*
X41195000Y-52510000D03*
X41195000Y-49970000D03*
X41195000Y-47430000D03*
X41195000Y-44890000D03*
X41195000Y-42350000D03*
X41195000Y-39810000D03*
X41195000Y-37270000D03*
X41195000Y-34730000D03*
X41195000Y-32190000D03*
X41195000Y-29650000D03*
X41195000Y-27110000D03*
X41195000Y-24570000D03*
X41195000Y-22030000D03*
X56435000Y-22030000D03*
X56435000Y-24570000D03*
X56435000Y-27110000D03*
X56435000Y-29650000D03*
X56435000Y-32190000D03*
X56435000Y-34730000D03*
X56435000Y-37270000D03*
X56435000Y-39810000D03*
X56435000Y-42350000D03*
X56435000Y-44890000D03*
X56435000Y-47430000D03*
X56435000Y-49970000D03*
X56435000Y-52510000D03*
X56435000Y-55050000D03*
X56435000Y-57590000D03*
G04 #@! TD*
D21*
G04 #@! TO.C,R16*
X50710000Y-86800000D03*
D22*
X58330000Y-86800000D03*
G04 #@! TD*
D25*
G04 #@! TO.C,U1*
X24050000Y-71560000D03*
D26*
X24050000Y-69020000D03*
X24050000Y-66480000D03*
X24050000Y-63940000D03*
X24050000Y-61400000D03*
X24050000Y-58860000D03*
X24050000Y-56320000D03*
X31670000Y-56320000D03*
X31670000Y-58860000D03*
X31670000Y-61400000D03*
X31670000Y-63940000D03*
X31670000Y-66480000D03*
X31670000Y-69020000D03*
X31670000Y-71560000D03*
G04 #@! TD*
D27*
G04 #@! TO.C,J2*
X41820000Y-74100000D03*
D28*
X41820000Y-76640000D03*
X44360000Y-74100000D03*
X44360000Y-76640000D03*
X46900000Y-74100000D03*
X46900000Y-76640000D03*
X49440000Y-74100000D03*
X49440000Y-76640000D03*
X51980000Y-74100000D03*
X51980000Y-76640000D03*
G04 #@! TD*
D17*
G04 #@! TO.C,H3*
X49000000Y-31000000D03*
G04 #@! TD*
D18*
G04 #@! TO.C,D5*
X48170000Y-108390000D03*
D19*
X58330000Y-108390000D03*
G04 #@! TD*
D20*
G04 #@! TO.C,TP2*
X16420000Y-67750000D03*
G04 #@! TD*
D21*
G04 #@! TO.C,R13*
X36105000Y-136965000D03*
D22*
X28485000Y-136965000D03*
G04 #@! TD*
D21*
G04 #@! TO.C,R20*
X50710000Y-136965000D03*
D22*
X58330000Y-136965000D03*
G04 #@! TD*
D23*
G04 #@! TO.C,C5*
X43090000Y-66480000D03*
D29*
X40590000Y-66480000D03*
G04 #@! TD*
D21*
G04 #@! TO.C,R9*
X36105000Y-86800000D03*
D22*
X28485000Y-86800000D03*
G04 #@! TD*
D21*
G04 #@! TO.C,R12*
X39915000Y-112200000D03*
D22*
X47535000Y-112200000D03*
G04 #@! TD*
D18*
G04 #@! TO.C,D4*
X27850000Y-108390000D03*
D19*
X17690000Y-108390000D03*
G04 #@! TD*
D21*
G04 #@! TO.C,R18*
X50710000Y-112200000D03*
D22*
X58330000Y-112200000D03*
G04 #@! TD*
D21*
G04 #@! TO.C,R14*
X39915000Y-136965000D03*
D22*
X47535000Y-136965000D03*
G04 #@! TD*
D29*
G04 #@! TO.C,C6*
X31660000Y-75370000D03*
X29160000Y-75370000D03*
G04 #@! TD*
D18*
G04 #@! TO.C,D3*
X48170000Y-83625000D03*
D19*
X58330000Y-83625000D03*
G04 #@! TD*
D30*
G04 #@! TO.C,J3*
X22770000Y-42350000D03*
D31*
X22770000Y-44890000D03*
X25310000Y-42350000D03*
X25310000Y-44890000D03*
X27850000Y-42350000D03*
X27850000Y-44890000D03*
X30390000Y-42350000D03*
X30390000Y-44890000D03*
G04 #@! TD*
M02*
